<?xml version="1.0" encoding="utf-8"?>
<!-- Generator: Adobe Illustrator 22.1.0, SVG Export Plug-In . SVG Version: 6.00 Build 0)  -->
<svg version="1.1" id="Layer_1" xmlns="http://www.w3.org/2000/svg" xmlns:xlink="http://www.w3.org/1999/xlink" x="0px" y="0px"
	 viewBox="0 0 462.6 184.3" style="enable-background:new 0 0 462.6 184.3;" xml:space="preserve">
<style type="text/css">
	.st0{fill-rule:evenodd;clip-rule:evenodd;fill:#FFFFFF;}
	.st1{fill:#FFFFFF;}
</style>
<g>
	<g>
		<path class="st0" d="M182,69.7c1.8,7.3,2.8,14.9,2.8,22.7c0,48-36.6,87.5-83.5,92c0.4,0,0.7-0.1,1.1-0.1c0-17.6-0.1-39.9-0.2-55.3
			h61l-7.9-31.2h-53c0.1-4.3,0.1-8.5,0.2-12.7c0.2-7.2,2-13.8,11.1-14.5C134.7,68.7,160.1,69.5,182,69.7 M92.4,0
			c48.1,0,73.7,36.7,73.3,36.2c-21.6-0.4-62.4-3.3-77.5,3.4C71.3,47,70.9,57.6,70.6,76.7c-0.2,11.6,0,23.9,0.1,31.1
			c0.2,25.7,0,59.3-0.1,74.4c0.5,0.1,1.1,0.3,1.6,0.4C30.9,173.4,0,136.5,0,92.4C0,41.4,41.4,0,92.4,0z"/>
	</g>
	<g>
		<g>
			<path class="st1" d="M261.3,43.6h-30.3v13.6h27.9v13.8h-27.9v31.1h-18.1V29.8h48.4V43.6z"/>
			<path class="st1" d="M318.9,102.1h-48.3V29.8h18.2v58.5h30.1V102.1z"/>
			<path class="st1" d="M356.8,103.6c-9.7,0-17.2-2.3-22.4-7c-5.2-4.7-7.8-11.6-7.8-20.6V29.8h18.2v45.1c0,5,0.9,8.8,2.8,11.2
				c1.9,2.5,5,3.7,9.2,3.7c4.2,0,7.2-1.2,9.2-3.5c2-2.4,2.9-6.1,2.9-11.4V29.8h18.2V76c0,8.9-2.5,15.7-7.6,20.5
				C374.3,101.3,366.8,103.6,356.8,103.6z"/>
			<path class="st1" d="M462.2,102.1h-21.1l-13.9-23.1L413,102.1h-20.1l23.5-36.4l-22.5-35.9h21l13,21.8l13.4-21.8h20.2L438.7,65
				L462.2,102.1z"/>
		</g>
		<g>
			<g>
				<path class="st1" d="M225.7,116.8v3.3h-4.5V146h-3.9v-25.9h-4.5v-3.3H225.7z"/>
			</g>
			<g>
				<path class="st1" d="M244.8,139.2c-0.1,4.8-2,7-6,7c-4.2,0-6.2-3.3-6.2-9.9c0-7.2,2.2-10.8,6.5-10.8c1.6,0,2.9,0.5,4,1.6
					c1.5,1.6,2,3.5,2,7.9v1.5h-8.5c0,5.1,0.6,6.6,2.6,6.6c1.6,0,2.2-1,2.2-4H244.8z M241.2,133.7c0-4.1-0.6-5.6-2.2-5.6
					c-1.8,0-2.4,1.4-2.4,5.6H241.2z"/>
			</g>
			<g>
				<path class="st1" d="M265.7,145.4c-1.5,0.7-2.3,0.9-3.4,0.9c-4.1,0-5.9-3.2-5.9-10.5c0-4.3,0.7-6.9,2.3-8.5
					c1-1.1,2.4-1.7,3.8-1.7c0.8,0,1.7,0.2,3.2,0.7v3.2c-1-0.5-1.5-0.6-2.1-0.6c-2.2,0-3.1,2.3-3.1,7.3c0,4.6,0.9,6.8,3,6.8
					c0.7,0,1.2-0.2,2.3-0.7V145.4z"/>
			</g>
			<g>
				<path class="st1" d="M280.3,115.8v11.8c1.4-1.4,2.7-2,4.1-2c2.8,0,4.3,1.6,4.3,4.6V146H285v-14.6c0-1.9-0.8-2.9-2.3-2.9
					c-1.6,0-2.4,1-2.4,3.2V146h-3.8v-30.2H280.3z"/>
			</g>
			<g>
				<path class="st1" d="M304.3,127.8L304.3,127.8c1-1.4,2.5-2.2,4-2.2c2.9,0,4.4,1.6,4.4,4.7V146h-3.7v-14.6c0-1.9-0.8-3-2.3-3
					c-1.5,0-2.4,1.1-2.4,3V146h-3.8v-20.1h3.8V127.8z"/>
			</g>
			<g>
				<path class="st1" d="M334.7,127.2c1.7,1.7,2.4,4.1,2.4,9.1c0,3.6-0.4,5.9-1.5,7.5c-1,1.6-2.8,2.5-4.8,2.5
					c-4.4,0-6.5-3.2-6.5-10.2c0-5.3,0.8-7.8,2.9-9.4c0.9-0.7,2.3-1.1,3.5-1.1h0.1C332.4,125.7,333.7,126.1,334.7,127.2z
					 M328.3,134.4c0,4,0.2,6.5,0.6,7.4s1,1.4,1.9,1.4c1.8,0,2.3-1.5,2.3-6.1c0-6.8-0.5-8.5-2.4-8.5
					C328.9,128.7,328.3,130.2,328.3,134.4z"/>
			</g>
			<g>
				<path class="st1" d="M352.6,115.7V146h-3.8v-30.3H352.6z"/>
			</g>
			<g>
				<path class="st1" d="M374.5,127.2c1.7,1.7,2.4,4.1,2.4,9.1c0,3.6-0.4,5.9-1.5,7.5c-1,1.6-2.8,2.5-4.8,2.5
					c-4.4,0-6.5-3.2-6.5-10.2c0-5.3,0.8-7.8,2.9-9.4c0.9-0.7,2.3-1.1,3.5-1.1h0.1C372.3,125.7,373.5,126.1,374.5,127.2z
					 M368.1,134.4c0,4,0.2,6.5,0.6,7.4s1,1.4,1.9,1.4c1.8,0,2.3-1.5,2.3-6.1c0-6.8-0.5-8.5-2.4-8.5
					C368.7,128.7,368.1,130.2,368.1,134.4z"/>
			</g>
			<g>
				<path class="st1" d="M396.1,143.3L396.1,143.3c-0.8,1.9-2.2,3-4,3c-1.6,0-2.8-0.8-3.6-2.4c-0.8-1.5-1-3.9-1-8.3
					c0-5,0.4-7.3,1.6-8.6c0.8-0.9,1.7-1.3,3-1.3c1.8,0,2.6,0.5,3.9,2.3h0.1v-2h3.7v22.6c0,4.1-1.8,6-6.1,6c-3.2,0-5-0.8-5.7-2.6
					c-0.4-0.9-0.5-1.6-0.5-3.4h3.6c0.1,2.3,0.9,3.3,2.5,3.3c1.6,0,2.4-0.9,2.4-2.4V143.3z M391.4,134.9c0,6.3,0.5,7.9,2.4,7.9
					c1.7,0,2.3-1.6,2.3-6.2c0-6.4-0.4-7.9-2.3-7.9C392.2,128.7,391.4,130.4,391.4,134.9z"/>
			</g>
			<g>
				<path class="st1" d="M415.9,119.8c0,1.1-0.9,2.1-2.1,2.1c-1.2,0-2.1-0.9-2.1-2.1s0.9-2.1,2.1-2.1S415.9,118.7,415.9,119.8z
					 M415.6,125.9V146h-3.7v-20.1H415.6z"/>
			</g>
			<g>
				<path class="st1" d="M439.6,139.2c-0.1,4.8-2,7-6,7c-4.2,0-6.3-3.3-6.3-9.9c0-7.2,2.2-10.8,6.5-10.8c1.6,0,2.9,0.5,4,1.6
					c1.5,1.6,2,3.5,2,7.9v1.5h-8.5c0,5.1,0.6,6.6,2.6,6.6c1.6,0,2.2-1,2.2-4H439.6z M436,133.7c0-4.1-0.6-5.6-2.2-5.6
					c-1.8,0-2.4,1.4-2.4,5.6H436z"/>
			</g>
			<g>
				<path class="st1" d="M453.1,142.3c1.8,0.7,2.4,0.8,3.5,0.8c1.5,0,2.3-0.8,2.3-2.2c0-1.2-0.7-2.1-3.2-4.3
					c-0.3-0.2-0.5-0.4-0.8-0.7c-1.7-1.7-2.4-3-2.4-4.9c0-3.1,2.3-5.5,5.5-5.5c0.9,0,2.1,0.2,3.6,0.8v3.1l-0.2-0.1
					c-1.2-0.4-2-0.6-2.7-0.6c-1.6,0-2.6,0.8-2.6,2.2c0,1.1,0.7,2,2.7,3.7c0.8,0.7,1,0.9,1.6,1.5c1.6,1.6,2.2,3,2.2,4.7
					c0,3.2-2.4,5.5-5.7,5.5c-1.3,0-2-0.2-3.8-0.8V142.3z"/>
			</g>
		</g>
	</g>
</g>
</svg>
