<?xml version="1.0" encoding="utf-8"?>
<!-- Generator: Adobe Illustrator 22.1.0, SVG Export Plug-In . SVG Version: 6.00 Build 0)  -->
<svg version="1.1" id="Layer_1" xmlns="http://www.w3.org/2000/svg" xmlns:xlink="http://www.w3.org/1999/xlink" x="0px" y="0px"
	 viewBox="0 0 404.4 134.4" style="enable-background:new 0 0 404.4 134.4;" xml:space="preserve">
<style type="text/css">
	.st0{fill:#FFFFFF;}
</style>
<g>
	<path class="st0" d="M360.9,48.8c2-1.7,23.5-5.6,43.5-7.8c-18.3-0.7-29-0.5-40.4,0c1.4-3.8,9.3-21.8,13.5-28.9
		c0.8-1.3,0.8-5.5-2.3-6.5c-3.8-1.2-7,3.4-8,5.1c-4.6,7.7-6,11-15.2,30.6c-21.4,1.2-38.2,7.5-32.7,37.7c1.4,7.9,0.6,15-5.4,17.6
		c-1.7,0.7-4.7,0.8-6-0.1c-1.1-0.8-1.5-2.7,0.9-6.3c2-3,7.1-8.6,9.4-11.4c-3,1.1-16.7,15.6-18.4,17.1c-1.5,1.3-5.2,4.1-7.7,2.5
		c-2.3-1.5-2.7-5.6-3.6-8.6c-0.3-1.1-0.1-3.5,0.3-4.7c1.4-3.6,1.4-7-1-8.6c-2.1-1.4-4.9-1-7.2-0.4c-9.9,2.5-29.8,15.6-30.9,16.2
		c0.6-7.8,13.4-19,22.2-23.6c2.9-1.5,7.9-1.4,10.8,1c1.4,1.2,4.2,0.8,5.3-0.1c1-0.9,1.2-3.7,0.7-5.3c-2.1-6.4-8.2-8.7-15.1-5.8
		c-15.7,6.6-26.1,17.3-35.1,31.4c-2.4,3.8-3.1,8.6-0.3,12.3c2.9,3.8,8,1.9,10.8,0.5c6.9-3.5,11.1-7.2,18.2-11
		c9.9-5.3,9.4-3.9,12.3,3c0.3,0.6,0.5,1.2,0.8,1.8c4.5,9.5,13.4,10.5,19.8,4c0.6-0.6,3.1-3.6,3.1-3.6c-0.7,4.1,1.8,7,4.1,7.9
		c7.1,2.7,16.9-1.2,20.9-7.7c3.9-6.3,2.3-12.8,0.9-19.4c-3.3-16.4,2-24.1,19.7-26.2c-1.1,3.4-2.9,8.3-4,11.5
		c-1.1,3.5-2.6,6.9-3.3,10.5c-1.5,7-3.4,14-3.8,21c-0.4,8.7,5.5,12.8,13.9,10.5c7.8-2.2,17.3-11.1,22.4-17.7
		c-6.7,4.9-13.8,7.7-17.8,8.3c-4.6,0.6-8.5-1.7-6.9-8.5C350.6,82,359.7,49.8,360.9,48.8"/>
	<path class="st0" d="M253.3,55.4c7.9-1.7,31.2-5,48.7-6.5c-7.8-0.4-38.7-0.6-46.5-0.6c-3.1,0-6-0.5-4.6-4.7
		c3.7-10.6,10.5-26.3,13-28.6c3.5-3.2,7.1-2.6,10,0.8c1,1.2,2.4,2.3,3.8,1.4c2-1.3,2.6-5.1,2.3-7.1c-1.3-8.7-10.9-10.7-18.7-6.7
		c-14.2,7.3-17.3,34.1-25.5,45c-1.1,1.5-4.6,3.1-7.7,3c-4.2-0.2-6.3,4.7-5.6,8.4c0.9,4.7,8.1,0.6,9,1.7c0.7,0.8-2.1,9.3-3.1,12.2
		c-5.3,15.7-10.5,32.1-16.2,47.7c-2.2,6.1-3.9,5.7-9.2,0.7c0.6,4.8,2,10.5,6.9,11.8c4.7,1.2,8.1-1.1,10.3-5.1
		c1.3-2.3,2.2-4.8,3.1-7.3c5.9-17.1,11.9-34.3,17.7-51.4C243,64.1,246.9,56.8,253.3,55.4"/>
	<path class="st0" d="M93.4,50H80.1v55h13.2h13.7h13.2v-14h-13.2v9H93.4V80.7h13.7h13.2V50h-13.2H93.4z M107.1,75.7H93.4V55h13.7
		V75.7z"/>
	<path class="st0" d="M201.5,0.2V50h-13.7h-13.2v55h13.2h13.7h5.2c4.4,0,8-3.6,8-8V0.2H201.5z M201.5,100.1h-13.7V55h13.7V100.1z"/>
	<path class="st0" d="M140.6,50h-13.2v14h13.2v-9h13.7v19.4h-13.7h-13.2v30.6h13.2h13.7h13.2V50h-13.2H140.6z M154.3,100.1h-13.7
		V79.4h13.7V100.1z"/>
	<path class="st0" d="M93.2,22.5h-20V0H59.9v22.5h-7V0H39.7H13.2H0v55h13.2h26.5v45.1H13.2V77.6H0v27.5h13.2h26.5H53V50H39.7H13.2V5
		h26.5v22.5H53h7v69.6c0,4.4,3.6,8,8,8h5.2V27.5h20V22.5z"/>
</g>
</svg>
