<?xml version="1.0" standalone="no"?>
<!DOCTYPE svg PUBLIC "-//W3C//DTD SVG 1.1//EN" "http://www.w3.org/Graphics/SVG/1.1/DTD/svg11.dtd" >
<svg xmlns="http://www.w3.org/2000/svg" xmlns:xlink="http://www.w3.org/1999/xlink" version="1.1">
<metadata>
Created by FontForge 20170731 at Mon Jun 16 17:08:12 2014
 By Aleksey,,,
Copyright (c) 2013 Dalton Maag Ltd. All rights reserved. This font may not be altered in any way without prior permission of Dalton Maag Ltd.
</metadata>
<defs>
<font id="AktivGrotesk-Medium" horiz-adv-x="592" >
  <font-face 
    font-family="AktivGrotesk-Medium"
    font-weight="400"
    font-stretch="normal"
    units-per-em="1000"
    panose-1="2 11 6 4 2 2 2 2 2 4"
    ascent="779"
    descent="-221"
    x-height="520"
    cap-height="714"
    bbox="-180 -223 1320 959"
    underline-thickness="80"
    underline-position="-213"
    unicode-range="U+0008-FB04"
  />
<missing-glyph horiz-adv-x="500" 
d="M50 0v750h400v-750h-400zM400 50v650h-300v-650h300z" />
    <glyph glyph-name="f_f" unicode="ff" horiz-adv-x="712" 
d="M372 430v90h81v30q0 42 12 73.5t33.5 53t51 32.5t64.5 12q6 1 12 0.5t14 -0.5q21 -2 40 -4t41 -9l-17 -85q-32 9 -60 9q-32 0 -54.5 -18t-22.5 -61v-33h126v-90h-126v-430h-114v430h-81zM16 430v90h81v30q0 42 12 73.5t33.5 53t51 32.5t64.5 12q6 1 12 0.5t14 -0.5
q21 -2 40 -4t41 -9l-17 -85q-32 9 -60 9q-32 0 -54.5 -18t-22.5 -61v-33h126v-90h-126v-430h-114v430h-81z" />
    <glyph glyph-name="f_i" unicode="fi" horiz-adv-x="602" 
d="M16 430v90h81v30q0 42 12 73.5t33.5 53t51 32.5t64.5 12q6 1 12 0.5t14 -0.5q21 -2 40 -4t41 -9l-17 -85q-32 9 -60 9q-32 0 -54.5 -18t-22.5 -61v-33h126v-90h-126v-430h-114v430h-81zM538 714v-113h-118v113h118zM536 520v-520h-114v520h114z" />
    <glyph glyph-name="f_l" unicode="fl" horiz-adv-x="602" 
d="M16 430v90h81v30q0 42 12 73.5t33.5 53t51 32.5t64.5 12q6 1 12 0.5t14 -0.5q21 -2 40 -4t41 -9l-17 -85q-32 9 -60 9q-32 0 -54.5 -18t-22.5 -61v-33h126v-90h-126v-430h-114v430h-81zM536 714v-714h-114v714h114z" />
    <glyph glyph-name="f_f_i" unicode="ffi" horiz-adv-x="958" 
d="M372 430v90h81v30q0 42 12 73.5t33.5 53t51 32.5t64.5 12q6 1 12 0.5t14 -0.5q21 -2 40 -4t41 -9l-17 -85q-32 9 -60 9q-32 0 -54.5 -18t-22.5 -61v-33h126v-90h-126v-430h-114v430h-81zM16 430v90h81v30q0 42 12 73.5t33.5 53t51 32.5t64.5 12q6 1 12 0.5t14 -0.5
q21 -2 40 -4t41 -9l-17 -85q-32 9 -60 9q-32 0 -54.5 -18t-22.5 -61v-33h126v-90h-126v-430h-114v430h-81zM894 714v-113h-118v113h118zM892 520v-520h-114v520h114z" />
    <glyph glyph-name="f_f_l" unicode="ffl" horiz-adv-x="958" 
d="M372 430v90h81v30q0 42 12 73.5t33.5 53t51 32.5t64.5 12q6 1 12 0.5t14 -0.5q21 -2 40 -4t41 -9l-17 -85q-32 9 -60 9q-32 0 -54.5 -18t-22.5 -61v-33h126v-90h-126v-430h-114v430h-81zM16 430v90h81v30q0 42 12 73.5t33.5 53t51 32.5t64.5 12q6 1 12 0.5t14 -0.5
q21 -2 40 -4t41 -9l-17 -85q-32 9 -60 9q-32 0 -54.5 -18t-22.5 -61v-33h126v-90h-126v-430h-114v430h-81zM892 714v-714h-114v714h114z" />
    <glyph glyph-name=".notdef" horiz-adv-x="500" 
d="M50 0v750h400v-750h-400zM400 50v650h-300v-650h300z" />
    <glyph glyph-name=".null" horiz-adv-x="0" 
 />
    <glyph glyph-name=".null" horiz-adv-x="0" 
 />
    <glyph glyph-name=".null" horiz-adv-x="0" 
 />
    <glyph glyph-name="nonmarkingreturn" unicode="&#x9;" horiz-adv-x="223" 
 />
    <glyph glyph-name="nonmarkingreturn" unicode="&#xd;" horiz-adv-x="223" 
 />
    <glyph glyph-name="space" unicode=" " horiz-adv-x="223" 
 />
    <glyph glyph-name="exclam" unicode="!" horiz-adv-x="252" 
d="M184 137v-137h-116v137h116zM187 714l-8 -499h-105l-8 499h121z" />
    <glyph glyph-name="quotedbl" unicode="&#x22;" horiz-adv-x="356" 
d="M319 711l-7 -262h-92l-7 262h106zM144 711l-7 -262h-93l-7 262h107z" />
    <glyph glyph-name="numbersign" unicode="#" 
d="M381 427h-133l-30 -176h133zM19 167v84h101l29 176h-97v84h111l27 167h99l-28 -167h133l27 167h98l-27 -167h79v-84h-92l-29 -176h86v-84h-101l-27 -167h-98l27 167h-133l-27 -167h-98l27 167h-87z" />
    <glyph glyph-name="dollar" unicode="$" 
d="M263 619q-55 -6 -79.5 -32.5t-24.5 -56.5v-16q2 -42 24.5 -65.5t79.5 -34.5v205zM323 77q57 5 81.5 34t24.5 75q0 16 -4.5 32.5t-16.5 31t-32.5 25.5t-52.5 17v-215zM263 -15q-59 4 -101 22t-70 46.5t-42 67t-16 85.5h112q5 -62 33.5 -91.5t83.5 -36.5v225
q-52 9 -91.5 23.5t-66.5 38.5t-42 58t-16 81q0 9 0.5 18t1.5 18q8 69 62.5 115t151.5 53v87h60v-87q60 -5 99.5 -24t63.5 -46t35.5 -59.5t16.5 -63.5l-108 -16q-12 54 -34.5 83.5t-72.5 35.5v-216l24 -4q100 -19 149 -67.5t49 -141.5q0 -39 -13.5 -74.5t-40.5 -63.5t-69 -46
t-99 -21v-100h-60v101z" />
    <glyph glyph-name="percent" unicode="%" horiz-adv-x="944" 
d="M731 64q41 0 62.5 30t21.5 103q0 72 -21.5 103.5t-62.5 31.5q-40 0 -61 -31t-21 -104q0 -74 21 -103.5t61 -29.5zM731 -18q-84 0 -131.5 54t-47.5 161q0 55 13.5 96t37.5 68t57 40.5t71 13.5q80 0 130 -54.5t50 -163.5q0 -58 -14 -99t-38.5 -66.5t-57.5 -37.5t-70 -12z
M241 0l349 691h112l-350 -691h-111zM212 356q41 0 62 30.5t21 103.5q0 72 -21 103.5t-62 31.5q-40 0 -61 -31.5t-21 -103.5q0 -74 20.5 -104t61.5 -30zM212 274q-83 0 -131 53.5t-48 162.5q0 55 13.5 96t37.5 68t57 40.5t71 13.5q80 0 130 -54.5t50 -163.5q0 -60 -14.5 -101
t-39 -66.5t-57.5 -37t-69 -11.5z" />
    <glyph glyph-name="ampersand" unicode="&#x26;" horiz-adv-x="653" 
d="M286 444q16 9 30.5 20.5t25.5 25.5t18 31t7 38q0 38 -20 58t-54 20q-76 0 -76 -82q0 -19 6.5 -36t16 -31.5t20 -26.5t18.5 -21zM238 331q-37 -21 -64 -51.5t-27 -74.5q0 -28 7.5 -52t25 -41t46 -27t71.5 -10q42 0 71 12.5t49 32.5zM476 53q-34 -30 -80 -49.5t-108 -19.5
q-75 0 -124 18t-78.5 47t-41 66t-11.5 75q0 40 13 71.5t34.5 56t49 43.5t56.5 36q-27 30 -50 71t-23 89q0 35 13 65t36 51.5t56 34t72 12.5q75 0 120.5 -36.5t53.5 -95.5q2 -8 2 -16v-16q-2 -32 -14 -58t-30.5 -47t-43 -38t-49.5 -32l150 -177q14 35 19.5 70t6.5 74h103
q-1 -62 -18 -118t-46 -103l109 -127h-132z" />
    <glyph glyph-name="quotesingle" unicode="'" horiz-adv-x="187" 
d="M150 711l-7 -262h-99l-7 262h113z" />
    <glyph glyph-name="parenleft" unicode="(" horiz-adv-x="281" 
d="M165 -124q-57 87 -88 197.5t-31 231.5q0 55 7 112t22 112t37.5 107t52.5 98h107q-59 -104 -83 -209t-24 -220q0 -117 24 -221t83 -208h-107z" />
    <glyph glyph-name="parenright" unicode=")" horiz-adv-x="281" 
d="M8 -124q58 104 83 208t25 221q0 116 -25.5 220t-82.5 209h108q59 -93 88.5 -204t29.5 -225q0 -123 -31.5 -232.5t-86.5 -196.5h-108z" />
    <glyph glyph-name="asterisk" unicode="*" horiz-adv-x="403" 
d="M25 555l39 91l105 -58l-20 126h106l-20 -126l105 58l38 -91l-122 -32l97 -101l-82 -58l-69 111l-69 -111l-82 58l97 101z" />
    <glyph glyph-name="plus" unicode="+" 
d="M61 291v99h184v198h102v-198h184v-99h-184v-198h-102v198h-184z" />
    <glyph glyph-name="comma" unicode="," horiz-adv-x="231" 
d="M182 140l-58 -235h-88l32 235h114z" />
    <glyph glyph-name="hyphen" unicode="-" horiz-adv-x="390" 
d="M343 352v-113h-296v113h296z" />
    <glyph glyph-name="period" unicode="." horiz-adv-x="231" 
d="M176 139v-139h-121v139h121z" />
    <glyph glyph-name="slash" unicode="/" horiz-adv-x="357" 
d="M7 0l229 734h114l-229 -734h-114z" />
    <glyph glyph-name="zero" unicode="0" 
d="M295 82q39 0 65.5 18.5t43 52.5t24 83t7.5 110q0 60 -7.5 109t-24 83.5t-43 53t-65.5 18.5t-65.5 -19t-42.5 -53.5t-23 -83t-7 -108.5q0 -128 31.5 -196t106.5 -68zM294 -18q-60 0 -107.5 21t-80.5 65.5t-50.5 113.5t-17.5 164q0 183 67.5 273.5t192.5 90.5
q121 0 188.5 -88.5t67.5 -275.5q0 -95 -17.5 -163.5t-51 -113t-82 -66t-109.5 -21.5z" />
    <glyph glyph-name="one" unicode="1" 
d="M138 473l-50 84l214 134h100v-691h-116v562z" />
    <glyph glyph-name="two" unicode="2" 
d="M56 89q76 67 140.5 119.5t111 99t73 91t26.5 97.5t-29.5 83.5t-80.5 30.5q-62 0 -93 -26.5t-46 -89.5l-109 15q9 40 25.5 76.5t46 64t73 44t105.5 16.5q111 0 169 -56.5t58 -150.5q0 -59 -21.5 -105.5t-61 -91.5t-95 -93.5t-124.5 -111.5h311l-14 -101h-465v71v18z" />
    <glyph glyph-name="three" unicode="3" 
d="M158 205q7 -68 37.5 -96.5t97.5 -28.5q59 0 93 28t34 89q0 59 -31.5 85t-92.5 26h-75v101h80q86 0 98 76q7 21 4 50q-6 40 -35 58.5t-75 18.5q-60 0 -90.5 -25.5t-45.5 -82.5l-108 15q8 39 24.5 73.5t45.5 61t71.5 41.5t103.5 15q58 0 101 -15t71 -40t41.5 -58t13.5 -70
q0 -110 -96 -160q60 -25 86 -68.5t26 -97.5q0 -102 -60.5 -160.5t-181.5 -58.5q-72 0 -120 20t-76.5 52t-41 72t-14.5 79h115z" />
    <glyph glyph-name="four" unicode="4" 
d="M353 542l-203 -287h203v287zM355 691h107v-436h91l-14 -92h-77v-163h-109v163h-321v81z" />
    <glyph glyph-name="five" unicode="5" 
d="M172 189q4 -27 12.5 -47.5t23 -34t37 -20t54.5 -6.5q57 0 89.5 33.5t32.5 108.5q0 65 -30.5 99t-93.5 34q-42 0 -72 -13.5t-54 -39.5h-97l33 388h387v-100h-293l-16 -181q28 19 62.5 29t71.5 10q59 0 100 -19.5t66.5 -51t37 -72t11.5 -81.5q0 -63 -17.5 -108.5
t-48.5 -75.5t-73.5 -44.5t-91.5 -14.5q-114 0 -175 50.5t-69 156.5h113z" />
    <glyph glyph-name="six" unicode="6" 
d="M301 75q58 0 95 35.5t37 106.5q0 61 -28.5 99.5t-95.5 38.5q-29 0 -54 -8.5t-43.5 -26.5t-28.5 -44.5t-7 -62.5q0 -27 8 -52t23.5 -44t38.5 -30.5t55 -11.5zM426 538q-7 17 -13.5 29t-15.5 20.5t-21 14t-29 8.5q-20 4 -47 1q-64 -5 -97 -66t-37 -173q31 38 72.5 56
t95.5 19q53 0 92.5 -16t65.5 -46t39 -72t13 -94q0 -58 -19 -102.5t-52 -74.5t-77 -45t-95 -15q-75 0 -122.5 29t-75 75t-38 102.5t-10.5 111.5q0 115 21 193.5t57 126.5t84.5 69t103.5 21q99 0 148.5 -41t65.5 -126l-105 -15z" />
    <glyph glyph-name="seven" unicode="7" 
d="M157 0q94 315 238 591h-351v100h479v-91q-79 -145 -137.5 -291.5t-101.5 -308.5h-127z" />
    <glyph glyph-name="eight" unicode="8" 
d="M151 191q0 -55 34.5 -86.5t110.5 -31.5q75 0 110.5 32.5t35.5 87.5q0 25 -7.5 45.5t-24.5 35.5t-45 23.5t-69 8.5q-43 0 -71 -9.5t-44.5 -25t-23 -36.5t-6.5 -44zM164 509q0 -57 31.5 -83.5t100.5 -26.5t99 28t30 84q0 22 -6.5 42t-22 35t-40 24t-60.5 9t-61.5 -9.5
t-41 -25t-22.5 -35.5t-7 -42zM152 355q-44 20 -70 60.5t-26 100.5q0 40 14 75.5t43.5 61.5t74.5 41.5t107 15.5q64 0 109.5 -15.5t74.5 -42t42 -62t13 -75.5q0 -60 -26 -99t-70 -59q22 -10 43 -25t37.5 -35.5t26 -46.5t9.5 -59q0 -95 -64.5 -152t-194.5 -57q-131 0 -194 57
t-63 152q0 32 10 58t26 46.5t36.5 35.5t41.5 24z" />
    <glyph glyph-name="nine" unicode="9" 
d="M281 335q28 0 52 8t42 25.5t28 44t10 62.5q-1 29 -9.5 55t-24 45.5t-38.5 30.5t-53 11q-59 0 -95.5 -36.5t-36.5 -105.5q0 -29 6.5 -54.5t21 -44.5t38.5 -30t59 -11zM167 163q9 -45 33.5 -65.5t80.5 -20.5q74 0 107 58t34 186q-62 -78 -167 -78q-107 0 -159.5 62.5
t-52.5 167.5q0 52 17 95.5t49 75t77 49t102 17.5q75 0 122.5 -31t75 -79t38 -106t10.5 -112q0 -109 -16 -185t-47.5 -124t-78 -69.5t-108.5 -21.5q-106 0 -162 43.5t-64 137.5h109z" />
    <glyph glyph-name="colon" unicode=":" horiz-adv-x="231" 
d="M176 520v-139h-121v139h121zM176 139v-139h-121v139h121z" />
    <glyph glyph-name="semicolon" unicode=";" horiz-adv-x="231" 
d="M182 140l-58 -235h-88l32 235h114zM176 520v-139h-121v139h121z" />
    <glyph glyph-name="less" unicode="&#x3c;" 
d="M528 588v-107l-321 -141l321 -141v-109l-453 205v88z" />
    <glyph glyph-name="equal" unicode="=" 
d="M514 502v-100h-436v100h436zM514 280v-100h-436v100h436z" />
    <glyph glyph-name="greater" unicode="&#x3e;" 
d="M384 337l-320 143v108l453 -205v-88l-453 -205v108z" />
    <glyph glyph-name="question" unicode="?" horiz-adv-x="507" 
d="M303 137v-137h-117v137h117zM189 235q0 27 7.5 49.5t20 41t28 35.5t32.5 34l29 29q20 20 34 44t14 61q0 48 -26.5 74.5t-74.5 26.5q-59 0 -89 -26.5t-44 -86.5l-105 14q7 39 24 74.5t45.5 62.5t70 42.5t99.5 15.5q104 0 161 -50.5t57 -132.5q0 -48 -14.5 -81t-35.5 -56
l-61 -61q-26 -26 -43 -53t-17 -62v-15h-112v20z" />
    <glyph glyph-name="at" unicode="@" horiz-adv-x="979" 
d="M583 246q1 7 2 11.5t-1 -0.5l1 21q0 6 0.5 12.5t-0.5 12.5q-4 38 -26 58t-58 20q-28 0 -52 -13t-42 -37.5t-28 -59.5t-10 -80q0 -58 22.5 -85.5t58.5 -27.5q30 0 52 11t37 29t24 42t14 51zM815 -51q-18 -35 -49 -65t-73.5 -52.5t-97.5 -35.5t-121 -13q-102 0 -181.5 31
t-133.5 86t-82.5 131.5t-28.5 166.5q0 120 42.5 211t109.5 152t150.5 91.5t165.5 30.5q90 0 166.5 -24.5t133 -72t88.5 -117.5t32 -161q0 -81 -20 -140t-53 -97t-75 -56.5t-85 -18.5q-50 0 -82.5 16.5t-40.5 61.5q-33 -48 -70 -66.5t-82 -18.5q-43 0 -74.5 15.5t-52.5 41.5
t-31 61t-10 73q0 61 17 113.5t47.5 90.5t73.5 59.5t94 21.5q37 0 68 -16.5t54 -53.5q2 14 5.5 29.5t5.5 29.5h102l-57 -325q-1 -4 -1 -14q0 -42 40 -42q25 0 50 13t44 41.5t31 72t12 105.5q0 75 -24 131t-67.5 92.5t-104.5 55t-134 18.5q-80 0 -148 -29.5t-118 -82
t-78.5 -126.5t-28.5 -162q0 -74 21.5 -136t64 -107t105.5 -70t145 -25q45 0 80.5 6t62.5 17.5t47.5 27t37.5 34.5h108z" />
    <glyph glyph-name="A" unicode="A" horiz-adv-x="686" 
d="M283 714h120l272 -714h-129l-67 182h-277l-66 -182h-125zM446 283l-106 294l-105 -294h211z" />
    <glyph glyph-name="B" unicode="B" horiz-adv-x="640" 
d="M76 714h247q78 0 128 -14.5t79.5 -40t40.5 -60t11 -73.5q0 -45 -20 -83.5t-73 -63.5q34 -15 56 -34t35 -40.5t18 -45t5 -47.5q0 -44 -13.5 -83t-44.5 -67.5t-81 -45t-123 -16.5h-265v714zM337 421q71 0 99 26t28 75q0 51 -32.5 73.5t-112.5 22.5h-126v-197h144zM337 97
q43 0 71.5 8t45 23t23.5 36t7 47q0 54 -30.5 82.5t-105.5 28.5h-155v-225h144z" />
    <glyph glyph-name="C" unicode="C" horiz-adv-x="712" 
d="M674 241q-6 -56 -27 -103t-58 -82t-90 -54.5t-123 -19.5q-77 0 -137.5 26t-102 74.5t-63 118t-21.5 155.5q0 88 23.5 158t66.5 118.5t103 74t132 25.5q67 0 116 -17t83.5 -48.5t55 -75.5t30.5 -98l-119 -17q-8 36 -20 64t-31.5 47.5t-47.5 30t-67 10.5q-48 0 -85 -19
t-62.5 -54.5t-38.5 -85.5t-13 -112q0 -63 13.5 -113t39.5 -85.5t62.5 -54t83.5 -18.5q42 0 71.5 11t49.5 31t31.5 48.5t16.5 64.5h128z" />
    <glyph glyph-name="D" unicode="D" horiz-adv-x="726" 
d="M314 103q63 0 107.5 18t73 52t41.5 81t13 106q0 118 -50 184.5t-164 66.5h-138v-508h117zM334 714q79 0 142 -21.5t107 -65.5t67.5 -110.5t23.5 -155.5t-25 -156.5t-72 -113t-114.5 -68.5t-152.5 -23h-234v714h258z" />
    <glyph glyph-name="E" unicode="E" horiz-adv-x="599" 
d="M76 714h475v-104h-354v-190h334v-105h-334v-211h373l-14 -104h-480v714z" />
    <glyph glyph-name="F" unicode="F" horiz-adv-x="574" 
d="M532 714v-104h-335v-202h315v-105h-315v-303h-121v714h456z" />
    <glyph glyph-name="G" unicode="G" horiz-adv-x="721" 
d="M667 379v-294q-55 -51 -130 -77t-151 -26q-83 0 -145.5 26.5t-104.5 75t-63 117.5t-21 155q0 87 23 156.5t65 118.5t102 75t134 26q65 0 113.5 -16.5t82 -45.5t54 -67.5t29.5 -82.5l-119 -17q-8 30 -19.5 53.5t-30 39.5t-45.5 24.5t-65 8.5q-50 0 -87.5 -19.5
t-62.5 -55.5t-37 -86t-12 -111q0 -63 12 -113t38 -85.5t65.5 -54.5t95.5 -19q50 0 90 10.5t77 36.5v145h-158v102h270z" />
    <glyph glyph-name="H" unicode="H" horiz-adv-x="715" 
d="M76 714h121v-289h321v289h121v-714h-121v313h-321v-313h-121v714z" />
    <glyph glyph-name="I" unicode="I" horiz-adv-x="272" 
d="M76 714h121v-714h-121v714z" />
    <glyph glyph-name="J" unicode="J" horiz-adv-x="617" 
d="M149 230q4 -33 12.5 -59.5t25 -45t42 -29t63.5 -10.5q73 0 104 42t31 120v466h121v-474q0 -128 -68.5 -193t-185.5 -65q-123 0 -190 60t-76 188h121z" />
    <glyph glyph-name="K" unicode="K" horiz-adv-x="662" 
d="M76 714h121v-314l299 314h134l-246 -268l273 -446h-137l-221 368l-102 -103v-265h-121v714z" />
    <glyph glyph-name="L" unicode="L" horiz-adv-x="573" 
d="M197 714v-609h354l-15 -105h-460v714h121z" />
    <glyph glyph-name="M" unicode="M" horiz-adv-x="853" 
d="M76 714h147l203 -568l209 568h142v-714h-111v519l-196 -519h-96l-189 518v-518h-109v714z" />
    <glyph glyph-name="N" unicode="N" horiz-adv-x="710" 
d="M76 714h112l328 -516v516h118v-714h-112l-329 514v-514h-117v714z" />
    <glyph glyph-name="O" unicode="O" horiz-adv-x="772" 
d="M387 -18q-77 0 -138.5 25.5t-105.5 73.5t-67.5 117.5t-23.5 157.5t24 158t68 118.5t106 74t137 25.5q76 0 138 -25.5t105 -73.5t66.5 -117.5t23.5 -157.5q0 -89 -23 -158.5t-66 -118t-104.5 -74t-139.5 -25.5zM386 86q103 0 156 72.5t53 198.5q0 63 -13.5 113t-39.5 85
t-65 54t-91 19t-91 -19t-65.5 -54t-39.5 -85t-13 -113q0 -126 52.5 -198.5t156.5 -72.5z" />
    <glyph glyph-name="P" unicode="P" horiz-adv-x="633" 
d="M76 714h247q81 0 133.5 -18t82.5 -48t42 -69.5t12 -82.5q0 -46 -12 -88t-42.5 -73.5t-82.5 -50t-131 -18.5h-130v-266h-119v714zM322 367q46 0 75.5 9t46.5 25.5t23.5 39.5t6.5 52q0 30 -7 52.5t-24.5 37.5t-47 23t-74.5 8h-126v-247h127z" />
    <glyph glyph-name="Q" unicode="Q" horiz-adv-x="773" 
d="M467 274l84 -103q44 67 44 186q0 62 -13 112t-39 85.5t-65 54.5t-91 19q-53 0 -92.5 -19t-65.5 -54.5t-39 -85.5t-13 -112q0 -134 54 -203.5t168 -69.5q23 0 43.5 5.5t37.5 14.5l-88 107zM549 19q-19 -9 -38 -16t-39 -12q-40 -9 -85 -9q-78 0 -140.5 26t-105.5 74.5
t-66 118t-23 155.5q0 87 23.5 157t67.5 118.5t105.5 74.5t138.5 26q78 0 140 -26t104.5 -74.5t65.5 -118t23 -155.5q0 -92 -24 -161.5t-70 -117.5l87 -106l-74 -64z" />
    <glyph glyph-name="R" unicode="R" horiz-adv-x="643" 
d="M329 384q41 0 68 8.5t42.5 24t22 37.5t6.5 49q0 25 -7.5 45.5t-25 35t-46.5 22.5t-72 8h-122v-230h134zM320 714q81 0 133.5 -19t83 -49.5t42.5 -67.5t12 -73q0 -70 -27.5 -117t-88.5 -76l148 -312h-132l-128 284q-9 -1 -19 -1.5t-21 -0.5h-128v-282h-119v714h244z" />
    <glyph glyph-name="S" unicode="S" horiz-adv-x="644" 
d="M155 218q8 -70 50.5 -102t126.5 -32q41 0 69 9t45 24t24 35.5t7 43.5q0 17 -5 33.5t-18 30.5t-35 24.5t-56 16.5l-91 17q-54 10 -96 25t-70.5 39.5t-43 60t-14.5 86.5t20.5 89t56.5 63.5t85.5 38t107.5 12.5q74 0 124 -17t81 -44.5t47 -63.5t22 -75l-114 -18
q-14 60 -48.5 89t-109.5 29q-43 0 -71.5 -7.5t-46 -21t-25 -31t-7.5 -36.5q0 -47 25.5 -70t89.5 -36l99 -19q113 -21 166 -71.5t53 -145.5q0 -45 -16.5 -83.5t-50.5 -67t-84.5 -45t-117.5 -16.5q-137 0 -215 57.5t-86 178.5h122z" />
    <glyph glyph-name="T" unicode="T" horiz-adv-x="610" 
d="M245 609h-226v105h572v-105h-225v-609h-121v609z" />
    <glyph glyph-name="U" unicode="U" horiz-adv-x="688" 
d="M185 714v-428q0 -101 36.5 -150.5t123.5 -49.5q86 0 121.5 49.5t35.5 150.5v428h121v-428q0 -83 -20 -140.5t-57 -94t-88 -53t-114 -16.5q-137 0 -208 73.5t-71 233.5v425h120z" />
    <glyph glyph-name="V" unicode="V" horiz-adv-x="682" 
d="M146 714l196 -550l199 550h129l-271 -714h-116l-272 714h135z" />
    <glyph glyph-name="W" unicode="W" horiz-adv-x="950" 
d="M147 714l132 -542l136 538h129l138 -537l128 541h129l-197 -714h-121l-145 562l-143 -562h-117l-205 714h136z" />
    <glyph glyph-name="X" unicode="X" horiz-adv-x="661" 
d="M259 377l-232 337h138l164 -250l166 250h130l-230 -342l258 -372h-139l-190 282l-184 -282h-131z" />
    <glyph glyph-name="Y" unicode="Y" horiz-adv-x="635" 
d="M260 297l-248 417h135l172 -310l176 310h128l-243 -417v-297h-120v297z" />
    <glyph glyph-name="Z" unicode="Z" horiz-adv-x="586" 
d="M27 90l384 520h-377v104h520v-91l-383 -518h397l-14 -105h-527v90z" />
    <glyph glyph-name="bracketleft" unicode="[" horiz-adv-x="308" 
d="M298 734v-97h-109v-664h109v-97h-224v858h224z" />
    <glyph glyph-name="backslash" unicode="\" horiz-adv-x="357" 
d="M350 0h-113l-230 734h112z" />
    <glyph glyph-name="bracketright" unicode="]" horiz-adv-x="308" 
d="M120 -27v664h-110v97h225v-858h-225v97h110z" />
    <glyph glyph-name="asciicircum" unicode="^" 
d="M342 712l203 -413h-119l-131 279l-132 -279h-117l203 413h93z" />
    <glyph glyph-name="underscore" unicode="_" horiz-adv-x="500" 
d="M500 -123v-52h-500v52h500z" />
    <glyph glyph-name="grave" unicode="`" horiz-adv-x="403" 
d="M209 741l117 -148h-107l-143 148h133z" />
    <glyph glyph-name="a" unicode="a" horiz-adv-x="549" 
d="M305 243q-51 -3 -82.5 -11t-48.5 -20.5t-22.5 -29t-5.5 -35.5q0 -34 21.5 -53t63.5 -19q75 0 111 38t36 103v30zM380 68q-29 -35 -71 -58t-102 -23q-37 0 -69 9.5t-55.5 28.5t-37 48.5t-13.5 69.5q0 54 24 87.5t62.5 52.5t86.5 26.5t96 9.5l77 4v22q0 59 -28.5 81.5
t-74.5 22.5q-53 0 -78.5 -18t-33.5 -52l-104 11q14 76 69 111t151 35q62 0 102.5 -16t64.5 -44t33.5 -66.5t9.5 -84.5v-325h-109v68z" />
    <glyph glyph-name="b" unicode="b" horiz-adv-x="610" 
d="M177 243q1 -50 12.5 -82t30 -51t42.5 -26t50 -7q28 0 52 10t42 31.5t28 56.5t10 86q0 49 -10.5 83.5t-27.5 56t-40.5 31.5t-48.5 10q-37 0 -63.5 -12t-43.5 -34t-25 -52.5t-8 -67.5v-25v-8zM178 714v-262q31 41 71.5 62.5t94.5 21.5q56 0 97 -20t68 -56t40.5 -86.5
t13.5 -111.5q0 -64 -16 -115.5t-46 -87.5t-72 -55.5t-94 -19.5q-47 0 -87 18t-73 60v-62h-110v714h113z" />
    <glyph glyph-name="c" unicode="c" horiz-adv-x="564" 
d="M523 182q-10 -93 -66.5 -145.5t-161.5 -52.5q-63 0 -109.5 19.5t-77.5 55.5t-46 86.5t-15 112.5t17 113.5t49.5 88t79.5 56.5t107 20q55 0 93 -14.5t63 -39t39 -56.5t20 -67l-113 -17q-8 44 -30.5 73t-75.5 29q-38 0 -63 -16t-40 -41.5t-21.5 -58.5t-6.5 -67q0 -39 7 -73
t22 -58.5t40 -39t61 -14.5q52 0 79 27.5t34 78.5h115z" />
    <glyph glyph-name="d" unicode="d" horiz-adv-x="609" 
d="M432 271q0 49 -10.5 82.5t-29 53t-43 28t-51.5 8.5q-63 0 -97.5 -45t-34.5 -137q0 -50 9.5 -85t27 -57t40.5 -32t50 -10q62 0 100.5 40.5t38.5 126.5v27zM433 72q-32 -44 -72.5 -66t-94.5 -22q-56 0 -97 20t-68 56.5t-40.5 87t-13.5 111.5q0 57 14 106.5t41 86t66.5 58.5
t91.5 24q10 1 20 0.5t21 -1.5q35 -4 67.5 -19.5t62.5 -51.5v252h113v-714h-111v72z" />
    <glyph glyph-name="e" unicode="e" horiz-adv-x="580" 
d="M527 154q-14 -81 -69 -125.5t-158 -44.5q-124 0 -188.5 71.5t-64.5 201.5q0 67 18.5 119t52 87.5t80 54t102.5 18.5q60 0 104 -18.5t73 -52t43 -80t14 -103.5v-50h-373q2 -71 36 -115t103 -44q54 0 81 21t36 60h110zM423 311q0 64 -30 101t-96 37q-63 0 -96 -37.5
t-38 -100.5h260z" />
    <glyph glyph-name="f" unicode="f" horiz-adv-x="356" 
d="M16 430v90h81v30q0 42 12 73.5t33.5 53t51 32.5t64.5 12q6 1 12 0.5t14 -0.5q21 -2 40 -4t41 -9l-17 -85q-32 9 -60 9q-32 0 -54.5 -18t-22.5 -61v-33h126v-90h-126v-430h-114v430h-81z" />
    <glyph glyph-name="g" unicode="g" horiz-adv-x="609" 
d="M432 279q0 48 -11.5 80t-30 50.5t-43 26t-49.5 7.5q-63 0 -97.5 -43t-34.5 -126q0 -47 10.5 -79.5t27.5 -52.5t40 -29t49 -9q73 0 106 44t33 125v6zM182 -40q12 -75 106 -75h26q38 1 61 15.5t35.5 38.5t16.5 55t4 66v35q-58 -82 -165 -82q-56 0 -97.5 19.5t-68.5 54
t-40 82.5t-13 104q0 54 14.5 101.5t42.5 83t69 56t94 21.5q16 1 36 -2q36 -5 69 -21.5t62 -54.5v63h111v-448q0 -67 -13 -118.5t-41.5 -87t-74.5 -53.5t-112 -18q-117 0 -172 41t-64 124h114z" />
    <glyph glyph-name="h" unicode="h" horiz-adv-x="581" 
d="M178 714v-266q33 45 76.5 66.5t92.5 21.5q174 0 174 -192v-344h-114v326q0 63 -23 88.5t-68 25.5q-31 0 -56.5 -11t-43.5 -29t-28 -41.5t-10 -48.5v-310h-113v714h113z" />
    <glyph glyph-name="i" unicode="i" horiz-adv-x="246" 
d="M182 714v-113h-118v113h118zM180 520v-520h-114v520h114z" />
    <glyph glyph-name="j" unicode="j" horiz-adv-x="246" 
d="M-61 -82q30 -9 64 -9q38 0 50.5 25t12.5 73v513h114v-524q0 -88 -36.5 -134.5t-120.5 -46.5q-53 0 -101 16zM182 714v-113h-118v113h118z" />
    <glyph glyph-name="k" unicode="k" horiz-adv-x="550" 
d="M176 714v-395l222 201h133l-188 -177l205 -343h-125l-162 278l-85 -76v-202h-111v714h111z" />
    <glyph glyph-name="l" unicode="l" horiz-adv-x="246" 
d="M180 714v-714h-114v714h114z" />
    <glyph glyph-name="m" unicode="m" horiz-adv-x="868" 
d="M175 520v-75q54 75 128 87q19 3 40 3q53 -2 86 -26.5t48 -66.5q69 94 170 94q83 0 122 -46t39 -147v-343h-114v312q0 38 -5 63t-14.5 39.5t-24.5 20t-34 5.5q-30 0 -53 -11t-38.5 -29t-23.5 -40.5t-8 -46.5v-313h-114v323q0 67 -20.5 92t-56.5 25q-15 0 -36 -6.5
t-40.5 -21.5t-33.5 -40t-14 -61v-311h-113v520h110z" />
    <glyph glyph-name="n" unicode="n" horiz-adv-x="581" 
d="M175 520v-76q35 48 78.5 70t93.5 22q174 0 174 -192v-344h-114v326q0 63 -23 88.5t-68 25.5q-30 0 -55.5 -10.5t-43.5 -28.5t-28.5 -41.5t-10.5 -49.5v-310h-113v520h110z" />
    <glyph glyph-name="o" unicode="o" horiz-adv-x="609" 
d="M304 76q72 0 105.5 49.5t33.5 135.5q0 85 -33.5 134t-105.5 49t-105.5 -49.5t-33.5 -133.5q0 -85 32.5 -135t106.5 -50zM303 -16q-122 0 -189 72t-67 204q0 62 17.5 113t50.5 87t81 56t109 20q62 0 110 -20.5t80.5 -56.5t49 -86.5t16.5 -110.5q0 -68 -19 -119.5
t-53.5 -87t-81.5 -53.5t-104 -18z" />
    <glyph glyph-name="p" unicode="p" horiz-adv-x="610" 
d="M64 520h111v-72q32 43 73.5 65.5t95.5 22.5q55 0 96 -19.5t68.5 -55.5t41 -86.5t13.5 -112.5q0 -63 -16 -114.5t-45.5 -88t-71.5 -56t-95 -19.5q-42 0 -82 16t-75 59v-253h-114v714zM177 251q0 -51 11 -84.5t29.5 -53.5t43 -28t51.5 -8q28 0 52 10t42 32t28 57t10 85
q0 51 -10.5 85.5t-28 56t-40.5 30.5t-48 9q-61 0 -100.5 -40t-39.5 -126v-25z" />
    <glyph glyph-name="q" unicode="q" horiz-adv-x="610" 
d="M433 271q0 49 -10.5 82.5t-29 53t-43.5 28t-52 8.5q-62 0 -96.5 -45t-34.5 -137q0 -50 9.5 -85t26.5 -57t40 -32t50 -10q63 0 101.5 40.5t38.5 126.5v27zM431 69q-25 -35 -59 -56t-76 -26q-12 -2 -23.5 -2t-23.5 1q-51 3 -89 24t-63 56.5t-37.5 84.5t-12.5 108
q0 57 13.5 106.5t40.5 86t67 58.5t93 24q23 2 42 -1q36 -5 69 -21.5t62 -54.5v63h111v-714h-114v263z" />
    <glyph glyph-name="r" unicode="r" horiz-adv-x="393" 
d="M175 520v-77q27 41 65 63t81 22q17 0 28.5 -1t22.5 -3l-13 -104q-11 3 -24 4t-27 1q-32 0 -56 -10.5t-40.5 -27.5t-25 -38.5t-8.5 -43.5v-305h-113v520h110z" />
    <glyph glyph-name="s" unicode="s" horiz-adv-x="530" 
d="M143 159q3 -26 14 -42.5t27.5 -26.5t38.5 -13.5t47 -3.5q57 0 82 17t25 50q0 26 -15.5 44t-63.5 26q-62 11 -109 21t-79 27.5t-48 45t-16 74.5q0 36 16 65.5t44.5 50t68 31.5t86.5 11q60 0 100 -12t65 -33t38 -48t20 -57l-102 -14q-12 39 -36.5 58t-81.5 19q-33 0 -54 -6
t-33.5 -15t-17 -20t-4.5 -22q0 -17 4 -28t14.5 -18t28.5 -12t45 -10l65 -11q52 -9 86.5 -23t55 -34.5t28.5 -47.5t8 -60q0 -71 -54 -114.5t-164 -43.5q-45 0 -86.5 8.5t-74.5 28.5t-53.5 53.5t-23.5 84.5h109z" />
    <glyph glyph-name="t" unicode="t" horiz-adv-x="363" 
d="M14 430v90h82v140h113v-140h129v-90h-129v-272q0 -40 16.5 -58t48.5 -18q17 0 32.5 2t30.5 7l17 -85q-48 -16 -104 -16q-86 0 -120 44.5t-34 133.5v262h-82z" />
    <glyph glyph-name="u" unicode="u" horiz-adv-x="574" 
d="M174 520v-327q0 -65 21.5 -89t65.5 -24q24 0 48.5 9t43.5 26t31 41t12 54v310h114v-520h-111v76q-36 -48 -78 -70t-90 -22q-91 0 -130.5 47t-39.5 144v345h113z" />
    <glyph glyph-name="v" unicode="v" horiz-adv-x="544" 
d="M139 520l135 -392l137 392h126l-207 -520h-117l-206 520h132z" />
    <glyph glyph-name="w" unicode="w" horiz-adv-x="753" 
d="M131 520l88 -380l110 376h104l106 -376l88 380h119l-152 -520h-113l-105 378l-106 -378h-112l-151 520h124z" />
    <glyph glyph-name="x" unicode="x" horiz-adv-x="525" 
d="M27 520h134l106 -166l114 166h119l-169 -245l185 -275h-132l-124 190l-126 -190h-124l189 270z" />
    <glyph glyph-name="y" unicode="y" horiz-adv-x="545" 
d="M71 -92q25 -9 57 -9q30 0 47 14.5t32 54.5l19 50l-219 502h132l143 -375l131 375h124l-207 -525q-18 -46 -34 -81t-36 -59t-47.5 -36.5t-67.5 -12.5q-26 0 -48 3.5t-47 11.5z" />
    <glyph glyph-name="z" unicode="z" horiz-adv-x="484" 
d="M310 430h-272v90h415v-80l-277 -350h291l-13 -90h-422v80z" />
    <glyph glyph-name="braceleft" unicode="{" horiz-adv-x="310" 
d="M96 598q0 42 11.5 68.5t33.5 41.5t52 20.5t68 5.5h44v-95h-46q-34 0 -44.5 -20t-10.5 -49v-158q0 -38 -11.5 -66t-49.5 -41q34 -11 47.5 -36.5t13.5 -57.5v-171q0 -29 10.5 -49t44.5 -20h46v-95h-44q-38 0 -68 5.5t-52 20.5t-33.5 41.5t-11.5 68.5v167q0 38 -14.5 58
t-50.5 20h-6v96h6q35 0 50 19.5t15 52.5v173z" />
    <glyph glyph-name="bar" unicode="|" horiz-adv-x="252" 
d="M180 734v-858h-108v858h108z" />
    <glyph glyph-name="braceright" unicode="}" horiz-adv-x="310" 
d="M214 425q0 -33 15 -52.5t50 -19.5h6v-96h-6q-36 0 -50.5 -20t-14.5 -58v-167q0 -42 -11.5 -68.5t-33.5 -41.5t-52.5 -20.5t-67.5 -5.5h-44v95h46q34 0 44.5 20t10.5 49v171q0 32 13.5 57.5t47.5 36.5q-38 13 -49.5 41t-11.5 66v158q0 29 -10.5 49t-44.5 20h-46v95h44
q37 0 67.5 -5.5t52.5 -20.5t33.5 -41.5t11.5 -68.5v-173z" />
    <glyph glyph-name="asciitilde" unicode="~" 
d="M36 238q0 104 39 148.5t114 44.5q30 0 57 -14t52 -30.5t48 -30.5t46 -14q31 0 46 19.5t15 62.5h101q0 -105 -39 -149t-112 -44q-27 0 -52.5 12.5t-49.5 28t-46 29.5t-42 18q-15 3 -28 -2q-41 -3 -43 -57q-23 -4 -45.5 -9t-43.5 -13h-17z" />
    <glyph glyph-name="uni00A0" unicode="&#xa0;" horiz-adv-x="223" 
 />
    <glyph glyph-name="exclamdown" unicode="&#xa1;" horiz-adv-x="252" 
d="M184 520v-138h-116v138h116zM178 304l9 -498h-122l8 498h105z" />
    <glyph glyph-name="cent" unicode="&#xa2;" 
d="M280 528q-30 -6 -49 -23t-30.5 -41t-16 -53t-4.5 -59q0 -29 4.5 -58t15.5 -53.5t30.5 -42t49.5 -23.5v353zM280 81q-110 11 -163 81.5t-53 186.5q0 55 14 102t41.5 83t68 59t92.5 29v91h60v-90q48 -3 82 -18t57.5 -38t36.5 -53.5t19 -64.5l-112 -19q-6 38 -25 64.5
t-58 34.5v-355q51 9 63 66q26 5 47.5 14.5t40.5 21.5h51q-11 -86 -59.5 -138t-142.5 -58v-90h-60v91z" />
    <glyph glyph-name="sterling" unicode="&#xa3;" 
d="M82 85q32 37 45 76t13 87q0 13 -1.5 25t-3.5 29h-75v90h64q-4 22 -7 45t-3 52q0 56 17 97.5t46.5 69t68.5 41t84 13.5q59 0 97.5 -14.5t62 -38.5t35 -54t17.5 -61l-98 -17q-6 22 -14 39.5t-20.5 28.5t-30.5 17t-44 6q-60 0 -87 -34t-27 -89q0 -19 1 -34.5t3 -26.5l6 -40
h218v-90h-206q1 -9 2 -17t1 -15q0 -45 -8.5 -89.5t-37.5 -81.5h358l-14 -99h-463q0 21 0.5 42.5t0.5 42.5z" />
    <glyph glyph-name="currency" unicode="&#xa4;" 
d="M295 181q69 0 99 44t30 113q0 70 -30 114t-99 44q-36 0 -61 -12.5t-40.5 -34t-22 -50t-6.5 -61.5q0 -70 30 -113.5t100 -43.5zM109 191q-40 63 -40 146q0 42 10.5 79t30.5 69l-60 61l70 67l61 -67q24 15 52.5 24t63.5 9q31 0 60 -8.5t54 -24.5l61 67l69 -67l-59 -61
q19 -32 29 -68t10 -77q0 -43 -10.5 -80.5t-29.5 -66.5l60 -63l-69 -66l-61 66q-25 -15 -54 -23.5t-61 -8.5q-35 0 -63 8t-53 23l-60 -65l-70 66z" />
    <glyph glyph-name="yen" unicode="&#xa5;" 
d="M242 228v68l-7 14h-168v83h117l-167 298h122l160 -305l162 305h114l-166 -298h120v-83h-170l-6 -14v-68h176v-82h-176v-146h-111v146h-175v82h175z" />
    <glyph glyph-name="brokenbar" unicode="&#xa6;" horiz-adv-x="252" 
d="M180 229v-353h-108v353h108zM180 734v-336h-108v336h108z" />
    <glyph glyph-name="section" unicode="&#xa7;" horiz-adv-x="543" 
d="M259 223q8 -2 16 -4.5t17 -2.5q10 -2 21 0q35 1 62.5 20t27.5 62q0 30 -18 53t-68 37l-47 12q-11 2 -21.5 3.5t-21.5 0.5q-35 -2 -58 -24t-23 -61q0 -23 6.5 -38t20.5 -25.5t35 -18t51 -14.5zM150 70q7 -60 40.5 -80t88.5 -20q62 0 85.5 19t23.5 51q0 13 -3 24.5
t-12 21.5t-26 19t-45 17l-89 22q-48 11 -79.5 26.5t-51 36.5t-27.5 48t-8 60q0 43 23.5 75.5t68.5 52.5q-42 17 -65.5 48.5t-23.5 84.5q0 36 16 65t45 49.5t70.5 31t92.5 10.5q60 0 100 -13t66 -34.5t39.5 -48.5t21.5 -54l-103 -24q-16 45 -43.5 63.5t-80.5 18.5
q-54 0 -78 -15t-29 -36q-6 -13 -4 -29q1 -16 11.5 -29.5t33.5 -21.5l40 -13l102 -26q80 -21 115 -57t37 -91v-14q0 -6 -1 -13q-5 -41 -26.5 -70.5t-65.5 -48.5q43 -21 66.5 -53t23.5 -83q0 -42 -16.5 -72t-45.5 -50t-69 -29.5t-86 -9.5q-53 0 -95.5 10t-74 32.5t-50.5 59
t-24 89.5h112z" />
    <glyph glyph-name="dieresis" unicode="&#xa8;" horiz-adv-x="403" 
d="M350 724v-112h-109v112h109zM161 724v-112h-109v112h109z" />
    <glyph glyph-name="copyright" unicode="&#xa9;" horiz-adv-x="775" 
d="M563 303q-7 -71 -50.5 -111t-123.5 -40q-48 0 -83.5 15.5t-58.5 42.5t-34 64.5t-11 81.5q0 45 13 82.5t37.5 64.5t60 42.5t81.5 15.5q75 0 114.5 -36.5t49.5 -96.5l-88 -15q-8 33 -24.5 55t-54.5 22q-29 0 -48 -12t-30 -31t-15.5 -42.5t-4.5 -47.5q0 -27 5 -51t16 -42
t30 -29t46 -11q74 0 83 79h90zM388 65q56 0 105 20t85 57.5t57 91.5t21 123q0 66 -20.5 120t-56.5 92t-85 58.5t-106 20.5q-64 0 -114.5 -22.5t-85 -61.5t-52.5 -92.5t-18 -114.5q0 -68 20 -122.5t56 -92t85.5 -57.5t108.5 -20zM388 0q-78 0 -141.5 26t-108.5 73.5t-69 113
t-24 144.5q0 81 27 147t74 112.5t109 72t133 25.5q77 0 140 -26t107.5 -73t69 -113t24.5 -145q0 -84 -27.5 -150.5t-74.5 -112t-109 -70t-130 -24.5z" />
    <glyph glyph-name="ordfeminine" unicode="&#xaa;" horiz-adv-x="425" 
d="M239 517q-35 -3 -57 -7.5t-35 -12t-18 -18t-5 -23.5q-1 -11 4 -23q6 -34 56 -34q48 0 77 24t29 71v26zM291 387q-23 -27 -53 -42t-72 -15q-60 0 -96 29.5t-36 86.5q0 41 18.5 66t47.5 39t65 19.5t71 7.5l53 2v11q0 39 -18.5 56.5t-55.5 17.5q-42 0 -58.5 -15t-21.5 -36
l-80 9q11 57 51.5 83t112.5 26q47 0 77.5 -12t48 -32.5t24.5 -49t7 -61.5v-237h-85v47z" />
    <glyph glyph-name="guillemotleft" unicode="&#xab;" horiz-adv-x="522" 
d="M384 481h113l-120 -222l120 -228h-115l-129 227zM172 481h113l-121 -222l121 -228h-115l-131 227z" />
    <glyph glyph-name="logicalnot" unicode="&#xac;" 
d="M510 436v-268h-102v170h-339v98h441z" />
    <glyph glyph-name="uni00AD" unicode="&#xad;" horiz-adv-x="390" 
d="M343 352v-113h-296v113h296z" />
    <glyph glyph-name="registered" unicode="&#xae;" horiz-adv-x="486" 
d="M242 342q70 0 114 44t44 128q0 81 -43 126.5t-115 45.5t-114.5 -45.5t-42.5 -126.5q0 -83 42.5 -127.5t114.5 -44.5zM242 296q-49 0 -88 16t-66 44.5t-41.5 68.5t-14.5 89q0 51 16.5 91.5t45 68.5t67 43t81.5 15q47 0 86 -15.5t67 -44t43.5 -68.5t15.5 -90
q0 -54 -17.5 -95t-47 -68t-68 -41t-79.5 -14zM244 529q23 0 29.5 8.5t6.5 20.5q0 11 -9 18t-33 7h-30v-54h36zM239 622q28 0 46 -5.5t28 -14.5t13.5 -20.5t3.5 -22.5q0 -23 -7.5 -36t-26.5 -23l44 -86h-55l-36 75h-41v-75h-49v208h80z" />
    <glyph glyph-name="macron" unicode="&#xaf;" horiz-adv-x="403" 
d="M339 706v-89h-276v89h276z" />
    <glyph glyph-name="degree" unicode="&#xb0;" horiz-adv-x="340" 
d="M171 498q30 0 48.5 19.5t18.5 52.5q0 31 -18.5 51t-48.5 20q-32 0 -50.5 -20t-18.5 -51q0 -34 18.5 -53t50.5 -19zM28 570q0 30 10.5 55.5t29.5 44t45.5 29.5t57.5 11q30 0 55.5 -10.5t44.5 -29.5t30 -44.5t11 -55.5q0 -33 -11.5 -59.5t-31 -44.5t-45 -28t-53.5 -10
q-33 0 -59.5 11.5t-45 31t-28.5 45t-10 54.5z" />
    <glyph glyph-name="plusminus" unicode="&#xb1;" 
d="M67 54h458v-54h-458v54zM269 314h-201v53h201v214h54v-214h201v-53h-201v-215h-54v215z" />
    <glyph glyph-name="twosuperior" unicode="&#xb2;" horiz-adv-x="412" 
d="M67 362q15 13 35.5 29t58.5 48l41 35q29 26 44.5 49t15.5 55q0 25 -15 40t-41 15q-31 0 -48.5 -15.5t-25.5 -53.5l-86 11q6 24 16 48t29 42.5t48 30.5t71 12q69 0 106 -35t37 -90q0 -49 -28.5 -89.5t-81.5 -84.5l-21 -16l-33 -27h169l-11 -76h-289v64z" />
    <glyph glyph-name="threesuperior" unicode="&#xb3;" horiz-adv-x="412" 
d="M132 416q4 -39 23 -56.5t54 -17.5q33 0 53 14t20 50q0 32 -22 44t-51 12h-41v68h45q29 0 45.5 15t16.5 42q0 53 -66 53q-32 0 -49.5 -15.5t-25.5 -49.5l-79 12q4 24 15 45.5t29.5 38.5t46 27t65.5 10q75 0 110 -32.5t35 -81.5q0 -32 -15 -53.5t-39 -38.5q32 -14 48 -39.5
t16 -55.5q0 -60 -36.5 -96.5t-117.5 -36.5q-45 0 -75 13t-48.5 33t-27 45.5t-8.5 50.5h79z" />
    <glyph glyph-name="acute" unicode="&#xb4;" horiz-adv-x="403" 
d="M326 741l-143 -148h-107l117 148h133z" />
    <glyph glyph-name="mu" unicode="&#xb5;" horiz-adv-x="578" 
d="M178 520v-322q0 -63 19.5 -90.5t70.5 -27.5q15 0 28 2.5t26 9.5q12 6 25.5 16t25.5 24t19.5 32t7.5 41v315h114v-520h-111v75q-58 -88 -144 -88q-23 0 -44 5t-37 24v-210h-113v714h113z" />
    <glyph glyph-name="paragraph" unicode="&#xb6;" horiz-adv-x="632" 
d="M243 279q-63 4 -106 23t-69.5 48t-38 66.5t-11.5 79.5t13 81t46 69.5t89 49t142 18.5h256v-853h-110v759h-102v-759h-109v418z" />
    <glyph glyph-name="periodcentered" unicode="&#xb7;" horiz-adv-x="231" 
d="M176 442v-139h-121v139h121z" />
    <glyph glyph-name="cedilla" unicode="&#xb8;" horiz-adv-x="403" 
d="M108 -147q17 -2 28 -3t22 -1h15q45 0 45 31q0 16 -13 22.5t-44 7.5h-34l36 96h67l-20 -54q50 -5 70.5 -28t20.5 -53q0 -46 -36.5 -64.5t-95.5 -18.5q-15 0 -31.5 1t-36.5 4v61z" />
    <glyph glyph-name="onesuperior" unicode="&#xb9;" horiz-adv-x="412" 
d="M89 554l-34 63l133 75h86v-402h-91v314z" />
    <glyph glyph-name="ordmasculine" unicode="&#xba;" horiz-adv-x="425" 
d="M212 401q53 0 76 35t23 93t-23 92.5t-76 34.5t-76 -35.5t-23 -91.5q0 -60 23 -94t76 -34zM211 325q-90 0 -140.5 53.5t-50.5 150.5q0 47 13.5 84.5t39 64t60.5 40.5t79 14q89 0 140.5 -54t51.5 -148q0 -51 -15 -89.5t-41.5 -64t-61.5 -38.5t-75 -13z" />
    <glyph glyph-name="guillemotright" unicode="&#xbb;" horiz-adv-x="525" 
d="M25 481h115l130 -226l-132 -224h-113l120 223zM240 481h116l130 -226l-132 -224h-114l122 223z" />
    <glyph glyph-name="onequarter" unicode="&#xbc;" horiz-adv-x="924" 
d="M213 0l349 691h111l-349 -691h-111zM57 554l-34 63l133 75h86v-402h-91v314zM741 301l-109 -144h109v144zM743 403h79v-246h52l-10 -69h-42v-87h-81v87h-196v55z" />
    <glyph glyph-name="onehalf" unicode="&#xbd;" horiz-adv-x="924" 
d="M186 0l349 691h111l-349 -691h-111zM57 554l-34 63l133 75h86v-402h-91v314zM572 73q15 13 35.5 29t58.5 48l41 35q29 26 44.5 49t15.5 55q0 25 -15 40t-41 15q-31 0 -48.5 -15.5t-25.5 -53.5l-86 11q6 24 16 48t29 42.5t48 30.5t71 12q69 0 106 -35t37 -90
q0 -49 -28.5 -89.5t-81.5 -84.5l-21 -16l-33 -27h169l-11 -76h-289v64z" />
    <glyph glyph-name="threequarters" unicode="&#xbe;" horiz-adv-x="924" 
d="M260 0l349 691h111l-349 -691h-111zM741 301l-109 -144h109v144zM743 403h79v-246h52l-10 -69h-42v-87h-81v87h-196v55zM132 416q4 -39 23 -56.5t54 -17.5q33 0 53 14t20 50q0 32 -22 44t-51 12h-41v68h45q29 0 45.5 15t16.5 42q0 53 -66 53q-32 0 -49.5 -15.5
t-25.5 -49.5l-79 12q4 24 15 45.5t29.5 38.5t46 27t65.5 10q75 0 110 -32.5t35 -81.5q0 -32 -15 -53.5t-39 -38.5q32 -14 48 -39.5t16 -55.5q0 -60 -36.5 -96.5t-117.5 -36.5q-45 0 -75 13t-48.5 33t-27 45.5t-8.5 50.5h79z" />
    <glyph glyph-name="questiondown" unicode="&#xbf;" horiz-adv-x="497" 
d="M307 520v-138h-117v138h117zM476 -15q-9 -39 -26 -73.5t-44.5 -60.5t-68.5 -41t-98 -15q-105 0 -162 50t-57 133q0 31 6 54.5t17 42.5t25 35t31 33l35 34q24 24 41 50.5t17 61.5v15h112v-19q0 -42 -16.5 -71.5t-40.5 -55.5q-23 -24 -42.5 -43t-34 -37t-23.5 -38.5
t-9 -48.5q-1 -47 26 -73.5t76 -26.5q58 0 88.5 26.5t44.5 86.5l104 -14z" />
    <glyph glyph-name="Agrave" unicode="&#xc0;" horiz-adv-x="686" 
d="M283 714h120l272 -714h-129l-67 182h-277l-66 -182h-125zM446 283l-106 294l-105 -294h211zM427 773h-109l-149 139h136z" />
    <glyph glyph-name="Aacute" unicode="&#xc1;" horiz-adv-x="686" 
d="M283 714h120l272 -714h-129l-67 182h-277l-66 -182h-125zM446 283l-106 294l-105 -294h211zM516 912l-149 -139h-109l123 139h135z" />
    <glyph glyph-name="Acircumflex" unicode="&#xc2;" horiz-adv-x="686" 
d="M283 714h120l272 -714h-129l-67 182h-277l-66 -182h-125zM446 283l-106 294l-105 -294h211zM399 912l118 -139h-101l-74 75l-74 -75h-101l118 139h114z" />
    <glyph glyph-name="Atilde" unicode="&#xc3;" horiz-adv-x="686" 
d="M283 714h120l272 -714h-129l-67 182h-277l-66 -182h-125zM446 283l-106 294l-105 -294h211zM154 776q0 67 30.5 98.5t84.5 31.5q20 0 37.5 -7.5t33.5 -17t32 -17t33 -7.5q43 0 43 46h82q0 -68 -30.5 -98.5t-83.5 -30.5q-20 0 -37 6t-33 15l-26 15q-11 5 -19.5 8.5
t-19.5 3.5q-24 0 -34.5 -11.5t-10.5 -34.5h-82z" />
    <glyph glyph-name="Adieresis" unicode="&#xc4;" horiz-adv-x="686" 
d="M283 714h120l272 -714h-129l-67 182h-277l-66 -182h-125zM446 283l-106 294l-105 -294h211zM495 902v-116h-112v116h112zM301 902v-116h-112v116h112z" />
    <glyph glyph-name="Aring" unicode="&#xc5;" horiz-adv-x="686" 
d="M342 737q47 0 47 50q0 26 -13 38.5t-34 12.5q-47 0 -47 -51q0 -27 12.5 -38.5t34.5 -11.5zM340 577l-105 -294h211zM276 694q-14 8 -24 21t-14 32q-8 15 -8 40q0 54 32 82.5t80 28.5q21 0 41.5 -7t36 -21t25 -34.5t9.5 -48.5q0 -32 -12.5 -55t-32.5 -36l266 -696h-129
l-67 182h-277l-66 -182h-125z" />
    <glyph glyph-name="AE" unicode="&#xc6;" horiz-adv-x="1039" 
d="M424 714h568v-104h-332v-190h312v-105h-312v-211h351l-14 -104h-454v225h-280l-128 -225h-136zM543 327v283h-59l-162 -283h221z" />
    <glyph glyph-name="Ccedilla" unicode="&#xc7;" horiz-adv-x="712" 
d="M273 -151q23 -4 38.5 -5t29.5 -1q28 0 39 8t11 22t-13 22t-50 8h-29l30 82q-66 7 -118 36.5t-87 77t-53.5 112.5t-18.5 145q0 88 23.5 158t66.5 118.5t103 74t132 25.5q67 0 116 -17t83.5 -48.5t55 -75.5t30.5 -98l-119 -17q-8 36 -20 64t-31.5 47.5t-47.5 30t-67 10.5
q-48 0 -85 -19t-62.5 -54.5t-38.5 -85.5t-13 -112q0 -63 13.5 -113t39.5 -85.5t62.5 -54t83.5 -18.5q42 0 71.5 11t49.5 31t31.5 48.5t16.5 64.5h128q-6 -53 -26 -99t-54 -80.5t-83 -55t-113 -23.5l-13 -36q29 -3 48 -11t29.5 -19t14.5 -24.5t4 -28.5q0 -47 -37.5 -67
t-101.5 -20q-14 0 -30.5 1t-38.5 4v67z" />
    <glyph glyph-name="Egrave" unicode="&#xc8;" horiz-adv-x="599" 
d="M76 714h475v-104h-354v-190h334v-105h-334v-211h373l-14 -104h-480v714zM413 773h-109l-149 139h136z" />
    <glyph glyph-name="Eacute" unicode="&#xc9;" horiz-adv-x="599" 
d="M76 714h475v-104h-354v-190h334v-105h-334v-211h373l-14 -104h-480v714zM482 912l-149 -139h-109l123 139h135z" />
    <glyph glyph-name="Ecircumflex" unicode="&#xca;" horiz-adv-x="599" 
d="M76 714h475v-104h-354v-190h334v-105h-334v-211h373l-14 -104h-480v714zM372 912l118 -139h-101l-74 75l-74 -75h-101l118 139h114z" />
    <glyph glyph-name="Edieresis" unicode="&#xcb;" horiz-adv-x="599" 
d="M76 714h475v-104h-354v-190h334v-105h-334v-211h373l-14 -104h-480v714zM468 902v-116h-112v116h112zM274 902v-116h-112v116h112z" />
    <glyph glyph-name="Igrave" unicode="&#xcc;" horiz-adv-x="272" 
d="M76 714h121v-714h-121v714zM223 773h-109l-149 139h136z" />
    <glyph glyph-name="Iacute" unicode="&#xcd;" horiz-adv-x="272" 
d="M76 714h121v-714h-121v714zM311 912l-149 -139h-109l123 139h135z" />
    <glyph glyph-name="Icircumflex" unicode="&#xce;" horiz-adv-x="272" 
d="M76 714h121v-714h-121v714zM194 912l118 -139h-101l-74 75l-74 -75h-101l118 139h114z" />
    <glyph glyph-name="Idieresis" unicode="&#xcf;" horiz-adv-x="272" 
d="M76 714h121v-714h-121v714zM290 902v-116h-112v116h112zM96 902v-116h-112v116h112z" />
    <glyph glyph-name="Eth" unicode="&#xd0;" horiz-adv-x="741" 
d="M329 103q123 0 179 68.5t56 188.5q0 59 -12.5 105.5t-38.5 79t-66.5 49.5t-96.5 17h-138v-192h167v-101h-167v-215h117zM10 318v101h81v295h259q159 0 249 -89t90 -264q0 -92 -26.5 -160t-74 -112.5t-114.5 -66.5t-148 -22h-235v318h-81z" />
    <glyph glyph-name="Ntilde" unicode="&#xd1;" horiz-adv-x="710" 
d="M76 714h112l328 -516v516h118v-714h-112l-329 514v-514h-117v714zM167 776q0 67 30.5 98.5t84.5 31.5q20 0 37.5 -7.5t33.5 -17t32 -17t33 -7.5q43 0 43 46h82q0 -68 -30.5 -98.5t-83.5 -30.5q-20 0 -37 6t-33 15l-26 15q-11 5 -19.5 8.5t-19.5 3.5q-24 0 -34.5 -11.5
t-10.5 -34.5h-82z" />
    <glyph glyph-name="Ograve" unicode="&#xd2;" horiz-adv-x="772" 
d="M387 -18q-77 0 -138.5 25.5t-105.5 73.5t-67.5 117.5t-23.5 157.5t24 158t68 118.5t106 74t137 25.5q76 0 138 -25.5t105 -73.5t66.5 -117.5t23.5 -157.5q0 -89 -23 -158.5t-66 -118t-104.5 -74t-139.5 -25.5zM386 86q103 0 156 72.5t53 198.5q0 63 -13.5 113t-39.5 85
t-65 54t-91 19t-91 -19t-65.5 -54t-39.5 -85t-13 -113q0 -126 52.5 -198.5t156.5 -72.5zM486 773h-109l-149 139h136z" />
    <glyph glyph-name="Oacute" unicode="&#xd3;" horiz-adv-x="772" 
d="M387 -18q-77 0 -138.5 25.5t-105.5 73.5t-67.5 117.5t-23.5 157.5t24 158t68 118.5t106 74t137 25.5q76 0 138 -25.5t105 -73.5t66.5 -117.5t23.5 -157.5q0 -89 -23 -158.5t-66 -118t-104.5 -74t-139.5 -25.5zM386 86q103 0 156 72.5t53 198.5q0 63 -13.5 113t-39.5 85
t-65 54t-91 19t-91 -19t-65.5 -54t-39.5 -85t-13 -113q0 -126 52.5 -198.5t156.5 -72.5zM551 912l-149 -139h-109l123 139h135z" />
    <glyph glyph-name="Ocircumflex" unicode="&#xd4;" horiz-adv-x="772" 
d="M387 -18q-77 0 -138.5 25.5t-105.5 73.5t-67.5 117.5t-23.5 157.5t24 158t68 118.5t106 74t137 25.5q76 0 138 -25.5t105 -73.5t66.5 -117.5t23.5 -157.5q0 -89 -23 -158.5t-66 -118t-104.5 -74t-139.5 -25.5zM386 86q103 0 156 72.5t53 198.5q0 63 -13.5 113t-39.5 85
t-65 54t-91 19t-91 -19t-65.5 -54t-39.5 -85t-13 -113q0 -126 52.5 -198.5t156.5 -72.5zM443 912l118 -139h-101l-74 75l-74 -75h-101l118 139h114z" />
    <glyph glyph-name="Otilde" unicode="&#xd5;" horiz-adv-x="772" 
d="M387 -18q-77 0 -138.5 25.5t-105.5 73.5t-67.5 117.5t-23.5 157.5t24 158t68 118.5t106 74t137 25.5q76 0 138 -25.5t105 -73.5t66.5 -117.5t23.5 -157.5q0 -89 -23 -158.5t-66 -118t-104.5 -74t-139.5 -25.5zM386 86q103 0 156 72.5t53 198.5q0 63 -13.5 113t-39.5 85
t-65 54t-91 19t-91 -19t-65.5 -54t-39.5 -85t-13 -113q0 -126 52.5 -198.5t156.5 -72.5zM198 776q0 67 30.5 98.5t84.5 31.5q20 0 37.5 -7.5t33.5 -17t32 -17t33 -7.5q43 0 43 46h82q0 -68 -30.5 -98.5t-83.5 -30.5q-20 0 -37 6t-33 15l-26 15q-11 5 -19.5 8.5t-19.5 3.5
q-24 0 -34.5 -11.5t-10.5 -34.5h-82z" />
    <glyph glyph-name="Odieresis" unicode="&#xd6;" horiz-adv-x="772" 
d="M387 -18q-77 0 -138.5 25.5t-105.5 73.5t-67.5 117.5t-23.5 157.5t24 158t68 118.5t106 74t137 25.5q76 0 138 -25.5t105 -73.5t66.5 -117.5t23.5 -157.5q0 -89 -23 -158.5t-66 -118t-104.5 -74t-139.5 -25.5zM386 86q103 0 156 72.5t53 198.5q0 63 -13.5 113t-39.5 85
t-65 54t-91 19t-91 -19t-65.5 -54t-39.5 -85t-13 -113q0 -126 52.5 -198.5t156.5 -72.5zM539 902v-116h-112v116h112zM345 902v-116h-112v116h112z" />
    <glyph glyph-name="multiply" unicode="&#xd7;" 
d="M76 490l69 70l151 -151l151 151l69 -70l-150 -151l147 -148l-70 -70l-147 148l-148 -148l-69 70l147 148z" />
    <glyph glyph-name="Oslash" unicode="&#xd8;" horiz-adv-x="772" 
d="M496 597q-24 15 -51 23t-59 8q-53 0 -92.5 -19t-65.5 -54.5t-38.5 -85.5t-12.5 -112q0 -56 10 -101t31 -79zM267 121q47 -35 119 -35q104 0 156.5 71.5t52.5 199.5q0 119 -47 190zM149 73q-97 97 -97 283q0 89 24 159t68 118t106 73.5t137 25.5q48 0 90.5 -11t79.5 -31
l52 78l59 -39l-53 -81q51 -49 78 -122.5t27 -167.5q0 -90 -23.5 -160t-67 -118t-105 -73t-137.5 -25q-54 0 -98.5 12t-82.5 35l-55 -83l-60 39z" />
    <glyph glyph-name="Ugrave" unicode="&#xd9;" horiz-adv-x="688" 
d="M185 714v-428q0 -101 36.5 -150.5t123.5 -49.5q86 0 121.5 49.5t35.5 150.5v428h121v-428q0 -83 -20 -140.5t-57 -94t-88 -53t-114 -16.5q-137 0 -208 73.5t-71 233.5v425h120zM435 773h-109l-149 139h136z" />
    <glyph glyph-name="Uacute" unicode="&#xda;" horiz-adv-x="688" 
d="M185 714v-428q0 -101 36.5 -150.5t123.5 -49.5q86 0 121.5 49.5t35.5 150.5v428h121v-428q0 -83 -20 -140.5t-57 -94t-88 -53t-114 -16.5q-137 0 -208 73.5t-71 233.5v425h120zM517 912l-149 -139h-109l123 139h135z" />
    <glyph glyph-name="Ucircumflex" unicode="&#xdb;" horiz-adv-x="688" 
d="M185 714v-428q0 -101 36.5 -150.5t123.5 -49.5q86 0 121.5 49.5t35.5 150.5v428h121v-428q0 -83 -20 -140.5t-57 -94t-88 -53t-114 -16.5q-137 0 -208 73.5t-71 233.5v425h120zM400 912l118 -139h-101l-74 75l-74 -75h-101l118 139h114z" />
    <glyph glyph-name="Udieresis" unicode="&#xdc;" horiz-adv-x="688" 
d="M185 714v-428q0 -101 36.5 -150.5t123.5 -49.5q86 0 121.5 49.5t35.5 150.5v428h121v-428q0 -83 -20 -140.5t-57 -94t-88 -53t-114 -16.5q-137 0 -208 73.5t-71 233.5v425h120zM496 902v-116h-112v116h112zM302 902v-116h-112v116h112z" />
    <glyph glyph-name="Yacute" unicode="&#xdd;" horiz-adv-x="635" 
d="M260 297l-248 417h135l172 -310l176 310h128l-243 -417v-297h-120v297zM493 912l-149 -139h-109l123 139h135z" />
    <glyph glyph-name="Thorn" unicode="&#xde;" horiz-adv-x="633" 
d="M322 239q46 0 75.5 9t46.5 25.5t23.5 39.5t6.5 52t-7 51.5t-24 37.5t-47 23t-75 8h-126v-246h127zM195 714v-128h128q80 0 132.5 -18t83 -48t42.5 -69.5t12 -82.5q0 -48 -13 -90t-44 -73t-82.5 -49t-128.5 -18h-130v-138h-119v714h119z" />
    <glyph glyph-name="germandbls" unicode="&#xdf;" horiz-adv-x="590" 
d="M65 509q0 51 16 90.5t45 67t69.5 41.5t88.5 14q102 0 159 -45.5t57 -130.5q0 -53 -21 -89.5t-66 -61.5q66 -17 104 -65t38 -129q0 -95 -51 -150.5t-151 -59.5q-15 -1 -31 0q-23 0 -47 4t-43 11l17 86q11 -5 30 -8.5t35 -3.5q73 0 101 31.5t28 96.5q0 69 -41 97t-115 28
h-39v89h25q57 0 86.5 24.5t29.5 88.5q0 43 -23.5 71.5t-78.5 28.5q-65 0 -89 -40.5t-24 -116.5v-478h-109v509z" />
    <glyph glyph-name="agrave" unicode="&#xe0;" horiz-adv-x="549" 
d="M305 243q-51 -3 -82.5 -11t-48.5 -20.5t-22.5 -29t-5.5 -35.5q0 -34 21.5 -53t63.5 -19q75 0 111 38t36 103v30zM380 68q-29 -35 -71 -58t-102 -23q-37 0 -69 9.5t-55.5 28.5t-37 48.5t-13.5 69.5q0 54 24 87.5t62.5 52.5t86.5 26.5t96 9.5l77 4v22q0 59 -28.5 81.5
t-74.5 22.5q-53 0 -78.5 -18t-33.5 -52l-104 11q14 76 69 111t151 35q62 0 102.5 -16t64.5 -44t33.5 -66.5t9.5 -84.5v-325h-109v68zM257 741l117 -148h-107l-143 148h133z" />
    <glyph glyph-name="aacute" unicode="&#xe1;" horiz-adv-x="549" 
d="M305 243q-51 -3 -82.5 -11t-48.5 -20.5t-22.5 -29t-5.5 -35.5q0 -34 21.5 -53t63.5 -19q75 0 111 38t36 103v30zM380 68q-29 -35 -71 -58t-102 -23q-37 0 -69 9.5t-55.5 28.5t-37 48.5t-13.5 69.5q0 54 24 87.5t62.5 52.5t86.5 26.5t96 9.5l77 4v22q0 59 -28.5 81.5
t-74.5 22.5q-53 0 -78.5 -18t-33.5 -52l-104 11q14 76 69 111t151 35q62 0 102.5 -16t64.5 -44t33.5 -66.5t9.5 -84.5v-325h-109v68zM442 741l-143 -148h-107l117 148h133z" />
    <glyph glyph-name="acircumflex" unicode="&#xe2;" horiz-adv-x="549" 
d="M305 243q-51 -3 -82.5 -11t-48.5 -20.5t-22.5 -29t-5.5 -35.5q0 -34 21.5 -53t63.5 -19q75 0 111 38t36 103v30zM380 68q-29 -35 -71 -58t-102 -23q-37 0 -69 9.5t-55.5 28.5t-37 48.5t-13.5 69.5q0 54 24 87.5t62.5 52.5t86.5 26.5t96 9.5l77 4v22q0 59 -28.5 81.5
t-74.5 22.5q-53 0 -78.5 -18t-33.5 -52l-104 11q14 76 69 111t151 35q62 0 102.5 -16t64.5 -44t33.5 -66.5t9.5 -84.5v-325h-109v68zM330 741l117 -148h-100l-74 85l-74 -85h-101l118 148h114z" />
    <glyph glyph-name="atilde" unicode="&#xe3;" horiz-adv-x="549" 
d="M305 243q-51 -3 -82.5 -11t-48.5 -20.5t-22.5 -29t-5.5 -35.5q0 -34 21.5 -53t63.5 -19q75 0 111 38t36 103v30zM380 68q-29 -35 -71 -58t-102 -23q-37 0 -69 9.5t-55.5 28.5t-37 48.5t-13.5 69.5q0 54 24 87.5t62.5 52.5t86.5 26.5t96 9.5l77 4v22q0 59 -28.5 81.5
t-74.5 22.5q-53 0 -78.5 -18t-33.5 -52l-104 11q14 76 69 111t151 35q62 0 102.5 -16t64.5 -44t33.5 -66.5t9.5 -84.5v-325h-109v68zM90 603q0 66 29.5 98t81.5 32q18 0 35 -7.5t33.5 -16.5t32.5 -16.5t33 -7.5q42 0 42 45h79q0 -68 -29.5 -98.5t-80.5 -30.5q-19 0 -36 6
t-32 14l-29 17q-10 5 -18.5 8t-18.5 3q-43 0 -43 -46h-79z" />
    <glyph glyph-name="adieresis" unicode="&#xe4;" horiz-adv-x="549" 
d="M305 243q-51 -3 -82.5 -11t-48.5 -20.5t-22.5 -29t-5.5 -35.5q0 -34 21.5 -53t63.5 -19q75 0 111 38t36 103v30zM380 68q-29 -35 -71 -58t-102 -23q-37 0 -69 9.5t-55.5 28.5t-37 48.5t-13.5 69.5q0 54 24 87.5t62.5 52.5t86.5 26.5t96 9.5l77 4v22q0 59 -28.5 81.5
t-74.5 22.5q-53 0 -78.5 -18t-33.5 -52l-104 11q14 76 69 111t151 35q62 0 102.5 -16t64.5 -44t33.5 -66.5t9.5 -84.5v-325h-109v68zM422 724v-112h-109v112h109zM233 724v-112h-109v112h109z" />
    <glyph glyph-name="aring" unicode="&#xe5;" horiz-adv-x="549" 
d="M305 243q-51 -3 -82.5 -11t-48.5 -20.5t-22.5 -29t-5.5 -35.5q0 -34 21.5 -53t63.5 -19q75 0 111 38t36 103v30zM380 68q-29 -35 -71 -58t-102 -23q-37 0 -69 9.5t-55.5 28.5t-37 48.5t-13.5 69.5q0 54 24 87.5t62.5 52.5t86.5 26.5t96 9.5l77 4v22q0 59 -28.5 81.5
t-74.5 22.5q-53 0 -78.5 -18t-33.5 -52l-104 11q14 76 69 111t151 35q62 0 102.5 -16t64.5 -44t33.5 -66.5t9.5 -84.5v-325h-109v68zM273 646q20 0 32.5 12t12.5 37t-12 37t-33 12q-46 0 -46 -49t46 -49zM164 695q0 26 8.5 46t23.5 33.5t35 20.5t42 7q45 0 77 -28.5
t32 -78.5q0 -29 -9.5 -49t-25 -32.5t-35 -18.5t-39.5 -6q-46 0 -77.5 26t-31.5 80z" />
    <glyph glyph-name="ae" unicode="&#xe6;" horiz-adv-x="895" 
d="M738 311q0 64 -29.5 101t-92.5 37t-95 -38t-37 -100h254zM299 243q-50 -3 -80 -11t-46 -20t-21.5 -28.5t-5.5 -36.5q0 -35 21.5 -53.5t61.5 -18.5q69 0 106 36.5t37 101.5v33zM59 390q14 76 69 111t148 35q62 0 102 -20t66 -68q35 48 79 68t95 20q59 0 102.5 -18.5
t72 -52t42.5 -80t14 -103.5v-50h-367q2 -70 35.5 -114.5t100.5 -44.5q51 0 78 21t36 60h110q-15 -84 -69.5 -127t-154.5 -43q-66 0 -118.5 26.5t-80.5 80.5q-14 -20 -32 -39t-42 -33.5t-55.5 -23t-70.5 -8.5q-84 0 -135.5 37.5t-51.5 118.5q0 54 24 88t62 52.5t84.5 26
t92.5 9.5l77 4v22q0 60 -27.5 82t-72.5 22q-80 0 -99 -52q-50 -3 -97 -9z" />
    <glyph glyph-name="ccedilla" unicode="&#xe7;" horiz-adv-x="564" 
d="M194 -147q12 -1 21 -2q10 -1 19 -2q33 0 41 12q31 2 29 23q-2 14 -16 20t-46 6h-29l29 78q-101 16 -148 87t-47 183q0 62 17 113.5t49.5 88t79.5 56.5t107 20q53 0 91 -14t63.5 -38t40 -56t20.5 -69l-113 -17q-8 44 -30.5 73t-75.5 29q-38 0 -63.5 -16t-40.5 -42
t-21 -58.5t-6 -66.5q0 -39 6.5 -73t22 -58.5t40.5 -39t61 -14.5q52 0 78.5 27.5t34.5 78.5h115q-11 -91 -63 -142t-152 -55l-11 -33q49 -5 67.5 -25t22.5 -47v-15q-3 -45 -41.5 -61t-100.5 -16q-13 0 -26.5 1.5t-30.5 3.5v61z" />
    <glyph glyph-name="egrave" unicode="&#xe8;" horiz-adv-x="580" 
d="M527 154q-14 -81 -69 -125.5t-158 -44.5q-124 0 -188.5 71.5t-64.5 201.5q0 67 18.5 119t52 87.5t80 54t102.5 18.5q60 0 104 -18.5t73 -52t43 -80t14 -103.5v-50h-373q2 -71 36 -115t103 -44q54 0 81 21t36 60h110zM423 311q0 64 -30 101t-96 37q-63 0 -96 -37.5
t-38 -100.5h260zM273 741l117 -148h-107l-143 148h133z" />
    <glyph glyph-name="eacute" unicode="&#xe9;" horiz-adv-x="580" 
d="M527 154q-14 -81 -69 -125.5t-158 -44.5q-124 0 -188.5 71.5t-64.5 201.5q0 67 18.5 119t52 87.5t80 54t102.5 18.5q60 0 104 -18.5t73 -52t43 -80t14 -103.5v-50h-373q2 -71 36 -115t103 -44q54 0 81 21t36 60h110zM423 311q0 64 -30 101t-96 37q-63 0 -96 -37.5
t-38 -100.5h260zM461 741l-143 -148h-107l117 148h133z" />
    <glyph glyph-name="ecircumflex" unicode="&#xea;" horiz-adv-x="580" 
d="M527 154q-14 -81 -69 -125.5t-158 -44.5q-124 0 -188.5 71.5t-64.5 201.5q0 67 18.5 119t52 87.5t80 54t102.5 18.5q60 0 104 -18.5t73 -52t43 -80t14 -103.5v-50h-373q2 -71 36 -115t103 -44q54 0 81 21t36 60h110zM423 311q0 64 -30 101t-96 37q-63 0 -96 -37.5
t-38 -100.5h260zM354 741l117 -148h-100l-74 85l-74 -85h-101l118 148h114z" />
    <glyph glyph-name="edieresis" unicode="&#xeb;" horiz-adv-x="580" 
d="M527 154q-14 -81 -69 -125.5t-158 -44.5q-124 0 -188.5 71.5t-64.5 201.5q0 67 18.5 119t52 87.5t80 54t102.5 18.5q60 0 104 -18.5t73 -52t43 -80t14 -103.5v-50h-373q2 -71 36 -115t103 -44q54 0 81 21t36 60h110zM423 311q0 64 -30 101t-96 37q-63 0 -96 -37.5
t-38 -100.5h260zM446 724v-112h-109v112h109zM257 724v-112h-109v112h109z" />
    <glyph glyph-name="igrave" unicode="&#xec;" horiz-adv-x="246" 
d="M180 520v-520h-114v520h114zM79 741l117 -148h-107l-143 148h133z" />
    <glyph glyph-name="iacute" unicode="&#xed;" horiz-adv-x="246" 
d="M180 520v-520h-114v520h114zM304 741l-143 -148h-107l117 148h133z" />
    <glyph glyph-name="icircumflex" unicode="&#xee;" horiz-adv-x="246" 
d="M180 520v-520h-114v520h114zM180 741l117 -148h-100l-74 85l-74 -85h-101l118 148h114z" />
    <glyph glyph-name="idieresis" unicode="&#xef;" horiz-adv-x="246" 
d="M180 520v-520h-114v520h114zM272 724v-112h-109v112h109zM83 724v-112h-109v112h109z" />
    <glyph glyph-name="eth" unicode="&#xf0;" horiz-adv-x="609" 
d="M443 247q0 45 -12 74.5t-32.5 47t-46.5 24.5t-54 7q-62 0 -97.5 -45t-35.5 -117q0 -73 35.5 -117.5t103.5 -44.5q67 0 103 45t36 120v6zM233 630q-23 7 -48.5 11t-53.5 6l17 88q44 -5 82.5 -12.5t75.5 -19.5l62 61l46 -48l-42 -42q94 -51 141.5 -146.5t47.5 -246.5
q0 -75 -20 -131t-54.5 -92.5t-81.5 -55t-102 -18.5q-61 0 -108.5 18.5t-80.5 52t-50 80t-17 102.5q0 58 19 105t51 80.5t75.5 51.5t93.5 18q53 0 90.5 -17t65.5 -51q-13 61 -44.5 107t-93.5 75l-74 -74l-47 49z" />
    <glyph glyph-name="ntilde" unicode="&#xf1;" horiz-adv-x="581" 
d="M175 520v-76q35 48 78.5 70t93.5 22q174 0 174 -192v-344h-114v326q0 63 -23 88.5t-68 25.5q-30 0 -55.5 -10.5t-43.5 -28.5t-28.5 -41.5t-10.5 -49.5v-310h-113v520h110zM110 603q0 66 29.5 98t81.5 32q18 0 35 -7.5t33.5 -16.5t32.5 -16.5t33 -7.5q42 0 42 45h79
q0 -68 -29.5 -98.5t-80.5 -30.5q-19 0 -36 6t-32 14l-29 17q-10 5 -18.5 8t-18.5 3q-43 0 -43 -46h-79z" />
    <glyph glyph-name="ograve" unicode="&#xf2;" horiz-adv-x="609" 
d="M304 76q72 0 105.5 49.5t33.5 135.5q0 85 -33.5 134t-105.5 49t-105.5 -49.5t-33.5 -133.5q0 -85 32.5 -135t106.5 -50zM303 -16q-122 0 -189 72t-67 204q0 62 17.5 113t50.5 87t81 56t109 20q62 0 110 -20.5t80.5 -56.5t49 -86.5t16.5 -110.5q0 -68 -19 -119.5
t-53.5 -87t-81.5 -53.5t-104 -18zM284 741l117 -148h-107l-143 148h133z" />
    <glyph glyph-name="oacute" unicode="&#xf3;" horiz-adv-x="609" 
d="M304 76q72 0 105.5 49.5t33.5 135.5q0 85 -33.5 134t-105.5 49t-105.5 -49.5t-33.5 -133.5q0 -85 32.5 -135t106.5 -50zM303 -16q-122 0 -189 72t-67 204q0 62 17.5 113t50.5 87t81 56t109 20q62 0 110 -20.5t80.5 -56.5t49 -86.5t16.5 -110.5q0 -68 -19 -119.5
t-53.5 -87t-81.5 -53.5t-104 -18zM469 741l-143 -148h-107l117 148h133z" />
    <glyph glyph-name="ocircumflex" unicode="&#xf4;" horiz-adv-x="609" 
d="M304 76q72 0 105.5 49.5t33.5 135.5q0 85 -33.5 134t-105.5 49t-105.5 -49.5t-33.5 -133.5q0 -85 32.5 -135t106.5 -50zM303 -16q-122 0 -189 72t-67 204q0 62 17.5 113t50.5 87t81 56t109 20q62 0 110 -20.5t80.5 -56.5t49 -86.5t16.5 -110.5q0 -68 -19 -119.5
t-53.5 -87t-81.5 -53.5t-104 -18zM361 741l117 -148h-100l-74 85l-74 -85h-101l118 148h114z" />
    <glyph glyph-name="otilde" unicode="&#xf5;" horiz-adv-x="609" 
d="M304 76q72 0 105.5 49.5t33.5 135.5q0 85 -33.5 134t-105.5 49t-105.5 -49.5t-33.5 -133.5q0 -85 32.5 -135t106.5 -50zM303 -16q-122 0 -189 72t-67 204q0 62 17.5 113t50.5 87t81 56t109 20q62 0 110 -20.5t80.5 -56.5t49 -86.5t16.5 -110.5q0 -68 -19 -119.5
t-53.5 -87t-81.5 -53.5t-104 -18zM121 603q0 66 29.5 98t81.5 32q18 0 35 -7.5t33.5 -16.5t32.5 -16.5t33 -7.5q42 0 42 45h79q0 -68 -29.5 -98.5t-80.5 -30.5q-19 0 -36 6t-32 14l-29 17q-10 5 -18.5 8t-18.5 3q-43 0 -43 -46h-79z" />
    <glyph glyph-name="odieresis" unicode="&#xf6;" horiz-adv-x="609" 
d="M304 76q72 0 105.5 49.5t33.5 135.5q0 85 -33.5 134t-105.5 49t-105.5 -49.5t-33.5 -133.5q0 -85 32.5 -135t106.5 -50zM303 -16q-122 0 -189 72t-67 204q0 62 17.5 113t50.5 87t81 56t109 20q62 0 110 -20.5t80.5 -56.5t49 -86.5t16.5 -110.5q0 -68 -19 -119.5
t-53.5 -87t-81.5 -53.5t-104 -18zM453 724v-112h-109v112h109zM264 724v-112h-109v112h109z" />
    <glyph glyph-name="divide" unicode="&#xf7;" 
d="M514 390v-99h-436v99h436zM349 213v-120h-108v120h108zM349 583v-120h-108v120h108z" />
    <glyph glyph-name="oslash" unicode="&#xf8;" horiz-adv-x="609" 
d="M375 426q-15 8 -32 13t-39 5q-73 0 -106 -49.5t-33 -133.5q0 -34 5 -62t18 -51zM233 93q14 -8 31 -12.5t40 -4.5q72 0 105.5 50t33.5 135q0 31 -5.5 60t-16.5 51zM121 49q-74 72 -74 211q0 63 18 114t51 87t81 55.5t108 19.5q67 0 126 -28l43 64l56 -38l-44 -65
q36 -36 55.5 -88.5t19.5 -118.5t-19 -118t-53 -87.5t-81.5 -54t-104.5 -18.5q-36 0 -67.5 7t-59.5 20l-47 -71l-56 38z" />
    <glyph glyph-name="ugrave" unicode="&#xf9;" horiz-adv-x="574" 
d="M174 520v-327q0 -65 21.5 -89t65.5 -24q24 0 48.5 9t43.5 26t31 41t12 54v310h114v-520h-111v76q-36 -48 -78 -70t-90 -22q-91 0 -130.5 47t-39.5 144v345h113zM262 741l117 -148h-107l-143 148h133z" />
    <glyph glyph-name="uacute" unicode="&#xfa;" horiz-adv-x="574" 
d="M174 520v-327q0 -65 21.5 -89t65.5 -24q24 0 48.5 9t43.5 26t31 41t12 54v310h114v-520h-111v76q-36 -48 -78 -70t-90 -22q-91 0 -130.5 47t-39.5 144v345h113zM450 741l-143 -148h-107l117 148h133z" />
    <glyph glyph-name="ucircumflex" unicode="&#xfb;" horiz-adv-x="574" 
d="M174 520v-327q0 -65 21.5 -89t65.5 -24q24 0 48.5 9t43.5 26t31 41t12 54v310h114v-520h-111v76q-36 -48 -78 -70t-90 -22q-91 0 -130.5 47t-39.5 144v345h113zM344 741l117 -148h-100l-74 85l-74 -85h-101l118 148h114z" />
    <glyph glyph-name="udieresis" unicode="&#xfc;" horiz-adv-x="574" 
d="M174 520v-327q0 -65 21.5 -89t65.5 -24q24 0 48.5 9t43.5 26t31 41t12 54v310h114v-520h-111v76q-36 -48 -78 -70t-90 -22q-91 0 -130.5 47t-39.5 144v345h113zM435 724v-112h-109v112h109zM246 724v-112h-109v112h109z" />
    <glyph glyph-name="yacute" unicode="&#xfd;" horiz-adv-x="545" 
d="M71 -92q25 -9 57 -9q30 0 47 14.5t32 54.5l19 50l-219 502h132l143 -375l131 375h124l-207 -525q-18 -46 -34 -81t-36 -59t-47.5 -36.5t-67.5 -12.5q-26 0 -48 3.5t-47 11.5zM434 741l-143 -148h-107l117 148h133z" />
    <glyph glyph-name="thorn" unicode="&#xfe;" horiz-adv-x="610" 
d="M177 243q1 -50 12.5 -82t30 -51t42.5 -26t50 -7q28 0 52 10t42 31.5t28 56.5t10 86q0 49 -10.5 83.5t-27.5 56t-40.5 31.5t-48.5 10q-37 0 -63.5 -12t-43.5 -34t-25 -52.5t-8 -67.5v-25v-8zM178 714v-262q31 41 72.5 62.5t93.5 21.5q56 0 97 -20t68 -56t40.5 -86.5
t13.5 -111.5q0 -64 -16 -115.5t-46 -87.5t-72 -55.5t-94 -19.5q-45 0 -84.5 16t-72.5 59v-253h-113v908h113z" />
    <glyph glyph-name="ydieresis" unicode="&#xff;" horiz-adv-x="545" 
d="M71 -92q25 -9 57 -9q30 0 47 14.5t32 54.5l19 50l-219 502h132l143 -375l131 375h124l-207 -525q-18 -46 -34 -81t-36 -59t-47.5 -36.5t-67.5 -12.5q-26 0 -48 3.5t-47 11.5zM422 724v-112h-109v112h109zM233 724v-112h-109v112h109z" />
    <glyph glyph-name="Amacron" unicode="&#x100;" horiz-adv-x="686" 
d="M283 714h120l272 -714h-129l-67 182h-277l-66 -182h-125zM446 283l-106 294l-105 -294h211zM493 885v-92h-301v92h301z" />
    <glyph glyph-name="amacron" unicode="&#x101;" horiz-adv-x="549" 
d="M305 243q-51 -3 -82.5 -11t-48.5 -20.5t-22.5 -29t-5.5 -35.5q0 -34 21.5 -53t63.5 -19q75 0 111 38t36 103v30zM380 68q-29 -35 -71 -58t-102 -23q-37 0 -69 9.5t-55.5 28.5t-37 48.5t-13.5 69.5q0 54 24 87.5t62.5 52.5t86.5 26.5t96 9.5l77 4v22q0 59 -28.5 81.5
t-74.5 22.5q-53 0 -78.5 -18t-33.5 -52l-104 11q14 76 69 111t151 35q62 0 102.5 -16t64.5 -44t33.5 -66.5t9.5 -84.5v-325h-109v68zM407 706v-89h-276v89h276z" />
    <glyph glyph-name="Abreve" unicode="&#x102;" horiz-adv-x="686" 
d="M283 714h120l272 -714h-129l-67 182h-277l-66 -182h-125zM446 283l-106 294l-105 -294h211zM277 919q0 -40 19.5 -57t45.5 -17t45 16.5t19 57.5h86q0 -74 -41 -110t-109 -36q-71 0 -110.5 37t-39.5 109h85z" />
    <glyph glyph-name="abreve" unicode="&#x103;" horiz-adv-x="549" 
d="M305 243q-51 -3 -82.5 -11t-48.5 -20.5t-22.5 -29t-5.5 -35.5q0 -34 21.5 -53t63.5 -19q75 0 111 38t36 103v30zM380 68q-29 -35 -71 -58t-102 -23q-37 0 -69 9.5t-55.5 28.5t-37 48.5t-13.5 69.5q0 54 24 87.5t62.5 52.5t86.5 26.5t96 9.5l77 4v22q0 59 -28.5 81.5
t-74.5 22.5q-53 0 -78.5 -18t-33.5 -52l-104 11q14 76 69 111t151 35q62 0 102.5 -16t64.5 -44t33.5 -66.5t9.5 -84.5v-325h-109v68zM208 738q0 -41 19 -58t45 -17q25 0 44 17t19 58h84q0 -74 -40 -111t-107 -37q-69 0 -107 37.5t-38 110.5h81z" />
    <glyph glyph-name="Aogonek" unicode="&#x104;" horiz-adv-x="686" 
d="M340 577l-105 -294h211zM403 714l272 -714q-28 -17 -47 -36t-21 -39q-3 -18 5 -27q8 -17 33 -17q8 0 13.5 0.5t16.5 2.5v-75q-11 -2 -21 -2h-20q-61 0 -89.5 15.5t-35.5 46.5q-3 12 -3 23q0 31 19 56.5t56 51.5h-35l-67 182h-277l-66 -182h-125l272 714h120z" />
    <glyph glyph-name="aogonek" unicode="&#x105;" horiz-adv-x="549" 
d="M305 243q-51 -3 -82.5 -11t-48.5 -20.5t-22.5 -29t-5.5 -35.5q0 -34 21.5 -53t63.5 -19q75 0 111 38t36 103v30zM374 61q-30 -32 -69.5 -53t-97.5 -21q-37 0 -69 9.5t-55.5 28.5t-37 48.5t-13.5 69.5q0 54 24 87.5t62 52.5t86.5 26.5t96.5 9.5l77 4v22q0 58 -27.5 81
t-75.5 23q-53 0 -78.5 -18t-33.5 -52l-104 11q14 76 69 111t151 35q59 0 99 -14.5t65 -41t35.5 -64t10.5 -83.5v-333q-29 -17 -47.5 -37t-20.5 -41q0 -10 1 -14q4 -11 12.5 -16t19.5 -6q5 -1 9 -0.5t8 0.5q3 0 7.5 0.5t9.5 0.5v-72q-8 -1 -14.5 -1.5t-13.5 -0.5h-18
q-9 0 -20 1q-46 2 -66 19t-26 40q-3 17 -2 31q2 28 20 52t50 44l-18 9v59z" />
    <glyph glyph-name="Cacute" unicode="&#x106;" horiz-adv-x="712" 
d="M674 241q-6 -56 -27 -103t-58 -82t-90 -54.5t-123 -19.5q-77 0 -137.5 26t-102 74.5t-63 118t-21.5 155.5q0 88 23.5 158t66.5 118.5t103 74t132 25.5q67 0 116 -17t83.5 -48.5t55 -75.5t30.5 -98l-119 -17q-8 36 -20 64t-31.5 47.5t-47.5 30t-67 10.5q-48 0 -85 -19
t-62.5 -54.5t-38.5 -85.5t-13 -112q0 -63 13.5 -113t39.5 -85.5t62.5 -54t83.5 -18.5q42 0 71.5 11t49.5 31t31.5 48.5t16.5 64.5h128zM546 912l-149 -139h-109l123 139h135z" />
    <glyph glyph-name="cacute" unicode="&#x107;" horiz-adv-x="564" 
d="M523 182q-10 -93 -66.5 -145.5t-161.5 -52.5q-63 0 -109.5 19.5t-77.5 55.5t-46 86.5t-15 112.5t17 113.5t49.5 88t79.5 56.5t107 20q55 0 93 -14.5t63 -39t39 -56.5t20 -67l-113 -17q-8 44 -30.5 73t-75.5 29q-38 0 -63 -16t-40 -41.5t-21.5 -58.5t-6.5 -67q0 -39 7 -73
t22 -58.5t40 -39t61 -14.5q52 0 79 27.5t34 78.5h115zM456 741l-143 -148h-107l117 148h133z" />
    <glyph glyph-name="Ccircumflex" unicode="&#x108;" horiz-adv-x="712" 
d="M674 241q-6 -56 -27 -103t-58 -82t-90 -54.5t-123 -19.5q-77 0 -137.5 26t-102 74.5t-63 118t-21.5 155.5q0 88 23.5 158t66.5 118.5t103 74t132 25.5q67 0 116 -17t83.5 -48.5t55 -75.5t30.5 -98l-119 -17q-8 36 -20 64t-31.5 47.5t-47.5 30t-67 10.5q-48 0 -85 -19
t-62.5 -54.5t-38.5 -85.5t-13 -112q0 -63 13.5 -113t39.5 -85.5t62.5 -54t83.5 -18.5q42 0 71.5 11t49.5 31t31.5 48.5t16.5 64.5h128zM432 912l118 -139h-101l-74 75l-74 -75h-101l118 139h114z" />
    <glyph glyph-name="ccircumflex" unicode="&#x109;" horiz-adv-x="564" 
d="M523 182q-10 -93 -66.5 -145.5t-161.5 -52.5q-63 0 -109.5 19.5t-77.5 55.5t-46 86.5t-15 112.5t17 113.5t49.5 88t79.5 56.5t107 20q55 0 93 -14.5t63 -39t39 -56.5t20 -67l-113 -17q-8 44 -30.5 73t-75.5 29q-38 0 -63 -16t-40 -41.5t-21.5 -58.5t-6.5 -67q0 -39 7 -73
t22 -58.5t40 -39t61 -14.5q52 0 79 27.5t34 78.5h115zM353 741l117 -148h-100l-74 85l-74 -85h-101l118 148h114z" />
    <glyph glyph-name="Cdotaccent" unicode="&#x10a;" horiz-adv-x="712" 
d="M674 241q-6 -56 -27 -103t-58 -82t-90 -54.5t-123 -19.5q-77 0 -137.5 26t-102 74.5t-63 118t-21.5 155.5q0 88 23.5 158t66.5 118.5t103 74t132 25.5q67 0 116 -17t83.5 -48.5t55 -75.5t30.5 -98l-119 -17q-8 36 -20 64t-31.5 47.5t-47.5 30t-67 10.5q-48 0 -85 -19
t-62.5 -54.5t-38.5 -85.5t-13 -112q0 -63 13.5 -113t39.5 -85.5t62.5 -54t83.5 -18.5q42 0 71.5 11t49.5 31t31.5 48.5t16.5 64.5h128zM434 904v-120h-117v120h117z" />
    <glyph glyph-name="cdotaccent" unicode="&#x10b;" horiz-adv-x="564" 
d="M523 182q-10 -93 -66.5 -145.5t-161.5 -52.5q-63 0 -109.5 19.5t-77.5 55.5t-46 86.5t-15 112.5t17 113.5t49.5 88t79.5 56.5t107 20q55 0 93 -14.5t63 -39t39 -56.5t20 -67l-113 -17q-8 44 -30.5 73t-75.5 29q-38 0 -63 -16t-40 -41.5t-21.5 -58.5t-6.5 -67q0 -39 7 -73
t22 -58.5t40 -39t61 -14.5q52 0 79 27.5t34 78.5h115zM352 725v-114h-111v114h111z" />
    <glyph glyph-name="Ccaron" unicode="&#x10c;" horiz-adv-x="712" 
d="M674 241q-6 -56 -27 -103t-58 -82t-90 -54.5t-123 -19.5q-77 0 -137.5 26t-102 74.5t-63 118t-21.5 155.5q0 88 23.5 158t66.5 118.5t103 74t132 25.5q67 0 116 -17t83.5 -48.5t55 -75.5t30.5 -98l-119 -17q-8 36 -20 64t-31.5 47.5t-47.5 30t-67 10.5q-48 0 -85 -19
t-62.5 -54.5t-38.5 -85.5t-13 -112q0 -63 13.5 -113t39.5 -85.5t62.5 -54t83.5 -18.5q42 0 71.5 11t49.5 31t31.5 48.5t16.5 64.5h128zM301 916l75 -76l73 76h101l-118 -140h-114l-118 140h101z" />
    <glyph glyph-name="ccaron" unicode="&#x10d;" horiz-adv-x="564" 
d="M523 182q-10 -93 -66.5 -145.5t-161.5 -52.5q-63 0 -109.5 19.5t-77.5 55.5t-46 86.5t-15 112.5t17 113.5t49.5 88t79.5 56.5t107 20q55 0 93 -14.5t63 -39t39 -56.5t20 -67l-113 -17q-8 44 -30.5 73t-75.5 29q-38 0 -63 -16t-40 -41.5t-21.5 -58.5t-6.5 -67q0 -39 7 -73
t22 -58.5t40 -39t61 -14.5q52 0 79 27.5t34 78.5h115zM239 593l-118 149h101l74 -86l74 86h100l-117 -149h-114z" />
    <glyph glyph-name="Dcaron" unicode="&#x10e;" horiz-adv-x="726" 
d="M314 103q63 0 107.5 18t73 52t41.5 81t13 106q0 118 -50 184.5t-164 66.5h-138v-508h117zM334 714q79 0 142 -21.5t107 -65.5t67.5 -110.5t23.5 -155.5t-25 -156.5t-72 -113t-114.5 -68.5t-152.5 -23h-234v714h258zM237 916l75 -76l73 76h101l-118 -140h-114l-118 140
h101z" />
    <glyph glyph-name="dcaron" unicode="&#x10f;" horiz-adv-x="609" 
d="M432 271q0 49 -10.5 82.5t-29 53t-43 28t-51.5 8.5q-63 0 -97.5 -45t-34.5 -137q0 -50 9.5 -85t27 -57t40.5 -32t50 -10q62 0 100.5 40.5t38.5 126.5v27zM433 72q-32 -44 -72.5 -66t-94.5 -22q-56 0 -97 20t-68 56.5t-40.5 87t-13.5 111.5q0 57 14 106.5t41 86t66.5 58.5
t91.5 24q10 1 20 0.5t21 -1.5q35 -4 67.5 -19.5t62.5 -51.5v252h113v-714h-111v72zM748 714l-53 -224h-85l30 224h108z" />
    <glyph glyph-name="Dcroat" unicode="&#x110;" horiz-adv-x="741" 
d="M329 103q123 0 179 68.5t56 188.5q0 59 -12.5 105.5t-38.5 79t-66.5 49.5t-96.5 17h-138v-192h167v-101h-167v-215h117zM10 318v101h81v295h259q159 0 249 -89t90 -264q0 -92 -26.5 -160t-74 -112.5t-114.5 -66.5t-148 -22h-235v318h-81z" />
    <glyph glyph-name="dcroat" unicode="&#x111;" horiz-adv-x="616" 
d="M433 253q0 43 -10.5 74t-28.5 50.5t-43 29t-53 9.5q-58 0 -95 -42t-37 -128q0 -46 10.5 -78t27.5 -52.5t40 -29.5t49 -9q69 0 104.5 45t35.5 120v11zM434 72q-32 -43 -72.5 -65.5t-94.5 -22.5q-59 0 -100.5 21t-68 57t-39 83.5t-12.5 99.5q0 53 14.5 101t43.5 84t72 57.5
t99 21.5q40 0 80 -15.5t75 -59.5v135h-162v74h162v71h114v-71h68v-74h-68v-569h-111v72z" />
    <glyph glyph-name="Emacron" unicode="&#x112;" horiz-adv-x="599" 
d="M76 714h475v-104h-354v-190h334v-105h-334v-211h373l-14 -104h-480v714zM469 885v-92h-301v92h301z" />
    <glyph glyph-name="emacron" unicode="&#x113;" horiz-adv-x="580" 
d="M527 154q-14 -81 -69 -125.5t-158 -44.5q-124 0 -188.5 71.5t-64.5 201.5q0 67 18.5 119t52 87.5t80 54t102.5 18.5q60 0 104 -18.5t73 -52t43 -80t14 -103.5v-50h-373q2 -71 36 -115t103 -44q54 0 81 21t36 60h110zM423 311q0 64 -30 101t-96 37q-63 0 -96 -37.5
t-38 -100.5h260zM438 706v-89h-276v89h276z" />
    <glyph glyph-name="Ebreve" unicode="&#x114;" horiz-adv-x="599" 
d="M76 714h475v-104h-354v-190h334v-105h-334v-211h373l-14 -104h-480v714zM253 919q0 -40 19.5 -57t45.5 -17t45 16.5t19 57.5h86q0 -74 -41 -110t-109 -36q-71 0 -110.5 37t-39.5 109h85z" />
    <glyph glyph-name="ebreve" unicode="&#x115;" horiz-adv-x="580" 
d="M527 154q-14 -81 -69 -125.5t-158 -44.5q-124 0 -188.5 71.5t-64.5 201.5q0 67 18.5 119t52 87.5t80 54t102.5 18.5q60 0 104 -18.5t73 -52t43 -80t14 -103.5v-50h-373q2 -71 36 -115t103 -44q54 0 81 21t36 60h110zM423 311q0 64 -30 101t-96 37q-63 0 -96 -37.5
t-38 -100.5h260zM235 738q0 -41 19 -58t45 -17q25 0 44 17t19 58h84q0 -74 -40 -111t-107 -37q-69 0 -107 37.5t-38 110.5h81z" />
    <glyph glyph-name="Edotaccent" unicode="&#x116;" horiz-adv-x="599" 
d="M76 714h475v-104h-354v-190h334v-105h-334v-211h373l-14 -104h-480v714zM377 904v-120h-117v120h117z" />
    <glyph glyph-name="edotaccent" unicode="&#x117;" horiz-adv-x="580" 
d="M527 154q-14 -81 -69 -125.5t-158 -44.5q-124 0 -188.5 71.5t-64.5 201.5q0 67 18.5 119t52 87.5t80 54t102.5 18.5q60 0 104 -18.5t73 -52t43 -80t14 -103.5v-50h-373q2 -71 36 -115t103 -44q54 0 81 21t36 60h110zM423 311q0 64 -30 101t-96 37q-63 0 -96 -37.5
t-38 -100.5h260zM356 725v-114h-111v114h111z" />
    <glyph glyph-name="Eogonek" unicode="&#x118;" horiz-adv-x="599" 
d="M551 714v-104h-354v-190h334v-105h-334v-211h373l-14 -104q-28 -17 -47 -36t-22 -39q-2 -19 5 -27q8 -17 33 -17q8 0 13.5 0.5t16.5 2.5v-75q-11 -2 -21 -2h-19q-62 0 -90.5 15.5t-34.5 46.5q-4 11 -4 23q0 31 19 56.5t56 51.5h-385v714h475z" />
    <glyph glyph-name="eogonek" unicode="&#x119;" horiz-adv-x="580" 
d="M423 311q0 63 -30 100.5t-96 37.5q-60 0 -95.5 -37.5t-38.5 -100.5h260zM405 -185q-10 -2 -18 -2h-20q-22 0 -44 4t-39.5 13.5t-28.5 24.5t-11 37q0 32 15 54.5t35 38.5q-12 0 -23.5 1t-22.5 3q-101 14 -151 82.5t-50 185.5q0 68 19 120t52.5 87.5t80 53.5t101.5 18
q60 0 104 -18.5t73 -52.5t43 -80.5t14 -102.5v-50h-373q1 -72 35.5 -115.5t103.5 -43.5q54 0 81 21.5t36 59.5h110q-11 -59 -38 -95q-17 -22 -43 -37t-50 -29.5t-41.5 -31.5t-17.5 -42q0 -21 11.5 -27.5t27.5 -6.5q7 0 13 1t16 1v-72z" />
    <glyph glyph-name="Ecaron" unicode="&#x11a;" horiz-adv-x="599" 
d="M76 714h475v-104h-354v-190h334v-105h-334v-211h373l-14 -104h-480v714zM244 916l75 -76l73 76h101l-118 -140h-114l-118 140h101z" />
    <glyph glyph-name="ecaron" unicode="&#x11b;" horiz-adv-x="580" 
d="M527 154q-14 -81 -69 -125.5t-158 -44.5q-124 0 -188.5 71.5t-64.5 201.5q0 67 18.5 119t52 87.5t80 54t102.5 18.5q60 0 104 -18.5t73 -52t43 -80t14 -103.5v-50h-373q2 -71 36 -115t103 -44q54 0 81 21t36 60h110zM423 311q0 64 -30 101t-96 37q-63 0 -96 -37.5
t-38 -100.5h260zM243 593l-118 149h101l74 -86l74 86h100l-117 -149h-114z" />
    <glyph glyph-name="Gcircumflex" unicode="&#x11c;" horiz-adv-x="721" 
d="M667 379v-294q-55 -51 -130 -77t-151 -26q-83 0 -145.5 26.5t-104.5 75t-63 117.5t-21 155q0 87 23 156.5t65 118.5t102 75t134 26q65 0 113.5 -16.5t82 -45.5t54 -67.5t29.5 -82.5l-119 -17q-8 30 -19.5 53.5t-30 39.5t-45.5 24.5t-65 8.5q-50 0 -87.5 -19.5
t-62.5 -55.5t-37 -86t-12 -111q0 -63 12 -113t38 -85.5t65.5 -54.5t95.5 -19q50 0 90 10.5t77 36.5v145h-158v102h270zM437 912l118 -139h-101l-74 75l-74 -75h-101l118 139h114z" />
    <glyph glyph-name="gcircumflex" unicode="&#x11d;" horiz-adv-x="609" 
d="M432 279q0 48 -11.5 80t-30 50.5t-43 26t-49.5 7.5q-63 0 -97.5 -43t-34.5 -126q0 -47 10.5 -79.5t27.5 -52.5t40 -29t49 -9q73 0 106 44t33 125v6zM182 -40q12 -75 106 -75h26q38 1 61 15.5t35.5 38.5t16.5 55t4 66v35q-58 -82 -165 -82q-56 0 -97.5 19.5t-68.5 54
t-40 82.5t-13 104q0 54 14.5 101.5t42.5 83t69 56t94 21.5q16 1 36 -2q36 -5 69 -21.5t62 -54.5v63h111v-448q0 -67 -13 -118.5t-41.5 -87t-74.5 -53.5t-112 -18q-117 0 -172 41t-64 124h114zM369 741l117 -148h-100l-74 85l-74 -85h-101l118 148h114z" />
    <glyph glyph-name="Gbreve" unicode="&#x11e;" horiz-adv-x="721" 
d="M667 379v-294q-55 -51 -130 -77t-151 -26q-83 0 -145.5 26.5t-104.5 75t-63 117.5t-21 155q0 87 23 156.5t65 118.5t102 75t134 26q65 0 113.5 -16.5t82 -45.5t54 -67.5t29.5 -82.5l-119 -17q-8 30 -19.5 53.5t-30 39.5t-45.5 24.5t-65 8.5q-50 0 -87.5 -19.5
t-62.5 -55.5t-37 -86t-12 -111q0 -63 12 -113t38 -85.5t65.5 -54.5t95.5 -19q50 0 90 10.5t77 36.5v145h-158v102h270zM315 919q0 -40 19.5 -57t45.5 -17t45 16.5t19 57.5h86q0 -74 -41 -110t-109 -36q-71 0 -110.5 37t-39.5 109h85z" />
    <glyph glyph-name="gbreve" unicode="&#x11f;" horiz-adv-x="609" 
d="M432 279q0 48 -11.5 80t-30 50.5t-43 26t-49.5 7.5q-63 0 -97.5 -43t-34.5 -126q0 -47 10.5 -79.5t27.5 -52.5t40 -29t49 -9q73 0 106 44t33 125v6zM182 -40q12 -75 106 -75h26q38 1 61 15.5t35.5 38.5t16.5 55t4 66v35q-58 -82 -165 -82q-56 0 -97.5 19.5t-68.5 54
t-40 82.5t-13 104q0 54 14.5 101.5t42.5 83t69 56t94 21.5q16 1 36 -2q36 -5 69 -21.5t62 -54.5v63h111v-448q0 -67 -13 -118.5t-41.5 -87t-74.5 -53.5t-112 -18q-117 0 -172 41t-64 124h114zM248 738q0 -41 19 -58t45 -17q25 0 44 17t19 58h84q0 -74 -40 -111t-107 -37
q-69 0 -107 37.5t-38 110.5h81z" />
    <glyph glyph-name="Gdotaccent" unicode="&#x120;" horiz-adv-x="721" 
d="M667 379v-294q-55 -51 -130 -77t-151 -26q-83 0 -145.5 26.5t-104.5 75t-63 117.5t-21 155q0 87 23 156.5t65 118.5t102 75t134 26q65 0 113.5 -16.5t82 -45.5t54 -67.5t29.5 -82.5l-119 -17q-8 30 -19.5 53.5t-30 39.5t-45.5 24.5t-65 8.5q-50 0 -87.5 -19.5
t-62.5 -55.5t-37 -86t-12 -111q0 -63 12 -113t38 -85.5t65.5 -54.5t95.5 -19q50 0 90 10.5t77 36.5v145h-158v102h270zM439 904v-120h-117v120h117z" />
    <glyph glyph-name="gdotaccent" unicode="&#x121;" horiz-adv-x="609" 
d="M432 279q0 48 -11.5 80t-30 50.5t-43 26t-49.5 7.5q-63 0 -97.5 -43t-34.5 -126q0 -47 10.5 -79.5t27.5 -52.5t40 -29t49 -9q73 0 106 44t33 125v6zM182 -40q12 -75 106 -75h26q38 1 61 15.5t35.5 38.5t16.5 55t4 66v35q-58 -82 -165 -82q-56 0 -97.5 19.5t-68.5 54
t-40 82.5t-13 104q0 54 14.5 101.5t42.5 83t69 56t94 21.5q16 1 36 -2q36 -5 69 -21.5t62 -54.5v63h111v-448q0 -67 -13 -118.5t-41.5 -87t-74.5 -53.5t-112 -18q-117 0 -172 41t-64 124h114zM361 725v-114h-111v114h111z" />
    <glyph glyph-name="Gcommaaccent" unicode="&#x122;" horiz-adv-x="721" 
d="M667 379v-294q-55 -51 -130 -77t-151 -26q-83 0 -145.5 26.5t-104.5 75t-63 117.5t-21 155q0 87 23 156.5t65 118.5t102 75t134 26q65 0 113.5 -16.5t82 -45.5t54 -67.5t29.5 -82.5l-119 -17q-8 30 -19.5 53.5t-30 39.5t-45.5 24.5t-65 8.5q-50 0 -87.5 -19.5
t-62.5 -55.5t-37 -86t-12 -111q0 -63 12 -113t38 -85.5t65.5 -54.5t95.5 -19q50 0 90 10.5t77 36.5v145h-158v102h270zM457 -67l-103 -155h-105l79 155h129z" />
    <glyph glyph-name="gcommaaccent" unicode="&#x123;" horiz-adv-x="609" 
d="M432 279q0 48 -11.5 80t-30 50.5t-43 26t-49.5 7.5q-63 0 -97.5 -43t-34.5 -126q0 -47 10.5 -79.5t27.5 -52.5t40 -29t49 -9q73 0 106 44t33 125v6zM182 -40q12 -75 106 -75h26q38 1 61 15.5t35.5 38.5t16.5 55t4 66v35q-58 -82 -165 -82q-56 0 -97.5 19.5t-68.5 54
t-40 82.5t-13 104q0 54 14.5 101.5t42.5 83t69 56t94 21.5q16 1 36 -2q36 -5 69 -21.5t62 -54.5v63h111v-448q0 -67 -13 -118.5t-41.5 -87t-74.5 -53.5t-112 -18q-117 0 -172 41t-64 124h114zM433 741l-76 -150h-124l100 150h100z" />
    <glyph glyph-name="Hcircumflex" unicode="&#x124;" horiz-adv-x="715" 
d="M76 714h121v-289h321v289h121v-714h-121v313h-321v-313h-121v714zM415 912l118 -139h-101l-74 75l-74 -75h-101l118 139h114z" />
    <glyph glyph-name="hcircumflex" unicode="&#x125;" horiz-adv-x="581" 
d="M178 714v-266q33 45 76.5 66.5t92.5 21.5q174 0 174 -192v-344h-114v326q0 63 -23 88.5t-68 25.5q-31 0 -56.5 -11t-43.5 -29t-28 -41.5t-10 -48.5v-310h-113v714h113zM302 912l118 -139h-101l-74 75l-74 -75h-101l118 139h114z" />
    <glyph glyph-name="Hbar" unicode="&#x126;" horiz-adv-x="746" 
d="M534 519h-322v-107h322v107zM10 519v94h81v101h121v-101h322v101h121v-101h81v-94h-81v-519h-121v300h-322v-300h-121v519h-81z" />
    <glyph glyph-name="hbar" unicode="&#x127;" horiz-adv-x="587" 
d="M3 569v74h68v71h113v-71h164v-74h-164v-149q34 45 77 67t92 22q89 0 131.5 -47.5t42.5 -143.5v-318h-114v300q0 62 -23 87.5t-68 25.5q-31 0 -56.5 -11t-43.5 -29t-28 -41.5t-10 -48.5v-283h-113v569h-68z" />
    <glyph glyph-name="Itilde" unicode="&#x128;" horiz-adv-x="272" 
d="M76 714h121v-714h-121v714zM-51 776q0 67 30.5 98.5t84.5 31.5q20 0 37.5 -7.5t33.5 -17t32 -17t33 -7.5q43 0 43 46h82q0 -68 -30.5 -98.5t-83.5 -30.5q-20 0 -37 6t-33 15l-26 15q-11 5 -19.5 8.5t-19.5 3.5q-24 0 -34.5 -11.5t-10.5 -34.5h-82z" />
    <glyph glyph-name="itilde" unicode="&#x129;" horiz-adv-x="246" 
d="M180 520v-520h-114v520h114zM-60 603q0 66 29.5 98t81.5 32q18 0 35 -7.5t33.5 -16.5t32.5 -16.5t33 -7.5q42 0 42 45h79q0 -68 -29.5 -98.5t-80.5 -30.5q-19 0 -36 6t-32 14l-29 17q-10 5 -18.5 8t-18.5 3q-43 0 -43 -46h-79z" />
    <glyph glyph-name="Imacron" unicode="&#x12a;" horiz-adv-x="272" 
d="M76 714h121v-714h-121v714zM288 885v-92h-301v92h301z" />
    <glyph glyph-name="imacron" unicode="&#x12b;" horiz-adv-x="246" 
d="M180 520v-520h-114v520h114zM261 706v-89h-276v89h276z" />
    <glyph glyph-name="Ibreve" unicode="&#x12c;" horiz-adv-x="272" 
d="M76 714h121v-714h-121v714zM72 919q0 -40 19.5 -57t45.5 -17t45 16.5t19 57.5h86q0 -74 -41 -110t-109 -36q-71 0 -110.5 37t-39.5 109h85z" />
    <glyph glyph-name="ibreve" unicode="&#x12d;" horiz-adv-x="246" 
d="M180 520v-520h-114v520h114zM59 738q0 -41 19 -58t45 -17q25 0 44 17t19 58h84q0 -74 -40 -111t-107 -37q-69 0 -107 37.5t-38 110.5h81z" />
    <glyph glyph-name="Iogonek" unicode="&#x12e;" horiz-adv-x="272" 
d="M197 714v-714q-32 -20 -51.5 -41t-19.5 -43t12 -28.5t28 -6.5q8 0 13.5 0.5t16.5 2.5v-75q-14 -2 -26 -2h-29q-35 0 -57 7.5t-34.5 19.5t-17.5 27t-5 31q0 31 19 56.5t56 51.5l-26 33v681h121z" />
    <glyph glyph-name="iogonek" unicode="&#x12f;" horiz-adv-x="246" 
d="M182 714v-113h-118v113h118zM180 520v-520q-30 -19 -48.5 -39.5t-18.5 -41.5t11.5 -27.5t26.5 -6.5q8 0 13.5 1t15.5 1v-72q-21 -3 -39 -3q-37 0 -60.5 6t-37.5 17t-19.5 26.5t-5.5 33.5q0 58 72 105h-24v520h114z" />
    <glyph glyph-name="Idotaccent" unicode="&#x130;" horiz-adv-x="272" 
d="M76 714h121v-714h-121v714zM196 904v-120h-117v120h117z" />
    <glyph glyph-name="dotlessi" unicode="&#x131;" horiz-adv-x="246" 
d="M180 520v-520h-114v520h114z" />
    <glyph glyph-name="IJ" unicode="&#x132;" horiz-adv-x="891" 
d="M76 714h121v-714h-121v714zM423 230q4 -33 12.5 -59.5t25 -45t42 -29t63.5 -10.5q73 0 104 42t31 120v466h121v-474q0 -128 -68.5 -193t-185.5 -65q-123 0 -190 60t-76 188h121z" />
    <glyph glyph-name="ij" unicode="&#x133;" horiz-adv-x="492" 
d="M182 714v-113h-118v113h118zM180 520v-520h-114v520h114zM185 -82q30 -9 64 -9q38 0 50.5 25t12.5 73v513h114v-524q0 -88 -36.5 -134.5t-120.5 -46.5q-53 0 -101 16zM428 714v-113h-118v113h118z" />
    <glyph glyph-name="Jcircumflex" unicode="&#x134;" horiz-adv-x="617" 
d="M149 230q4 -33 12.5 -59.5t25 -45t42 -29t63.5 -10.5q73 0 104 42t31 120v466h121v-474q0 -128 -68.5 -193t-185.5 -65q-123 0 -190 60t-76 188h121zM544 912l118 -139h-101l-74 75l-74 -75h-101l118 139h114z" />
    <glyph glyph-name="jcircumflex" unicode="&#x135;" horiz-adv-x="246" 
d="M-61 -82q30 -9 64 -9q38 0 50.5 25t12.5 73v513h114v-524q0 -88 -36.5 -134.5t-120.5 -46.5q-53 0 -101 16zM180 741l117 -148h-100l-74 85l-74 -85h-101l118 148h114z" />
    <glyph glyph-name="Kcommaaccent" unicode="&#x136;" horiz-adv-x="662" 
d="M76 714h121v-314l299 314h134l-246 -268l273 -446h-137l-221 368l-102 -103v-265h-121v714zM420 -67l-103 -155h-105l79 155h129z" />
    <glyph glyph-name="kcommaaccent" unicode="&#x137;" horiz-adv-x="550" 
d="M176 714v-395l222 201h133l-188 -177l205 -343h-125l-162 278l-85 -76v-202h-111v714h111zM359 -67l-99 -150h-101l76 150h124z" />
    <glyph glyph-name="kgreenlandic" unicode="&#x138;" horiz-adv-x="550" 
d="M176 520v-225l223 225h131l-185 -191l203 -329h-125l-158 262l-89 -87v-175h-111v520h111z" />
    <glyph glyph-name="Lacute" unicode="&#x139;" horiz-adv-x="573" 
d="M197 714v-609h354l-15 -105h-460v714h121zM323 912l-149 -139h-109l123 139h135z" />
    <glyph glyph-name="lacute" unicode="&#x13a;" horiz-adv-x="246" 
d="M180 714v-714h-114v714h114zM311 912l-149 -139h-109l123 139h135z" />
    <glyph glyph-name="Lcommaaccent" unicode="&#x13b;" horiz-adv-x="573" 
d="M197 714v-609h354l-15 -105h-460v714h121zM381 -67l-103 -155h-105l79 155h129z" />
    <glyph glyph-name="lcommaaccent" unicode="&#x13c;" horiz-adv-x="246" 
d="M180 714v-714h-114v714h114zM186 -67l-99 -150h-101l76 150h124z" />
    <glyph glyph-name="Lcaron" unicode="&#x13d;" horiz-adv-x="573" 
d="M197 714v-609h354l-15 -105h-460v714h121zM477 716l-54 -228h-86l31 228h109z" />
    <glyph glyph-name="lcaron" unicode="&#x13e;" horiz-adv-x="246" 
d="M180 714v-714h-114v714h114zM382 714l-53 -224h-85l30 224h108z" />
    <glyph glyph-name="Ldot" unicode="&#x13f;" horiz-adv-x="573" 
d="M197 714v-609h354l-15 -105h-460v714h121zM472 469v-139h-121v139h121z" />
    <glyph glyph-name="ldot" unicode="&#x140;" horiz-adv-x="389" 
d="M180 714v-714h-114v714h114zM379 442v-139h-121v139h121z" />
    <glyph glyph-name="Lslash" unicode="&#x141;" horiz-adv-x="588" 
d="M10 178v108l81 56v372h121v-291l180 124v-107l-180 -124v-211h354l-15 -105h-460v234z" />
    <glyph glyph-name="lslash" unicode="&#x142;" horiz-adv-x="298" 
d="M2 248v96l91 58v312h113v-244l91 59v-95l-91 -59v-375h-113v308z" />
    <glyph glyph-name="Nacute" unicode="&#x143;" horiz-adv-x="710" 
d="M76 714h112l328 -516v516h118v-714h-112l-329 514v-514h-117v714zM524 912l-149 -139h-109l123 139h135z" />
    <glyph glyph-name="nacute" unicode="&#x144;" horiz-adv-x="581" 
d="M175 520v-76q35 48 78.5 70t93.5 22q174 0 174 -192v-344h-114v326q0 63 -23 88.5t-68 25.5q-30 0 -55.5 -10.5t-43.5 -28.5t-28.5 -41.5t-10.5 -49.5v-310h-113v520h110zM446 741l-143 -148h-107l117 148h133z" />
    <glyph glyph-name="Ncommaaccent" unicode="&#x145;" horiz-adv-x="710" 
d="M76 714h112l328 -516v516h118v-714h-112l-329 514v-514h-117v714zM434 -67l-103 -155h-105l79 155h129z" />
    <glyph glyph-name="ncommaaccent" unicode="&#x146;" horiz-adv-x="581" 
d="M175 520v-76q35 48 78.5 70t93.5 22q174 0 174 -192v-344h-114v326q0 63 -23 88.5t-68 25.5q-30 0 -55.5 -10.5t-43.5 -28.5t-28.5 -41.5t-10.5 -49.5v-310h-113v520h110zM363 -67l-99 -150h-101l76 150h124z" />
    <glyph glyph-name="Ncaron" unicode="&#x147;" horiz-adv-x="710" 
d="M76 714h112l328 -516v516h118v-714h-112l-329 514v-514h-117v714zM277 916l75 -76l73 76h101l-118 -140h-114l-118 140h101z" />
    <glyph glyph-name="ncaron" unicode="&#x148;" horiz-adv-x="581" 
d="M175 520v-76q35 48 78.5 70t93.5 22q174 0 174 -192v-344h-114v326q0 63 -23 88.5t-68 25.5q-30 0 -55.5 -10.5t-43.5 -28.5t-28.5 -41.5t-10.5 -49.5v-310h-113v520h110zM236 593l-118 149h101l74 -86l74 86h100l-117 -149h-114z" />
    <glyph glyph-name="napostrophe" unicode="&#x149;" horiz-adv-x="671" 
d="M265 520v-76q35 48 78.5 70t93.5 22q174 0 174 -192v-344h-114v326q0 63 -23 88.5t-68 25.5q-30 0 -55.5 -10.5t-43.5 -28.5t-28.5 -41.5t-10.5 -49.5v-310h-113v520h110zM145 714l-57 -232h-87l31 232h113z" />
    <glyph glyph-name="Eng" unicode="&#x14a;" horiz-adv-x="710" 
d="M188 714l328 -516v516h118v-690q0 -64 -18 -108t-50 -71t-75.5 -38.5t-94.5 -11.5q-36 0 -69.5 4t-65.5 17l26 101q21 -8 45 -13t59 -5q54 0 86.5 26.5t32.5 93.5l-317 495v-514h-117v714h112z" />
    <glyph glyph-name="eng" unicode="&#x14b;" horiz-adv-x="581" 
d="M175 520v-76q34 48 78 70t94 22q174 0 174 -192v-351q0 -87 -36.5 -132.5t-119.5 -45.5q-30 0 -54 4t-47 12l17 87q15 -5 30 -7t33 -2q35 0 49 20t14 66v331q0 64 -23 89t-68 25q-31 0 -56.5 -11t-43.5 -29t-28 -41.5t-10 -48.5v-310h-113v520h110z" />
    <glyph glyph-name="Omacron" unicode="&#x14c;" horiz-adv-x="772" 
d="M387 -18q-77 0 -138.5 25.5t-105.5 73.5t-67.5 117.5t-23.5 157.5t24 158t68 118.5t106 74t137 25.5q76 0 138 -25.5t105 -73.5t66.5 -117.5t23.5 -157.5q0 -89 -23 -158.5t-66 -118t-104.5 -74t-139.5 -25.5zM386 86q103 0 156 72.5t53 198.5q0 63 -13.5 113t-39.5 85
t-65 54t-91 19t-91 -19t-65.5 -54t-39.5 -85t-13 -113q0 -126 52.5 -198.5t156.5 -72.5zM537 885v-92h-301v92h301z" />
    <glyph glyph-name="omacron" unicode="&#x14d;" horiz-adv-x="609" 
d="M304 76q72 0 105.5 49.5t33.5 135.5q0 85 -33.5 134t-105.5 49t-105.5 -49.5t-33.5 -133.5q0 -85 32.5 -135t106.5 -50zM303 -16q-122 0 -189 72t-67 204q0 62 17.5 113t50.5 87t81 56t109 20q62 0 110 -20.5t80.5 -56.5t49 -86.5t16.5 -110.5q0 -68 -19 -119.5
t-53.5 -87t-81.5 -53.5t-104 -18zM442 706v-89h-276v89h276z" />
    <glyph glyph-name="Obreve" unicode="&#x14e;" horiz-adv-x="772" 
d="M387 -18q-77 0 -138.5 25.5t-105.5 73.5t-67.5 117.5t-23.5 157.5t24 158t68 118.5t106 74t137 25.5q76 0 138 -25.5t105 -73.5t66.5 -117.5t23.5 -157.5q0 -89 -23 -158.5t-66 -118t-104.5 -74t-139.5 -25.5zM386 86q103 0 156 72.5t53 198.5q0 63 -13.5 113t-39.5 85
t-65 54t-91 19t-91 -19t-65.5 -54t-39.5 -85t-13 -113q0 -126 52.5 -198.5t156.5 -72.5zM321 919q0 -40 19.5 -57t45.5 -17t45 16.5t19 57.5h86q0 -74 -41 -110t-109 -36q-71 0 -110.5 37t-39.5 109h85z" />
    <glyph glyph-name="obreve" unicode="&#x14f;" horiz-adv-x="609" 
d="M304 76q72 0 105.5 49.5t33.5 135.5q0 85 -33.5 134t-105.5 49t-105.5 -49.5t-33.5 -133.5q0 -85 32.5 -135t106.5 -50zM303 -16q-122 0 -189 72t-67 204q0 62 17.5 113t50.5 87t81 56t109 20q62 0 110 -20.5t80.5 -56.5t49 -86.5t16.5 -110.5q0 -68 -19 -119.5
t-53.5 -87t-81.5 -53.5t-104 -18zM240 738q0 -41 19 -58t45 -17q25 0 44 17t19 58h84q0 -74 -40 -111t-107 -37q-69 0 -107 37.5t-38 110.5h81z" />
    <glyph glyph-name="Ohungarumlaut" unicode="&#x150;" horiz-adv-x="772" 
d="M387 -18q-77 0 -138.5 25.5t-105.5 73.5t-67.5 117.5t-23.5 157.5t24 158t68 118.5t106 74t137 25.5q76 0 138 -25.5t105 -73.5t66.5 -117.5t23.5 -157.5q0 -89 -23 -158.5t-66 -118t-104.5 -74t-139.5 -25.5zM386 86q103 0 156 72.5t53 198.5q0 63 -13.5 113t-39.5 85
t-65 54t-91 19t-91 -19t-65.5 -54t-39.5 -85t-13 -113q0 -126 52.5 -198.5t156.5 -72.5zM476 912l-144 -139h-102l118 139h128zM671 912l-144 -139h-101l117 139h128z" />
    <glyph glyph-name="ohungarumlaut" unicode="&#x151;" horiz-adv-x="609" 
d="M304 76q72 0 105.5 49.5t33.5 135.5q0 85 -33.5 134t-105.5 49t-105.5 -49.5t-33.5 -133.5q0 -85 32.5 -135t106.5 -50zM303 -16q-122 0 -189 72t-67 204q0 62 17.5 113t50.5 87t81 56t109 20q62 0 110 -20.5t80.5 -56.5t49 -86.5t16.5 -110.5q0 -68 -19 -119.5
t-53.5 -87t-81.5 -53.5t-104 -18zM562 741l-128 -148h-97l103 148h122zM377 741l-128 -148h-97l103 148h122z" />
    <glyph glyph-name="OE" unicode="&#x152;" horiz-adv-x="1069" 
d="M572 364q-1 60 -13 108.5t-36.5 83t-61.5 53.5t-86 19q-48 0 -85 -19.5t-62 -54.5t-37.5 -85.5t-12.5 -111.5q0 -127 50.5 -199t146.5 -72q51 0 88.5 19t61.5 55t35.5 87.5t11.5 116.5zM572 86q-35 -50 -83 -77t-121 -27q-71 0 -129 25.5t-99.5 74t-64.5 118t-23 156.5
q0 84 22.5 153.5t64 119t99.5 76.5t130 27t120 -26.5t84 -76.5v85h449v-104h-332v-190h312v-105h-312v-211h351l-14 -104h-454v86z" />
    <glyph glyph-name="oe" unicode="&#x153;" horiz-adv-x="964" 
d="M808 311q0 64 -30 101t-93 37q-62 0 -94.5 -38t-37.5 -100h255zM437 261q0 85 -32.5 134t-103.5 49t-103.5 -49.5t-32.5 -133.5q0 -86 32 -135.5t104 -49.5q70 0 103 50t33 135zM912 154q-15 -84 -70 -127t-155 -43q-73 0 -119 28.5t-76 82.5q-32 -54 -77.5 -82.5
t-114.5 -28.5q-120 0 -186.5 72t-66.5 204q0 63 18 114t51 87t80 55.5t106 19.5q69 0 115.5 -28.5t76.5 -82.5q32 54 79.5 82.5t113.5 28.5q58 0 102 -18.5t72.5 -52.5t43 -80.5t14.5 -102.5v-50h-367q1 -60 25.5 -97.5t75.5 -47.5q32 -7 57 1t42 33q48 0 81.5 9.5
t60.5 23.5h18z" />
    <glyph glyph-name="Racute" unicode="&#x154;" horiz-adv-x="643" 
d="M329 384q41 0 68 8.5t42.5 24t22 37.5t6.5 49q0 25 -7.5 45.5t-25 35t-46.5 22.5t-72 8h-122v-230h134zM320 714q81 0 133.5 -19t83 -49.5t42.5 -67.5t12 -73q0 -70 -27.5 -117t-88.5 -76l148 -312h-132l-128 284q-9 -1 -19 -1.5t-21 -0.5h-128v-282h-119v714h244z
M470 912l-149 -139h-109l123 139h135z" />
    <glyph glyph-name="racute" unicode="&#x155;" horiz-adv-x="393" 
d="M175 520v-77q27 41 65 63t81 22q17 0 28.5 -1t22.5 -3l-13 -104q-11 3 -24 4t-27 1q-32 0 -56 -10.5t-40.5 -27.5t-25 -38.5t-8.5 -43.5v-305h-113v520h110zM390 741l-143 -148h-107l117 148h133z" />
    <glyph glyph-name="Rcommaaccent" unicode="&#x156;" horiz-adv-x="643" 
d="M329 384q41 0 68 8.5t42.5 24t22 37.5t6.5 49q0 25 -7.5 45.5t-25 35t-46.5 22.5t-72 8h-122v-230h134zM320 714q81 0 133.5 -19t83 -49.5t42.5 -67.5t12 -73q0 -70 -27.5 -117t-88.5 -76l148 -312h-132l-128 284q-9 -1 -19 -1.5t-21 -0.5h-128v-282h-119v714h244z
M405 -67l-103 -155h-105l79 155h129z" />
    <glyph glyph-name="rcommaaccent" unicode="&#x157;" horiz-adv-x="393" 
d="M175 520v-77q27 41 65 63t81 22q17 0 28.5 -1t22.5 -3l-13 -104q-11 3 -24 4t-27 1q-32 0 -56 -10.5t-40.5 -27.5t-25 -38.5t-8.5 -43.5v-305h-113v520h110zM190 -67l-99 -150h-101l76 150h124z" />
    <glyph glyph-name="Rcaron" unicode="&#x158;" horiz-adv-x="643" 
d="M329 384q41 0 68 8.5t42.5 24t22 37.5t6.5 49q0 25 -7.5 45.5t-25 35t-46.5 22.5t-72 8h-122v-230h134zM320 714q81 0 133.5 -19t83 -49.5t42.5 -67.5t12 -73q0 -70 -27.5 -117t-88.5 -76l148 -312h-132l-128 284q-9 -1 -19 -1.5t-21 -0.5h-128v-282h-119v714h244z
M223 916l75 -76l73 76h101l-118 -140h-114l-118 140h101z" />
    <glyph glyph-name="rcaron" unicode="&#x159;" horiz-adv-x="393" 
d="M175 520v-77q27 41 65 63t81 22q17 0 28.5 -1t22.5 -3l-13 -104q-11 3 -24 4t-27 1q-32 0 -56 -10.5t-40.5 -27.5t-25 -38.5t-8.5 -43.5v-305h-113v520h110zM156 593l-118 149h101l74 -86l74 86h100l-117 -149h-114z" />
    <glyph glyph-name="Sacute" unicode="&#x15a;" horiz-adv-x="644" 
d="M155 218q8 -70 50.5 -102t126.5 -32q41 0 69 9t45 24t24 35.5t7 43.5q0 17 -5 33.5t-18 30.5t-35 24.5t-56 16.5l-91 17q-54 10 -96 25t-70.5 39.5t-43 60t-14.5 86.5t20.5 89t56.5 63.5t85.5 38t107.5 12.5q74 0 124 -17t81 -44.5t47 -63.5t22 -75l-114 -18
q-14 60 -48.5 89t-109.5 29q-43 0 -71.5 -7.5t-46 -21t-25 -31t-7.5 -36.5q0 -47 25.5 -70t89.5 -36l99 -19q113 -21 166 -71.5t53 -145.5q0 -45 -16.5 -83.5t-50.5 -67t-84.5 -45t-117.5 -16.5q-137 0 -215 57.5t-86 178.5h122zM487 912l-149 -139h-109l123 139h135z" />
    <glyph glyph-name="sacute" unicode="&#x15b;" horiz-adv-x="530" 
d="M143 159q3 -26 14 -42.5t27.5 -26.5t38.5 -13.5t47 -3.5q57 0 82 17t25 50q0 26 -15.5 44t-63.5 26q-62 11 -109 21t-79 27.5t-48 45t-16 74.5q0 36 16 65.5t44.5 50t68 31.5t86.5 11q60 0 100 -12t65 -33t38 -48t20 -57l-102 -14q-12 39 -36.5 58t-81.5 19q-33 0 -54 -6
t-33.5 -15t-17 -20t-4.5 -22q0 -17 4 -28t14.5 -18t28.5 -12t45 -10l65 -11q52 -9 86.5 -23t55 -34.5t28.5 -47.5t8 -60q0 -71 -54 -114.5t-164 -43.5q-45 0 -86.5 8.5t-74.5 28.5t-53.5 53.5t-23.5 84.5h109zM435 741l-143 -148h-107l117 148h133z" />
    <glyph glyph-name="Scircumflex" unicode="&#x15c;" horiz-adv-x="644" 
d="M155 218q8 -70 50.5 -102t126.5 -32q41 0 69 9t45 24t24 35.5t7 43.5q0 17 -5 33.5t-18 30.5t-35 24.5t-56 16.5l-91 17q-54 10 -96 25t-70.5 39.5t-43 60t-14.5 86.5t20.5 89t56.5 63.5t85.5 38t107.5 12.5q74 0 124 -17t81 -44.5t47 -63.5t22 -75l-114 -18
q-14 60 -48.5 89t-109.5 29q-43 0 -71.5 -7.5t-46 -21t-25 -31t-7.5 -36.5q0 -47 25.5 -70t89.5 -36l99 -19q113 -21 166 -71.5t53 -145.5q0 -45 -16.5 -83.5t-50.5 -67t-84.5 -45t-117.5 -16.5q-137 0 -215 57.5t-86 178.5h122zM378 912l118 -139h-101l-74 75l-74 -75h-101
l118 139h114z" />
    <glyph glyph-name="scircumflex" unicode="&#x15d;" horiz-adv-x="530" 
d="M143 159q3 -26 14 -42.5t27.5 -26.5t38.5 -13.5t47 -3.5q57 0 82 17t25 50q0 26 -15.5 44t-63.5 26q-62 11 -109 21t-79 27.5t-48 45t-16 74.5q0 36 16 65.5t44.5 50t68 31.5t86.5 11q60 0 100 -12t65 -33t38 -48t20 -57l-102 -14q-12 39 -36.5 58t-81.5 19q-33 0 -54 -6
t-33.5 -15t-17 -20t-4.5 -22q0 -17 4 -28t14.5 -18t28.5 -12t45 -10l65 -11q52 -9 86.5 -23t55 -34.5t28.5 -47.5t8 -60q0 -71 -54 -114.5t-164 -43.5q-45 0 -86.5 8.5t-74.5 28.5t-53.5 53.5t-23.5 84.5h109zM322 741l117 -148h-100l-74 85l-74 -85h-101l118 148h114z" />
    <glyph glyph-name="Scedilla" unicode="&#x15e;" horiz-adv-x="644" 
d="M222 -154q31 -6 52 -6q33 0 48 7.5t15 25.5q0 17 -15 24.5t-51 7.5h-29l30 80q-109 12 -170 68.5t-69 164.5h122q8 -72 50.5 -103t126.5 -31q78 0 111.5 30.5t33.5 81.5q0 40 -27 66.5t-98 40.5l-80 15q-51 7 -92.5 21.5t-71 39.5t-45 62t-15.5 88t20.5 89t57 63.5t86 38
t106.5 12.5q75 0 124.5 -17t80 -45t46.5 -64t23 -74l-114 -18q-7 30 -18.5 52t-30 37t-45 22t-64.5 7q-43 0 -72 -8t-46 -21t-24.5 -30.5t-7.5 -36.5q0 -49 27 -72.5t94 -34.5l93 -18q112 -21 165.5 -71.5t53.5 -145.5q0 -48 -18.5 -87t-52.5 -66.5t-82.5 -43t-109.5 -15.5
l-12 -35q26 -3 43.5 -10t28 -16.5t15.5 -21.5t7 -25v-16q-2 -23 -13 -38.5t-30.5 -24.5t-46 -12.5t-57.5 -3.5q-14 0 -28 1.5t-31 3.5v62h6z" />
    <glyph glyph-name="scedilla" unicode="&#x15f;" horiz-adv-x="530" 
d="M169 -147q17 -2 29 -3t23 -1q30 0 45.5 6t15.5 25q0 16 -14.5 23t-49.5 7h-28l29 77q-39 4 -71.5 15.5t-57 32.5t-39 51.5t-17.5 72.5h109q8 -52 42 -69t85 -17q57 0 82 17t25 50q0 26 -15.5 44t-63.5 26q-62 11 -109 21t-79 27.5t-48 45t-16 74.5q0 36 15.5 65t44 50
t68 32t87.5 11q61 0 101 -12.5t64.5 -33t37.5 -47.5t20 -57l-102 -14q-6 19 -14.5 33.5t-22 24.5t-33 14.5t-48.5 4.5q-32 0 -53 -5.5t-33.5 -14.5t-17.5 -20t-5 -23q0 -17 4 -28t14.5 -18.5t28.5 -12.5t45 -9l65 -11q53 -9 87.5 -23.5t54.5 -35t28 -47t8 -59.5
q0 -71 -51 -111.5t-154 -45.5l-11 -33q51 -6 70.5 -28.5t19.5 -52.5q0 -46 -36 -64.5t-96 -18.5q-15 0 -31 1t-36 4v61z" />
    <glyph glyph-name="Scaron" unicode="&#x160;" horiz-adv-x="644" 
d="M155 218q8 -70 50.5 -102t126.5 -32q41 0 69 9t45 24t24 35.5t7 43.5q0 17 -5 33.5t-18 30.5t-35 24.5t-56 16.5l-91 17q-54 10 -96 25t-70.5 39.5t-43 60t-14.5 86.5t20.5 89t56.5 63.5t85.5 38t107.5 12.5q74 0 124 -17t81 -44.5t47 -63.5t22 -75l-114 -18
q-14 60 -48.5 89t-109.5 29q-43 0 -71.5 -7.5t-46 -21t-25 -31t-7.5 -36.5q0 -47 25.5 -70t89.5 -36l99 -19q113 -21 166 -71.5t53 -145.5q0 -45 -16.5 -83.5t-50.5 -67t-84.5 -45t-117.5 -16.5q-137 0 -215 57.5t-86 178.5h122zM249 916l75 -76l73 76h101l-118 -140h-114
l-118 140h101z" />
    <glyph glyph-name="scaron" unicode="&#x161;" horiz-adv-x="530" 
d="M143 159q3 -26 14 -42.5t27.5 -26.5t38.5 -13.5t47 -3.5q57 0 82 17t25 50q0 26 -15.5 44t-63.5 26q-62 11 -109 21t-79 27.5t-48 45t-16 74.5q0 36 16 65.5t44.5 50t68 31.5t86.5 11q60 0 100 -12t65 -33t38 -48t20 -57l-102 -14q-12 39 -36.5 58t-81.5 19q-33 0 -54 -6
t-33.5 -15t-17 -20t-4.5 -22q0 -17 4 -28t14.5 -18t28.5 -12t45 -10l65 -11q52 -9 86.5 -23t55 -34.5t28.5 -47.5t8 -60q0 -71 -54 -114.5t-164 -43.5q-45 0 -86.5 8.5t-74.5 28.5t-53.5 53.5t-23.5 84.5h109zM209 593l-118 149h101l74 -86l74 86h100l-117 -149h-114z" />
    <glyph glyph-name="uni0162" unicode="&#x162;" horiz-adv-x="610" 
d="M245 609h-226v105h572v-105h-225v-609h-27l-18 -48q50 -5 70.5 -28t20.5 -53q0 -46 -36.5 -64.5t-95.5 -18.5q-15 0 -31.5 1t-36.5 4v61l7 -1q17 -2 28 -3t22 -1h15q45 0 45 31q0 16 -13 22.5t-44 7.5h-34l33 90h-26v609z" />
    <glyph glyph-name="uni0163" unicode="&#x163;" horiz-adv-x="363" 
d="M142 -147q17 -2 28 -3t22 -1h15q45 0 45 31q0 16 -13 22.5t-44 7.5h-34l32 86q-54 14 -75.5 56.5t-21.5 115.5v262h-82v90h82v140h113v-140h129v-90h-129v-272q0 -40 16.5 -58t48.5 -18q17 0 32.5 2t30.5 7l17 -85q-45 -14 -96 -16l-14 -38q50 -5 70.5 -28t20.5 -53
q0 -46 -36.5 -64.5t-95.5 -18.5q-15 0 -31.5 1t-36.5 4v61z" />
    <glyph glyph-name="Tcaron" unicode="&#x164;" horiz-adv-x="610" 
d="M245 609h-226v105h572v-105h-225v-609h-121v609zM231 916l75 -76l73 76h101l-118 -140h-114l-118 140h101z" />
    <glyph glyph-name="tcaron" unicode="&#x165;" horiz-adv-x="363" 
d="M14 430v90h82v140h113v-140h129v-90h-129v-272q0 -40 16.5 -58t48.5 -18q17 0 32.5 2t30.5 7l17 -85q-48 -16 -104 -16q-86 0 -120 44.5t-34 133.5v262h-82zM388 742l-49 -165h-77l27 165h99z" />
    <glyph glyph-name="Tbar" unicode="&#x166;" horiz-adv-x="610" 
d="M101 294v101h144v214h-226v105h572v-105h-225v-214h144v-101h-144v-294h-121v294h-144z" />
    <glyph glyph-name="tbar" unicode="&#x167;" horiz-adv-x="363" 
d="M96 317v113h-82v90h82v140h113v-140h129v-90h-129v-113h129v-90h-129v-69q0 -41 16.5 -58.5t48.5 -17.5q17 0 32.5 2t30.5 7l17 -85q-48 -16 -104 -16q-86 0 -120 44.5t-34 133.5v59h-82v90h82z" />
    <glyph glyph-name="Utilde" unicode="&#x168;" horiz-adv-x="688" 
d="M185 714v-428q0 -101 36.5 -150.5t123.5 -49.5q86 0 121.5 49.5t35.5 150.5v428h121v-428q0 -83 -20 -140.5t-57 -94t-88 -53t-114 -16.5q-137 0 -208 73.5t-71 233.5v425h120zM157 776q0 67 30.5 98.5t84.5 31.5q20 0 37.5 -7.5t33.5 -17t32 -17t33 -7.5q43 0 43 46h82
q0 -68 -30.5 -98.5t-83.5 -30.5q-20 0 -37 6t-33 15l-26 15q-11 5 -19.5 8.5t-19.5 3.5q-24 0 -34.5 -11.5t-10.5 -34.5h-82z" />
    <glyph glyph-name="utilde" unicode="&#x169;" horiz-adv-x="574" 
d="M174 520v-327q0 -65 21.5 -89t65.5 -24q24 0 48.5 9t43.5 26t31 41t12 54v310h114v-520h-111v76q-36 -48 -78 -70t-90 -22q-91 0 -130.5 47t-39.5 144v345h113zM104 603q0 66 29.5 98t81.5 32q18 0 35 -7.5t33.5 -16.5t32.5 -16.5t33 -7.5q42 0 42 45h79
q0 -68 -29.5 -98.5t-80.5 -30.5q-19 0 -36 6t-32 14l-29 17q-10 5 -18.5 8t-18.5 3q-43 0 -43 -46h-79z" />
    <glyph glyph-name="Umacron" unicode="&#x16a;" horiz-adv-x="688" 
d="M185 714v-428q0 -101 36.5 -150.5t123.5 -49.5q86 0 121.5 49.5t35.5 150.5v428h121v-428q0 -83 -20 -140.5t-57 -94t-88 -53t-114 -16.5q-137 0 -208 73.5t-71 233.5v425h120zM494 885v-92h-301v92h301z" />
    <glyph glyph-name="umacron" unicode="&#x16b;" horiz-adv-x="574" 
d="M174 520v-327q0 -65 21.5 -89t65.5 -24q24 0 48.5 9t43.5 26t31 41t12 54v310h114v-520h-111v76q-36 -48 -78 -70t-90 -22q-91 0 -130.5 47t-39.5 144v345h113zM425 706v-89h-276v89h276z" />
    <glyph glyph-name="Ubreve" unicode="&#x16c;" horiz-adv-x="688" 
d="M185 714v-428q0 -101 36.5 -150.5t123.5 -49.5q86 0 121.5 49.5t35.5 150.5v428h121v-428q0 -83 -20 -140.5t-57 -94t-88 -53t-114 -16.5q-137 0 -208 73.5t-71 233.5v425h120zM278 919q0 -40 19.5 -57t45.5 -17t45 16.5t19 57.5h86q0 -74 -41 -110t-109 -36
q-71 0 -110.5 37t-39.5 109h85z" />
    <glyph glyph-name="ubreve" unicode="&#x16d;" horiz-adv-x="574" 
d="M174 520v-327q0 -65 21.5 -89t65.5 -24q24 0 48.5 9t43.5 26t31 41t12 54v310h114v-520h-111v76q-36 -48 -78 -70t-90 -22q-91 0 -130.5 47t-39.5 144v345h113zM223 738q0 -41 19 -58t45 -17q25 0 44 17t19 58h84q0 -74 -40 -111t-107 -37q-69 0 -107 37.5t-38 110.5h81z
" />
    <glyph glyph-name="Uring" unicode="&#x16e;" horiz-adv-x="688" 
d="M185 714v-428q0 -101 36.5 -150.5t123.5 -49.5q86 0 121.5 49.5t35.5 150.5v428h121v-428q0 -83 -20 -140.5t-57 -94t-88 -53t-114 -16.5q-137 0 -208 73.5t-71 233.5v425h120zM343 798q47 0 47 50q0 26 -13 38.5t-34 12.5q-47 0 -47 -51q0 -27 12.5 -38.5t34.5 -11.5z
M231 848q0 54 32 82.5t80 28.5q22 0 42.5 -7t36 -21.5t24.5 -35t9 -47.5q0 -30 -10 -51t-26 -34t-36 -19t-40 -6q-47 0 -79.5 27t-32.5 83z" />
    <glyph glyph-name="uring" unicode="&#x16f;" horiz-adv-x="574" 
d="M174 520v-327q0 -65 21.5 -89t65.5 -24q24 0 48.5 9t43.5 26t31 41t12 54v310h114v-520h-111v76q-36 -48 -78 -70t-90 -22q-91 0 -130.5 47t-39.5 144v345h113zM287 646q20 0 32.5 12t12.5 37t-12 37t-33 12q-46 0 -46 -49t46 -49zM178 695q0 26 8.5 46t23.5 33.5
t35 20.5t42 7q45 0 77 -28.5t32 -78.5q0 -29 -9.5 -49t-25 -32.5t-35 -18.5t-39.5 -6q-46 0 -77.5 26t-31.5 80z" />
    <glyph glyph-name="Uhungarumlaut" unicode="&#x170;" horiz-adv-x="688" 
d="M185 714v-428q0 -101 36.5 -150.5t123.5 -49.5q86 0 121.5 49.5t35.5 150.5v428h121v-428q0 -83 -20 -140.5t-57 -94t-88 -53t-114 -16.5q-137 0 -208 73.5t-71 233.5v425h120zM414 912l-144 -139h-102l118 139h128zM609 912l-144 -139h-101l117 139h128z" />
    <glyph glyph-name="uhungarumlaut" unicode="&#x171;" horiz-adv-x="574" 
d="M174 520v-327q0 -65 21.5 -89t65.5 -24q24 0 48.5 9t43.5 26t31 41t12 54v310h114v-520h-111v76q-36 -48 -78 -70t-90 -22q-91 0 -130.5 47t-39.5 144v345h113zM539 741l-128 -148h-97l103 148h122zM354 741l-128 -148h-97l103 148h122z" />
    <glyph glyph-name="Uogonek" unicode="&#x172;" horiz-adv-x="688" 
d="M185 714v-428q0 -101 36.5 -150.5t123.5 -49.5q86 0 121.5 49.5t35.5 150.5v428h121v-428q0 -121 -42 -190t-118 -96q-32 -20 -51.5 -41t-19.5 -43t12 -28.5t28 -6.5q8 0 13.5 0.5t16.5 2.5v-75q-8 -1 -15 -1.5t-14 -0.5h-18q-9 0 -20 1q-48 2 -70.5 19.5t-28.5 41.5
q-3 12 -3 23q0 27 13.5 48.5t38.5 41.5q-12 1 -23 1t-22 2q-59 6 -103 26.5t-73 59t-44 95t-15 133.5v415h120z" />
    <glyph glyph-name="uogonek" unicode="&#x173;" horiz-adv-x="574" 
d="M174 520v-327q0 -65 21 -89t66 -24q24 0 48.5 9t43.5 26t31 41t12 54v310h114v-520q-31 -19 -49.5 -39t-18.5 -42q0 -21 12 -27.5t27 -6.5q8 0 13.5 1t15.5 1v-72q-21 -3 -39 -3q-31 0 -52 4t-35 12t-21.5 19.5t-10.5 25.5q-4 13 -3 28q2 29 20 53.5t50 45.5h-20v76
q-36 -48 -78 -70t-90 -22q-94 0 -132 49t-38 150v337h113z" />
    <glyph glyph-name="Wcircumflex" unicode="&#x174;" horiz-adv-x="950" 
d="M147 714l132 -542l136 538h129l138 -537l128 541h129l-197 -714h-121l-145 562l-143 -562h-117l-205 714h136zM532 912l118 -139h-101l-74 75l-74 -75h-101l118 139h114z" />
    <glyph glyph-name="wcircumflex" unicode="&#x175;" horiz-adv-x="753" 
d="M131 520l88 -380l110 376h104l106 -376l88 380h119l-152 -520h-113l-105 378l-106 -378h-112l-151 520h124zM433 741l117 -148h-100l-74 85l-74 -85h-101l118 148h114z" />
    <glyph glyph-name="Ycircumflex" unicode="&#x176;" horiz-adv-x="635" 
d="M260 297l-248 417h135l172 -310l176 310h128l-243 -417v-297h-120v297zM374 912l118 -139h-101l-74 75l-74 -75h-101l118 139h114z" />
    <glyph glyph-name="ycircumflex" unicode="&#x177;" horiz-adv-x="545" 
d="M71 -92q25 -9 57 -9q30 0 47 14.5t32 54.5l19 50l-219 502h132l143 -375l131 375h124l-207 -525q-18 -46 -34 -81t-36 -59t-47.5 -36.5t-67.5 -12.5q-26 0 -48 3.5t-47 11.5zM330 741l117 -148h-100l-74 85l-74 -85h-101l118 148h114z" />
    <glyph glyph-name="Ydieresis" unicode="&#x178;" horiz-adv-x="635" 
d="M260 297l-248 417h135l172 -310l176 310h128l-243 -417v-297h-120v297zM467 902v-116h-112v116h112zM273 902v-116h-112v116h112z" />
    <glyph glyph-name="Zacute" unicode="&#x179;" horiz-adv-x="586" 
d="M27 90l384 520h-377v104h520v-91l-383 -518h397l-14 -105h-527v90zM454 912l-149 -139h-109l123 139h135z" />
    <glyph glyph-name="zacute" unicode="&#x17a;" horiz-adv-x="484" 
d="M310 430h-272v90h415v-80l-277 -350h291l-13 -90h-422v80zM423 741l-143 -148h-107l117 148h133z" />
    <glyph glyph-name="Zdotaccent" unicode="&#x17b;" horiz-adv-x="586" 
d="M27 90l384 520h-377v104h520v-91l-383 -518h397l-14 -105h-527v90zM353 904v-120h-117v120h117z" />
    <glyph glyph-name="zdotaccent" unicode="&#x17c;" horiz-adv-x="484" 
d="M310 430h-272v90h415v-80l-277 -350h291l-13 -90h-422v80zM306 725v-114h-111v114h111z" />
    <glyph glyph-name="Zcaron" unicode="&#x17d;" horiz-adv-x="586" 
d="M27 90l384 520h-377v104h520v-91l-383 -518h397l-14 -105h-527v90zM217 916l75 -76l73 76h101l-118 -140h-114l-118 140h101z" />
    <glyph glyph-name="zcaron" unicode="&#x17e;" horiz-adv-x="484" 
d="M310 430h-272v90h415v-80l-277 -350h291l-13 -90h-422v80zM193 593l-118 149h101l74 -86l74 86h100l-117 -149h-114z" />
    <glyph glyph-name="longs" unicode="&#x17f;" horiz-adv-x="250" 
d="M66 550q0 44 13 76.5t36 53.5t54 31.5t67 10.5q25 0 49 -3t49 -11l-16 -85q-32 9 -60 9q-36 0 -57 -18.5t-21 -60.5v-553h-114v550z" />
    <glyph glyph-name="florin" unicode="&#x192;" 
d="M0 -68q11 -5 21.5 -7.5t20.5 -3.5q19 -3 36 0q31 3 46.5 25t24.5 67l78 397h-80l14 94h83l10 48q16 75 58 115t123 42h15q6 0 14 -1q25 -2 44.5 -6.5t39.5 -12.5l-30 -86q-11 4 -21.5 7t-21.5 4q-9 1 -18.5 1.5t-19.5 -0.5q-21 -2 -33.5 -10t-21 -21.5t-14 -33.5
t-11.5 -46h126l-14 -94h-131l-83 -427q-16 -75 -55.5 -115.5t-118.5 -42.5h-15q-7 0 -15 1q-42 3 -80 18z" />
    <glyph glyph-name="Scommaaccent" unicode="&#x218;" horiz-adv-x="644" 
d="M155 218q8 -70 50.5 -102t126.5 -32q41 0 69 9t45 24t24 35.5t7 43.5q0 17 -5 33.5t-18 30.5t-35 24.5t-56 16.5l-91 17q-54 10 -96 25t-70.5 39.5t-43 60t-14.5 86.5t20.5 89t56.5 63.5t85.5 38t107.5 12.5q74 0 124 -17t81 -44.5t47 -63.5t22 -75l-114 -18
q-14 60 -48.5 89t-109.5 29q-43 0 -71.5 -7.5t-46 -21t-25 -31t-7.5 -36.5q0 -47 25.5 -70t89.5 -36l99 -19q113 -21 166 -71.5t53 -145.5q0 -45 -16.5 -83.5t-50.5 -67t-84.5 -45t-117.5 -16.5q-137 0 -215 57.5t-86 178.5h122zM400 -67l-103 -155h-105l79 155h129z" />
    <glyph glyph-name="scommaaccent" unicode="&#x219;" horiz-adv-x="530" 
d="M143 159q3 -26 14 -42.5t27.5 -26.5t38.5 -13.5t47 -3.5q57 0 82 17t25 50q0 26 -15.5 44t-63.5 26q-62 11 -109 21t-79 27.5t-48 45t-16 74.5q0 36 16 65.5t44.5 50t68 31.5t86.5 11q60 0 100 -12t65 -33t38 -48t20 -57l-102 -14q-12 39 -36.5 58t-81.5 19q-33 0 -54 -6
t-33.5 -15t-17 -20t-4.5 -22q0 -17 4 -28t14.5 -18t28.5 -12t45 -10l65 -11q52 -9 86.5 -23t55 -34.5t28.5 -47.5t8 -60q0 -71 -54 -114.5t-164 -43.5q-45 0 -86.5 8.5t-74.5 28.5t-53.5 53.5t-23.5 84.5h109zM340 -67l-99 -150h-101l76 150h124z" />
    <glyph glyph-name="uni021A" unicode="&#x21a;" horiz-adv-x="610" 
d="M245 609h-226v105h572v-105h-225v-609h-121v609zM373 -67l-103 -155h-105l79 155h129z" />
    <glyph glyph-name="uni021B" unicode="&#x21b;" horiz-adv-x="363" 
d="M14 430v90h82v140h113v-140h129v-90h-129v-272q0 -40 16.5 -58t48.5 -18q17 0 32.5 2t30.5 7l17 -85q-48 -16 -104 -16q-86 0 -120 44.5t-34 133.5v262h-82zM291 -67l-99 -150h-101l76 150h124z" />
    <glyph glyph-name="dotlessj" unicode="&#x237;" horiz-adv-x="246" 
d="M-61 -82q30 -9 64 -9q38 0 50.5 25t12.5 73v513h114v-524q0 -88 -36.5 -134.5t-120.5 -46.5q-53 0 -101 16z" />
    <glyph glyph-name="apostrophe" unicode="&#x2bc;" horiz-adv-x="339" 
d="M178 714l-57 -232h-87l31 232h113z" />
    <glyph glyph-name="circumflex" unicode="&#x2c6;" horiz-adv-x="403" 
d="M258 741l117 -148h-100l-74 85l-74 -85h-101l118 148h114z" />
    <glyph glyph-name="caron" unicode="&#x2c7;" horiz-adv-x="403" 
d="M144 593l-118 149h101l74 -86l74 86h100l-117 -149h-114z" />
    <glyph glyph-name="uni02C9" unicode="&#x2c9;" horiz-adv-x="403" 
d="M339 706v-89h-276v89h276z" />
    <glyph glyph-name="breve" unicode="&#x2d8;" horiz-adv-x="403" 
d="M137 738q0 -41 19 -58t45 -17q25 0 44 17t19 58h84q0 -74 -40 -111t-107 -37q-69 0 -107 37.5t-38 110.5h81z" />
    <glyph glyph-name="dotaccent" unicode="&#x2d9;" horiz-adv-x="403" 
d="M257 725v-114h-111v114h111z" />
    <glyph glyph-name="ring" unicode="&#x2da;" horiz-adv-x="403" 
d="M201 646q20 0 32.5 12t12.5 37t-12 37t-33 12q-46 0 -46 -49t46 -49zM92 695q0 26 8.5 46t23.5 33.5t35 20.5t42 7q45 0 77 -28.5t32 -78.5q0 -29 -9.5 -49t-25 -32.5t-35 -18.5t-39.5 -6q-46 0 -77.5 26t-31.5 80z" />
    <glyph glyph-name="ogonek" unicode="&#x2db;" horiz-adv-x="403" 
d="M281 -185q-8 -2 -15 -2h-14q-7 0 -14.5 -0.5t-16.5 0.5q-31 1 -51 8t-31 18.5t-15.5 26t-4.5 29.5q0 59 71 105h91q-30 -19 -48.5 -39t-18.5 -42q0 -19 9.5 -25.5t22.5 -7.5q5 -1 9 -0.5t9 0.5q4 0 8 0.5t9 0.5v-72z" />
    <glyph glyph-name="tilde" unicode="&#x2dc;" horiz-adv-x="403" 
d="M18 603q0 66 29.5 98t81.5 32q18 0 35 -7.5t33.5 -16.5t32.5 -16.5t33 -7.5q42 0 42 45h79q0 -68 -29.5 -98.5t-80.5 -30.5q-19 0 -36 6t-32 14l-29 17q-10 5 -18.5 8t-18.5 3q-43 0 -43 -46h-79z" />
    <glyph glyph-name="hungarumlaut" unicode="&#x2dd;" horiz-adv-x="403" 
d="M406 741l-128 -148h-97l103 148h122zM221 741l-128 -148h-97l103 148h122z" />
    <glyph glyph-name="tonos" unicode="&#x384;" horiz-adv-x="403" 
d="M288 754l-95 -161h-91l70 161h116z" />
    <glyph glyph-name="dieresistonos" unicode="&#x385;" horiz-adv-x="363" 
d="M253 746l-55 -146h-86l35 146h106zM72 716v-96h-94v96h94zM373 716v-96h-94v96h94z" />
    <glyph glyph-name="Alphatonos" unicode="&#x386;" horiz-adv-x="694" 
d="M290 714h120l272 -714h-129l-67 182h-277l-66 -182h-125zM453 283l-106 294l-105 -294h211zM196 714l-83 -154h-91l58 154h116z" />
    <glyph glyph-name="Epsilontonos" unicode="&#x388;" horiz-adv-x="768" 
d="M245 714h475v-104h-354v-190h334v-105h-334v-211h373l-14 -104h-480v714zM177 714l-83 -154h-91l58 154h116z" />
    <glyph glyph-name="Etatonos" unicode="&#x389;" horiz-adv-x="884" 
d="M245 714h121v-289h321v289h121v-714h-121v313h-321v-313h-121v714zM177 714l-83 -154h-91l58 154h116z" />
    <glyph glyph-name="Iotatonos" unicode="&#x38a;" horiz-adv-x="442" 
d="M245 714h121v-714h-121v714zM177 714l-83 -154h-91l58 154h116z" />
    <glyph glyph-name="Omicrontonos" unicode="&#x38c;" horiz-adv-x="882" 
d="M497 -18q-77 0 -138.5 25.5t-105.5 73.5t-67.5 117.5t-23.5 157.5t24 158t68 118.5t106 74t137 25.5q76 0 138 -25.5t105 -73.5t66.5 -117.5t23.5 -157.5q0 -89 -23 -158.5t-66 -118t-104.5 -74t-139.5 -25.5zM496 86q103 0 156 72.5t53 198.5q0 63 -13.5 113t-39.5 85
t-65 54t-91 19t-91 -19t-65.5 -54t-39.5 -85t-13 -113q0 -126 52.5 -198.5t156.5 -72.5zM180 714l-83 -154h-91l58 154h116z" />
    <glyph glyph-name="Upsilontonos" unicode="&#x38e;" horiz-adv-x="838" 
d="M463 297l-248 417h135l172 -310l176 310h128l-243 -417v-297h-120v297zM177 714l-83 -154h-91l58 154h116z" />
    <glyph glyph-name="Omegatonos" unicode="&#x38f;" horiz-adv-x="837" 
d="M270 99q-51 53 -80.5 121t-29.5 160q0 86 23 152t64.5 110.5t99 67t126.5 22.5t125.5 -22t97 -65.5t62.5 -108.5t22 -151q0 -95 -29.5 -163t-83.5 -123h139l-14 -99h-257v91q69 48 96 122.5t27 168.5q0 120 -45 186t-140 66q-100 0 -146 -66t-46 -186q0 -95 28 -168
t95 -123v-91h-269v99h135zM177 714l-83 -154h-91l58 154h116z" />
    <glyph glyph-name="iotadieresistonos" unicode="&#x390;" horiz-adv-x="297" 
d="M67 520h114v-363q0 -38 11 -57t43 -19q14 0 27 2.5t21 4.5l16 -85q-13 -5 -39.5 -9.5t-58.5 -4.5q-71 0 -102.5 39t-31.5 110v382zM228 746l-55 -146h-86l35 146h106zM47 716v-96h-94v96h94zM348 716v-96h-94v96h94z" />
    <glyph glyph-name="Alpha" unicode="&#x391;" horiz-adv-x="686" 
d="M283 714h120l272 -714h-129l-67 182h-277l-66 -182h-125zM446 283l-106 294l-105 -294h211z" />
    <glyph glyph-name="Beta" unicode="&#x392;" horiz-adv-x="640" 
d="M76 714h247q78 0 128 -14.5t79.5 -40t40.5 -60t11 -73.5q0 -45 -20 -83.5t-73 -63.5q34 -15 56 -34t35 -40.5t18 -45t5 -47.5q0 -44 -13.5 -83t-44.5 -67.5t-81 -45t-123 -16.5h-265v714zM337 421q71 0 99 26t28 75q0 51 -32.5 73.5t-112.5 22.5h-126v-197h144zM337 97
q43 0 71.5 8t45 23t23.5 36t7 47q0 54 -30.5 82.5t-105.5 28.5h-155v-225h144z" />
    <glyph glyph-name="Gamma" unicode="&#x393;" horiz-adv-x="534" 
d="M76 714h446v-105h-325v-609h-121v714z" />
    <glyph glyph-name="uni0394" unicode="&#x394;" horiz-adv-x="672" 
d="M334 582l-171 -478h341zM278 714h118l266 -714h-651z" />
    <glyph glyph-name="Epsilon" unicode="&#x395;" horiz-adv-x="599" 
d="M76 714h475v-104h-354v-190h334v-105h-334v-211h373l-14 -104h-480v714z" />
    <glyph glyph-name="Zeta" unicode="&#x396;" horiz-adv-x="586" 
d="M27 90l384 520h-377v104h520v-91l-383 -518h397l-14 -105h-527v90z" />
    <glyph glyph-name="Eta" unicode="&#x397;" horiz-adv-x="715" 
d="M76 714h121v-289h321v289h121v-714h-121v313h-321v-313h-121v714z" />
    <glyph glyph-name="Theta" unicode="&#x398;" horiz-adv-x="772" 
d="M250 418h275v-103h-275v103zM387 -18q-77 0 -138.5 25.5t-105.5 73.5t-67.5 117.5t-23.5 157.5t24 158t68 118.5t106 74t137 25.5q76 0 138 -25.5t105 -73.5t66.5 -117.5t23.5 -157.5q0 -89 -23 -158.5t-66 -118t-104.5 -74t-139.5 -25.5zM386 86q103 0 156 72.5
t53 198.5q0 63 -13.5 113t-39.5 85t-65 54t-91 19t-91 -19t-65.5 -54t-39.5 -85t-13 -113q0 -126 52.5 -198.5t156.5 -72.5z" />
    <glyph glyph-name="Iota" unicode="&#x399;" horiz-adv-x="272" 
d="M76 714h121v-714h-121v714z" />
    <glyph glyph-name="Kappa" unicode="&#x39a;" horiz-adv-x="662" 
d="M76 714h121v-314l299 314h134l-246 -268l273 -446h-137l-221 368l-102 -103v-265h-121v714z" />
    <glyph glyph-name="Lambda" unicode="&#x39b;" horiz-adv-x="680" 
d="M669 0h-135l-196 556l-198 -556h-129l270 714h117z" />
    <glyph glyph-name="Mu" unicode="&#x39c;" horiz-adv-x="853" 
d="M76 714h147l203 -568l209 568h142v-714h-111v519l-196 -519h-96l-189 518v-518h-109v714z" />
    <glyph glyph-name="Nu" unicode="&#x39d;" horiz-adv-x="710" 
d="M76 714h112l328 -516v516h118v-714h-112l-329 514v-514h-117v714z" />
    <glyph glyph-name="Xi" unicode="&#x39e;" horiz-adv-x="567" 
d="M65 423h436v-110h-436v110zM45 714h476v-110h-476v110zM533 110l-15 -110h-478v110h493z" />
    <glyph glyph-name="Omicron" unicode="&#x39f;" horiz-adv-x="772" 
d="M387 -18q-77 0 -138.5 25.5t-105.5 73.5t-67.5 117.5t-23.5 157.5t24 158t68 118.5t106 74t137 25.5q76 0 138 -25.5t105 -73.5t66.5 -117.5t23.5 -157.5q0 -89 -23 -158.5t-66 -118t-104.5 -74t-139.5 -25.5zM386 86q103 0 156 72.5t53 198.5q0 63 -13.5 113t-39.5 85
t-65 54t-91 19t-91 -19t-65.5 -54t-39.5 -85t-13 -113q0 -126 52.5 -198.5t156.5 -72.5z" />
    <glyph glyph-name="Pi" unicode="&#x3a0;" horiz-adv-x="700" 
d="M503 609h-306v-609h-121v714h548v-714h-121v609z" />
    <glyph glyph-name="Rho" unicode="&#x3a1;" horiz-adv-x="633" 
d="M76 714h247q81 0 133.5 -18t82.5 -48t42 -69.5t12 -82.5q0 -46 -12 -88t-42.5 -73.5t-82.5 -50t-131 -18.5h-130v-266h-119v714zM322 367q46 0 75.5 9t46.5 25.5t23.5 39.5t6.5 52q0 30 -7 52.5t-24.5 37.5t-47 23t-74.5 8h-126v-247h127z" />
    <glyph glyph-name="Sigma" unicode="&#x3a3;" horiz-adv-x="581" 
d="M261 357l-227 266v91h514v-105h-360l206 -247l-222 -257h390l-14 -105h-521v90z" />
    <glyph glyph-name="Tau" unicode="&#x3a4;" horiz-adv-x="610" 
d="M245 609h-226v105h572v-105h-225v-609h-121v609z" />
    <glyph glyph-name="Upsilon" unicode="&#x3a5;" horiz-adv-x="635" 
d="M260 297l-248 417h135l172 -310l176 310h128l-243 -417v-297h-120v297z" />
    <glyph glyph-name="Phi" unicode="&#x3a6;" horiz-adv-x="850" 
d="M367 89q-71 6 -130 25.5t-101 55.5t-65.5 88.5t-23.5 123.5q0 73 23.5 127.5t65.5 92t101 58t130 25.5v79h116v-79q70 -5 128.5 -25t101 -57t66.5 -91t24 -127q0 -72 -25 -125t-68.5 -89t-102 -55.5t-124.5 -25.5v-90h-116v89zM681 385q0 91 -48.5 142.5t-149.5 61.5
v-404q100 11 149 59.5t49 140.5zM169 386q0 -97 51 -143.5t147 -57.5v404q-101 -10 -149.5 -61t-48.5 -142z" />
    <glyph glyph-name="Chi" unicode="&#x3a7;" horiz-adv-x="661" 
d="M259 377l-232 337h138l164 -250l166 250h130l-230 -342l258 -372h-139l-190 282l-184 -282h-131z" />
    <glyph glyph-name="Psi" unicode="&#x3a8;" horiz-adv-x="838" 
d="M182 714v-218q0 -106 45 -156.5t133 -56.5v431h120v-430q86 6 131.5 56.5t45.5 155.5v218h119v-211q0 -75 -21 -132.5t-59.5 -97t-93 -61.5t-122.5 -26v-186h-120v185q-66 4 -120.5 24t-93.5 58t-61 97t-22 141v209h119z" />
    <glyph glyph-name="Omega" unicode="&#x3a9;" horiz-adv-x="740" 
d="M170 99q-51 53 -80.5 121t-29.5 160q0 86 23 152t64.5 110.5t99 67t126.5 22.5t125.5 -22t97 -65.5t62.5 -108.5t22 -151q0 -95 -29.5 -163t-83.5 -123h139l-14 -99h-257v91q69 48 96 122.5t27 168.5q0 120 -45 186t-140 66q-100 0 -146 -66t-46 -186q0 -95 28 -168
t95 -123v-91h-269v99h135z" />
    <glyph glyph-name="Iotadieresis" unicode="&#x3aa;" horiz-adv-x="272" 
d="M76 714h121v-714h-121v714zM290 914v-116h-112v116h112zM96 914v-116h-112v116h112z" />
    <glyph glyph-name="Upsilondieresis" unicode="&#x3ab;" horiz-adv-x="635" 
d="M260 297l-248 417h135l172 -310l176 310h128l-243 -417v-297h-120v297zM471 914v-116h-112v116h112zM277 914v-116h-112v116h112z" />
    <glyph glyph-name="alphatonos" unicode="&#x3ac;" horiz-adv-x="689" 
d="M535 253l32 -108q11 -38 23.5 -53t38.5 -15q10 0 20.5 2.5t18.5 5.5l20 -82q-18 -8 -39.5 -13t-41.5 -5t-37 4t-31.5 14.5t-26.5 28.5t-21 47l-23 70q-12 -29 -28.5 -58.5t-39.5 -53t-54.5 -38.5t-73.5 -15q-57 0 -100 20.5t-71.5 56.5t-42.5 85.5t-14 107.5q0 63 15 115
t45.5 89t76 57.5t106.5 20.5q40 0 70 -11t52.5 -33t39.5 -54t32 -74l55 156h112zM280 76q25 0 45 10.5t37.5 32t34.5 56t35 82.5q-14 48 -27.5 83t-30.5 58t-38.5 34.5t-50.5 11.5q-63 0 -92.5 -51t-29.5 -139q0 -38 7.5 -70.5t22 -56.5t36.5 -37.5t51 -13.5zM428 754
l-95 -161h-91l70 161h116z" />
    <glyph glyph-name="epsilontonos" unicode="&#x3ad;" horiz-adv-x="545" 
d="M64 388q0 67 56 107.5t167 40.5q190 0 217 -151l-103 -18q-8 37 -32.5 59t-82.5 22q-57 0 -84 -19t-27 -52q0 -68 89 -68h101v-87h-99q-51 0 -77 -17t-26 -55q0 -39 28 -58t92 -19q66 0 92.5 21.5t29.5 65.5h108q-2 -83 -59 -129.5t-173 -46.5q-114 0 -173 42.5
t-59 120.5q0 53 28 84t67 42q-38 15 -59 44t-21 71zM411 754l-95 -161h-91l70 161h116z" />
    <glyph glyph-name="etatonos" unicode="&#x3ae;" horiz-adv-x="582" 
d="M65 520h111v-76q35 48 79 70t92 22q174 0 174 -192v-538h-114v520q0 64 -23 89t-68 25q-53 0 -95 -37q-20 -18 -31 -40t-11 -53v-310h-114v520zM452 754l-95 -161h-91l70 161h116z" />
    <glyph glyph-name="iotatonos" unicode="&#x3af;" horiz-adv-x="297" 
d="M67 520h114v-363q0 -38 11 -57t43 -19q14 0 27 2.5t21 4.5l16 -85q-13 -5 -39.5 -9.5t-58.5 -4.5q-71 0 -102.5 39t-31.5 110v382zM266 754l-95 -161h-91l70 161h116z" />
    <glyph glyph-name="upsilondieresistonos" unicode="&#x3b0;" horiz-adv-x="560" 
d="M280 -16q-53 0 -94.5 12.5t-70.5 41t-44 74.5t-15 112v296h114v-296q0 -74 26.5 -109.5t83.5 -35.5q58 0 84 35.5t26 109.5v296h114v-296q0 -66 -15.5 -112t-44.5 -74.5t-70.5 -41t-93.5 -12.5zM356 746l-55 -146h-86l35 146h106zM175 716v-96h-94v96h94zM476 716v-96
h-94v96h94z" />
    <glyph glyph-name="alpha" unicode="&#x3b1;" horiz-adv-x="689" 
d="M535 253l32 -108q11 -38 23.5 -53t38.5 -15q10 0 20.5 2.5t18.5 5.5l20 -82q-18 -8 -39.5 -13t-41.5 -5t-37 4t-31.5 14.5t-26.5 28.5t-21 47l-23 70q-12 -29 -28.5 -58.5t-39.5 -53t-54.5 -38.5t-73.5 -15q-57 0 -100 20.5t-71.5 56.5t-42.5 85.5t-14 107.5q0 63 15 115
t45.5 89t76 57.5t106.5 20.5q40 0 70 -11t52.5 -33t39.5 -54t32 -74l55 156h112zM280 76q25 0 45 10.5t37.5 32t34.5 56t35 82.5q-14 48 -27.5 83t-30.5 58t-38.5 34.5t-50.5 11.5q-63 0 -92.5 -51t-29.5 -139q0 -38 7.5 -70.5t22 -56.5t36.5 -37.5t51 -13.5z" />
    <glyph glyph-name="beta" unicode="&#x3b2;" horiz-adv-x="598" 
d="M65 506q0 106 60.5 161t166.5 55q54 0 94 -13.5t66 -37t39 -56t13 -70.5q0 -56 -24.5 -92.5t-64.5 -57.5q63 -18 101.5 -65.5t38.5 -127.5q0 -58 -19 -99t-49.5 -66.5t-69 -37.5t-78.5 -12q-48 0 -92 18t-74 57v-256h-108v700zM173 237q0 -47 13.5 -78t35 -49.5t47.5 -26
t51 -7.5q58 0 90.5 31.5t32.5 97.5q0 63 -37 95.5t-116 32.5h-38v88h29q53 0 82.5 28t29.5 84q0 48 -25.5 74t-75.5 26q-63 0 -91 -36t-28 -106v-254z" />
    <glyph glyph-name="gamma" unicode="&#x3b3;" horiz-adv-x="544" 
d="M214 23l-207 497h132l135 -371l137 371h126l-209 -500v-214h-114v217z" />
    <glyph glyph-name="delta" unicode="&#x3b4;" horiz-adv-x="587" 
d="M45 224q0 84 46 142.5t119 86.5q-25 15 -42.5 29t-29 29t-16.5 32.5t-5 39.5q0 28 12 53t36 44t60.5 30.5t86.5 11.5q100 0 151 -41.5t60 -114.5l-103 -12q-9 45 -36.5 63.5t-72.5 18.5t-66.5 -13.5t-21.5 -36.5q0 -19 10 -30t38 -28l119 -69q36 -21 64.5 -43.5t48.5 -50
t30.5 -62t10.5 -77.5q0 -48 -15.5 -91.5t-47 -77t-79 -53.5t-111.5 -20q-53 0 -98 16t-78 46.5t-51.5 75.5t-18.5 102zM279 411q-60 -26 -88 -75t-28 -111q0 -77 37.5 -113t93.5 -36q66 0 99 41t33 105t-27.5 103t-90.5 71z" />
    <glyph glyph-name="epsilon" unicode="&#x3b5;" horiz-adv-x="545" 
d="M64 388q0 67 56 107.5t167 40.5q190 0 217 -151l-103 -18q-8 37 -32.5 59t-82.5 22q-57 0 -84 -19t-27 -52q0 -68 89 -68h101v-87h-99q-51 0 -77 -17t-26 -55q0 -39 28 -58t92 -19q66 0 92.5 21.5t29.5 65.5h108q-2 -83 -59 -129.5t-173 -46.5q-114 0 -173 42.5
t-59 120.5q0 53 28 84t67 42q-38 15 -59 44t-21 71z" />
    <glyph glyph-name="zeta" unicode="&#x3b6;" horiz-adv-x="487" 
d="M45 238q0 55 22.5 107.5t60 101.5t86 93t99.5 83h-240v91h397v-78q-61 -43 -116.5 -90.5t-98 -98t-67.5 -102t-25 -102.5q0 -31 6.5 -54t21.5 -40t38.5 -29.5t57.5 -22.5l65 -20q78 -24 110.5 -56.5t32.5 -85.5q0 -45 -24 -81.5t-51 -58.5l-67 57q15 15 26 31.5t11 36.5
q0 23 -20 37.5t-63 27.5l-74 22q-53 15 -88.5 37t-58 50.5t-32 64.5t-9.5 79z" />
    <glyph glyph-name="eta" unicode="&#x3b7;" horiz-adv-x="582" 
d="M65 520h111v-76q35 48 79 70t92 22q174 0 174 -192v-538h-114v520q0 64 -23 89t-68 25q-53 0 -95 -37q-20 -18 -31 -40t-11 -53v-310h-114v520z" />
    <glyph glyph-name="theta" unicode="&#x3b8;" horiz-adv-x="598" 
d="M298 -17q-121 0 -187 89.5t-66 276.5t68 280t189 93q124 0 187.5 -92t63.5 -281q0 -187 -67 -276.5t-188 -89.5zM300 630q-38 0 -63.5 -16.5t-42 -47t-25 -73t-10.5 -94.5h279q-2 52 -10 94.5t-24 73t-41.5 47t-62.5 16.5zM301 75q37 0 62 16.5t41 46.5t24 73t10 96h-279
q3 -53 11.5 -96t25.5 -73t43 -46.5t62 -16.5z" />
    <glyph glyph-name="iota" unicode="&#x3b9;" horiz-adv-x="297" 
d="M67 520h114v-363q0 -38 11 -57t43 -19q14 0 27 2.5t21 4.5l16 -85q-13 -5 -39.5 -9.5t-58.5 -4.5q-71 0 -102.5 39t-31.5 110v382z" />
    <glyph glyph-name="kappa" unicode="&#x3ba;" horiz-adv-x="549" 
d="M65 520h111v-226l222 226h131l-184 -191l202 -329h-125l-157 261l-89 -88v-173h-111v520z" />
    <glyph glyph-name="lambda" unicode="&#x3bb;" horiz-adv-x="545" 
d="M537 0h-129l-133 394l-143 -394h-125l219 520l-18 45q-14 38 -32 51t-43 13q-12 0 -25.5 -2.5t-27.5 -7.5l-25 85q20 8 44 14t50 6q56 0 95 -26t65 -95z" />
    <glyph glyph-name="uni03BC" unicode="&#x3bc;" horiz-adv-x="578" 
d="M178 520v-322q0 -63 19.5 -90.5t70.5 -27.5q15 0 28 2.5t26 9.5q12 6 25.5 16t25.5 24t19.5 32t7.5 41v315h114v-520h-111v75q-58 -88 -144 -88q-23 0 -44 5t-37 24v-210h-113v714h113z" />
    <glyph glyph-name="nu" unicode="&#x3bd;" horiz-adv-x="544" 
d="M139 520l135 -392l137 392h126l-207 -520h-117l-206 520h132z" />
    <glyph glyph-name="xi" unicode="&#x3be;" horiz-adv-x="520" 
d="M370 76q80 -19 110.5 -54.5t30.5 -87.5q0 -22 -7 -42t-17.5 -38t-24 -33t-26.5 -26l-68 57q15 15 26 31.5t11 36.5q0 24 -19 39.5t-66 26.5l-85 20q-55 13 -91.5 32.5t-58.5 45.5t-31.5 57.5t-9.5 69.5q0 124 111 172q-45 22 -69 62t-24 96q0 39 13.5 74t42 61t72.5 41
t105 15q198 0 216 -163l-102 -15q-9 48 -36 69t-81 21q-66 0 -93 -31t-27 -76q0 -51 26 -80.5t74 -29.5h124v-90h-118q-62 0 -91 -28.5t-29 -85.5q0 -58 34.5 -86t97.5 -42z" />
    <glyph glyph-name="omicron" unicode="&#x3bf;" horiz-adv-x="603" 
d="M301 -16q-122 0 -188 72t-66 204q0 64 18 115t51 87t80 55t106 19q60 0 107 -19t79.5 -54.5t50 -86.5t17.5 -114q0 -65 -17.5 -116.5t-50.5 -87.5t-80.5 -55t-106.5 -19zM301 76q72 0 104.5 50t32.5 135t-32.5 134t-104.5 49t-104 -49t-32 -134q0 -86 32 -135.5
t104 -49.5z" />
    <glyph glyph-name="pi" unicode="&#x3c0;" horiz-adv-x="622" 
d="M385 428h-165v-428h-114v428h-93v92h583v-92h-98v-289q0 -29 10 -45.5t37 -16.5q10 0 20.5 1.5t16.5 3.5l13 -84q-14 -5 -37.5 -9t-47.5 -4q-69 0 -97 39.5t-28 114.5v289z" />
    <glyph glyph-name="rho" unicode="&#x3c1;" horiz-adv-x="607" 
d="M560 259q0 -60 -15.5 -110.5t-44.5 -87t-72 -57t-97 -20.5q-45 0 -84 17t-71 58v-253h-114v465q0 67 18.5 116.5t52 82.5t80 49.5t102.5 16.5q60 0 105.5 -19t76.5 -55t47 -87.5t16 -115.5zM175 247q0 -48 10.5 -80.5t28.5 -52.5t42.5 -28.5t53.5 -8.5q28 0 52 10.5
t41.5 32.5t27.5 57t10 83q0 51 -10 86t-27.5 56.5t-41.5 31.5t-52 10q-59 0 -97 -42.5t-38 -133.5v-21z" />
    <glyph glyph-name="sigma1" unicode="&#x3c2;" horiz-adv-x="541" 
d="M361 78q79 -22 112 -55.5t33 -90.5q0 -22 -7 -42t-17.5 -37.5t-24 -32.5t-26.5 -25q-14 12 -34 28.5t-34 28.5q15 15 26 31t11 37q0 26 -22.5 40.5t-60.5 24.5l-57 15q-55 14 -95 36t-66 54t-38.5 74t-12.5 97t15 104.5t46 87.5t78.5 60.5t111.5 22.5q90 0 147 -43.5
t71 -139.5l-111 -17q-9 54 -34 81t-76 27q-35 0 -59.5 -14.5t-40.5 -39t-23 -57t-7 -67.5q0 -45 10 -74.5t28 -48.5t42 -30t52 -18z" />
    <glyph glyph-name="sigma" unicode="&#x3c3;" horiz-adv-x="607" 
d="M295 -16q-61 0 -107 19t-77.5 53.5t-47.5 84t-16 109.5q0 56 17 105.5t52 86t88.5 57.5t125.5 21h245v-92h-121q47 -42 68 -95.5t21 -102.5q0 -52 -15 -97t-45.5 -78t-77.5 -52t-110 -19zM295 76q38 0 64 13t42.5 35.5t23.5 52.5t7 63q0 55 -16 102.5t-54 85.5h-39
q-73 0 -115.5 -42t-42.5 -133q0 -36 6.5 -68t21.5 -56.5t40 -38.5t62 -14z" />
    <glyph glyph-name="tau" unicode="&#x3c4;" horiz-adv-x="509" 
d="M13 520h470v-92h-194v-257q0 -49 18.5 -70.5t63.5 -21.5q26 0 49.5 4.5t36.5 8.5l17 -85q-8 -3 -21 -6.5t-30 -6.5t-36 -5t-38 -2q-91 0 -132.5 41.5t-41.5 126.5v273h-162v92z" />
    <glyph glyph-name="upsilon" unicode="&#x3c5;" horiz-adv-x="560" 
d="M280 -16q-53 0 -94.5 12.5t-70.5 41t-44 74.5t-15 112v296h114v-296q0 -74 26.5 -109.5t83.5 -35.5q58 0 84 35.5t26 109.5v296h114v-296q0 -66 -15.5 -112t-44.5 -74.5t-70.5 -41t-93.5 -12.5z" />
    <glyph glyph-name="phi" unicode="&#x3c6;" horiz-adv-x="777" 
d="M389 536q89 0 153.5 -22t106.5 -59.5t62 -88t20 -107.5t-18.5 -105t-55 -83.5t-90 -57t-123.5 -26.5v-181h-111v181q-74 5 -128 27t-89.5 57.5t-52.5 83.5t-17 105q0 58 20.5 108t63 87.5t107 59t152.5 21.5zM162 262q0 -88 46.5 -134t124.5 -51v367q-76 -5 -123.5 -52.5
t-47.5 -129.5zM615 257q0 87 -46.5 134.5t-124.5 52.5v-367q75 5 123 50t48 130z" />
    <glyph glyph-name="chi" unicode="&#x3c7;" horiz-adv-x="550" 
d="M295 289l113 231h119l-178 -334l111 -228q18 -38 33.5 -53.5t40.5 -16.5q22 0 48 12l27 -84q-23 -11 -45 -16.5t-57 -5.5q-53 0 -85 31t-58 86l-84 179l-150 -284h-119l214 391l-86 179q-16 33 -31 49t-41 16q-22 0 -45 -11l-27 84q12 5 22.5 9t22 6.5t24.5 4t31 1.5
q52 0 84.5 -29.5t55.5 -81.5z" />
    <glyph glyph-name="psi" unicode="&#x3c8;" horiz-adv-x="788" 
d="M451 79q36 2 66.5 13t52.5 35.5t34 63.5t12 97v232h113v-241q0 -75 -22 -129t-59.5 -89t-88 -52.5t-108.5 -19.5v-183h-113v183q-60 2 -111 19t-88.5 51.5t-58.5 88.5t-21 131v241h113v-232q0 -57 12.5 -96.5t34.5 -63.5t52.5 -35.5t66.5 -13.5v441h113v-441z" />
    <glyph glyph-name="omega" unicode="&#x3c9;" horiz-adv-x="807" 
d="M403 89q-11 -24 -25 -43.5t-33.5 -33t-44.5 -21t-59 -7.5q-51 0 -88 18.5t-60.5 53t-34.5 83.5t-11 111q0 40 9.5 80.5t24.5 77t33.5 69t37.5 58.5l91 -47q-14 -20 -28 -46t-25 -56.5t-18.5 -65.5t-7.5 -73q0 -88 25.5 -129.5t69.5 -41.5q41 0 64.5 37t23.5 111v142h113
v-142q0 -74 23.5 -111t64.5 -37q44 0 69.5 41.5t25.5 129.5q0 75 -24.5 136.5t-55.5 104.5l92 47q19 -26 38 -58.5t34 -69.5t24 -76.5t9 -80.5q0 -60 -11 -109t-34.5 -84t-60.5 -54t-88 -19q-34 0 -59 7.5t-44.5 21t-33.5 33t-26 43.5z" />
    <glyph glyph-name="iotadieresis" unicode="&#x3ca;" horiz-adv-x="297" 
d="M67 520h114v-363q0 -38 11 -57t43 -19q14 0 27 2.5t21 4.5l16 -85q-13 -5 -39.5 -9.5t-58.5 -4.5q-71 0 -102.5 39t-31.5 110v382zM284 724v-112h-109v112h109zM95 724v-112h-109v112h109z" />
    <glyph glyph-name="upsilondieresis" unicode="&#x3cb;" horiz-adv-x="560" 
d="M280 -16q-53 0 -94.5 12.5t-70.5 41t-44 74.5t-15 112v296h114v-296q0 -74 26.5 -109.5t83.5 -35.5q58 0 84 35.5t26 109.5v296h114v-296q0 -66 -15.5 -112t-44.5 -74.5t-70.5 -41t-93.5 -12.5zM430 724v-112h-109v112h109zM241 724v-112h-109v112h109z" />
    <glyph glyph-name="omicrontonos" unicode="&#x3cc;" horiz-adv-x="603" 
d="M301 -16q-122 0 -188 72t-66 204q0 64 18 115t51 87t80 55t106 19q60 0 107 -19t79.5 -54.5t50 -86.5t17.5 -114q0 -65 -17.5 -116.5t-50.5 -87.5t-80.5 -55t-106.5 -19zM301 76q72 0 104.5 50t32.5 135t-32.5 134t-104.5 49t-104 -49t-32 -134q0 -86 32 -135.5
t104 -49.5zM439 754l-95 -161h-91l70 161h116z" />
    <glyph glyph-name="upsilontonos" unicode="&#x3cd;" horiz-adv-x="560" 
d="M280 -16q-53 0 -94.5 12.5t-70.5 41t-44 74.5t-15 112v296h114v-296q0 -74 26.5 -109.5t83.5 -35.5q58 0 84 35.5t26 109.5v296h114v-296q0 -66 -15.5 -112t-44.5 -74.5t-70.5 -41t-93.5 -12.5zM398 754l-95 -161h-91l70 161h116z" />
    <glyph glyph-name="omegatonos" unicode="&#x3ce;" horiz-adv-x="807" 
d="M403 89q-11 -24 -25 -43.5t-33.5 -33t-44.5 -21t-59 -7.5q-51 0 -88 18.5t-60.5 53t-34.5 83.5t-11 111q0 40 9.5 80.5t24.5 77t33.5 69t37.5 58.5l91 -47q-14 -20 -28 -46t-25 -56.5t-18.5 -65.5t-7.5 -73q0 -88 25.5 -129.5t69.5 -41.5q41 0 64.5 37t23.5 111v142h113
v-142q0 -74 23.5 -111t64.5 -37q44 0 69.5 41.5t25.5 129.5q0 75 -24.5 136.5t-55.5 104.5l92 47q19 -26 38 -58.5t34 -69.5t24 -76.5t9 -80.5q0 -60 -11 -109t-34.5 -84t-60.5 -54t-88 -19q-34 0 -59 7.5t-44.5 21t-33.5 33t-26 43.5zM528 754l-95 -161h-91l70 161h116z
" />
    <glyph glyph-name="uni0400" unicode="&#x400;" horiz-adv-x="599" 
d="M76 714h475v-104h-354v-190h334v-105h-334v-211h373l-14 -104h-480v714zM413 773h-109l-149 139h136z" />
    <glyph glyph-name="afii10023" unicode="&#x401;" horiz-adv-x="599" 
d="M76 714h475v-104h-354v-190h334v-105h-334v-211h373l-14 -104h-480v714zM468 902v-116h-112v116h112zM274 902v-116h-112v116h112z" />
    <glyph glyph-name="afii10051" unicode="&#x402;" horiz-adv-x="803" 
d="M336 418q38 11 80.5 18t81.5 7q76 0 127.5 -16.5t83 -46t45.5 -70.5t14 -89q0 -104 -69 -162.5t-217 -58.5h-41v102h39q86 0 125.5 28t39.5 88q0 31 -8 54t-27.5 39t-51.5 24t-80 8q-39 0 -76.5 -6.5t-65.5 -17.5v-319h-120v609h-199v105h572v-105h-253v-191z" />
    <glyph glyph-name="afii10052" unicode="&#x403;" horiz-adv-x="534" 
d="M76 714h446v-105h-325v-609h-121v714zM472 912l-149 -139h-109l123 139h135z" />
    <glyph glyph-name="afii10053" unicode="&#x404;" horiz-adv-x="722" 
d="M674 216q-18 -112 -91.5 -173t-204.5 -61q-163 0 -244.5 97.5t-81.5 283.5q0 94 26.5 163.5t71.5 115t105 68t127 22.5q229 0 278 -209l-120 -18q-16 60 -53 91.5t-109 31.5q-80 0 -134 -53t-65 -156h300v-104h-301q7 -112 60 -170.5t141 -58.5q41 0 70 9.5t48.5 27
t31 41t17.5 52.5h128z" />
    <glyph glyph-name="afii10054" unicode="&#x405;" horiz-adv-x="644" 
d="M155 218q8 -70 50.5 -102t126.5 -32q41 0 69 9t45 24t24 35.5t7 43.5q0 17 -5 33.5t-18 30.5t-35 24.5t-56 16.5l-91 17q-54 10 -96 25t-70.5 39.5t-43 60t-14.5 86.5t20.5 89t56.5 63.5t85.5 38t107.5 12.5q74 0 124 -17t81 -44.5t47 -63.5t22 -75l-114 -18
q-14 60 -48.5 89t-109.5 29q-43 0 -71.5 -7.5t-46 -21t-25 -31t-7.5 -36.5q0 -47 25.5 -70t89.5 -36l99 -19q113 -21 166 -71.5t53 -145.5q0 -45 -16.5 -83.5t-50.5 -67t-84.5 -45t-117.5 -16.5q-137 0 -215 57.5t-86 178.5h122z" />
    <glyph glyph-name="afii10055" unicode="&#x406;" horiz-adv-x="272" 
d="M76 714h121v-714h-121v714z" />
    <glyph glyph-name="afii10056" unicode="&#x407;" horiz-adv-x="272" 
d="M76 714h121v-714h-121v714zM290 902v-116h-112v116h112zM96 902v-116h-112v116h112z" />
    <glyph glyph-name="afii10057" unicode="&#x408;" horiz-adv-x="617" 
d="M149 230q4 -33 12.5 -59.5t25 -45t42 -29t63.5 -10.5q73 0 104 42t31 120v466h121v-474q0 -128 -68.5 -193t-185.5 -65q-123 0 -190 60t-76 188h121z" />
    <glyph glyph-name="afii10058" unicode="&#x409;" horiz-adv-x="1073" 
d="M647 458h122q78 0 130 -18.5t82.5 -50t43.5 -72.5t13 -86q0 -47 -13 -89t-44.5 -73.5t-84.5 -50t-134 -18.5h-236v612h-172l-29 -237q-12 -93 -32 -164.5t-53 -119.5t-81 -73t-116 -25h-29v104h15q39 0 69 17t52 56t37.5 102.5t26.5 156.5l34 285h399v-256zM647 357v-257
h117q44 0 73.5 8.5t47.5 24.5t25.5 39.5t7.5 53.5t-7 54.5t-25 41.5t-49 26t-78 9h-112z" />
    <glyph glyph-name="afii10059" unicode="&#x40a;" horiz-adv-x="1042" 
d="M496 331h-299v-331h-121v714h121v-278h299v278h120v-278h121q76 0 128 -17.5t83 -47.5t44.5 -69t13.5 -82q0 -46 -13.5 -86t-45.5 -70t-84.5 -47t-131.5 -17h-235v331zM616 332v-232h117q44 0 73.5 7.5t47.5 22t25.5 36t7.5 49.5q0 29 -7.5 51t-25.5 36.5t-48 22t-75 7.5
h-115z" />
    <glyph glyph-name="afii10060" unicode="&#x40b;" horiz-adv-x="796" 
d="M332 403q27 11 66.5 20t83.5 9q69 0 117 -15t78.5 -43.5t44.5 -70t14 -95.5v-208h-120v177q0 41 -7 70.5t-24.5 49t-46 29t-71.5 9.5q-35 0 -71.5 -7.5t-63.5 -19.5v-308h-121v609h-194v105h567v-105h-252v-206z" />
    <glyph glyph-name="afii10061" unicode="&#x40c;" horiz-adv-x="661" 
d="M196 415h37q43 0 74.5 22t57.5 76l48 98q29 60 66.5 81.5t87.5 21.5q22 0 39.5 -2.5t29.5 -6.5l-14 -97l-10 2q-5 1 -11 1.5t-13 0.5q-26 0 -47 -12t-40 -53l-38 -80q-16 -35 -38 -58t-48 -35q10 -4 20.5 -10.5t21.5 -17.5t24.5 -28t30.5 -42l183 -276h-140l-161 244
q-14 21 -25.5 34.5t-24 22t-27.5 11.5t-36 3h-47v-315h-120v714h120v-299zM520 912l-149 -139h-109l123 139h135z" />
    <glyph glyph-name="uni040D" unicode="&#x40d;" horiz-adv-x="701" 
d="M508 0v519l-320 -519h-112v714h118v-522l319 522h112v-714h-117zM437 773h-109l-149 139h136z" />
    <glyph glyph-name="afii10062" unicode="&#x40e;" horiz-adv-x="604" 
d="M49 93q11 -5 32 -10t43 -5q41 0 71.5 20.5t52.5 70.5l16 35l-260 510h134l184 -393l154 393h124l-236 -546q-21 -48 -43 -82.5t-50.5 -57.5t-64 -34.5t-83.5 -11.5q-31 0 -57.5 6t-40.5 13zM227 920q2 -38 23.5 -56.5t57.5 -18.5t57.5 18.5t23.5 56.5h84
q0 -70 -43.5 -109t-121.5 -39q-81 0 -122 39t-41 109h82z" />
    <glyph glyph-name="afii10145" unicode="&#x40f;" horiz-adv-x="698" 
d="M197 105h304v609h121v-714h-217v-173h-107v173h-222v714h121v-609z" />
    <glyph glyph-name="afii10017" unicode="&#x410;" horiz-adv-x="686" 
d="M283 714h120l272 -714h-129l-67 182h-277l-66 -182h-125zM446 283l-106 294l-105 -294h211z" />
    <glyph glyph-name="afii10018" unicode="&#x411;" horiz-adv-x="632" 
d="M76 714h437v-105h-316v-161h135q78 0 129 -18.5t81.5 -49.5t42.5 -72t12 -86t-12.5 -85t-43 -70.5t-83 -48.5t-133.5 -18h-249v714zM197 347v-247h130q44 0 73 8t46 23t24 37.5t7 51.5q0 28 -7 51.5t-24.5 40.5t-47.5 26t-76 9h-125z" />
    <glyph glyph-name="afii10019" unicode="&#x412;" horiz-adv-x="640" 
d="M76 714h247q78 0 128 -14.5t79.5 -40t40.5 -60t11 -73.5q0 -45 -20 -83.5t-73 -63.5q34 -15 56 -34t35 -40.5t18 -45t5 -47.5q0 -44 -13.5 -83t-44.5 -67.5t-81 -45t-123 -16.5h-265v714zM337 421q71 0 99 26t28 75q0 51 -32.5 73.5t-112.5 22.5h-126v-197h144zM337 97
q43 0 71.5 8t45 23t23.5 36t7 47q0 54 -30.5 82.5t-105.5 28.5h-155v-225h144z" />
    <glyph glyph-name="afii10020" unicode="&#x413;" horiz-adv-x="534" 
d="M76 714h446v-105h-325v-609h-121v714z" />
    <glyph glyph-name="afii10021" unicode="&#x414;" horiz-adv-x="739" 
d="M79 105q29 36 51.5 88t38.5 112.5t27 125.5t17 127l15 156h415v-609h76v-278h-107v173h-497v-173h-107v278h71zM323 513q-6 -56 -14.5 -113.5t-22 -110.5t-31.5 -100.5t-43 -83.5h311v507h-190z" />
    <glyph glyph-name="afii10022" unicode="&#x415;" horiz-adv-x="599" 
d="M76 714h475v-104h-354v-190h334v-105h-334v-211h373l-14 -104h-480v714z" />
    <glyph glyph-name="afii10024" unicode="&#x416;" horiz-adv-x="1031" 
d="M455 315h-41q-32 0 -56.5 -13.5t-49.5 -51.5l-164 -250h-135l194 293q22 34 41.5 53t44.5 28q-32 12 -53 36t-35 56l-37 84q-18 39 -37 50.5t-45 11.5q-8 0 -14 -0.5t-11 -1.5l-10 -2l-14 97q15 4 36 6.5t38 2.5q45 0 81 -18t62 -74l50 -109q24 -54 56 -76.5t75 -22.5h24
v300h120v-300h23q43 0 75 22.5t58 76.5l46 98q28 59 66 81t89 22q22 0 39.5 -2.5t29.5 -6.5l-15 -97l-10 2q-5 1 -10.5 1.5t-12.5 0.5q-26 0 -47.5 -12t-40.5 -53l-30 -66q-38 -82 -93 -107q28 -11 46 -29.5t41 -53.5l193 -291h-140l-163 248q-12 19 -23 31.5t-23.5 20.5
t-27.5 11.5t-36 3.5h-34v-315h-120v315z" />
    <glyph glyph-name="afii10025" unicode="&#x417;" horiz-adv-x="632" 
d="M150 206q8 -67 45.5 -96.5t119.5 -29.5q154 0 154 122q0 118 -160 118h-85v98h91q66 0 103.5 29t37.5 84q0 50 -34 76.5t-105 26.5q-74 0 -109.5 -27.5t-49.5 -82.5l-110 15q16 90 82 141.5t188 51.5q66 0 113.5 -14t78.5 -39t46 -59.5t15 -75.5q0 -53 -24 -96.5
t-75 -69.5q60 -23 87.5 -69.5t27.5 -103.5q0 -50 -17 -91t-51.5 -70t-86 -45.5t-120.5 -16.5q-74 0 -126.5 17t-85.5 47t-48.5 71t-16.5 89h115z" />
    <glyph glyph-name="afii10026" unicode="&#x418;" horiz-adv-x="701" 
d="M508 0v519l-320 -519h-112v714h118v-522l319 522h112v-714h-117z" />
    <glyph glyph-name="afii10027" unicode="&#x419;" horiz-adv-x="701" 
d="M508 0v519l-320 -519h-112v714h118v-522l319 522h112v-714h-117zM267 920q2 -38 23.5 -56.5t57.5 -18.5t57.5 18.5t23.5 56.5h84q0 -70 -43.5 -109t-121.5 -39q-81 0 -122 39t-41 109h82z" />
    <glyph glyph-name="afii10028" unicode="&#x41a;" horiz-adv-x="661" 
d="M196 415h37q43 0 74.5 22t57.5 76l48 98q29 60 66.5 81.5t87.5 21.5q22 0 39.5 -2.5t29.5 -6.5l-14 -97l-10 2q-5 1 -11 1.5t-13 0.5q-26 0 -47 -12t-40 -53l-38 -80q-16 -35 -38 -58t-48 -35q10 -4 20.5 -10.5t21.5 -17.5t24.5 -28t30.5 -42l183 -276h-140l-161 244
q-14 21 -25.5 34.5t-24 22t-27.5 11.5t-36 3h-47v-315h-120v714h120v-299z" />
    <glyph glyph-name="afii10029" unicode="&#x41b;" horiz-adv-x="742" 
d="M546 612h-195l-28 -237q-11 -93 -31 -164.5t-53 -119.5t-81.5 -73t-116.5 -25h-29v104h15q39 0 69 17t52 56t37.5 102.5t26.5 156.5l34 285h420v-714h-120v612z" />
    <glyph glyph-name="afii10030" unicode="&#x41c;" horiz-adv-x="853" 
d="M76 714h147l203 -568l209 568h142v-714h-111v519l-196 -519h-96l-189 518v-518h-109v714z" />
    <glyph glyph-name="afii10031" unicode="&#x41d;" horiz-adv-x="715" 
d="M76 714h121v-289h321v289h121v-714h-121v313h-321v-313h-121v714z" />
    <glyph glyph-name="afii10032" unicode="&#x41e;" horiz-adv-x="772" 
d="M387 -18q-77 0 -138.5 25.5t-105.5 73.5t-67.5 117.5t-23.5 157.5t24 158t68 118.5t106 74t137 25.5q76 0 138 -25.5t105 -73.5t66.5 -117.5t23.5 -157.5q0 -89 -23 -158.5t-66 -118t-104.5 -74t-139.5 -25.5zM386 86q103 0 156 72.5t53 198.5q0 63 -13.5 113t-39.5 85
t-65 54t-91 19t-91 -19t-65.5 -54t-39.5 -85t-13 -113q0 -126 52.5 -198.5t156.5 -72.5z" />
    <glyph glyph-name="afii10033" unicode="&#x41f;" horiz-adv-x="700" 
d="M503 609h-306v-609h-121v714h548v-714h-121v609z" />
    <glyph glyph-name="afii10034" unicode="&#x420;" horiz-adv-x="633" 
d="M76 714h247q81 0 133.5 -18t82.5 -48t42 -69.5t12 -82.5q0 -46 -12 -88t-42.5 -73.5t-82.5 -50t-131 -18.5h-130v-266h-119v714zM322 367q46 0 75.5 9t46.5 25.5t23.5 39.5t6.5 52q0 30 -7 52.5t-24.5 37.5t-47 23t-74.5 8h-126v-247h127z" />
    <glyph glyph-name="afii10035" unicode="&#x421;" horiz-adv-x="712" 
d="M674 241q-6 -56 -27 -103t-58 -82t-90 -54.5t-123 -19.5q-77 0 -137.5 26t-102 74.5t-63 118t-21.5 155.5q0 88 23.5 158t66.5 118.5t103 74t132 25.5q67 0 116 -17t83.5 -48.5t55 -75.5t30.5 -98l-119 -17q-8 36 -20 64t-31.5 47.5t-47.5 30t-67 10.5q-48 0 -85 -19
t-62.5 -54.5t-38.5 -85.5t-13 -112q0 -63 13.5 -113t39.5 -85.5t62.5 -54t83.5 -18.5q42 0 71.5 11t49.5 31t31.5 48.5t16.5 64.5h128z" />
    <glyph glyph-name="afii10036" unicode="&#x422;" horiz-adv-x="610" 
d="M245 609h-226v105h572v-105h-225v-609h-121v609z" />
    <glyph glyph-name="afii10037" unicode="&#x423;" horiz-adv-x="604" 
d="M49 93q11 -5 32 -10t43 -5q41 0 71.5 20.5t52.5 70.5l16 35l-260 510h134l184 -393l154 393h124l-236 -546q-21 -48 -43 -82.5t-50.5 -57.5t-64 -34.5t-83.5 -11.5q-31 0 -57.5 6t-40.5 13z" />
    <glyph glyph-name="afii10038" unicode="&#x424;" horiz-adv-x="844" 
d="M364 89q-71 6 -130 25.5t-101 55.5t-65.5 88.5t-23.5 123.5q0 73 23.5 127.5t65.5 92t101 58t130 25.5v79h116v-79q70 -5 128.5 -25t101 -57t66.5 -91t24 -127q0 -72 -25 -125t-68.5 -89t-101.5 -55.5t-125 -25.5v-90h-116v89zM678 385q0 91 -48.5 142.5t-149.5 61.5
v-404q100 11 149 59.5t49 140.5zM166 386q0 -97 51 -143.5t147 -57.5v404q-101 -10 -149.5 -61t-48.5 -142z" />
    <glyph glyph-name="afii10039" unicode="&#x425;" horiz-adv-x="661" 
d="M259 377l-232 337h138l164 -250l166 250h130l-230 -342l258 -372h-139l-190 282l-184 -282h-131z" />
    <glyph glyph-name="afii10040" unicode="&#x426;" horiz-adv-x="709" 
d="M76 0v714h121v-609h294v609h121v-609h76v-278h-107v173h-505z" />
    <glyph glyph-name="afii10041" unicode="&#x427;" horiz-adv-x="658" 
d="M462 303q-34 -14 -77 -23t-89 -9q-52 0 -97 11.5t-78 37.5t-52 68t-19 104v222h120v-188q0 -41 7.5 -71t25 -49.5t47 -28.5t73.5 -9q35 0 73.5 7.5t65.5 19.5v319h120v-714h-120v303z" />
    <glyph glyph-name="afii10042" unicode="&#x428;" horiz-adv-x="991" 
d="M556 105h238v609h121v-714h-839v714h121v-609h238v609h121v-609z" />
    <glyph glyph-name="afii10043" unicode="&#x429;" horiz-adv-x="1012" 
d="M76 0v714h121v-609h238v609h121v-609h238v609h121v-609h76v-278h-107v173h-808z" />
    <glyph glyph-name="afii10044" unicode="&#x42a;" horiz-adv-x="725" 
d="M291 357v-257h123q44 0 73.5 8t47.5 24t26 39.5t8 54.5t-7.5 55.5t-25.5 41t-48.5 25.5t-76.5 9h-120zM8 714h283v-256h126q79 0 131.5 -19t84 -50.5t44 -72.5t12.5 -86q0 -47 -13 -89t-45 -73.5t-85 -49.5t-134 -18h-241v609h-163v105z" />
    <glyph glyph-name="afii10045" unicode="&#x42b;" horiz-adv-x="895" 
d="M319 458q79 0 131.5 -19t83.5 -50.5t44 -72.5t13 -86q0 -47 -13 -89t-45 -73.5t-85.5 -49.5t-134.5 -18h-237v714h120v-256h123zM196 100h119q88 0 122 32t34 94q0 31 -7.5 55.5t-26 41t-49 25.5t-75.5 9h-117v-257zM699 714h120v-714h-120v714z" />
    <glyph glyph-name="afii10046" unicode="&#x42c;" horiz-adv-x="639" 
d="M76 714h120v-256h136q79 0 132 -19t84 -50.5t44 -72.5t13 -86q0 -47 -13 -89t-45.5 -73.5t-86 -49.5t-134.5 -18h-250v714zM196 357v-257h133q88 0 122 32t34 94q0 31 -7.5 55.5t-26 41t-49 25.5t-76.5 9h-130z" />
    <glyph glyph-name="afii10047" unicode="&#x42d;" horiz-adv-x="710" 
d="M531 419q-5 55 -21 94.5t-40 65t-55 37.5t-65 12q-31 0 -59 -4.5t-51.5 -18t-42.5 -37.5t-31 -63l-117 18q28 98 101.5 153.5t204.5 55.5q63 0 118.5 -23t96.5 -68.5t64.5 -114t23.5 -159.5q0 -187 -82 -286t-237 -99q-75 0 -129 18t-90 49.5t-54.5 74t-23.5 92.5h121
q5 -27 16 -50.5t31.5 -41.5t51 -28t74.5 -10q97 0 143 55t53 174h-295v104h294z" />
    <glyph glyph-name="afii10048" unicode="&#x42e;" horiz-adv-x="1055" 
d="M678 -18q-147 0 -230.5 86.5t-92.5 247.5h-158v-316h-121v714h121v-295h159q16 149 100.5 231t221.5 82q75 0 135 -25.5t102.5 -73.5t65 -117.5t22.5 -157.5q0 -89 -22 -159t-64 -118t-102.5 -73.5t-136.5 -25.5zM679 628q-103 0 -152.5 -71.5t-49.5 -199.5
q0 -127 48.5 -199t151.5 -72q102 0 151.5 71.5t49.5 199.5q0 126 -49.5 198.5t-149.5 72.5z" />
    <glyph glyph-name="afii10049" unicode="&#x42f;" horiz-adv-x="673" 
d="M597 0h-120v282h-90q-26 0 -46 -5t-35 -15.5t-27 -26.5t-22 -38l-98 -197h-138l110 214q22 42 43.5 62.5t47.5 32.5q-71 24 -106 68.5t-35 120.5q0 39 12.5 77.5t43.5 69.5t84 50t134 19h242v-714zM477 383v231h-121q-45 0 -74.5 -8.5t-47 -23t-24.5 -35t-7 -44.5
q0 -53 31.5 -86.5t107.5 -33.5h135z" />
    <glyph glyph-name="afii10065" unicode="&#x430;" horiz-adv-x="550" 
d="M305 247q-48 -2 -79 -9.5t-49 -20.5t-24.5 -30t-6.5 -38q0 -33 21 -53.5t64 -20.5q68 0 107.5 33.5t39.5 96.5v45zM380 68q-29 -34 -70 -57.5t-103 -23.5q-37 0 -69 9.5t-55.5 29t-37 49.5t-13.5 70q0 54 23.5 87.5t61.5 52.5t86 27t98 11l77 4v22q0 57 -27 81t-76 24
q-52 0 -78 -17.5t-34 -52.5l-104 11q14 76 69 111t151 35q58 0 98 -14t65 -40.5t36 -64.5t11 -85v-337h-109v68z" />
    <glyph glyph-name="afii10066" unicode="&#x431;" horiz-adv-x="612" 
d="M323 404q-23 0 -47.5 -6t-45.5 -23q-28 -22 -40.5 -55t-12.5 -71q0 -82 34 -127.5t103 -45.5q63 0 98.5 40.5t35.5 121.5q0 90 -34.5 128t-90.5 38zM507 637l-98 -18q-69 -12 -111.5 -31t-65.5 -41q-54 -50 -66 -144q29 48 75 70t105 22q47 0 87 -16t69.5 -47.5t46 -78
t16.5 -108.5q0 -56 -16.5 -104t-49 -83t-79.5 -54.5t-107 -19.5q-69 0 -117.5 22t-80 63.5t-46 100t-14.5 131.5q0 59 7 106t20 84.5t32.5 67.5t44.5 55q20 20 49 36t63 29t72.5 22.5t77.5 16.5l72 12z" />
    <glyph glyph-name="afii10067" unicode="&#x432;" horiz-adv-x="557" 
d="M63 526h239q58 0 97.5 -11t63.5 -29.5t34 -43.5t10 -53q0 -42 -18 -70.5t-56 -45.5q42 -14 66 -44.5t24 -75.5q0 -31 -9.5 -58.5t-34 -48.5t-67 -33.5t-107.5 -12.5h-242v526zM302 307q50 0 70.5 17t20.5 47q0 34 -20.5 50t-73.5 16h-126v-130h129zM309 89q56 0 78 16.5
t22 51.5q0 33 -22.5 52t-78.5 19h-135v-139h136z" />
    <glyph glyph-name="afii10068" unicode="&#x433;" horiz-adv-x="436" 
d="M423 526v-96h-246v-430h-114v526h360z" />
    <glyph glyph-name="afii10069" unicode="&#x434;" horiz-adv-x="599" 
d="M524 526v-431h63v-235h-98v140h-376v-140h-98v235h53q34 31 57 110t34 215l9 106h356zM259 355q-11 -101 -30 -166t-41 -94h223v340h-144z" />
    <glyph glyph-name="afii10070" unicode="&#x435;" horiz-adv-x="580" 
d="M527 154q-14 -81 -68.5 -125.5t-158.5 -44.5q-124 0 -188.5 73.5t-64.5 203.5q0 67 18.5 119t52 88t80 54.5t102.5 18.5q60 0 104 -18.5t73 -52.5t43 -80.5t14 -103.5v-50h-373q1 -36 10 -65.5t26 -51.5t43 -34t60 -12q54 0 81 21.5t36 59.5h110zM423 314q0 65 -29.5 103
t-96.5 38q-62 0 -95.5 -38.5t-38.5 -102.5h260z" />
    <glyph glyph-name="afii10072" unicode="&#x436;" horiz-adv-x="806" 
d="M457 0h-107v225h-29q-34 0 -51.5 -16t-38.5 -50l-102 -159h-122l133 202q20 30 39.5 45.5t41.5 22.5q-26 8 -42 26t-28 44l-27 57q-11 23 -21.5 32t-32.5 9q-11 0 -19.5 -1t-13.5 -3l-11 85q10 2 23.5 4.5t29.5 2.5q32 0 54 -7t39.5 -23.5t32.5 -43t32 -66.5
q19 -47 40.5 -64.5t53.5 -17.5h19v222h107v-222h18q34 0 53.5 17.5t39.5 64.5q16 38 30 64t30 42t37 24t52 10q30 0 62 -7l-10 -85q-5 2 -13.5 3t-18.5 1q-26 0 -37.5 -11.5t-24.5 -39.5l-21 -47q-11 -24 -26.5 -42t-40.5 -27q23 -8 43.5 -26t43.5 -52l126 -193h-124
l-109 168q-19 29 -35 43t-47 14h-28v-225z" />
    <glyph glyph-name="afii10073" unicode="&#x437;" horiz-adv-x="540" 
d="M268 541q111 0 164 -41.5t53 -104.5q0 -42 -23.5 -73.5t-59.5 -44.5q40 -12 68.5 -42t28.5 -84q0 -73 -57.5 -119.5t-177.5 -46.5q-109 0 -169.5 42.5t-65.5 135.5h109q7 -48 38 -67.5t94 -19.5q64 0 88.5 21t24.5 56q0 76 -99 76h-107v79h111q41 0 62.5 19t21.5 53
q0 32 -25.5 51.5t-79.5 19.5q-31 0 -52.5 -5t-35.5 -15.5t-23 -26t-15 -35.5l-104 19q8 34 24.5 62t44 48t67 31.5t95.5 11.5z" />
    <glyph glyph-name="afii10074" unicode="&#x438;" horiz-adv-x="573" 
d="M510 0h-104v363l-242 -363h-101v526h104v-364l242 364h101v-526z" />
    <glyph glyph-name="afii10075" unicode="&#x439;" horiz-adv-x="573" 
d="M510 0h-104v363l-242 -363h-101v526h104v-364l242 364h101v-526zM212 738q2 -38 23.5 -56.5t57.5 -18.5t57.5 18.5t23.5 56.5h84q0 -70 -43.5 -109t-121.5 -39q-81 0 -122 39t-41 109h82z" />
    <glyph glyph-name="afii10076" unicode="&#x43a;" horiz-adv-x="533" 
d="M63 0v526h114v-222h29q16 0 29.5 4t24.5 13.5t20.5 25.5t19.5 39q17 39 32 66t33.5 43.5t42.5 23.5t58 7q13 0 26.5 -2t24.5 -5l-10 -85q-5 2 -14.5 3t-18.5 1q-23 0 -35 -9.5t-23 -33.5l-25 -55q-11 -26 -26 -43t-41 -28q20 -8 38 -23t36 -44l132 -202h-127l-109 168
q-19 29 -35 43t-47 14h-35v-225h-114z" />
    <glyph glyph-name="afii10077" unicode="&#x43b;" horiz-adv-x="584" 
d="M407 431h-147l-18 -159q-9 -75 -26 -127.5t-43.5 -86t-63.5 -48.5t-86 -15h-23v94h11q24 0 43.5 9t34.5 32.5t26 64.5t18 104l26 227h362v-526h-114v431z" />
    <glyph glyph-name="afii10078" unicode="&#x43c;" horiz-adv-x="714" 
d="M64 526h128l167 -407l171 407h120v-526h-103v348l-150 -348h-86l-144 348v-348h-103v526z" />
    <glyph glyph-name="afii10079" unicode="&#x43d;" horiz-adv-x="594" 
d="M177 526v-206h240v206h114v-526h-114v225h-240v-225h-114v526h114z" />
    <glyph glyph-name="afii10080" unicode="&#x43e;" horiz-adv-x="609" 
d="M303 -16q-122 0 -189 74t-67 205q0 64 18 115.5t52 87.5t81.5 55.5t106.5 19.5q60 0 107.5 -19t80.5 -55t50.5 -87t17.5 -115t-18 -116t-51.5 -88.5t-81 -56.5t-107.5 -20zM304 76q72 0 105.5 51t33.5 138q0 85 -33.5 134.5t-105.5 49.5t-105.5 -49.5t-33.5 -135.5
t33.5 -137t105.5 -51z" />
    <glyph glyph-name="afii10081" unicode="&#x43f;" horiz-adv-x="582" 
d="M519 526v-526h-114v430h-228v-430h-114v526h456z" />
    <glyph glyph-name="afii10082" unicode="&#x440;" horiz-adv-x="609" 
d="M315 448q-69 0 -104.5 -44t-35.5 -126v-32q0 -80 33 -124.5t103 -44.5q64 0 98 49t34 137q0 95 -35.5 140t-92.5 45zM174 526v-73q6 7 18.5 22t33 29.5t49.5 25.5t68 11q61 0 102.5 -23t67.5 -61t37.5 -88t11.5 -105q0 -58 -14.5 -109t-43.5 -89t-71.5 -60t-99.5 -22
q-35 0 -61.5 9t-45.5 21t-31 24.5t-18 20.5v-253h-114v720h111z" />
    <glyph glyph-name="afii10083" unicode="&#x441;" horiz-adv-x="564" 
d="M523 182q-11 -92 -66 -145t-162 -53q-126 0 -187 74t-61 203q0 63 17 114.5t49.5 88t79.5 57t107 20.5q50 0 87.5 -13t63.5 -36t42 -56t22 -72l-113 -17q-4 22 -11 40.5t-19.5 32t-31.5 21.5t-47 8q-58 0 -93 -45.5t-35 -139.5q0 -99 35 -143.5t96 -44.5q28 0 48 8.5
t33.5 23t20.5 33.5t10 41h115z" />
    <glyph glyph-name="afii10084" unicode="&#x442;" horiz-adv-x="497" 
d="M193 431h-176v95h464v-95h-174v-431h-114v431z" />
    <glyph glyph-name="afii10085" unicode="&#x443;" horiz-adv-x="545" 
d="M69 -91q14 -5 29 -7.5t30 -2.5q29 0 46.5 15t32.5 54l19 49l-219 509h132l143 -381l132 381h124l-219 -558q-16 -40 -31 -70.5t-34 -50.5t-45 -30.5t-63 -10.5q-28 0 -51 4t-47 12z" />
    <glyph glyph-name="afii10086" unicode="&#x444;" horiz-adv-x="745" 
d="M317 0q-142 14 -210 78.5t-68 179.5q0 53 19 97.5t54.5 78.5t87 55.5t117.5 28.5v183h110v-183q71 -6 123.5 -27.5t87 -55t51 -78.5t16.5 -98q0 -57 -20.5 -102t-57.5 -78t-88 -53t-112 -26v-178h-110v178zM154 262q0 -80 40.5 -121.5t122.5 -49.5v335q-74 -6 -118.5 -50
t-44.5 -114zM590 259q0 79 -44 120t-119 48v-335q74 6 118.5 47.5t44.5 119.5z" />
    <glyph glyph-name="afii10087" unicode="&#x445;" horiz-adv-x="528" 
d="M201 273l-174 253h134l108 -167l115 167h120l-171 -248l186 -278h-131l-126 193l-128 -193h-124z" />
    <glyph glyph-name="afii10088" unicode="&#x446;" horiz-adv-x="581" 
d="M63 0v526h114v-431h214v431h114v-431h63v-235h-98v140h-407z" />
    <glyph glyph-name="afii10089" unicode="&#x447;" horiz-adv-x="542" 
d="M366 203q-24 -7 -55.5 -11t-59.5 -4q-58 0 -98.5 13.5t-65.5 38.5t-36 59.5t-11 75.5v151h113v-126q0 -67 28.5 -93.5t91.5 -26.5q24 0 49 4t44 11v231h113v-526h-113v203z" />
    <glyph glyph-name="afii10090" unicode="&#x448;" horiz-adv-x="822" 
d="M758 0h-695v526h114v-431h177v431h113v-431h177v431h114v-526z" />
    <glyph glyph-name="afii10091" unicode="&#x449;" horiz-adv-x="834" 
d="M758 95h63v-235h-98v140h-660v526h114v-431h177v431h114v-431h176v431h114v-431z" />
    <glyph glyph-name="afii10092" unicode="&#x44a;" horiz-adv-x="594" 
d="M0 526h229v-181h140q51 0 88 -13t60.5 -35.5t35 -54t11.5 -67.5q0 -81 -52 -128t-155 -47h-242v431h-115v95zM229 93h128q45 0 67.5 20t22.5 58t-20 60t-74 22h-124v-160z" />
    <glyph glyph-name="afii10093" unicode="&#x44b;" horiz-adv-x="756" 
d="M177 526v-181h139q51 0 88 -13t61 -35.5t35.5 -54t11.5 -67.5q0 -79 -51 -127t-157 -48h-241v526h114zM579 526h114v-526h-114v526zM177 93h127q91 0 91 79q0 38 -20.5 59.5t-73.5 21.5h-124v-160z" />
    <glyph glyph-name="afii10094" unicode="&#x44c;" horiz-adv-x="552" 
d="M177 526v-181h150q51 0 87.5 -13t60.5 -35.5t35.5 -54t11.5 -67.5q0 -79 -51.5 -127t-156.5 -48h-251v526h114zM177 93h136q92 0 92 79q0 38 -20.5 59.5t-74.5 21.5h-133v-160z" />
    <glyph glyph-name="afii10095" unicode="&#x44d;" horiz-adv-x="570" 
d="M195 306h210q-5 69 -36.5 107t-91.5 38q-99 0 -123 -86l-104 17q8 34 26 63t46.5 50.5t68.5 33.5t91 12q114 0 177.5 -72.5t63.5 -205.5q0 -63 -17 -114.5t-48.5 -88t-77.5 -56.5t-103 -20q-105 0 -164.5 46t-69.5 133h109q8 -42 37 -65.5t91 -23.5q61 0 92 40.5
t35 109.5h-212v82z" />
    <glyph glyph-name="afii10096" unicode="&#x44e;" horiz-adv-x="825" 
d="M177 526v-216h111q12 108 75.5 169.5t168.5 61.5q58 0 104 -19t77.5 -55t48 -87t16.5 -115q0 -65 -17 -116.5t-49 -88.5t-78 -56.5t-104 -19.5q-111 0 -173 63t-70 178h-110v-225h-114v526h114zM531 76q35 0 59.5 13.5t40 38t22.5 59t7 77.5q0 85 -29.5 135t-99.5 50
q-69 0 -100 -50t-31 -135q0 -87 30.5 -137.5t100.5 -50.5z" />
    <glyph glyph-name="afii10097" unicode="&#x44f;" horiz-adv-x="557" 
d="M16 0l95 163q26 45 60 59q-21 4 -40 15t-34 28t-23.5 42t-8.5 58q0 32 11 61.5t36.5 51.5t65.5 35t99 13h217v-526h-113v197h-59q-20 0 -35 -3t-26 -9.5t-20 -17.5t-18 -26l-78 -141h-129zM381 290v144h-106q-95 0 -95 -67q0 -77 88 -77h113z" />
    <glyph glyph-name="uni0450" unicode="&#x450;" horiz-adv-x="580" 
d="M527 154q-14 -81 -68.5 -125.5t-158.5 -44.5q-124 0 -188.5 73.5t-64.5 203.5q0 67 18.5 119t52 88t80 54.5t102.5 18.5q60 0 104 -18.5t73 -52.5t43 -80.5t14 -103.5v-50h-373q1 -36 10 -65.5t26 -51.5t43 -34t60 -12q54 0 81 21.5t36 59.5h110zM423 314q0 65 -29.5 103
t-96.5 38q-62 0 -95.5 -38.5t-38.5 -102.5h260zM273 741l117 -148h-107l-143 148h133z" />
    <glyph glyph-name="afii10071" unicode="&#x451;" horiz-adv-x="580" 
d="M527 154q-14 -81 -68.5 -125.5t-158.5 -44.5q-124 0 -188.5 73.5t-64.5 203.5q0 67 18.5 119t52 88t80 54.5t102.5 18.5q60 0 104 -18.5t73 -52.5t43 -80.5t14 -103.5v-50h-373q1 -36 10 -65.5t26 -51.5t43 -34t60 -12q54 0 81 21.5t36 59.5h110zM423 314q0 65 -29.5 103
t-96.5 38q-62 0 -95.5 -38.5t-38.5 -102.5h260zM445 724v-112h-109v112h109zM256 724v-112h-109v112h109z" />
    <glyph glyph-name="afii10099" unicode="&#x452;" horiz-adv-x="611" 
d="M548 -4q0 -87 -35 -134t-119 -47q-27 0 -50.5 4t-48.5 12l17 87q30 -9 62 -9q30 0 45 16t15 58v309q0 63 -23 88t-68 25q-26 0 -50.5 -9t-44 -26t-31 -41t-11.5 -53v-276h-114v563h-92v84h92v67h114v-67h208v-84h-208v-150q34 46 77 67t91 21q90 0 132 -47t42 -144v-314z
" />
    <glyph glyph-name="afii10100" unicode="&#x453;" horiz-adv-x="436" 
d="M423 526v-96h-246v-430h-114v526h360zM396 741l-143 -148h-107l117 148h133z" />
    <glyph glyph-name="afii10101" unicode="&#x454;" horiz-adv-x="570" 
d="M375 225h-212q3 -69 36.5 -110t102.5 -41q48 0 79 20t38 68h109q-7 -48 -28 -81.5t-52 -55t-70 -31.5t-81 -10q-62 0 -109 19t-78.5 54.5t-47 86t-15.5 112.5q0 64 18 116.5t51 90t80 58t105 20.5q92 0 148.5 -38t73.5 -121l-109 -17q-11 42 -37 64t-77 22
q-63 0 -96.5 -39.5t-40.5 -103.5h212v-83z" />
    <glyph glyph-name="afii10102" unicode="&#x455;" horiz-adv-x="530" 
d="M143 159q8 -50 41.5 -68t85.5 -18q59 0 83 18t24 50q0 26 -15.5 44.5t-63.5 26.5l-69 12q-91 15 -137 50t-46 109q0 37 16 66t44.5 49.5t68 31.5t86.5 11q60 0 99.5 -12t65 -32t39 -47.5t19.5 -58.5l-102 -14q-6 20 -14.5 34.5t-22 24t-33 14t-48.5 4.5q-32 0 -52.5 -5.5
t-33.5 -14.5t-18 -20t-5 -23q0 -14 3.5 -25.5t13.5 -20t27 -14.5t43 -10l70 -12q50 -9 84 -22t55 -33t30 -47.5t9 -64.5q0 -70 -54 -114t-164 -44q-47 0 -88.5 8.5t-74 29t-52.5 54t-23 83.5h109z" />
    <glyph glyph-name="afii10103" unicode="&#x456;" horiz-adv-x="246" 
d="M182 714v-113h-118v113h118zM180 526v-526h-114v526h114z" />
    <glyph glyph-name="afii10104" unicode="&#x457;" horiz-adv-x="246" 
d="M272 724v-112h-109v112h109zM83 724v-112h-109v112h109zM180 526v-526h-114v526h114z" />
    <glyph glyph-name="afii10105" unicode="&#x458;" horiz-adv-x="246" 
d="M-61 -82q30 -9 64 -9q32 0 47.5 16t15.5 58v543h114v-530q0 -87 -36 -134t-121 -47q-53 0 -101 16zM182 714v-113h-118v113h118z" />
    <glyph glyph-name="afii10106" unicode="&#x459;" horiz-adv-x="855" 
d="M386 431h-126l-18 -159q-9 -75 -26 -127.5t-43.5 -86t-63.5 -48.5t-86 -15h-23v94h11q24 0 43.5 9t34.5 32.5t26 64.5t18 104l26 227h340v-181h130q51 0 88 -13t61 -35.5t35.5 -54t11.5 -67.5q0 -79 -51.5 -127t-156.5 -48h-231v431zM499 93h117q91 0 91 79
q0 38 -20 59.5t-74 21.5h-114v-160z" />
    <glyph glyph-name="afii10107" unicode="&#x45a;" horiz-adv-x="861" 
d="M63 526h114v-194h215v194h114v-194h130q51 0 88 -12.5t60.5 -34.5t35 -52t11.5 -65q0 -77 -51 -122.5t-157 -45.5h-231v239h-215v-239h-114v526zM506 93h117q91 0 91 72q0 35 -20 54.5t-74 19.5h-114v-146z" />
    <glyph glyph-name="afii10108" unicode="&#x45b;" horiz-adv-x="611" 
d="M94 647v67h114v-67h214v-84h-214v-150q35 46 77.5 67t90.5 21q90 0 132.5 -47t42.5 -144v-310h-114v292q0 63 -23 88t-68 25q-28 0 -53 -9.5t-44 -27t-30 -41t-11 -51.5v-276h-114v563h-94v84h94z" />
    <glyph glyph-name="afii10109" unicode="&#x45c;" horiz-adv-x="533" 
d="M63 0v526h114v-222h29q16 0 29.5 4t24.5 13.5t20.5 25.5t19.5 39q17 39 32 66t33.5 43.5t42.5 23.5t58 7q13 0 26.5 -2t24.5 -5l-10 -85q-5 2 -14.5 3t-18.5 1q-23 0 -35 -9.5t-23 -33.5l-25 -55q-11 -26 -26 -43t-41 -28q20 -8 38 -23t36 -44l132 -202h-127l-109 168
q-19 29 -35 43t-47 14h-35v-225h-114zM447 741l-143 -148h-107l117 148h133z" />
    <glyph glyph-name="uni045D" unicode="&#x45d;" horiz-adv-x="573" 
d="M510 0h-104v363l-242 -363h-101v526h104v-364l242 364h101v-526zM270 741l117 -148h-107l-143 148h133z" />
    <glyph glyph-name="afii10110" unicode="&#x45e;" horiz-adv-x="545" 
d="M69 -91q14 -5 29 -7.5t30 -2.5q29 0 46.5 15t32.5 54l19 49l-219 509h132l143 -381l132 381h124l-219 -558q-16 -40 -31 -70.5t-34 -50.5t-45 -30.5t-63 -10.5q-28 0 -51 4t-47 12zM190 738q2 -38 23.5 -56.5t57.5 -18.5t57.5 18.5t23.5 56.5h84q0 -70 -43.5 -109
t-121.5 -39q-81 0 -122 39t-41 109h82z" />
    <glyph glyph-name="afii10193" unicode="&#x45f;" horiz-adv-x="582" 
d="M340 0v-140h-98v140h-179v526h114v-431h228v431h114v-526h-179z" />
    <glyph glyph-name="uni0462" unicode="&#x462;" horiz-adv-x="749" 
d="M189 662v80h120v-80h224v-98h-224v-106h132q79 0 132 -19t84 -50.5t44 -72.5t13 -86q0 -47 -13 -89t-45 -73.5t-85.5 -49.5t-134.5 -18h-247v564h-172v98h172zM309 357v-257h129q88 0 122 32t34 94q0 31 -7.5 55.5t-26 41t-49 25.5t-76.5 9h-126z" />
    <glyph glyph-name="uni0463" unicode="&#x463;" horiz-adv-x="610" 
d="M3 524h116v208h114v-208h205v-85h-205v-94h150q51 0 88 -13t60.5 -35.5t35 -54t11.5 -67.5q0 -79 -51.5 -127t-156.5 -48h-251v439h-116v85zM233 93h137q91 0 91 79q0 38 -20 59.5t-74 21.5h-134v-160z" />
    <glyph glyph-name="uni0472" unicode="&#x472;" horiz-adv-x="772" 
d="M387 -18q-76 0 -138 25.5t-105.5 73.5t-67.5 117.5t-24 157.5t24 158t68 118.5t105.5 74t137.5 25.5t138 -25.5t105 -73.5t66.5 -117.5t23.5 -157.5q0 -89 -23 -158.5t-66 -118t-104.5 -74t-139.5 -25.5zM386 631q-95 0 -146.5 -58t-62.5 -160q21 13 48 21t58 8t58.5 -11
t53.5 -23.5t51.5 -23.5t53.5 -11q29 0 52.5 6.5t43.5 17.5q-8 109 -60.5 171.5t-149.5 62.5zM386 83q94 0 146 58t63 161q-21 -13 -47 -20.5t-56 -7.5q-32 0 -59 11t-53 23.5t-51.5 23.5t-53.5 11q-58 0 -99 -26q7 -110 59 -172t151 -62z" />
    <glyph glyph-name="uni0473" unicode="&#x473;" horiz-adv-x="609" 
d="M303 -16q-122 0 -189 74t-67 205q0 64 18 115.5t52 87.5t81.5 55.5t106.5 19.5q60 0 107.5 -19t80.5 -55t50.5 -87t17.5 -115t-18 -116t-51.5 -88.5t-81 -56.5t-107.5 -20zM304 450q-64 0 -97 -35.5t-41 -100.5q14 7 29 11t34 4q23 0 42 -8t37 -17t35.5 -17t37.5 -8
q38 0 63 14q-5 73 -38 115t-102 42zM304 75q64 0 96.5 36.5t41.5 101.5q-15 -8 -31 -12.5t-36 -4.5q-21 0 -40 8t-37 17t-36 17t-38 8q-19 0 -32.5 -3t-27.5 -10q6 -73 38.5 -115.5t101.5 -42.5z" />
    <glyph glyph-name="uni0474" unicode="&#x474;" horiz-adv-x="776" 
d="M146 714l196 -550l127 382q15 46 33.5 80t43 57t56 34.5t72.5 11.5q40 0 72 -11t53 -27l-40 -93q-13 8 -31.5 16t-42.5 8q-29 0 -51.5 -14.5t-40.5 -65.5l-194 -542h-116l-272 714h135z" />
    <glyph glyph-name="uni0475" unicode="&#x475;" horiz-adv-x="615" 
d="M137 526l133 -398l99 290q23 69 65.5 95t92.5 26q35 0 61 -10.5t40 -22.5l-36 -83q-23 18 -56 18q-28 0 -43 -15t-29 -53l-137 -373h-117l-204 526h131z" />
    <glyph glyph-name="uni048A" unicode="&#x48a;" horiz-adv-x="731" 
d="M710 105q0 -36 -4.5 -73t-19.5 -74.5t-43 -74.5t-74 -71l-69 70q29 23 54.5 52t38.5 66h-85v519l-320 -519h-112v714h118v-522l319 522h112v-609h85zM267 922q2 -38 23.5 -56.5t57.5 -18.5t57.5 18.5t23.5 56.5h84q0 -70 -43.5 -109t-121.5 -39q-81 0 -122 39t-41 109h82
z" />
    <glyph glyph-name="uni048B" unicode="&#x48b;" horiz-adv-x="584" 
d="M406 363l-242 -363h-100v526h103v-364l242 364h101v-431h61q0 -36 -4 -68.5t-17 -63t-36.5 -59t-62.5 -56.5l-60 64q26 20 43 41t28 47h-56v363zM212 738q2 -38 23.5 -56.5t57.5 -18.5t57.5 18.5t23.5 56.5h84q0 -70 -43.5 -109t-121.5 -39q-81 0 -122 39t-41 109h82z
" />
    <glyph glyph-name="uni048C" unicode="&#x48c;" horiz-adv-x="659" 
d="M99 541h-89v98h89v75h121v-75h168v-98h-168v-86h135q78 0 130 -18.5t82.5 -50t43.5 -72t13 -85.5q0 -47 -13 -88.5t-44.5 -73t-84.5 -49.5t-134 -18h-249v541zM220 354v-254h130q87 0 120.5 31.5t33.5 92.5q0 31 -7.5 55t-25.5 40.5t-49 25.5t-77 9h-125z" />
    <glyph glyph-name="uni048D" unicode="&#x48d;" horiz-adv-x="593" 
d="M3 486h101v53h113v-53h180v-85h-180v-60h150q51 0 88 -13t61 -35.5t35.5 -53t11.5 -66.5q0 -78 -51.5 -125.5t-156.5 -47.5h-251v401h-101v85zM217 93h137q91 0 91 78q0 37 -20 57.5t-74 20.5h-134v-156z" />
    <glyph glyph-name="uni048E" unicode="&#x48e;" horiz-adv-x="654" 
d="M374 503l72 -114q28 16 38 42.5t10 61.5q0 30 -7 52.5t-24 37.5t-47 23t-75 8h-146v-247h109h25q12 0 24 1l-55 87zM343 714q81 0 133.5 -18t83 -48t42.5 -69.5t12 -82.5q0 -31 -5.5 -60.5t-18.5 -55.5t-34 -47.5t-52 -36.5l50 -77l-76 -48l-64 100q-23 -4 -48.5 -4.5
t-52.5 -0.5h-118v-266h-119v714h267z" />
    <glyph glyph-name="uni048F" unicode="&#x48f;" horiz-adv-x="609" 
d="M395 -8q-30 -8 -62 -8q-35 0 -61.5 9t-45.5 21t-31 24.5t-18 20.5v-253h-114v720h111v-73q6 7 18.5 22t33 29.5t49.5 25.5t68 11q61 0 102.5 -23t67.5 -61t37.5 -88t11.5 -105q0 -74 -23.5 -135.5t-70.5 -99.5l57 -89l-70 -43zM315 448q-69 0 -104.5 -44t-35.5 -126v-32
q0 -80 33 -124.5t103 -44.5h15q6 0 13 2l-64 102l70 43l63 -100q35 49 35 139q0 95 -35.5 140t-92.5 45z" />
    <glyph glyph-name="afii10050" unicode="&#x490;" horiz-adv-x="530" 
d="M76 714h339v99h107v-204h-325v-609h-121v714z" />
    <glyph glyph-name="afii10098" unicode="&#x491;" horiz-adv-x="436" 
d="M423 430h-246v-430h-114v526h262v80h98v-176z" />
    <glyph glyph-name="uni0492" unicode="&#x492;" horiz-adv-x="556" 
d="M103 311h-93v99h93v304h445v-105h-325v-199h200v-99h-200v-311h-120v311z" />
    <glyph glyph-name="uni0493" unicode="&#x493;" horiz-adv-x="450" 
d="M437 526v-96h-246v-137h153v-86h-153v-207h-114v207h-71v86h71v233h360z" />
    <glyph glyph-name="uni0494" unicode="&#x494;" horiz-adv-x="660" 
d="M196 417q30 11 69 18t82 7q78 0 131 -23t85.5 -63.5t47 -95t14.5 -117.5q0 -65 -18 -120.5t-56 -96t-96.5 -63.5t-139.5 -23h-43v103h51q85 0 132 48.5t47 151.5q0 97 -40.5 148.5t-135.5 51.5q-33 0 -66.5 -6.5t-63.5 -17.5v-319h-120v714h444v-105h-324v-192z" />
    <glyph glyph-name="uni0495" unicode="&#x495;" horiz-adv-x="553" 
d="M63 0v526h382v-96h-268v-140q24 8 51.5 12.5t64.5 4.5q115 0 172 -63.5t57 -186.5q0 -52 -15 -99t-47.5 -82.5t-83.5 -56.5t-123 -21h-34v92h33q34 0 62 9t48 29t31.5 51t11.5 76q0 86 -31.5 123t-102.5 37q-29 0 -51 -5t-43 -13v-197h-114z" />
    <glyph glyph-name="uni0496" unicode="&#x496;" horiz-adv-x="1040" 
d="M455 315h-41q-32 0 -56.5 -13.5t-49.5 -51.5l-164 -250h-135l194 293q22 34 41.5 53t44.5 28q-32 12 -53 36t-35 56l-37 84q-18 39 -37 50.5t-45 11.5q-8 0 -14 -0.5t-11 -1.5l-10 -2l-14 97q15 4 34.5 6.5t39.5 2.5q22 0 42.5 -3.5t38 -13t32.5 -26.5t28 -45l52 -113
q25 -54 56.5 -76.5t74.5 -22.5h24v300h120v-300h23q43 0 75 22.5t58 76.5l46 98q28 59 66 81t89 22q22 0 39.5 -2.5t29.5 -6.5l-15 -97l-10 2q-5 1 -10.5 1.5t-12.5 0.5q-26 0 -47.5 -12t-40.5 -53l-28 -60q-12 -28 -26 -50t-30.5 -37.5t-38.5 -25.5q30 -12 51.5 -37
t50.5 -67l109 -165h66v-278h-106v173h-31l-163 248q-12 19 -23 31.5t-23.5 20.5t-27.5 11.5t-36 3.5h-34v-315h-120v315z" />
    <glyph glyph-name="uni0497" unicode="&#x497;" horiz-adv-x="807" 
d="M457 0h-107v225h-29q-34 0 -51 -16t-36 -45l-105 -164h-122l127 193q21 33 42 51t45 26q-26 8 -42.5 26t-27.5 44l-26 57q-11 23 -22 32t-33 9q-11 0 -19.5 -1t-13.5 -3l-11 85q13 2 25 4.5t32 2.5q31 0 53 -8t39 -25t31.5 -43.5t30.5 -63.5q19 -47 40.5 -64.5
t53.5 -17.5h19v222h107v-222h18q16 0 29 4t24 13.5t20.5 25.5t19.5 39q17 40 32 67t33 43.5t40 23t54 6.5q11 0 27.5 -2.5t24.5 -4.5l-10 -85q-5 2 -13.5 3t-18.5 1q-26 0 -37.5 -11.5t-24.5 -39.5l-21 -47q-11 -24 -26.5 -42t-40.5 -27q23 -8 43.5 -26.5t42.5 -50.5l65 -99
h57v-235h-98v140h-21l-103 159q-11 17 -19.5 29.5t-18.5 20.5t-21.5 12t-28.5 4h-28v-225z" />
    <glyph glyph-name="uni0498" unicode="&#x498;" horiz-adv-x="632" 
d="M233 -154q23 -4 38.5 -5t29.5 -1q29 0 41 8.5t12 24.5q0 17 -14 24.5t-51 7.5h-30l29 78q-66 3 -113.5 21t-78.5 47.5t-45.5 69t-15.5 85.5h115q8 -67 45.5 -96.5t119.5 -29.5q154 0 154 122q0 65 -45 91.5t-127 26.5h-73v98h91q66 0 103.5 29t37.5 84q0 50 -34 76.5
t-105 26.5q-74 0 -109.5 -27.5t-49.5 -82.5l-110 15q16 90 82 141.5t188 51.5q66 0 113.5 -15t78.5 -40.5t46 -60t15 -72.5q0 -53 -24 -96.5t-75 -69.5q60 -23 87.5 -69.5t27.5 -103.5q0 -91 -56.5 -150.5t-171.5 -70.5l-14 -37q28 -3 46.5 -11t29.5 -19.5t15 -25t4 -27.5
q0 -48 -37.5 -66.5t-100.5 -18.5q-14 0 -30 1t-39 4v62z" />
    <glyph glyph-name="uni0499" unicode="&#x499;" horiz-adv-x="540" 
d="M179 -146q23 -3 37.5 -4t28.5 -1q50 0 50 31q0 17 -16 23.5t-59 6.5h-16l29 76q-94 6 -147 48.5t-57 128.5h109q7 -48 38 -67.5t94 -19.5q64 0 88.5 21t24.5 56q0 76 -99 76h-107v79h111q42 0 63 19t21 53q0 32 -25.5 51.5t-79.5 19.5q-31 0 -52.5 -5t-35.5 -15.5
t-23 -26t-15 -35.5l-104 19q8 34 24.5 62t44 48t67 31.5t95.5 11.5q111 0 164 -41.5t53 -104.5q0 -42 -23.5 -73.5t-59.5 -44.5q40 -12 68.5 -42t28.5 -84q0 -68 -48.5 -112t-150.5 -52l-12 -35q27 -3 44.5 -11t27.5 -19t14 -24t4 -28q0 -46 -37 -64t-96 -18q-14 0 -30 1
t-36 4v61z" />
    <glyph glyph-name="uni049A" unicode="&#x49a;" horiz-adv-x="676" 
d="M517 0l-147 222q-18 27 -30.5 45t-25.5 28.5t-29.5 15t-41.5 4.5h-47v-315h-120v714h120v-299h37q43 0 74.5 22t57.5 76l51 104q26 54 63 75.5t88 21.5q22 0 39.5 -2.5t29.5 -6.5l-14 -97l-10 2q-5 1 -11 1.5t-13 0.5q-26 0 -47 -12t-40 -53l-38 -80q-16 -35 -38 -58
t-48 -35q21 -8 42 -27.5t50 -63.5l119 -178h67v-278h-107v173h-31z" />
    <glyph glyph-name="uni049B" unicode="&#x49b;" horiz-adv-x="538" 
d="M63 0v526h114v-222h29q38 0 57 20.5t36 59.5q17 40 32.5 67.5t34.5 44t42 23.5t55 7q14 0 28.5 -2t25.5 -5l-10 -85q-5 2 -13.5 3t-19.5 1q-23 0 -35 -9.5t-23 -33.5l-25 -55q-11 -26 -26 -43t-41 -28q23 -9 40.5 -25.5t37.5 -47.5l66 -101h58v-235h-98v140h-25l-102 157
q-11 17 -20 29.5t-18.5 21t-21.5 13t-29 4.5h-35v-225h-114z" />
    <glyph glyph-name="uni049C" unicode="&#x49c;" horiz-adv-x="693" 
d="M195 412h55v136h81v-119q41 21 70 84l45 98q27 59 64.5 81t87.5 22q23 0 40.5 -2.5t28.5 -6.5l-14 -97l-10 2q-5 1 -11 1.5t-13 0.5q-26 0 -46 -12t-39 -53l-37 -80q-16 -35 -38.5 -58t-48.5 -35q29 -11 52 -37t49 -66l178 -271h-141l-164 250q-14 21 -26 33.5t-27 18.5
v-114h-81v129h-55v-317h-119v714h119v-302z" />
    <glyph glyph-name="uni049D" unicode="&#x49d;" horiz-adv-x="566" 
d="M63 0v526h114v-223h42v110h68v-97q14 8 26 25t24 45q16 40 31 66.5t33 43t41.5 23.5t56.5 7q13 0 26.5 -2t24.5 -5l-10 -85q-5 2 -13.5 3t-18.5 1q-23 0 -35.5 -9.5t-23.5 -33.5l-24 -55q-12 -26 -27 -43t-41 -28q22 -10 41 -27t40 -49l125 -193h-125q-18 27 -37.5 60
t-39.5 64t-39 55.5t-35 35.5v-95h-68v107h-42v-227h-114z" />
    <glyph glyph-name="uni049E" unicode="&#x49e;" horiz-adv-x="684" 
d="M214 618h103v-97h-103v-106h42q43 0 74.5 22t57.5 76l48 98q23 49 58.5 76t95.5 27q20 0 36.5 -2t32.5 -7l-14 -97l-10 2q-5 1 -11 1.5t-13 0.5q-29 0 -49 -13.5t-38 -51.5l-38 -80q-17 -35 -39 -58t-48 -35q22 -8 39.5 -23.5t34.5 -41.5l207 -309h-141l-164 250
q-12 19 -23 31.5t-23 20t-27 10.5t-36 3h-52v-315h-120v521h-81v97h81v96h120v-96z" />
    <glyph glyph-name="uni049F" unicode="&#x49f;" horiz-adv-x="564" 
d="M14 461h76v65h113v-65h80v-84h-80v-73h34q16 0 29.5 4t24.5 13.5t20.5 25.5t19.5 39q17 40 32.5 67t34.5 43.5t42.5 23t56.5 6.5q13 0 26.5 -2t24.5 -5l-10 -85q-5 2 -13.5 3t-18.5 1q-26 0 -37.5 -11t-24.5 -39l-22 -48q-12 -26 -26.5 -43t-40.5 -28q22 -9 39.5 -25
t34.5 -42l132 -202h-127l-109 168q-19 29 -35 43t-47 14h-40v-225h-113v377h-76v84z" />
    <glyph glyph-name="uni04A0" unicode="&#x4a0;" horiz-adv-x="755" 
d="M289 415h37q43 0 75 22t58 76l46 95q28 60 66 83t89 23q22 0 39.5 -2.5t29.5 -6.5l-14 -97l-10 2q-5 1 -11 1.5t-13 0.5q-26 0 -46.5 -12t-39.5 -53l-38 -80q-16 -35 -38.5 -58t-48.5 -35q28 -11 48 -31.5t46 -60.5l187 -282h-141l-164 250q-12 19 -23 31.5t-23.5 20
t-27.5 10.5t-36 3h-47v-315h-120v609h-152v105h272v-299z" />
    <glyph glyph-name="uni04A1" unicode="&#x4a1;" horiz-adv-x="586" 
d="M116 0v431h-113v95h227v-222h29q34 0 54 17.5t40 64.5q17 39 32.5 66t33.5 43.5t42 23.5t59 7q12 0 25.5 -2t24.5 -5l-10 -85q-6 2 -14 3t-18 1q-23 0 -35.5 -9.5t-23.5 -33.5l-25 -55q-12 -26 -26 -43t-41 -28q23 -10 40 -25.5t38 -47.5l128 -196h-127l-109 168
q-10 15 -18 25.5t-17 17.5t-20 10.5t-27 3.5h-35v-225h-114z" />
    <glyph glyph-name="uni04A2" unicode="&#x4a2;" horiz-adv-x="736" 
d="M715 105v-278h-107v173h-90v313h-321v-313h-121v714h121v-289h321v289h121v-609h76z" />
    <glyph glyph-name="uni04A3" unicode="&#x4a3;" horiz-adv-x="607" 
d="M177 526v-206h241v206h113v-431h63v-235h-98v140h-78v225h-241v-225h-114v526h114z" />
    <glyph glyph-name="uni04A4" unicode="&#x4a4;" horiz-adv-x="807" 
d="M197 714v-289h321v289h272v-105h-151v-609h-121v313h-321v-313h-121v714h121z" />
    <glyph glyph-name="uni04A5" unicode="&#x4a5;" horiz-adv-x="648" 
d="M531 0h-114v225h-240v-225h-114v526h114v-206h240v206h228v-95h-114v-431z" />
    <glyph glyph-name="uni04A6" unicode="&#x4a6;" horiz-adv-x="1075" 
d="M612 0h-121v609h-294v-609h-121v714h536v-297q29 11 68.5 18t81.5 7q78 0 131 -23t85.5 -63.5t47 -95t14.5 -117.5q0 -65 -18 -120.5t-56 -96t-96.5 -63.5t-138.5 -23h-43v103h50q85 0 132 48.5t47 151.5q0 97 -40.5 148.5t-135.5 51.5q-33 0 -66 -6.5t-63 -17.5v-319z
" />
    <glyph glyph-name="uni04A7" unicode="&#x4a7;" horiz-adv-x="886" 
d="M509 0h-113v430h-219v-430h-114v526h446v-236q25 8 52.5 12.5t64.5 4.5q115 0 172 -63.5t57 -186.5q0 -52 -15 -99t-48 -82.5t-84 -56.5t-123 -21h-34v92h34q33 0 61.5 9t48.5 29t31.5 51t11.5 76q0 86 -32 123t-103 37q-29 0 -51 -5t-43 -13v-197z" />
    <glyph glyph-name="uni04A8" unicode="&#x4a8;" horiz-adv-x="835" 
d="M812 -2q-32 -11 -60.5 -13.5t-54.5 -2.5q-38 0 -78 8t-70 20q-30 -12 -69 -20t-81 -8q-75 0 -139 22t-110 68.5t-72 117t-26 168.5q0 97 27 167.5t72 116.5t104.5 68t125.5 22q48 0 85 -7.5t71 -24.5l-34 -92q-31 12 -60.5 18.5t-61.5 6.5q-44 0 -81.5 -17t-65.5 -50.5
t-44 -83t-16 -114.5q0 -82 18.5 -137.5t49 -89t71 -48t85.5 -14.5q16 0 30.5 1.5t25.5 4.5q-45 44 -69 101.5t-24 123.5q0 51 13 95t39 76.5t65.5 50.5t92.5 18q50 0 87.5 -17t63 -48t38.5 -73t13 -92q0 -69 -29.5 -130.5t-79.5 -108.5q13 -2 27 -3t27 -1q20 0 40.5 3.5
t36.5 8.5zM472 311q0 -67 21.5 -120.5t66.5 -81.5q27 15 46 37.5t31.5 49.5t18 57t5.5 61q0 73 -23.5 109t-68.5 36q-46 0 -71.5 -38.5t-25.5 -109.5z" />
    <glyph glyph-name="uni04A9" unicode="&#x4a9;" horiz-adv-x="638" 
d="M156 264q0 -107 41.5 -153t109.5 -46h17q8 0 16 2q-35 37 -48.5 75.5t-13.5 84.5q0 80 42 125t110 45q64 0 106 -42t42 -119q0 -54 -21.5 -97t-56.5 -75q5 -1 14 -1.5t16 -0.5q25 0 42.5 4.5t28.5 9.5l21 -74q-17 -8 -41 -14t-59 -6q-29 0 -61 6t-54 17
q-23 -10 -51 -15.5t-55 -5.5q-120 0 -187 70.5t-67 204.5t68.5 208t189.5 74q26 0 53 -5t55 -18l-28 -81q-21 9 -43.5 12.5t-41.5 3.5q-64 0 -104 -45.5t-40 -143.5zM367 224q0 -38 14 -74t43 -57q29 20 47 54.5t18 81.5q0 43 -14 67.5t-46 24.5q-33 0 -47.5 -27t-14.5 -70z
" />
    <glyph glyph-name="uni04AA" unicode="&#x4aa;" horiz-adv-x="712" 
d="M273 -151q23 -4 38.5 -5t29.5 -1q28 0 39 8t11 22t-13 22t-50 8h-29l30 82q-66 7 -118 36.5t-87 77t-53.5 112.5t-18.5 145q0 88 23.5 158t66.5 118.5t103 74t132 25.5q67 0 116 -17t83.5 -48.5t55 -75.5t30.5 -98l-119 -17q-8 36 -20 64t-31.5 47.5t-47.5 30t-67 10.5
q-48 0 -85 -19t-62.5 -54.5t-38.5 -85.5t-13 -112q0 -63 13.5 -113t39.5 -85.5t62.5 -54t83.5 -18.5q42 0 71.5 11t49.5 31t31.5 48.5t16.5 64.5h128q-6 -53 -26 -99t-54 -80.5t-83 -55t-113 -23.5l-13 -36q29 -3 48 -11t29.5 -19t14.5 -24.5t4 -28.5q0 -47 -37.5 -67
t-101.5 -20q-14 0 -30.5 1t-38.5 4v67z" />
    <glyph glyph-name="uni04AB" unicode="&#x4ab;" horiz-adv-x="564" 
d="M193 -146q23 -3 37.5 -4t28.5 -1q51 0 51 31q0 16 -14 23t-50 7h-28l29 78q-102 14 -151 87t-49 186q0 63 17.5 114.5t50 88t79.5 57t106 20.5q50 0 87.5 -13t64 -36t42 -55.5t21.5 -72.5l-113 -18q-8 45 -30.5 74t-75.5 29q-36 0 -61 -15t-40.5 -40.5t-22.5 -59
t-7 -70.5q0 -38 6.5 -72.5t21.5 -60t40 -40.5t62 -15q54 0 80 27.5t33 78.5h115q-11 -88 -61.5 -140t-148.5 -57l-11 -33q54 -8 72 -30t18 -51q0 -46 -36 -64.5t-96 -18.5q-14 0 -30 1t-37 4v61z" />
    <glyph glyph-name="uni04AC" unicode="&#x4ac;" horiz-adv-x="610" 
d="M245 0v609h-226v105h572v-105h-225v-504h76v-278h-107v173h-90z" />
    <glyph glyph-name="uni04AD" unicode="&#x4ad;" horiz-adv-x="491" 
d="M190 0v431h-177v95h464v-95h-174v-336h63v-235h-98v140h-78z" />
    <glyph glyph-name="uni04AE" unicode="&#x4ae;" horiz-adv-x="635" 
d="M260 297l-248 417h135l172 -310l176 310h128l-243 -417v-297h-120v297z" />
    <glyph glyph-name="uni04AF" unicode="&#x4af;" horiz-adv-x="545" 
d="M137 526l141 -381l135 381h126l-208 -499v-221h-113v220l-212 500h131z" />
    <glyph glyph-name="uni04B0" unicode="&#x4b0;" horiz-adv-x="635" 
d="M526 215h-146v-215h-120v215h-148v99h137l-237 400h135l172 -310l176 310h128l-233 -400h136v-99z" />
    <glyph glyph-name="uni04B1" unicode="&#x4b1;" horiz-adv-x="545" 
d="M97 92h93l-184 434h131l139 -385l137 385h126l-180 -434h92v-92h-120v-194h-113v194h-121v92z" />
    <glyph glyph-name="uni04B2" unicode="&#x4b2;" horiz-adv-x="662" 
d="M514 0l-190 282l-184 -282h-131l250 377l-232 337h138l164 -250l166 250h130l-230 -342l186 -268h64v-266h-105v162h-26z" />
    <glyph glyph-name="uni04B3" unicode="&#x4b3;" horiz-adv-x="528" 
d="M385 0l-124 191l-127 -191h-124l190 271l-175 255h133l109 -171l117 171h120l-173 -250l123 -181h57v-235h-98v140h-28z" />
    <glyph glyph-name="uni04B4" unicode="&#x4b4;" horiz-adv-x="824" 
d="M190 0v609h-174v105h487v-105h-192v-504h295v609h121v-609h76v-278h-107v173h-506z" />
    <glyph glyph-name="uni04B5" unicode="&#x4b5;" horiz-adv-x="634" 
d="M116 0v431h-103v95h340v-95h-123v-336h214v431h114v-431h63v-235h-98v140h-407z" />
    <glyph glyph-name="uni04B6" unicode="&#x4b6;" horiz-adv-x="679" 
d="M462 303q-34 -14 -77 -23t-89 -9q-52 0 -97 11.5t-78 37.5t-52 68t-19 104v222h120v-188q0 -41 7.5 -71t25 -49.5t47 -28.5t73.5 -9q35 0 73.5 7.5t65.5 19.5v319h120v-609h76v-278h-106v173h-90v303z" />
    <glyph glyph-name="uni04B7" unicode="&#x4b7;" horiz-adv-x="555" 
d="M366 0v203q-24 -7 -55.5 -11t-59.5 -4q-58 0 -98.5 13.5t-65.5 38.5t-36 59.5t-11 75.5v151h113v-126q0 -67 28.5 -93.5t91.5 -26.5q24 0 49 4t44 11v231h113v-431h63v-235h-98v140h-78z" />
    <glyph glyph-name="uni04B8" unicode="&#x4b8;" horiz-adv-x="672" 
d="M50 714h120v-190q0 -68 21 -105.5t80 -47.5v133h98v-136q29 3 57 9t50 16v321h120v-714h-120v305q-22 -10 -49.5 -16.5t-57.5 -9.5v-129h-98v124q-47 3 -87.5 16.5t-70 40t-46.5 66.5t-17 97v220z" />
    <glyph glyph-name="uni04B9" unicode="&#x4b9;" horiz-adv-x="556" 
d="M225 192q-51 3 -86 18t-57 40t-32 57.5t-10 71.5v147h114v-129q0 -53 16 -80t55 -36v104h86v-107q41 5 68 15v233h114v-526h-114v207q-14 -4 -31.5 -7.5t-36.5 -5.5v-104h-86v102z" />
    <glyph glyph-name="uni04BA" unicode="&#x4ba;" horiz-adv-x="658" 
d="M196 426q27 11 68.5 20t86.5 9q69 0 118 -14.5t80 -43t45 -70.5t14 -96v-231h-120v200q0 41 -7.5 71t-25 49.5t-47 28.5t-73.5 9q-35 0 -73.5 -7.5t-65.5 -19.5v-331h-120v714h120v-288z" />
    <glyph glyph-name="uni04BB" unicode="&#x4bb;" horiz-adv-x="581" 
d="M179 714v-263q33 45 76 66.5t92 21.5q174 0 174 -191v-348h-114v330q0 63 -23 88t-68 25q-12 0 -24 -2t-21 -5q-29 -11 -47 -27.5t-28 -36.5t-13.5 -42.5t-3.5 -46.5v-283h-114v714h114z" />
    <glyph glyph-name="uni04BC" unicode="&#x4bc;" horiz-adv-x="893" 
d="M821 207q-8 -51 -31.5 -92.5t-61 -71t-90 -45.5t-119.5 -16q-80 0 -139.5 26t-99 71t-61 105.5t-25.5 128.5q-95 0 -139 42.5t-44 110.5q0 29 9 57.5t25 54.5l85 -26q-8 -17 -14 -35t-6 -38q0 -30 19 -49.5t67 -21.5q7 68 31.5 127.5t65.5 103t98.5 68.5t130.5 25
q81 0 139 -27.5t95.5 -75.5t55 -113.5t17.5 -141.5v-60h-514q2 -47 16 -88.5t40 -73t64.5 -50t89.5 -18.5q47 0 78.5 11t51 28.5t29.5 39.5t15 44h122zM707 408q-1 48 -11.5 89t-33 71t-58 47t-85.5 17q-91 0 -141 -59t-60 -165h389z" />
    <glyph glyph-name="uni04BD" unicode="&#x4bd;" horiz-adv-x="682" 
d="M630 154q-14 -81 -70.5 -125.5t-159.5 -44.5q-63 0 -108.5 19t-76 52.5t-46.5 79.5t-19 100q-72 2 -108.5 37t-36.5 90q0 39 20 82l75 -18q-11 -27 -11 -51t13.5 -40.5t49.5 -20.5q7 56 29.5 98.5t56 71t75.5 43t89 14.5q60 0 104 -19t73.5 -52.5t43.5 -80.5t14 -104v-50
h-374q1 -35 10 -65t26.5 -51.5t43.5 -33.5t60 -12q53 0 80.5 21.5t35.5 59.5h111zM526 314q0 64 -30 102.5t-96 38.5q-62 0 -96 -39t-39 -102h261z" />
    <glyph glyph-name="uni04BE" unicode="&#x4be;" horiz-adv-x="893" 
d="M821 207q-15 -90 -76 -149.5t-169 -71.5v-159h-107v158q-67 8 -117 36.5t-84 72.5t-52.5 100t-21.5 119q-95 0 -139 42.5t-44 110.5q0 29 9 57.5t25 54.5l85 -26q-8 -17 -14 -35t-6 -38q0 -30 19 -49.5t67 -21.5q7 68 31.5 127.5t65.5 103t98.5 68.5t130.5 25
q81 0 139 -27.5t95.5 -75.5t55 -113.5t17.5 -141.5v-60h-514q2 -47 16 -88.5t40 -73t64.5 -50t89.5 -18.5q47 0 78.5 11t51 28.5t29.5 39.5t15 44h122zM707 408q-1 48 -11.5 89t-33 71t-58 47t-85.5 17q-91 0 -141 -59t-60 -165h389z" />
    <glyph glyph-name="uni04BF" unicode="&#x4bf;" horiz-adv-x="682" 
d="M630 154q-12 -71 -55 -113.5t-121 -52.5v-128h-98v127q-51 7 -88.5 28t-62.5 53.5t-38.5 74.5t-16.5 92q-72 2 -108.5 37t-36.5 90q0 39 20 82l75 -18q-11 -27 -11 -51t13.5 -40.5t49.5 -20.5q7 56 29.5 98.5t56 71t75.5 43t89 14.5q60 0 104 -19t73.5 -52.5t43.5 -80.5
t14 -104v-50h-374q1 -35 10 -65t26.5 -51.5t43.5 -33.5t60 -12q53 0 80.5 21.5t35.5 59.5h111zM526 314q0 64 -30 102.5t-96 38.5q-62 0 -96 -39t-39 -102h261z" />
    <glyph glyph-name="uni04C0" unicode="&#x4c0;" horiz-adv-x="272" 
d="M76 714h121v-714h-121v714z" />
    <glyph glyph-name="uni04C1" unicode="&#x4c1;" horiz-adv-x="1031" 
d="M455 315h-41q-32 0 -56.5 -13.5t-49.5 -51.5l-164 -250h-135l194 293q22 34 41.5 53t44.5 28q-32 12 -53 36t-35 56l-37 84q-18 39 -37 50.5t-45 11.5q-8 0 -14 -0.5t-11 -1.5l-10 -2l-14 97q15 4 36 6.5t38 2.5q45 0 81 -18t62 -74l50 -109q24 -54 56 -76.5t75 -22.5h24
v300h120v-300h23q43 0 75 22.5t58 76.5l46 98q28 59 66 81t89 22q22 0 39.5 -2.5t29.5 -6.5l-15 -97l-10 2q-5 1 -10.5 1.5t-12.5 0.5q-26 0 -47.5 -12t-40.5 -53l-30 -66q-38 -82 -93 -107q28 -11 46 -29.5t41 -53.5l193 -291h-140l-163 248q-12 19 -23 31.5t-23.5 20.5
t-27.5 11.5t-36 3.5h-34v-315h-120v315zM434 920q2 -38 23.5 -56.5t57.5 -18.5t57.5 18.5t23.5 56.5h84q0 -70 -43.5 -109t-121.5 -39q-81 0 -122 39t-41 109h82z" />
    <glyph glyph-name="uni04C2" unicode="&#x4c2;" horiz-adv-x="806" 
d="M457 0h-107v225h-29q-34 0 -51.5 -16t-38.5 -50l-102 -159h-122l133 202q20 30 39.5 45.5t41.5 22.5q-26 8 -42 26t-28 44l-27 57q-11 23 -21.5 32t-32.5 9q-11 0 -19.5 -1t-13.5 -3l-11 85q10 2 23.5 4.5t29.5 2.5q32 0 54 -7t39.5 -23.5t32.5 -43t32 -66.5
q19 -47 40.5 -64.5t53.5 -17.5h19v222h107v-222h18q34 0 53.5 17.5t39.5 64.5q16 38 30 64t30 42t37 24t52 10q30 0 62 -7l-10 -85q-5 2 -13.5 3t-18.5 1q-26 0 -37.5 -11.5t-24.5 -39.5l-21 -47q-11 -24 -26.5 -42t-40.5 -27q23 -8 43.5 -26t43.5 -52l126 -193h-124
l-109 168q-19 29 -35 43t-47 14h-28v-225zM323 738q2 -38 23.5 -56.5t57.5 -18.5t57.5 18.5t23.5 56.5h84q0 -70 -43.5 -109t-121.5 -39q-81 0 -122 39t-41 109h82z" />
    <glyph glyph-name="uni04C3" unicode="&#x4c3;" horiz-adv-x="671" 
d="M233 414q42 0 72.5 22.5t55.5 76.5l42 88q30 65 69.5 89t93.5 24q15 0 27 -1.5t20 -3.5q10 -2 18 -4l-14 -97l-10 2q-5 1 -11 1.5t-13 0.5q-26 0 -47 -12t-40 -53l-36 -79q-8 -19 -21 -36t-31 -29q117 -17 172.5 -89.5t55.5 -189.5q0 -62 -18.5 -114t-56.5 -89.5
t-95.5 -59t-136.5 -21.5h-46v105h44q91 0 138.5 42t47.5 137q0 98 -48.5 145t-154.5 47h-114v-316h-120v714h120v-300h37z" />
    <glyph glyph-name="uni04C4" unicode="&#x4c4;" horiz-adv-x="557" 
d="M213 305q26 2 44 19t32 48l29 64q22 48 55.5 69t86.5 21q12 0 21.5 -1t16.5 -3q8 -2 15 -3l-10 -85l-10 2q-5 1 -11 1.5t-12 0.5q-24 0 -37.5 -11t-23.5 -33l-25 -54q-15 -31 -39 -46q85 -14 133.5 -69t48.5 -161q0 -59 -15.5 -107.5t-48.5 -84t-85 -55t-125 -19.5h-32
v92h34q34 0 62.5 9t49 29t32 53t11.5 81q0 89 -41.5 125.5t-120.5 36.5h-71v-224h-114v526h114v-221h36z" />
    <glyph glyph-name="uni04C5" unicode="&#x4c5;" horiz-adv-x="761" 
d="M544 0v612h-194l-29 -237q-12 -93 -31.5 -164.5t-52.5 -119.5t-81.5 -73t-116.5 -25h-28v104h15q39 0 68.5 17t51.5 56t37.5 102.5t26.5 156.5l34 285h421v-609h75q0 -36 -4.5 -73t-19.5 -74.5t-43 -74.5t-74 -71l-69 70q29 23 54.5 52t38.5 66h-79z" />
    <glyph glyph-name="uni04C6" unicode="&#x4c6;" horiz-adv-x="594" 
d="M407 431h-147l-18 -159q-9 -75 -26 -127.5t-43.5 -86t-63.5 -48.5t-86 -15h-23v94h11q24 0 43.5 9t34.5 32.5t26 64.5t18 104l26 227h362v-431h61q0 -36 -4 -68.5t-17 -63t-36.5 -59t-62.5 -56.5l-61 64q26 20 43.5 41t28.5 47h-66v431z" />
    <glyph glyph-name="uni04C7" unicode="&#x4c7;" horiz-adv-x="715" 
d="M639 -19q-1 -43 -9 -77.5t-27.5 -58.5t-53.5 -36.5t-86 -12.5q-47 0 -99 16l19 93q15 -4 31.5 -7t35.5 -3q31 0 49.5 16t18.5 61v341h-321v-313h-121v714h121v-289h321v289h121v-733z" />
    <glyph glyph-name="uni04C8" unicode="&#x4c8;" horiz-adv-x="594" 
d="M531 -24q0 -88 -35.5 -134.5t-120.5 -46.5q-28 0 -52.5 4t-49.5 12l18 87q15 -4 30.5 -6.5t32.5 -2.5q32 0 47.5 16t15.5 58v262h-240v-225h-114v526h114v-206h240v206h114v-550z" />
    <glyph glyph-name="uni04C9" unicode="&#x4c9;" horiz-adv-x="735" 
d="M197 714v-289h321v289h121v-609h75q0 -36 -4.5 -73t-19.5 -74.5t-43 -74.5t-74 -71l-69 70q29 23 54.5 52t38.5 66h-79v313h-321v-313h-121v714h121z" />
    <glyph glyph-name="uni04CA" unicode="&#x4ca;" horiz-adv-x="605" 
d="M177 526v-206h241v206h113v-431h61q0 -36 -4 -68.5t-17 -63t-36.5 -59t-62.5 -56.5l-60 64q26 20 43 41t28 47h-65v225h-241v-225h-114v526h114z" />
    <glyph glyph-name="uni04CB" unicode="&#x4cb;" horiz-adv-x="658" 
d="M493 -173h-107v278h76v196q-26 -11 -69 -20.5t-90 -9.5q-132 0 -192.5 57.5t-60.5 166.5v219h120v-188q0 -41 7.5 -71t25 -49.5t47 -28.5t73.5 -9q35 0 73.5 7.5t65.5 18.5v320h120v-714h-89v-173z" />
    <glyph glyph-name="uni04CC" unicode="&#x4cc;" horiz-adv-x="542" 
d="M401 -140h-98v235h63v108q-24 -7 -55.5 -11t-59.5 -4q-58 0 -98.5 13.5t-65.5 38.5t-36 59t-11 76v151h113v-127q0 -66 28.5 -92.5t91.5 -26.5q24 0 49.5 3.5t43.5 11.5v231h113v-526h-78v-140z" />
    <glyph glyph-name="uni04CD" unicode="&#x4cd;" horiz-adv-x="873" 
d="M76 714h147l203 -568l209 568h142v-609h75q0 -36 -4.5 -73t-19 -74.5t-42.5 -74.5t-74 -71l-70 70q29 23 54.5 52t38.5 66h-69v519l-196 -519h-96l-189 518v-518h-109v714z" />
    <glyph glyph-name="uni04CE" unicode="&#x4ce;" horiz-adv-x="724" 
d="M64 526h128l167 -407l171 407h120v-431h61q0 -36 -4 -68.5t-17 -63t-36.5 -59t-62.5 -56.5l-60 64q26 20 43 41t28 47h-55v348l-150 -348h-86l-144 348v-348h-103v526z" />
    <glyph glyph-name="uni04CF" unicode="&#x4cf;" horiz-adv-x="272" 
d="M76 714h121v-714h-121v714z" />
    <glyph glyph-name="uni04D0" unicode="&#x4d0;" horiz-adv-x="686" 
d="M283 714h120l272 -714h-129l-67 182h-277l-66 -182h-125zM446 283l-106 294l-105 -294h211zM258 920q2 -38 23.5 -56.5t57.5 -18.5t57.5 18.5t23.5 56.5h84q0 -70 -43.5 -109t-121.5 -39q-81 0 -122 39t-41 109h82z" />
    <glyph glyph-name="uni04D1" unicode="&#x4d1;" horiz-adv-x="550" 
d="M305 247q-48 -2 -79 -9.5t-49 -20.5t-24.5 -30t-6.5 -38q0 -33 21 -53.5t64 -20.5q68 0 107.5 33.5t39.5 96.5v45zM380 68q-29 -34 -70 -57.5t-103 -23.5q-37 0 -69 9.5t-55.5 29t-37 49.5t-13.5 70q0 54 23.5 87.5t61.5 52.5t86 27t98 11l77 4v22q0 57 -27 81t-76 24
q-52 0 -78 -17.5t-34 -52.5l-104 11q14 76 69 111t151 35q58 0 98 -14t65 -40.5t36 -64.5t11 -85v-337h-109v68zM195 738q2 -38 23.5 -56.5t57.5 -18.5t57.5 18.5t23.5 56.5h84q0 -70 -43.5 -109t-121.5 -39q-81 0 -122 39t-41 109h82z" />
    <glyph glyph-name="uni04D2" unicode="&#x4d2;" horiz-adv-x="686" 
d="M283 714h120l272 -714h-129l-67 182h-277l-66 -182h-125zM446 283l-106 294l-105 -294h211zM493 902v-116h-112v116h112zM299 902v-116h-112v116h112z" />
    <glyph glyph-name="uni04D3" unicode="&#x4d3;" horiz-adv-x="550" 
d="M305 247q-48 -2 -79 -9.5t-49 -20.5t-24.5 -30t-6.5 -38q0 -33 21 -53.5t64 -20.5q68 0 107.5 33.5t39.5 96.5v45zM380 68q-29 -34 -70 -57.5t-103 -23.5q-37 0 -69 9.5t-55.5 29t-37 49.5t-13.5 70q0 54 23.5 87.5t61.5 52.5t86 27t98 11l77 4v22q0 57 -27 81t-76 24
q-52 0 -78 -17.5t-34 -52.5l-104 11q14 76 69 111t151 35q58 0 98 -14t65 -40.5t36 -64.5t11 -85v-337h-109v68zM423 724v-112h-109v112h109zM234 724v-112h-109v112h109z" />
    <glyph glyph-name="uni04D4" unicode="&#x4d4;" horiz-adv-x="1039" 
d="M424 714h568v-104h-332v-190h312v-105h-312v-211h351l-14 -104h-454v225h-280l-128 -225h-136zM543 327v283h-59l-162 -283h221z" />
    <glyph glyph-name="uni04D5" unicode="&#x4d5;" horiz-adv-x="895" 
d="M738 312q0 66 -29 104t-93 38q-60 0 -93.5 -38t-38.5 -104h254zM299 244q-47 -2 -77 -9.5t-47 -19.5t-23 -29.5t-6 -38.5q0 -33 20.5 -52.5t62.5 -19.5q66 0 104.5 34.5t38.5 94.5v43zM59 394q14 77 68.5 111.5t148.5 34.5q63 0 103 -20t65 -67q35 48 79 67.5t95 19.5
q59 0 102.5 -18.5t72 -52t42.5 -81t14 -105.5v-50h-367q2 -71 36 -115.5t100 -44.5q51 0 78 21t36 60h110q-14 -81 -68 -125.5t-156 -44.5q-66 0 -118 26.5t-81 80.5q-13 -20 -31 -39t-42.5 -33.5t-55.5 -23t-71 -8.5q-42 0 -76 9.5t-59 29t-38.5 49t-13.5 69.5
q0 53 23 86.5t60 53t84.5 27.5t95.5 10l77 3v23q0 60 -26 83.5t-74 23.5q-50 0 -75.5 -18t-33.5 -52z" />
    <glyph glyph-name="uni04D6" unicode="&#x4d6;" horiz-adv-x="599" 
d="M76 714h475v-104h-354v-190h334v-105h-334v-211h373l-14 -104h-480v714zM241 920q2 -38 23.5 -56.5t57.5 -18.5t57.5 18.5t23.5 56.5h84q0 -70 -43.5 -109t-121.5 -39q-81 0 -122 39t-41 109h82z" />
    <glyph glyph-name="uni04D7" unicode="&#x4d7;" horiz-adv-x="580" 
d="M527 154q-14 -81 -68.5 -125.5t-158.5 -44.5q-124 0 -188.5 73.5t-64.5 203.5q0 67 18.5 119t52 88t80 54.5t102.5 18.5q60 0 104 -18.5t73 -52.5t43 -80.5t14 -103.5v-50h-373q1 -36 10 -65.5t26 -51.5t43 -34t60 -12q54 0 81 21.5t36 59.5h110zM423 314q0 65 -29.5 103
t-96.5 38q-62 0 -95.5 -38.5t-38.5 -102.5h260zM219 738q2 -38 23.5 -56.5t57.5 -18.5t57.5 18.5t23.5 56.5h84q0 -70 -43.5 -109t-121.5 -39q-81 0 -122 39t-41 109h82z" />
    <glyph glyph-name="uni04D8" unicode="&#x4d8;" horiz-adv-x="747" 
d="M65 524q14 44 38.5 82t62 66t89.5 44t120 16q84 0 143.5 -29.5t97.5 -79.5t56 -116t18 -139q0 -78 -19.5 -148t-59.5 -123t-101.5 -84t-144.5 -31q-81 0 -140 27.5t-96.5 75.5t-55.5 113.5t-18 141.5v60h514q-2 52 -16 94.5t-39.5 72.5t-61.5 46.5t-81 16.5
q-42 0 -72 -8.5t-52.5 -24.5t-38.5 -39.5t-29 -53.5zM176 306q1 -48 12.5 -89t35 -71t59 -47t85.5 -17q91 0 139.5 59t58.5 165h-390z" />
    <glyph glyph-name="uni04D9" unicode="&#x4d9;" horiz-adv-x="583" 
d="M57 377q16 77 77.5 119.5t157.5 42.5q61 0 106.5 -20t76 -56t46 -86.5t15.5 -112.5q0 -133 -66 -206t-183 -73q-60 0 -104.5 18.5t-74.5 52t-44.5 81t-14.5 105.5v48h374q-1 35 -9.5 64.5t-25 50.5t-40.5 33t-57 12q-106 0 -128 -89zM160 211q0 -64 30 -102.5t101 -38.5
q60 0 92.5 39t37.5 102h-261z" />
    <glyph glyph-name="uni04DA" unicode="&#x4da;" horiz-adv-x="747" 
d="M65 524q14 44 38.5 82t62 66t89.5 44t120 16q84 0 143.5 -29.5t97.5 -79.5t56 -116t18 -139q0 -78 -19.5 -148t-59.5 -123t-101.5 -84t-144.5 -31q-81 0 -140 27.5t-96.5 75.5t-55.5 113.5t-18 141.5v60h514q-2 52 -16 94.5t-39.5 72.5t-61.5 46.5t-81 16.5
q-42 0 -72 -8.5t-52.5 -24.5t-38.5 -39.5t-29 -53.5zM176 306q1 -48 12.5 -89t35 -71t59 -47t85.5 -17q91 0 139.5 59t58.5 165h-390zM526 902v-116h-112v116h112zM332 902v-116h-112v116h112z" />
    <glyph glyph-name="uni04DB" unicode="&#x4db;" horiz-adv-x="583" 
d="M57 377q16 77 77.5 119.5t157.5 42.5q61 0 106.5 -20t76 -56t46 -86.5t15.5 -112.5q0 -133 -66 -206t-183 -73q-60 0 -104.5 18.5t-74.5 52t-44.5 81t-14.5 105.5v48h374q-1 35 -9.5 64.5t-25 50.5t-40.5 33t-57 12q-106 0 -128 -89zM160 211q0 -64 30 -102.5t101 -38.5
q60 0 92.5 39t37.5 102h-261zM441 724v-112h-109v112h109zM252 724v-112h-109v112h109z" />
    <glyph glyph-name="uni04DC" unicode="&#x4dc;" horiz-adv-x="1031" 
d="M455 315h-41q-32 0 -56.5 -13.5t-49.5 -51.5l-164 -250h-135l194 293q22 34 41.5 53t44.5 28q-32 12 -53 36t-35 56l-37 84q-18 39 -37 50.5t-45 11.5q-8 0 -14 -0.5t-11 -1.5l-10 -2l-14 97q15 4 36 6.5t38 2.5q45 0 81 -18t62 -74l50 -109q24 -54 56 -76.5t75 -22.5h24
v300h120v-300h23q43 0 75 22.5t58 76.5l46 98q28 59 66 81t89 22q22 0 39.5 -2.5t29.5 -6.5l-15 -97l-10 2q-5 1 -10.5 1.5t-12.5 0.5q-26 0 -47.5 -12t-40.5 -53l-30 -66q-38 -82 -93 -107q28 -11 46 -29.5t41 -53.5l193 -291h-140l-163 248q-12 19 -23 31.5t-23.5 20.5
t-27.5 11.5t-36 3.5h-34v-315h-120v315zM665 902v-116h-112v116h112zM471 902v-116h-112v116h112z" />
    <glyph glyph-name="uni04DD" unicode="&#x4dd;" horiz-adv-x="806" 
d="M457 0h-107v225h-29q-34 0 -51.5 -16t-38.5 -50l-102 -159h-122l133 202q20 30 39.5 45.5t41.5 22.5q-26 8 -42 26t-28 44l-27 57q-11 23 -21.5 32t-32.5 9q-11 0 -19.5 -1t-13.5 -3l-11 85q10 2 23.5 4.5t29.5 2.5q32 0 54 -7t39.5 -23.5t32.5 -43t32 -66.5
q19 -47 40.5 -64.5t53.5 -17.5h19v222h107v-222h18q34 0 53.5 17.5t39.5 64.5q16 38 30 64t30 42t37 24t52 10q30 0 62 -7l-10 -85q-5 2 -13.5 3t-18.5 1q-26 0 -37.5 -11.5t-24.5 -39.5l-21 -47q-11 -24 -26.5 -42t-40.5 -27q23 -8 43.5 -26t43.5 -52l126 -193h-124
l-109 168q-19 29 -35 43t-47 14h-28v-225zM550 724v-112h-109v112h109zM361 724v-112h-109v112h109z" />
    <glyph glyph-name="uni04DE" unicode="&#x4de;" horiz-adv-x="632" 
d="M150 206q8 -67 45.5 -96.5t119.5 -29.5q154 0 154 122q0 118 -160 118h-85v98h91q66 0 103.5 29t37.5 84q0 50 -34 76.5t-105 26.5q-74 0 -109.5 -27.5t-49.5 -82.5l-110 15q16 90 82 141.5t188 51.5q66 0 113.5 -14t78.5 -39t46 -59.5t15 -75.5q0 -53 -24 -96.5
t-75 -69.5q60 -23 87.5 -69.5t27.5 -103.5q0 -50 -17 -91t-51.5 -70t-86 -45.5t-120.5 -16.5q-74 0 -126.5 17t-85.5 47t-48.5 71t-16.5 89h115zM473 902v-116h-112v116h112zM279 902v-116h-112v116h112z" />
    <glyph glyph-name="uni04DF" unicode="&#x4df;" horiz-adv-x="540" 
d="M268 541q111 0 164 -41.5t53 -104.5q0 -42 -23.5 -73.5t-59.5 -44.5q40 -12 68.5 -42t28.5 -84q0 -73 -57.5 -119.5t-177.5 -46.5q-109 0 -169.5 42.5t-65.5 135.5h109q7 -48 38 -67.5t94 -19.5q64 0 88.5 21t24.5 56q0 76 -99 76h-107v79h111q41 0 62.5 19t21.5 53
q0 32 -25.5 51.5t-79.5 19.5q-31 0 -52.5 -5t-35.5 -15.5t-23 -26t-15 -35.5l-104 19q8 34 24.5 62t44 48t67 31.5t95.5 11.5zM417 724v-112h-109v112h109zM228 724v-112h-109v112h109z" />
    <glyph glyph-name="uni04E0" unicode="&#x4e0;" horiz-adv-x="599" 
d="M60 610v104h464v-91l-195 -201q109 -5 169.5 -56.5t60.5 -157.5q0 -50 -15.5 -91.5t-48 -71.5t-82.5 -46.5t-119 -16.5q-72 0 -120.5 17t-79.5 47t-45.5 71t-17.5 89h115q8 -60 42 -91.5t110 -31.5q143 0 143 125q0 62 -38 94t-127 32h-81v81l188 195h-323z" />
    <glyph glyph-name="uni04E1" unicode="&#x4e1;" horiz-adv-x="509" 
d="M33 435v91h421v-73l-195 -218h4q103 0 161 -57t58 -157q0 -107 -64 -166t-180 -59t-171 50t-64 136h110q7 -45 35.5 -71t90.5 -26q61 0 95.5 34.5t34.5 99.5q0 68 -38.5 100t-121.5 32h-67v81l178 203h-287z" />
    <glyph glyph-name="uni04E2" unicode="&#x4e2;" horiz-adv-x="701" 
d="M508 0v519l-320 -519h-112v714h118v-522l319 522h112v-714h-117zM501 885v-92h-301v92h301z" />
    <glyph glyph-name="uni04E3" unicode="&#x4e3;" horiz-adv-x="573" 
d="M510 0h-104v363l-242 -363h-101v526h104v-364l242 364h101v-526zM424 706v-89h-276v89h276z" />
    <glyph glyph-name="uni04E4" unicode="&#x4e4;" horiz-adv-x="701" 
d="M508 0v519l-320 -519h-112v714h118v-522l319 522h112v-714h-117zM503 902v-116h-112v116h112zM309 902v-116h-112v116h112z" />
    <glyph glyph-name="uni04E5" unicode="&#x4e5;" horiz-adv-x="573" 
d="M510 0h-104v363l-242 -363h-101v526h104v-364l242 364h101v-526zM436 724v-112h-109v112h109zM247 724v-112h-109v112h109z" />
    <glyph glyph-name="uni04E6" unicode="&#x4e6;" horiz-adv-x="772" 
d="M387 -18q-77 0 -138.5 25.5t-105.5 73.5t-67.5 117.5t-23.5 157.5t24 158t68 118.5t106 74t137 25.5q76 0 138 -25.5t105 -73.5t66.5 -117.5t23.5 -157.5q0 -89 -23 -158.5t-66 -118t-104.5 -74t-139.5 -25.5zM386 86q103 0 156 72.5t53 198.5q0 63 -13.5 113t-39.5 85
t-65 54t-91 19t-91 -19t-65.5 -54t-39.5 -85t-13 -113q0 -126 52.5 -198.5t156.5 -72.5zM541 902v-116h-112v116h112zM347 902v-116h-112v116h112z" />
    <glyph glyph-name="uni04E7" unicode="&#x4e7;" horiz-adv-x="609" 
d="M303 -16q-122 0 -189 74t-67 205q0 64 18 115.5t52 87.5t81.5 55.5t106.5 19.5q60 0 107.5 -19t80.5 -55t50.5 -87t17.5 -115t-18 -116t-51.5 -88.5t-81 -56.5t-107.5 -20zM304 76q72 0 105.5 51t33.5 138q0 85 -33.5 134.5t-105.5 49.5t-105.5 -49.5t-33.5 -135.5
t33.5 -137t105.5 -51zM453 724v-112h-109v112h109zM264 724v-112h-109v112h109z" />
    <glyph glyph-name="uni04E8" unicode="&#x4e8;" horiz-adv-x="772" 
d="M386 628q-94 0 -145.5 -57.5t-62.5 -157.5h416q-11 100 -63.5 157.5t-144.5 57.5zM386 86q94 0 146.5 59t62.5 163h-418q9 -104 61 -163t148 -59zM387 -18q-76 0 -138 25.5t-105.5 73.5t-67.5 117.5t-24 157.5t24 158t68 118.5t105.5 74t137.5 25.5t138 -25.5t105 -73.5
t66.5 -117.5t23.5 -157.5q0 -89 -23 -158.5t-66 -118t-104.5 -74t-139.5 -25.5z" />
    <glyph glyph-name="uni04E9" unicode="&#x4e9;" horiz-adv-x="609" 
d="M303 -16q-122 0 -189 74t-67 205q0 64 18 115.5t52 87.5t81.5 55.5t106.5 19.5q60 0 107.5 -19t80.5 -55t50.5 -87t17.5 -115t-18 -116t-51.5 -88.5t-81 -56.5t-107.5 -20zM304 74q65 0 98.5 40t41.5 109h-280q8 -69 41.5 -109t98.5 -40zM304 451q-63 0 -97 -38t-42 -103
h279q-8 65 -42 103t-98 38z" />
    <glyph glyph-name="uni04EA" unicode="&#x4ea;" horiz-adv-x="772" 
d="M386 628q-94 0 -145.5 -57.5t-62.5 -157.5h416q-11 100 -63.5 157.5t-144.5 57.5zM386 86q94 0 146.5 59t62.5 163h-418q9 -104 61 -163t148 -59zM387 -18q-76 0 -138 25.5t-105.5 73.5t-67.5 117.5t-24 157.5t24 158t68 118.5t105.5 74t137.5 25.5t138 -25.5t105 -73.5
t66.5 -117.5t23.5 -157.5q0 -89 -23 -158.5t-66 -118t-104.5 -74t-139.5 -25.5zM541 902v-116h-112v116h112zM347 902v-116h-112v116h112z" />
    <glyph glyph-name="uni04EB" unicode="&#x4eb;" horiz-adv-x="609" 
d="M303 -16q-122 0 -189 74t-67 205q0 64 18 115.5t52 87.5t81.5 55.5t106.5 19.5q60 0 107.5 -19t80.5 -55t50.5 -87t17.5 -115t-18 -116t-51.5 -88.5t-81 -56.5t-107.5 -20zM304 74q65 0 98.5 40t41.5 109h-280q8 -69 41.5 -109t98.5 -40zM304 451q-63 0 -97 -38t-42 -103
h279q-8 65 -42 103t-98 38zM453 724v-112h-109v112h109zM264 724v-112h-109v112h109z" />
    <glyph glyph-name="uni04EC" unicode="&#x4ec;" horiz-adv-x="710" 
d="M531 419q-5 55 -21 94.5t-40 65t-55 37.5t-65 12q-31 0 -59 -4.5t-51.5 -18t-42.5 -37.5t-31 -63l-117 18q28 98 101.5 153.5t204.5 55.5q63 0 118.5 -23t96.5 -68.5t64.5 -114t23.5 -159.5q0 -187 -82 -286t-237 -99q-75 0 -129 18t-90 49.5t-54.5 74t-23.5 92.5h121
q5 -27 16 -50.5t31.5 -41.5t51 -28t74.5 -10q97 0 143 55t53 174h-295v104h294zM499 902v-116h-112v116h112zM305 902v-116h-112v116h112z" />
    <glyph glyph-name="uni04ED" unicode="&#x4ed;" horiz-adv-x="570" 
d="M195 306h210q-5 69 -36.5 107t-91.5 38q-99 0 -123 -86l-104 17q8 34 26 63t46.5 50.5t68.5 33.5t91 12q114 0 177.5 -72.5t63.5 -205.5q0 -63 -17 -114.5t-48.5 -88t-77.5 -56.5t-103 -20q-105 0 -164.5 46t-69.5 133h109q8 -42 37 -65.5t91 -23.5q61 0 92 40.5
t35 109.5h-212v82zM435 724v-112h-109v112h109zM246 724v-112h-109v112h109z" />
    <glyph glyph-name="uni04EE" unicode="&#x4ee;" horiz-adv-x="604" 
d="M49 93q11 -5 32 -10t43 -5q41 0 71.5 20.5t52.5 70.5l16 35l-260 510h134l184 -393l154 393h124l-236 -546q-21 -48 -43 -82.5t-50.5 -57.5t-64 -34.5t-83.5 -11.5q-31 0 -57.5 6t-40.5 13zM462 885v-92h-301v92h301z" />
    <glyph glyph-name="uni04EF" unicode="&#x4ef;" horiz-adv-x="545" 
d="M69 -91q14 -5 29 -7.5t30 -2.5q29 0 46.5 15t32.5 54l19 49l-219 509h132l143 -381l132 381h124l-219 -558q-16 -40 -31 -70.5t-34 -50.5t-45 -30.5t-63 -10.5q-28 0 -51 4t-47 12zM419 706v-89h-276v89h276z" />
    <glyph glyph-name="uni04F0" unicode="&#x4f0;" horiz-adv-x="604" 
d="M49 93q11 -5 32 -10t43 -5q41 0 71.5 20.5t52.5 70.5l16 35l-260 510h134l184 -393l154 393h124l-236 -546q-21 -48 -43 -82.5t-50.5 -57.5t-64 -34.5t-83.5 -11.5q-31 0 -57.5 6t-40.5 13zM460 902v-116h-112v116h112zM266 902v-116h-112v116h112z" />
    <glyph glyph-name="uni04F1" unicode="&#x4f1;" horiz-adv-x="545" 
d="M69 -91q14 -5 29 -7.5t30 -2.5q29 0 46.5 15t32.5 54l19 49l-219 509h132l143 -381l132 381h124l-219 -558q-16 -40 -31 -70.5t-34 -50.5t-45 -30.5t-63 -10.5q-28 0 -51 4t-47 12zM427 724v-112h-109v112h109zM238 724v-112h-109v112h109z" />
    <glyph glyph-name="uni04F2" unicode="&#x4f2;" horiz-adv-x="604" 
d="M49 93q11 -5 32 -10t43 -5q41 0 71.5 20.5t52.5 70.5l16 35l-260 510h134l184 -393l154 393h124l-236 -546q-21 -48 -43 -82.5t-50.5 -57.5t-64 -34.5t-83.5 -11.5q-31 0 -57.5 6t-40.5 13zM379 912l-144 -139h-102l118 139h128zM574 912l-144 -139h-101l117 139h128z
" />
    <glyph glyph-name="uni04F3" unicode="&#x4f3;" horiz-adv-x="545" 
d="M69 -91q14 -5 29 -7.5t30 -2.5q29 0 46.5 15t32.5 54l19 49l-219 509h132l143 -381l132 381h124l-219 -558q-16 -40 -31 -70.5t-34 -50.5t-45 -30.5t-63 -10.5q-28 0 -51 4t-47 12zM528 741l-128 -148h-97l103 148h122zM343 741l-128 -148h-97l103 148h122z" />
    <glyph glyph-name="uni04F4" unicode="&#x4f4;" horiz-adv-x="658" 
d="M462 303q-34 -14 -77 -23t-89 -9q-52 0 -97 11.5t-78 37.5t-52 68t-19 104v222h120v-188q0 -41 7.5 -71t25 -49.5t47 -28.5t73.5 -9q35 0 73.5 7.5t65.5 19.5v319h120v-714h-120v303zM472 902v-116h-112v116h112zM278 902v-116h-112v116h112z" />
    <glyph glyph-name="uni04F5" unicode="&#x4f5;" horiz-adv-x="542" 
d="M366 203q-24 -7 -55.5 -11t-59.5 -4q-58 0 -98.5 13.5t-65.5 38.5t-36 59.5t-11 75.5v151h113v-126q0 -67 28.5 -93.5t91.5 -26.5q24 0 49 4t44 11v231h113v-526h-113v203zM408 724v-112h-109v112h109zM219 724v-112h-109v112h109z" />
    <glyph glyph-name="uni04F6" unicode="&#x4f6;" horiz-adv-x="530" 
d="M76 0v714h446v-105h-325v-504h75v-278h-106v173h-90z" />
    <glyph glyph-name="uni04F7" unicode="&#x4f7;" horiz-adv-x="431" 
d="M63 0v526h360v-96h-246v-335h63v-235h-98v140h-79z" />
    <glyph glyph-name="uni04F8" unicode="&#x4f8;" horiz-adv-x="895" 
d="M319 458q79 0 131.5 -19t83.5 -50.5t44 -72.5t13 -86q0 -47 -13 -89t-45 -73.5t-85.5 -49.5t-134.5 -18h-237v714h120v-256h123zM196 100h119q88 0 122 32t34 94q0 31 -7.5 55.5t-26 41t-49 25.5t-75.5 9h-117v-257zM699 714h120v-714h-120v714zM609 902v-116h-112v116
h112zM415 902v-116h-112v116h112z" />
    <glyph glyph-name="uni04F9" unicode="&#x4f9;" horiz-adv-x="756" 
d="M177 526v-181h139q51 0 88 -13t61 -35.5t35.5 -54t11.5 -67.5q0 -79 -51 -127t-157 -48h-241v526h114zM579 526h114v-526h-114v526zM177 93h127q91 0 91 79q0 38 -20.5 59.5t-73.5 21.5h-124v-160zM525 724v-112h-109v112h109zM336 724v-112h-109v112h109z" />
    <glyph glyph-name="Wgrave" unicode="&#x1e80;" horiz-adv-x="950" 
d="M147 714l132 -542l136 538h129l138 -537l128 541h129l-197 -714h-121l-145 562l-143 -562h-117l-205 714h136zM563 773h-109l-149 139h136z" />
    <glyph glyph-name="wgrave" unicode="&#x1e81;" horiz-adv-x="753" 
d="M131 520l88 -380l110 376h104l106 -376l88 380h119l-152 -520h-113l-105 378l-106 -378h-112l-151 520h124zM334 741l117 -148h-107l-143 148h133z" />
    <glyph glyph-name="Wacute" unicode="&#x1e82;" horiz-adv-x="950" 
d="M147 714l132 -542l136 538h129l138 -537l128 541h129l-197 -714h-121l-145 562l-143 -562h-117l-205 714h136zM651 912l-149 -139h-109l123 139h135z" />
    <glyph glyph-name="wacute" unicode="&#x1e83;" horiz-adv-x="753" 
d="M131 520l88 -380l110 376h104l106 -376l88 380h119l-152 -520h-113l-105 378l-106 -378h-112l-151 520h124zM559 741l-143 -148h-107l117 148h133z" />
    <glyph glyph-name="Wdieresis" unicode="&#x1e84;" horiz-adv-x="950" 
d="M147 714l132 -542l136 538h129l138 -537l128 541h129l-197 -714h-121l-145 562l-143 -562h-117l-205 714h136zM628 902v-116h-112v116h112zM434 902v-116h-112v116h112z" />
    <glyph glyph-name="wdieresis" unicode="&#x1e85;" horiz-adv-x="753" 
d="M131 520l88 -380l110 376h104l106 -376l88 380h119l-152 -520h-113l-105 378l-106 -378h-112l-151 520h124zM525 724v-112h-109v112h109zM336 724v-112h-109v112h109z" />
    <glyph glyph-name="Ygrave" unicode="&#x1ef2;" horiz-adv-x="635" 
d="M260 297l-248 417h135l172 -310l176 310h128l-243 -417v-297h-120v297zM393 773h-109l-149 139h136z" />
    <glyph glyph-name="ygrave" unicode="&#x1ef3;" horiz-adv-x="545" 
d="M71 -92q25 -9 57 -9q30 0 47 14.5t32 54.5l19 50l-219 502h132l143 -375l131 375h124l-207 -525q-18 -46 -34 -81t-36 -59t-47.5 -36.5t-67.5 -12.5q-26 0 -48 3.5t-47 11.5zM230 741l117 -148h-107l-143 148h133z" />
    <glyph glyph-name="endash" unicode="&#x2013;" horiz-adv-x="500" 
d="M500 350v-109h-500v109h500z" />
    <glyph glyph-name="emdash" unicode="&#x2014;" horiz-adv-x="1000" 
d="M1000 350v-109h-1000v109h1000z" />
    <glyph glyph-name="afii00208" unicode="&#x2015;" horiz-adv-x="1000" 
d="M1000 350v-109h-1000v109h1000z" />
    <glyph glyph-name="quoteleft" unicode="&#x2018;" horiz-adv-x="224" 
d="M190 714l-30 -235h-116l58 235h88z" />
    <glyph glyph-name="quoteright" unicode="&#x2019;" horiz-adv-x="224" 
d="M180 714l-58 -235h-87l30 235h115z" />
    <glyph glyph-name="quotesinglbase" unicode="&#x201a;" horiz-adv-x="224" 
d="M182 140l-57 -235h-89l32 235h114z" />
    <glyph glyph-name="quotedblleft" unicode="&#x201c;" horiz-adv-x="388" 
d="M354 714l-30 -235h-110l58 235h82zM184 714l-30 -235h-110l58 235h82z" />
    <glyph glyph-name="quotedblright" unicode="&#x201d;" horiz-adv-x="388" 
d="M175 714l-58 -235h-82l30 235h110zM344 714l-58 -235h-82l30 235h110z" />
    <glyph glyph-name="quotedblbase" unicode="&#x201e;" horiz-adv-x="388" 
d="M176 139l-57 -235h-83l32 235h108zM345 139l-57 -235h-83l31 235h109z" />
    <glyph glyph-name="dagger" unicode="&#x2020;" horiz-adv-x="473" 
d="M17 426v100h163v188h113v-188h163v-100h-163v-513h-113v513h-163z" />
    <glyph glyph-name="daggerdbl" unicode="&#x2021;" horiz-adv-x="473" 
d="M17 106v101h163v226h-163v100h163v181h113v-181h163v-100h-163v-226h163v-101h-163v-193h-113v193h-163z" />
    <glyph glyph-name="bullet" unicode="&#x2022;" horiz-adv-x="381" 
d="M47 364q0 31 10.5 57t30 45t45.5 30t58 11q31 0 57.5 -11t45.5 -30.5t29.5 -45.5t10.5 -56q0 -35 -12 -62t-32 -45t-46 -27.5t-53 -9.5q-32 0 -58 10.5t-45.5 29.5t-30 45.5t-10.5 58.5z" />
    <glyph glyph-name="ellipsis" unicode="&#x2026;" horiz-adv-x="916" 
d="M176 139v-139h-121v139h121zM766 139v-139h-121v139h121zM614 139v-139h-121v139h121z" />
    <glyph glyph-name="perthousand" unicode="&#x2030;" horiz-adv-x="1352" 
d="M1140 64q41 0 62.5 30t21.5 103q0 72 -21.5 103.5t-62.5 31.5q-40 0 -61 -31t-21 -104q0 -74 20.5 -103.5t61.5 -29.5zM1140 -18q-84 0 -131.5 54t-47.5 161q0 55 13.5 96t37.5 68t57 40.5t71 13.5q80 0 130 -54.5t50 -163.5q0 -58 -14 -99t-38.5 -66.5t-57.5 -37.5
t-70 -12zM731 64q41 0 62.5 30t21.5 103q0 72 -21.5 103.5t-62.5 31.5q-40 0 -61 -31t-21 -104q0 -74 21 -103.5t61 -29.5zM731 -18q-84 0 -131.5 54t-47.5 161q0 55 13.5 96t37.5 68t57 40.5t71 13.5q80 0 130 -54.5t50 -163.5q0 -58 -14 -99t-38.5 -66.5t-57.5 -37.5
t-70 -12zM241 0l349 691h112l-350 -691h-111zM212 356q41 0 62 30.5t21 103.5q0 72 -21 103.5t-62 31.5q-40 0 -61 -31.5t-21 -103.5q0 -74 20.5 -104t61.5 -30zM212 274q-83 0 -131 53.5t-48 162.5q0 55 13.5 96t37.5 68t57 40.5t71 13.5q80 0 130 -54.5t50 -163.5
q0 -60 -14.5 -101t-39 -66.5t-57.5 -37t-69 -11.5z" />
    <glyph glyph-name="guilsinglleft" unicode="&#x2039;" horiz-adv-x="312" 
d="M172 481h115l-120 -222l120 -228h-117l-131 227z" />
    <glyph glyph-name="guilsinglright" unicode="&#x203a;" horiz-adv-x="312" 
d="M25 481h118l130 -226l-132 -224h-116l120 223z" />
    <glyph glyph-name="fraction" unicode="&#x2044;" horiz-adv-x="100" 
d="M-180 0l349 691h111l-349 -691h-111z" />
    <glyph glyph-name="zerosuperior" unicode="&#x2070;" horiz-adv-x="412" 
d="M206 356q41 0 62 30t21 104q0 72 -21 103.5t-62 31.5q-40 0 -61.5 -31.5t-21.5 -103.5q0 -74 21 -104t62 -30zM206 274q-83 0 -131.5 53.5t-48.5 162.5q0 55 14 96t38 68t57 40.5t71 13.5q80 0 130 -54.5t50 -163.5q0 -60 -14.5 -101t-39 -66.5t-57.5 -37t-69 -11.5z" />
    <glyph glyph-name="foursuperior" unicode="&#x2074;" horiz-adv-x="412" 
d="M236 590l-109 -144h109v144zM238 692h79v-246h52l-10 -69h-42v-87h-81v87h-196v55z" />
    <glyph glyph-name="fivesuperior" unicode="&#x2075;" horiz-adv-x="412" 
d="M140 402q5 -28 20.5 -42t48.5 -14t49.5 19t16.5 53q0 32 -16.5 50t-50.5 18q-42 0 -70 -27h-67l20 233h237v-72h-166q-3 -23 -4.5 -44.5t-3.5 -43.5q24 12 62 15q5 0 9 0.5t9 -0.5q32 -1 55.5 -11.5t38.5 -28t22 -40.5t7 -48q0 -73 -39 -109t-107 -36q-140 0 -149 128h78
z" />
    <glyph glyph-name="sixsuperior" unicode="&#x2076;" horiz-adv-x="412" 
d="M208 341q31 0 52.5 17t21.5 55q0 32 -16.5 52.5t-52.5 20.5q-15 0 -29 -4t-25 -12t-17.5 -21.5t-5.5 -32.5q1 -29 17.5 -52t54.5 -23zM282 583q-5 30 -21.5 42.5t-41.5 12.5q-39 0 -61 -30t-26 -93q20 15 43.5 23t52.5 8q70 0 103 -37t33 -93q0 -34 -12.5 -60.5
t-33.5 -44.5t-49.5 -27.5t-61.5 -9.5q-48 0 -78.5 17.5t-48.5 45t-25 61t-7 66.5q0 128 47.5 186t123.5 58q68 0 100.5 -30t41.5 -84z" />
    <glyph glyph-name="sevensuperior" unicode="&#x2077;" horiz-adv-x="412" 
d="M119 290q26 90 59 171.5t72 153.5h-199v77h301v-65q-47 -81 -79.5 -161.5t-58.5 -175.5h-95z" />
    <glyph glyph-name="eightsuperior" unicode="&#x2078;" horiz-adv-x="412" 
d="M129 400q0 -28 20 -43.5t58 -15.5q76 0 76 61q0 26 -19 41.5t-57 15.5q-42 0 -60 -17t-18 -42zM138 585q0 -57 68 -57q62 0 65 52q0 5 -0.5 9t-1.5 9q-5 20 -19.5 32t-43.5 12q-36 0 -52 -17t-16 -40zM110 497q-26 16 -38 39.5t-12 51.5q0 25 8.5 46.5t26.5 37.5
t45.5 25.5t65.5 9.5q76 0 111 -34t35 -86q0 -28 -13 -51.5t-39 -37.5q26 -14 46 -37.5t20 -60.5q0 -60 -40.5 -92.5t-118.5 -32.5q-84 0 -122.5 34t-38.5 91q0 34 19.5 58t44.5 39z" />
    <glyph glyph-name="ninesuperior" unicode="&#x2079;" horiz-adv-x="412" 
d="M197 496q15 0 29 4t24.5 12t17 21.5t5.5 32.5q0 27 -17.5 50.5t-53.5 23.5q-33 0 -54 -16.5t-21 -53.5q0 -33 16.5 -53.5t53.5 -20.5zM130 394q4 -32 22.5 -41.5t44.5 -9.5q39 0 60.5 31t19.5 94q-22 -19 -44 -26t-51 -7q-71 0 -103.5 37t-32.5 95q0 28 10 53.5t29.5 45
t49 31t68.5 11.5q49 0 79.5 -19.5t48 -49t24 -64.5t6.5 -66q0 -71 -13 -116.5t-35.5 -71.5t-52.5 -36.5t-63 -10.5q-69 0 -106 28.5t-42 91.5h81z" />
    <glyph glyph-name="zeroinferior" unicode="&#x2080;" horiz-adv-x="412" 
d="M206 67q41 0 62 30t21 104q0 72 -21 103.5t-62 31.5q-40 0 -61.5 -31.5t-21.5 -103.5q0 -74 21 -104t62 -30zM206 -15q-83 0 -131.5 53.5t-48.5 162.5q0 55 14 96t38 68t57 40.5t71 13.5q80 0 130 -54.5t50 -163.5q0 -60 -14.5 -101t-39 -66.5t-57.5 -37t-69 -11.5z" />
    <glyph glyph-name="oneinferior" unicode="&#x2081;" horiz-adv-x="412" 
d="M89 265l-34 63l133 75h86v-402h-91v314z" />
    <glyph glyph-name="twoinferior" unicode="&#x2082;" horiz-adv-x="412" 
d="M67 73q15 13 35.5 29t58.5 48l41 35q29 26 44.5 49t15.5 55q0 25 -15 40t-41 15q-31 0 -48.5 -15.5t-25.5 -53.5l-86 11q6 24 16 48t29 42.5t48 30.5t71 12q69 0 106 -35t37 -90q0 -49 -28.5 -89.5t-81.5 -84.5l-21 -16l-33 -27h169l-11 -76h-289v64z" />
    <glyph glyph-name="threeinferior" unicode="&#x2083;" horiz-adv-x="412" 
d="M132 127q4 -39 23 -56.5t54 -17.5q33 0 53 14t20 50q0 32 -22 44t-51 12h-41v68h45q29 0 45.5 15t16.5 42q0 53 -66 53q-32 0 -49.5 -15.5t-25.5 -49.5l-79 12q4 24 15 45.5t29.5 38.5t46 27t65.5 10q75 0 110 -32.5t35 -81.5q0 -32 -15 -53.5t-39 -38.5q32 -14 48 -39.5
t16 -55.5q0 -60 -36.5 -96.5t-117.5 -36.5q-45 0 -75 13t-48.5 33t-27 45.5t-8.5 50.5h79z" />
    <glyph glyph-name="fourinferior" unicode="&#x2084;" horiz-adv-x="412" 
d="M235 301l-109 -144h109v144zM237 403h79v-246h52l-10 -69h-42v-87h-81v87h-196v55z" />
    <glyph glyph-name="fiveinferior" unicode="&#x2085;" horiz-adv-x="412" 
d="M140 113q5 -28 20.5 -42t48.5 -14t49.5 19t16.5 53q0 32 -16.5 50t-50.5 18q-42 0 -70 -27h-67l20 233h237v-72h-166q-3 -23 -4.5 -44.5t-3.5 -43.5q24 12 62 15q5 0 9 0.5t9 -0.5q32 -1 55.5 -11.5t38.5 -28t22 -40.5t7 -48q0 -73 -39 -109t-107 -36q-140 0 -149 128h78
z" />
    <glyph glyph-name="sixinferior" unicode="&#x2086;" horiz-adv-x="412" 
d="M208 52q31 0 52.5 17t21.5 55q0 32 -16.5 52.5t-52.5 20.5q-15 0 -29 -4t-25 -12t-17.5 -21.5t-5.5 -32.5q1 -29 17.5 -52t54.5 -23zM282 294q-5 30 -21.5 42.5t-41.5 12.5q-39 0 -61 -30t-26 -93q20 15 43.5 23t52.5 8q70 0 103 -37t33 -93q0 -34 -12.5 -60.5
t-33.5 -44.5t-49.5 -27.5t-61.5 -9.5q-48 0 -78.5 17.5t-48.5 45t-25 61t-7 66.5q0 128 47.5 186t123.5 58q68 0 100.5 -30t41.5 -84z" />
    <glyph glyph-name="seveninferior" unicode="&#x2087;" horiz-adv-x="412" 
d="M119 1q26 90 59 171.5t72 153.5h-199v77h301v-65q-47 -81 -79.5 -161.5t-58.5 -175.5h-95z" />
    <glyph glyph-name="eightinferior" unicode="&#x2088;" horiz-adv-x="412" 
d="M129 111q0 -28 20 -43.5t58 -15.5q76 0 76 61q0 26 -19 41.5t-57 15.5q-42 0 -60 -17t-18 -42zM138 296q0 -57 68 -57q62 0 65 52q0 5 -0.5 9t-1.5 9q-5 20 -19.5 32t-43.5 12q-36 0 -52 -17t-16 -40zM110 208q-26 16 -38 39.5t-12 51.5q0 25 8.5 46.5t26.5 37.5
t45.5 25.5t65.5 9.5q76 0 111 -34t35 -86q0 -28 -13 -51.5t-39 -37.5q26 -14 46 -37.5t20 -60.5q0 -60 -40.5 -92.5t-118.5 -32.5q-84 0 -122.5 34t-38.5 91q0 34 19.5 58t44.5 39z" />
    </font>
</defs>
</svg>
