<?xml version="1.0" encoding="utf-8"?>
<!-- Generator: Adobe Illustrator 22.1.0, SVG Export Plug-In . SVG Version: 6.00 Build 0)  -->
<svg version="1.1" id="Layer_1" xmlns="http://www.w3.org/2000/svg" xmlns:xlink="http://www.w3.org/1999/xlink" x="0px" y="0px"
	 viewBox="0 0 506.2 85.6" style="enable-background:new 0 0 506.2 85.6;" xml:space="preserve">
<style type="text/css">
	.st0{fill-rule:evenodd;clip-rule:evenodd;fill:#FFFFFF;}
</style>
<g>
	<rect x="274.5" y="19.4" class="st0" width="14.4" height="46.7"/>
	<polygon class="st0" points="347.4,19.4 298.5,19.4 298.5,31.6 315.7,31.6 315.7,66.1 330.1,66.1 330.1,31.6 347.4,31.6 	"/>
	<rect x="426.7" y="19.4" class="st0" width="14.4" height="46.7"/>
	<path class="st0" d="M493,19.4v26.7l-28.6-24.2c-5.8-5.3-13.7-2-13.7,6.2v38h13.1V38.7l28.6,24.9c5.6,5.4,13.7,2,13.7-6.3V19.4H493
		z"/>
	<path class="st0" d="M169.2,33.8c-1.4-2.9-3.4-5.4-5.9-7.5c-2.5-2.1-5.5-3.8-8.9-5c-3.4-1.2-7.2-1.8-11.2-1.8h-32V55v11.1h32
		c4,0,7.8-0.5,11.2-1.6c3.4-1.1,6.4-2.7,8.9-4.7c2.5-2,4.4-4.4,5.9-7.3c1.4-2.8,2.1-5.9,2.1-9.3C171.3,39.8,170.6,36.7,169.2,33.8
		L169.2,33.8z M155.9,47.2c-0.7,1.4-1.7,2.6-2.9,3.6c-1.2,1-2.7,1.8-4.4,2.4c-1.7,0.6-3.5,0.8-5.4,0.8h-17.7V31.4h17.7
		c2,0,3.8,0.3,5.5,0.8c1.7,0.5,3.1,1.3,4.4,2.3c1.2,1,2.2,2.2,2.9,3.5c0.7,1.4,1,2.9,1,4.6C157,44.3,156.6,45.8,155.9,47.2z"/>
	<path class="st0" d="M370.2,24.7l-29.9,41.5h17.1l21.9-31l7.7,11.1h-9.2l-8.5,12h26l5.5,7.9H418l-29.2-41.5
		C383.9,17.5,375.3,17.7,370.2,24.7z"/>
	<path class="st0" d="M250.6,41.1l0,13H233c-2,0-3.8-0.3-5.5-0.8c-1.7-0.5-3.1-1.3-4.4-2.3c-1.2-1-2.2-2.2-2.9-3.5
		c-0.7-1.4-1-2.9-1-4.6c0-1.7,0.3-3.2,1-4.6c0.7-1.4,1.7-2.6,2.9-3.6c1.2-1,2.7-1.8,4.4-2.4c1.7-0.6,3.5-0.8,5.4-0.8h14.7v0H265
		V19.4h-32c-4,0-7.8,0.5-11.2,1.6c-3.4,1.1-6.4,2.7-8.9,4.7c-2.5,2-4.4,4.4-5.9,7.3c-1.4,2.8-2.1,5.9-2.1,9.3c0,3.4,0.7,6.5,2.1,9.5
		c1.4,2.9,3.4,5.4,5.9,7.5c2.5,2.1,5.5,3.8,8.9,5c3.4,1.2,7.2,1.8,11.2,1.8h32v-25H250.6z"/>
	<rect x="180.9" y="19.4" class="st0" width="14.4" height="46.7"/>
	<path class="st0" d="M56.7,7.9c2.2,2.5,4.4,4.9,6.2,7.6c1,1.5,1.5,2.9,3.4,3.5c1.5,0.4,8.5,0.7,9.5-1c1.3-2.3-5.4-7.5-6.7-8.6
		c-1.7-1.5-3.5-3.2-5.7-3.9c-1.2-0.4-3-0.7-4.3-0.4c-1.5,0.3-0.8,0.3-1.2,0.7c-0.7,0.6-2.3-0.2-2.2,0.9C55.9,7.2,56.3,7.5,56.7,7.9
		L56.7,7.9z M35.7,85c-2.2-1.5-4.1-3-6.7-3.6c-1-0.2-3.1,0.2-3.6-1.2c-0.6-1.7,2.4-1.4,3.6-1.5c2-0.2,2.9,0.1,2.1-2.1
		c-0.4-1.4-2.3-3.1-3.7-3.4c-1.8-0.3-3.7,0.5-5.7,0.1c-2.4-0.5-4.2-2-6.3-3.3c-1.7-1.1-5.5-2.7-4.6,0.8c0.3,1.4,2.3,3,3.2,3.9
		C19.9,80.4,28,83.3,35.7,85L35.7,85z M4.7,61.9C2.1,56.9,0.5,51.5,0,45.8c0.3,1.2,1.3,5.7,2.7,5.9C4.7,52,7,45,8.1,43.5
		c5.5-7.6,14.2-1.9,18.2,4.1c3.5,5.3,4.9,17.6-2.3,21.1c-3.4,1.6-8.1-0.8-10.9-2.7C10.8,64.5,7.8,61.2,4.7,61.9L4.7,61.9z M0.8,42.7
		c1,3.9,2.3,2.1,3.4-0.4c0.7-1.6,1.1-3.6,2.1-5.1c1-1.6,2.3-2,3.9-2.9c2.9-1.6,5.6-6.1,0.1-6.4c-1.6-0.1-8.2,3.9-8.3,2
		C0.4,34-0.3,38.4,0.8,42.7L0.8,42.7z M3.1,26.6c4.1-1.6,5.1-3.8,6.8-7.5c0.9-1.9,5.4-7,4.9-8.6C9.9,14.9,5.5,20.5,3.1,26.6
		L3.1,26.6z M24.1,6.2c-3,0.3-1-1.6,0.2-2.2c3.2-1.6,7.3-2.4,10.7-3.2c4.9-1.1,9.9-1.1,14.8-0.1C51,1,57.7,1.9,58.3,3.4
		c0.3,0.8-6.9,0.9-7.4,0.9c-3.1,0-6,0.2-9.1,0.8C35.8,6.2,30.1,6.3,24.1,6.2L24.1,6.2z M19.9,24.8C9.8,28.6,12.1,17,16,12.2
		c4-4.9,9.9-3.7,15.6-2.9c5.3,0.7,10-0.8,15.3-1.4c5.5-0.6,8,2.8,10.3,7.3c0.5,1,2.2,3.4,1.9,4.6c-0.5,1.6-4.4,2-5.6,2.3
		c-5.3,1.2-11.1,2.3-16.6,2.1C31,24,25.5,22.5,19.9,24.8L19.9,24.8z M42.4,85.3c-1.5-0.3-9-1.4-9-3.6c0-2.4,9.4,0.8,10.8,1
		c5.1,1,10.3-0.7,15.1-2.2c3.5-1.1,4.7-1.8,7.7-3.6c1-0.6,1.9-1.1,2.3-0.9c0.1,0.1-0.7,0.7-1.6,1.4c-3.6,2.7-7.4,4.5-11.6,6.1
		C51.7,85,47.1,86.1,42.4,85.3L42.4,85.3z M35.2,76.2C32.5,72.7,31,64,37.8,63.6c4.4-0.2,8.4,3,10.5,6.6c1.4,2.4,2.2,5.2,4.1,7.2
		c1.6,1.7,4.1,1.8,1.3,3.1C48.6,83,38.7,80.9,35.2,76.2L35.2,76.2z M81.2,43.6c-1.3,3.4-3.5,4.8-6,6.9c-2.1,1.8-1.7,4.7-2.1,7.3
		c-0.8,5.9-2.5,11.5-5.2,16.8c0.5,2,5.9-2.8,6.4-3.5c2-2.4,4-4.9,5.6-7.6c2.4-4.2,4.2-9,4.7-13.9c0.1-1.1,1.2-13.8-0.5-14
		C83,35.5,81.4,42.9,81.2,43.6L81.2,43.6z M32.5,52.9c-4.9-10.7,14.9-5.6,19.6-3.1c1.8,0.9,3.6,2.1,5.4,2.9c2.9,1.3,4.9,0.2,7.9,0.5
		c4.7,0.4,2.3,8.8,1.8,12c-0.7,4-1.5,12.5-6.8,12.4c-5.5-0.1-5.9-5.7-7.6-9.5C49.2,59.8,36,60.5,32.5,52.9L32.5,52.9z M23.2,29.5
		c-6.5,1.8-0.7,7.5,2.5,9.5c3.3,2,7.6,2,11.4,1.7c4.9-0.5,8.3-1.4,13,1c4.1,2.1,7.6,4.9,12.4,5.1c6.7,0.3,15-2,17.4-8.8
		c0.6-1.7,0.8-3.4,1.3-5.1c0.3-1.2,1.4-2.1,1.7-3.2c0.2-0.7-3.2-9.1-4.5-8.6c0.1,0,0,1.6-0.4,2c-0.5,0.5-3.3,0.8-4,0.9
		c-2.1,0.1-4,0-6.2,0.4c-5.2,0.9-10.3,2.2-15.5,3.3c-4.5,0.9-9.4,2.5-14,2.3C34.6,29.9,27.8,28.2,23.2,29.5z"/>
</g>
</svg>
