<?xml version="1.0" encoding="utf-8"?>
<!-- Generator: Adobe Illustrator 22.1.0, SVG Export Plug-In . SVG Version: 6.00 Build 0)  -->
<svg version="1.1" id="Layer_1" xmlns="http://www.w3.org/2000/svg" xmlns:xlink="http://www.w3.org/1999/xlink" x="0px" y="0px"
	 viewBox="0 0 3084 452.4" style="enable-background:new 0 0 3084 452.4;" xml:space="preserve">
<style type="text/css">
	.st0{fill:#FFFFFF;}
</style>
<g>
	<rect x="431.6" y="101.6" class="st0" width="49.6" height="44.1"/>
	<path class="st0" d="M537,323.7h-50v-143h-75.2c-10,0-17.2,1.9-21.5,5.8c-4.3,3.9-6.4,8.8-6.4,14.9c0,6.2,2.2,11.3,6.5,15.2
		c4.3,3.9,11.5,5.8,21.4,5.8h33.6v101.3h-50c-10,0-17.2,1.9-21.5,5.8c-4.3,3.9-6.4,8.8-6.4,14.9c0,6.2,2.1,11.3,6.4,15.2
		c4.3,3.9,11.4,5.8,21.5,5.8H537c10,0,17.2-1.9,21.5-5.8c4.3-3.9,6.4-8.8,6.4-14.9c0-6.2-2.1-11.3-6.4-15.1
		C554.1,325.6,547,323.7,537,323.7z"/>
	<path class="st0" d="M804.6,323.7v-77.5c0-19.8-5.7-35.8-17.1-48c-14.4-15.3-33.9-23-58.6-23c-10.7,0-20.6,1.6-29.8,4.9
		c-9.2,3.3-17.5,8.1-25.1,14.6v-14h-39.7c-10,0-17.2,1.9-21.5,5.8c-4.3,3.9-6.4,8.8-6.4,14.9s2.1,11.1,6.3,15.1
		c4.2,3.9,10.7,5.9,19.5,5.9v101.3c-10.7,0-17.7,1-20.9,3.1c-6.5,4.2-9.8,10.1-9.8,17.7c0,6.2,2.1,11.3,6.4,15.2
		c4.3,3.9,11.4,5.8,21.5,5.8h47.4c10,0,17.2-1.9,21.5-5.8c4.3-3.9,6.4-8.8,6.4-14.9c0-7.9-3.3-13.8-10-17.9c-3.1-2-10-3.1-20.7-3.1
		v-77.5c11.1-12.1,20.3-20,27.6-23.7c7.3-3.7,15.7-5.6,25.3-5.6c12.7,0,22.3,2.7,28.7,8.1c4.9,4.2,7.3,10.8,7.3,19.9v78.7
		c-8.8,0-15.3,1.9-19.5,5.8c-4.2,3.9-6.3,8.8-6.3,14.9c0,6.2,2.1,11.3,6.4,15.2c4.3,3.9,11.4,5.8,21.5,5.8h37.6
		c10,0,17.2-1.9,21.5-5.8c4.3-3.9,6.4-8.8,6.4-14.9c0-6.2-2.1-11.3-6.3-15.1C819.9,325.6,813.4,323.7,804.6,323.7z"/>
	<path class="st0" d="M1060.8,180.7H1012v12.4c-8.7-6.2-17.8-10.9-27.4-13.9s-19.6-4.6-30.2-4.6c-28.3,0-52.1,9.5-71.2,28.4
		c-19.1,18.9-28.7,42.3-28.7,70.3c0,27.8,9.6,51.1,28.7,70.1c19.1,18.9,42.8,28.4,71.2,28.4c10,0,19.8-1.5,29.4-4.5
		c9.6-3,18.9-7.5,28.2-13.4v20.3c0,10.6-3.5,19.3-10.6,26.2c-7.1,6.9-17,10.4-29.7,10.4h-46c-10,0-17.2,1.9-21.5,5.8
		c-4.3,3.9-6.4,8.9-6.4,15.1c0,6.1,2.1,11.1,6.4,14.9c4.3,3.9,11.4,5.8,21.5,5.8H973c16,0,30.4-3.9,43.1-11.8
		c12.7-7.9,22.2-17.3,28.4-28.2c6.2-10.9,9.3-23.7,9.3-38.3V222.4h7.1c10,0,17.2-1.9,21.5-5.8c4.3-3.9,6.4-8.8,6.4-14.9
		c0-6.2-2.1-11.3-6.4-15.1C1078,182.6,1070.9,180.7,1060.8,180.7z M994.9,313c-11.3,11.2-24.9,16.8-40.8,16.8
		c-15.9,0-29.5-5.6-40.8-16.8c-11.3-11.2-17-24.5-17-40c0-15.3,5.7-28.6,17-39.9c11.3-11.3,24.9-16.9,40.8-16.9
		c15.9,0,29.5,5.6,40.8,16.9c11.3,11.3,17,24.5,17,39.9C1011.8,288.5,1006.2,301.8,994.9,313z"/>
	<path class="st0" d="M1575,323.7V160.6c7.2-0.7,12.7-2.9,16.5-6.7c3.8-3.8,5.7-8.5,5.7-14.2c0-6.2-2.1-11.2-6.4-15
		c-4.3-3.8-11.4-5.7-21.5-5.7l-46.2-0.2l-55.7,125.7l-56.7-125.5l-45.8-0.2c-10,0-17.2,1.9-21.5,5.8c-4.3,3.9-6.4,8.9-6.4,15.1
		c0,5.7,1.9,10.4,5.6,14.2c3.7,3.8,9.3,6,16.6,6.7v163.1c-8.8,0-15.3,1.9-19.5,5.8c-4.2,3.9-6.3,8.8-6.3,14.9
		c0,6.2,2.1,11.3,6.4,15.2c4.3,3.9,11.4,5.8,21.5,5.8h54.7c10,0,17.2-1.9,21.5-5.8c4.3-3.9,6.4-8.8,6.4-14.9
		c0-6.2-2.1-11.3-6.4-15.1c-4.3-3.9-11.4-5.8-21.5-5.8h-15V199.4l48.4,107.4h36.2l47.8-107.4v124.3H1518c-9.9,0-17,1.9-21.3,5.8
		c-4.3,3.9-6.4,8.8-6.4,14.9c0,6.2,2.1,11.3,6.4,15.2c4.3,3.9,11.4,5.8,21.3,5.8h54.9c10,0,17.2-1.9,21.5-5.8
		c4.3-3.9,6.4-8.8,6.4-14.9s-2.1-11.1-6.3-15C1590.3,325.6,1583.8,323.7,1575,323.7z"/>
	<path class="st0" d="M1802.3,323.7h-7.1v-85.8c0-19.4-7.2-34.7-21.5-45.9c-14.3-11.2-34.4-16.8-60.3-16.8c-8.7,0-18.4,0.8-29.1,2.5
		c-10.7,1.7-21.2,4-31.5,6.8c-7.7,2.2-12.8,4-15.3,5.6c-2.4,1.6-4.3,3.6-5.7,6.2c-1.4,2.6-2,5.6-2,9.2c0,6.2,1.9,11.4,5.8,15.4
		c3.9,4,8.6,6,14.1,6c4.1,0,9.8-0.9,17.1-2.6c19.7-4.9,35.7-7.3,48-7.3c15,0,25.2,2,30.6,5.9c5.4,3.9,8,9,8,15.3v10
		c-16.5-2.7-31.1-4.1-43.7-4.1c-31.5,0-56.1,7.5-73.9,22.5c-17.8,15-26.7,31.2-26.7,48.7c0,14.4,7,27.5,20.9,39.4
		c14,11.9,32.1,17.8,54.5,17.8c10.3,0,21.8-1.4,34.4-4.2c12.6-2.8,24.1-6.9,34.6-12.5v9.8h48.8c10,0,17.2-1.9,21.5-5.8
		c4.3-3.9,6.4-8.8,6.4-14.9c0-6.2-2.1-11.3-6.4-15.1C1819.5,325.6,1812.4,323.7,1802.3,323.7z M1753.5,308.6
		c-9.9,6.8-21.2,12.1-33.9,16.1c-12.7,3.9-24,5.9-34.1,5.9c-11.8,0-21.1-2.2-27.9-6.7c-3.7-2.4-5.5-5.6-5.5-9.6
		c0-5.4,3.8-10.8,11.4-16.1c12.2-8.3,26.8-12.4,43.7-12.4c14.1,0,29.5,1.6,46.2,4.9V308.6z"/>
	<path class="st0" d="M2101.5,344.6c0-6.1-2.1-11.1-6.3-15c-4.2-3.9-10.6-5.9-19.3-5.9v-93.3c0-17.6-6.4-31.9-19.1-42.7
		c-9.6-8.3-22.2-12.4-37.6-12.4c-7.7,0-15.3,1.5-22.7,4.4c-7.4,2.9-14.7,7.4-21.9,13.3c-5.7-6-11.5-10.4-17.5-13.4
		c-6-3-12-4.5-18.1-4.5c-7.2,0-13.5,1.3-19,3.8c-5.5,2.5-11.6,7.1-18.4,13.7v-11.8h-39.7c-10,0-17.2,1.9-21.5,5.8
		c-4.3,3.9-6.4,8.8-6.4,14.9s2.1,11.1,6.3,15.1c4.2,3.9,10.7,5.9,19.5,5.9v101.3c-8.8,0-15.3,1.9-19.5,5.8
		c-4.2,3.9-6.3,8.8-6.3,14.9c0,6.2,2.1,11.3,6.4,15.2c4.3,3.9,11.4,5.8,21.5,5.8h37.6c10,0,17.2-1.9,21.5-5.8
		c4.3-3.9,6.4-8.8,6.4-14.9s-2.1-11.1-6.4-15c-4.3-3.9-10.7-5.9-19.4-5.9v-84c6.6-9.1,12.3-15.2,17.1-18.2c4.7-3.1,9.6-4.6,14.4-4.6
		c4.7,0,8.3,1.3,10.7,3.8c2.4,2.5,3.6,6.9,3.6,13.1v131.6h39.7c10,0,17.1-1.9,21.4-5.8c4.2-3.9,6.3-8.8,6.3-14.9s-2.1-11.1-6.3-15
		c-4.2-3.9-10.6-5.9-19.3-5.9v-84c7.2-9.4,13.3-15.7,18.3-19.1c3.9-2.4,8.2-3.7,12.8-3.7c4.7,0,8.3,1.2,10.6,3.7
		c2.3,2.4,3.5,6.8,3.5,13.2v131.6h39.7c10,0,17.1-1.9,21.4-5.8C2099.4,355.7,2101.5,350.7,2101.5,344.6z"/>
	<path class="st0" d="M2226.6,175.2c-11,0-21.7,1.6-32.1,4.9c-10.4,3.3-20.5,8.2-30.3,14.8v-14.2h-48.8c-10,0-17.2,1.9-21.5,5.8
		c-4.3,3.9-6.4,8.8-6.4,14.9c0,6.2,2.1,11.3,6.4,15.2c4.3,3.9,11.4,5.8,21.5,5.8h7.1v188.3h-7.1c-9.9,0-17,1.9-21.4,5.8
		c-4.3,3.9-6.5,8.9-6.5,15.1c0,6.1,2.1,11.1,6.4,14.9c4.3,3.9,11.4,5.8,21.5,5.8h73.8c10,0,17.2-1.9,21.5-5.8
		c4.3-3.9,6.4-8.8,6.4-14.9c0-6.2-2.1-11.3-6.4-15.1c-4.3-3.9-11.4-5.8-21.5-5.8h-25v-68.3c10.3,6.2,20.7,10.9,31.1,14
		c10.4,3.1,21,4.7,31.7,4.7c24.8,0,47.1-7.5,66.9-22.4c23.7-17.9,35.6-40.6,35.6-68.1c0-24.9-10-47.1-30.1-66.4
		C2279.3,184.9,2255.1,175.2,2226.6,175.2z M2270.1,303.7c-11.8,10.4-26.5,15.7-44.1,15.7c-17.5,0-32.2-5.3-44-15.8
		c-11.9-10.5-17.8-21.3-17.8-32.4c0-9.9,4.1-20.2,12.4-30.9c12.2-15.6,28.7-23.4,49.4-23.4c12.9,0,24.1,3,33.7,9.1
		c9.6,6,16.6,13.6,21.3,22.6c4.6,9,6.9,16.4,6.9,22.3C2287.8,282.3,2281.9,293.3,2270.1,303.7z"/>
	<path class="st0" d="M2566.4,190.2c-12.7-10-25.9-15-39.5-15c-8.8,0-18.3,2.1-28.4,6.3c-10.1,4.2-23.9,12.6-41.4,25.2v-26h-56.7
		c-10,0-17.2,1.9-21.5,5.8c-4.3,3.9-6.4,8.8-6.4,14.9c0,6.2,2.1,11.3,6.4,15.2c4.3,3.9,11.4,5.8,21.5,5.8h15.1v101.3h-24.8
		c-10,0-17.2,1.9-21.5,5.8c-4.3,3.9-6.4,8.8-6.4,14.9c0,6.2,2.1,11.3,6.4,15.2s11.4,5.8,21.5,5.8h125.9c10,0,17.2-1.9,21.5-5.8
		s6.4-8.8,6.4-14.9c0-6.2-2.1-11.3-6.4-15.1c-4.3-3.9-11.4-5.8-21.5-5.8h-59.4v-62.8c17.4-14.6,31.8-25.6,43.4-32.9
		c11.6-7.3,20.3-11,26.1-11c4.5,0,9.6,2.6,15.3,7.7s11.1,7.7,16.3,7.7c5.8,0,10.8-2.1,14.9-6.2c4.1-4.1,6.2-9.2,6.2-15.2
		C2579.4,203.9,2575.1,197,2566.4,190.2z"/>
	<path class="st0" d="M2800.9,316.3c-4.1,0-11.4,1.4-22,4.1c-25.6,6.6-46.2,10-61.6,10c-18.8,0-33.8-3.3-44.8-10
		c-11.1-6.6-18.7-15.4-23.1-26.2h171v-17.7c0-13.6-2.2-25.5-6.5-35.8c-6.4-14.8-14.4-27.2-24.2-37.2c-6.9-6.9-17.5-13.3-31.6-19.3
		c-14.2-6-29.7-9-46.7-9c-28.2,0-53.1,9.2-74.7,27.6c-21.6,18.4-32.4,42.2-32.4,71.5c0,27.5,10,50.7,30,69.6
		c20,18.8,46.7,28.3,80,28.3c19.4,0,39.6-2.3,60.6-6.8c21-4.5,34.2-9.3,39.7-14.3c4.1-3.8,6.1-8.4,6.1-13.8c0-6-1.9-10.9-5.7-14.8
		C2811.1,318.3,2806.5,316.3,2800.9,316.3z M2675.8,225.7c10.3-5.9,22.5-8.8,36.6-8.8c14.2,0,26.5,3,36.8,8.8
		c10.3,5.9,18.6,14.8,25,26.7h-123.7C2657.1,240.5,2665.5,231.6,2675.8,225.7z"/>
	<path class="st0" d="M3074.2,326.7c-3.3-2-10.2-3.1-20.7-3.1v-78.3c0-16-3.7-29.3-11.1-39.8c-7.4-10.5-16.7-18.2-28-23.1
		c-11.3-4.9-24.1-7.3-38.4-7.3c-9.1,0-18.1,1.3-26.9,3.8c-8.9,2.5-17.7,6.3-26.3,11.5v-88.9h-48.8c-10,0-17.2,1.9-21.5,5.8
		c-4.3,3.9-6.4,8.8-6.4,14.9c0,6.2,2.1,11.3,6.4,15.2c4.3,3.9,11.4,5.8,21.5,5.8h7.1v180.4c-10.6-0.1-17.5,0.9-20.7,3.1
		c-6.6,4.2-10,10.1-10,17.7c0,6.2,2.1,11.3,6.4,15.2c4.3,3.9,11.4,5.8,21.5,5.8h47.4c10,0,17.2-1.9,21.5-5.8
		c4.3-3.9,6.4-8.8,6.4-14.9c0-7.7-3.3-13.7-10-17.9c-3.1-2-10-3.1-20.7-3.1v-78.1c12.1-11.9,21.7-19.7,28.8-23.3
		c7.1-3.6,15.3-5.4,24.5-5.4c12.5,0,21.9,2.9,28.3,8.7c4.9,4.3,7.3,11.9,7.3,22.6v75.5c-10.4-0.1-17.4,0.9-20.7,3.1
		c-6.5,4.2-9.8,10.1-9.8,17.7c0,6.2,2.1,11.3,6.4,15.2c4.3,3.9,11.4,5.8,21.3,5.8h47.6c10,0,17.1-1.9,21.4-5.8
		c4.2-3.9,6.3-8.8,6.3-14.9C3084,336.9,3080.7,330.9,3074.2,326.7z"/>
	<path class="st0" d="M55.3,171.8C55.3,171.8,55.3,171.8,55.3,171.8C55.3,171.8,55.3,171.8,55.3,171.8z"/>
	<g>
		<path class="st0" d="M88.1,26.9c3.3,14.3,6.6,26.3,6.4,35.1c21.5,13.6,44.2,18.5,53.2,9.1c6.6-6.8,8-18.7,3.7-33.1
			c-10.8,5-27.3,1.6-41.2-9.4c-4-3.2-7.4-6.8-10.2-10.5l0,0c0.2-3-0.6-6.3-2.6-9.2C93.4,3,86.2,1,81.3,4.3
			c-4.9,3.4-5.5,10.9-1.5,16.7C82,24.1,85,26.2,88.1,26.9z"/>
		<path class="st0" d="M32.2,65.9c2.2,3.7,4.1,7.7,5.6,12.2c5.7,17.3,2.7,34.5-6.4,42.6c11.8,8.8,22.7,12.5,30.2,9.2
			C74,124.4,75,99.3,70.1,74.5c-7.8-3.5-16.9-10-27.3-17.2c0.3-3.1-0.6-6.5-2.6-9.5c-4.1-5.9-11.2-7.9-16-4.6S18.8,54,22.8,59.9
			C25.3,63.3,28.8,65.5,32.2,65.9z"/>
		<g>
			<path class="st0" d="M197.1,85.5l-3.4-4.9c7.1,10.3-17.9,39.9-55.8,66.2c-37.9,26.3-74.5,39.3-81.6,29c0.3,0.4,3.4,4.9,3.4,4.9
				c7.7,11.1,44.6-1.3,82.6-27.6C180.3,126.9,204.8,96.6,197.1,85.5z"/>
			<path class="st0" d="M187.9,71.6c1.7-1.2,1.9-9.8-2.9-16.8c-4.9-7-11-11.2-14.7-8.7c-1.4,1,0.2,10.1,4.3,15.8
				C179.2,68.6,184.2,74.1,187.9,71.6z"/>
			<path class="st0" d="M135.8,142.4c36.2-25.1,60.1-53.9,54.3-65.4l-0.9-1.2l-0.4-0.6c0,0,0,0,0,0c-4,2.8-9.6-3.3-14.7-10.6
				c-4.5-6.4-6.3-16.5-4.8-17.5c0,0,0,0,0.1,0l-19.6-28.3c1.1-3,0.1-7.7-2.8-12c-3.9-5.6-9.6-8.3-12.8-6.1
				c-3.2,2.2-2.7,8.5,1.2,14.1c3.2,4.6,7.6,7.2,10.8,6.8c12.9,22.9,15.4,44.3,6.1,53.9c-10.8,11.1-40.6,2.2-64.9-17.5
				c1.1-4.1,0.5-8.6-2.1-12.3c-4.7-6.8-14-8.4-20.7-3.8c-6.8,4.7-8.4,14-3.8,20.7c2.5,3.6,6.2,5.7,10.2,6.3c9.6,29.4,8,59.6-6,65.7
				c-12.2,5.3-29.6-5.6-47.2-24.2c1.3-3,0.3-7.8-2.7-12.2C11,92.7,5.3,90,2.1,92.2c-3.2,2.2-2.7,8.5,1.2,14.1c3.7,5.3,9,8,12.3,6.4
				L34.4,140c-0.5-0.1-0.9-0.1-1.1,0.1c-3.8,2.7-2,10.3,3.1,17.8c5.2,7.4,13.7,10.4,15.6,9.2c3.8-2.7,0.2-9.7-4.6-16.8
				c-3.2-4.8-9-8.8-12.1-10c0,0,0,0,0,0c1.5-1.1,11,3.7,15.3,10.2c5,7.4,8.2,15.2,4.2,17.9c-0.2,0.1-0.4,0.2-0.6,0.2l0.4,0.5l1,1.1
				C64.3,179.6,99.6,167.5,135.8,142.4z M154.6,83c4.1-3.3,10.4-2.3,14.1,2.2c3.6,4.5,3.2,10.9-0.9,14.2c-4.1,3.3-10.4,2.3-14.1-2.2
				C150.1,92.7,150.5,86.3,154.6,83z M109.5,110.5c-4.1,4.3-4.8,10.8-1.4,15.7c3.9,5.6,11.7,6.9,17.5,2.9c5.8-4,7.3-11.8,3.4-17.4
				c-3.9-5.6-11.7-6.9-17.5-2.9c-0.7,0.5-1.3,1-1.9,1.6c0.6-0.6,1.3-1.2,2.1-1.8c7.4-5.2,18.1-2.7,23.7,5.4c5.7,8.2,4.2,19-3.2,24.1
				c-7.4,5.2-18.1,2.7-23.7-5.4C103.4,125.4,104.1,116.1,109.5,110.5z M69.9,142.2c4.1-3.3,10.4-2.3,14.1,2.2
				c3.6,4.5,3.2,10.9-0.9,14.2c-4.1,3.3-10.4,2.3-14.1-2.2C65.3,151.9,65.7,145.5,69.9,142.2z"/>
		</g>
	</g>
	<path class="st0" d="M336.9,329.5c-4.3-3.9-11.4-5.8-21.3-5.8h-11.2c-9.5-24.3-20.4-44.6-32.6-61c-12.3-16.4-25.4-28.6-39.4-36.6
		l74.8-65.5c9.1,0,15.8-2,20-5.9c4.3-3.9,6.4-9,6.4-15.1c0-6.2-2.1-11.2-6.4-15c-4.3-3.8-11.4-5.7-21.5-5.7l-42.5-0.2
		c-10,0-17.2,2-21.5,5.9c-4.3,3.9-6.4,9.1-6.4,15.5c0,3.9,0.8,7.3,2.4,10c1.6,2.7,4.6,5.6,8.9,8.7l-74,63.7v-61.8h15
		c10,0,17.2-1.9,21.5-5.8c4.3-3.9,6.4-8.9,6.4-15.2c0-6.2-2.1-11.2-6.4-15c-3.9-3.5-10.3-5.4-19.2-5.7c-10,11.7-24.8,24.9-42.6,37.3
		c-5.5,3.8-11,7.3-16.4,10.5v157h-6.5c-9.9,0-17,1.9-21.4,5.8c-4.3,3.9-6.5,8.8-6.5,14.9c0,6.2,2.1,11.3,6.4,15.2
		c4.3,3.9,11.4,5.8,21.5,5.8H188c10,0,17.2-1.9,21.5-5.8c4.3-3.9,6.4-8.8,6.4-14.9c0-6.2-2.1-11.3-6.4-15.1
		c-4.3-3.9-11.4-5.8-21.5-5.8h-15v-46.2l25.6-21.8c10.4,4.2,19.4,9.8,26.9,16.8c7.5,7,15.5,18.1,23.9,33.5
		c10.3,18.8,19.8,38.6,28.5,59.4h37.8c10,0,17.1-1.9,21.4-5.8c4.2-3.9,6.3-8.8,6.3-14.9C343.3,338.4,341.2,333.3,336.9,329.5z"/>
</g>
</svg>
