<?xml version="1.0" encoding="utf-8"?>
<!-- Generator: Adobe Illustrator 22.1.0, SVG Export Plug-In . SVG Version: 6.00 Build 0)  -->
<svg version="1.1" id="Layer_1" xmlns="http://www.w3.org/2000/svg" xmlns:xlink="http://www.w3.org/1999/xlink" x="0px" y="0px"
	 viewBox="0 0 343.2 231.2" style="enable-background:new 0 0 343.2 231.2;" xml:space="preserve">
<style type="text/css">
	.st0{fill-rule:evenodd;clip-rule:evenodd;fill:#FFFFFF;}
	.st1{fill:#FFFFFF;}
</style>
<g>
	<g>
		<g>
			<g>
				<path class="st0" d="M99.9,150.3c0,0,9.5,3.8,9.5,7.6c0,0-0.6,2.8-3.8,2.8c-3.2,0-7.6-5.1-7.6-7.6
					C98,150.7,99.9,150.3,99.9,150.3z"/>
				<path class="st1" d="M89.9,103.7c0-0.2-0.2-0.4-0.3-0.4c-0.2-0.1-0.4-0.1-0.6,0c-1.8,0.8-4.9,3-4.9,7.6
					c0,17,45.8,18.9,70.5,49.2c2.7,3.3,6.8,5.2,11.1,5.1c5.6-0.1,11.2-0.4,16.2-1.2c0.6-0.1,1.1-0.5,1.3-1c0.2-0.5,0.2-1.2-0.2-1.7
					C152.8,118.4,95.4,128.3,89.9,103.7z"/>
				<g>
					<path class="st1" d="M155.5,50.6c-2.9-2.9-11.3-0.7-15.7,3.1c-4.6,3.9-2.8,6.5-2.8,6.5c3.7-5.3,9.6-7.4,12.9-7.8
						C153.9,51.8,155.5,50.6,155.5,50.6z"/>
					<path class="st1" d="M262.6,47.3c-1.8-3.6-4.5-6.5-9.8-7.8c-5.1-1.3-9.6-0.6-12.7,2.1l-10.2-3.5c-1.2-2.5-2.1-4.8-2.8-6.8
						c-0.6-1.7-1.7-3.1-3.3-3.9c-6.7-3.8-24.8-12.9-31.9-3.6c0,0-0.4,0.4-0.9,1.2l-2.2-0.7c-1.1-4-4.9-7-10.1-8.3
						c-3.2-0.8-6.3-0.6-8.9,0.4c-1.9,0.7-2,2.9-0.1,3.6l8.2,2.9c1.9,0.6,2.8,2.7,2.2,4.5l0,0c-0.6,1.9-2.7,2.8-4.5,2.2
						c0,0-5.2-1.5-8.9-2.6c-1.9-0.6-3.7,1.2-3.1,3.1c1.2,3.9,5,7.4,10.2,8.6c4.4,1.1,8.6,0.3,11.6-1.7l1.9,0.7
						c0.1,4.4,3.6,9.8,6.8,11.7c4.9,2.9,9.4,0.3,14.6-2.2c0,0,12.8,10.3,6.9,39.3c-16.4,1.7-22.4,7.6-28.3,13.6
						c-3.7-1.5-15-2.2-21-0.8c1.7-1.7,4.5-3.7,8-5.1c1.6-0.6,2.6-2.1,2.6-3.8c0,0,7.5-2.4,7.5-5.2c0-2.8-9.3-2.5-13.1-22.3
						c-0.6-2.3-1.3-4.2-4.9-5.9c0,0-1-2.1,0.4-4.4c1.4-2.3,2.5-3.3,2.1-5.1c-0.4-1.8-3-3.3-3-3.3v-3c0,0-7.6-5.5-7.6-13.5
						c0-7.9,10.3-17.5,13.1-20.2c0.2-0.2,0.2-0.4,0.2-0.6c0-0.2-0.2-0.4-0.4-0.5C167.5,4,160.3,0,149.3,0
						c-43.7,0-53.9,39.2-63.2,58.2c-0.2,0.4-0.2,0.9,0,1.3c9.3,18.6,24.4,17.1,25.3,32.7c0.7,12.5-2.3,12.8-5.2,12.5
						c-1.9-0.2-4.7-1.9-6.4-3c-0.2-0.2-0.5-0.2-0.8,0s-0.3,0.5-0.2,0.7c1.1,3.4,4.5,10.4,14.1,10.4c4.9,0,6.5-4.4,6.5-8.5
						c0-3,0-10.4,0-14.1c0-1.4-0.5-2.7-1.5-3.6c-3.3-2.9-10.4-9.7-10.4-15.8c0-2.6,1.7-4,3.8-4c3.8,0,7.5,5.7,10.3,12.9
						c0.7,1.7,1.6,2.9,2.5,3.4c0.1,0.1,0.3,0.1,0.4,0c0.1-0.1,0.2-0.3,0.1-0.4c-1.2-4.2-1.6-8.5-1.7-10.7c0-0.8-0.4-1.6-1.1-2.2
						c-2.8-2.4-10.4-10-10.4-21.2c0-15.2,24.2-13.9,29.1-13.5c1.5,5.1,4.5,7.3,6.5,8.2c-7.3,2.7-23.9,8.1-23.9,17.5
						c0,10,16.6,9.3,16.6,9.3s-2.6,20,16,26.1c0,0-2.9,2.9-12.9,2.9c-9.4,0-13.9-4.2-16.1-9.1c-0.1-0.2-0.3-0.3-0.5-0.3
						c-0.2,0-0.4,0.1-0.5,0.4c-0.5,1.3-0.9,3.6,0.9,6.5c2.7,4.5,6.3,7.1,6.3,12.8c0,4.2-3.8,6.9-5.3,7.8c-0.1,0.1-0.2,0.2-0.1,0.3
						c0,0.1,0.1,0.2,0.2,0.2c3.7,0.9,20.4,5.1,31.7,10.4c0.1,0,0.2,0,0.3,0c1.3-0.8,11-7.2,11.6-15.5c0,0,0.7-5.5-7.5-6.5
						c0,0,3.5-1.4,10-1.4c6.4,0,13.4,5.2,0.8,31c-0.1,0.1,0,0.3,0.1,0.4c1.9,1.2,16.2,10.3,25.4,19.2c0.2,0.2,0.5,0.3,0.8,0.3
						c0.3,0,0.6-0.2,0.7-0.4c1.2-1.6,3.5-5.8,5.1-16.1c0.2-0.9,0.8-1.7,1.8-2c5.5-1.6,24.2-7.6,32.3-18.9c9.6-13.3,13-14.7,13-14.7
						s6.3-3.5,3.6-12.9c-1.4-4.9-8.7-17.7-16-30.8c1.7,1.2,3.7,2.1,5.9,2.7c4.4,1.1,8.7,0.4,11.8-1.5c0.7-0.4,1.1-1.2,1-2
						c-0.1-0.8-0.6-1.5-1.4-1.7l-8.1-2.9c-2-0.7-3-2.8-2.3-4.8l0,0c0.7-2,2.8-3,4.8-2.3l7.3,2.5c0.7,0.3,1.5,0.1,2.1-0.5
						C262.7,48.8,262.9,48,262.6,47.3z M177,37.3c-7,0-10-5.9-10-5.9s8,7.6,19.1,1.4C186,32.7,183.9,37.3,177,37.3z M168.7,67.1
						c0,0,2.7,12,8.3,16.3c0,0-0.2,1.2-2,1.2c-1.7,0-5-2.8-6.3-9.3C167.4,68.8,168.7,67.1,168.7,67.1z M146.6,30.2
						c-0.3,0-0.6-0.3-0.6-0.6c-1.2-8.8,2.7-19.6,2.7-19.6s-9.4,7.6-9,19.7c-8-0.2-19.7,0.7-26.6,6.6c-9.7,8.3-11.3,23.9-11.5,28
						c0,0.2-0.1,0.4-0.3,0.5c-0.2,0.1-0.4,0.1-0.6,0c-2.3-1.4-7.7-5.9-3.8-16.7c4.8-13.4,19.7-41.3,49.5-43.2c0,0,9.1-0.4,15.2,2.9
						c0.2,0.1,0.3,0.3,0.4,0.5c0,0.2-0.1,0.5-0.3,0.6c-2.6,2-10.5,9.1-13.3,20.9c-0.1,0.3-0.4,0.6-0.7,0.5
						C147.3,30.2,146.9,30.2,146.6,30.2z M144.1,65.1c-11.1,2-15.1-1.4-15.1-4.3c0-8.8,25.3-15.6,32.4-15.7c1.4,2.2-1.1,1.8-2.1,5.1
						c-1,3.3-3.6,4.3-7.2,4.8c-3.7,0.4-7.5,2.4-10,4.6c-2.3,2.1,0,3,4.6,1.7c4.5-1.3,5,0.6,6.9,0c1.8-0.7,0.2-2.9,1-3.3
						c1.2-0.6,3.6,1.1,3.6,1.1l6.4,4.1c0,0-7.2,3.7-7.7,3.9c-0.5,0.3-1.4,0.8-1.4,1.7c0,1.6,4,1,5.4,1c1.4,0,1.6,2.2,1.6,2.2
						c-2.1,2.4-7.5,2.4-7.5,2.4c1.2,2.6,8.1,2.2,9.5,2.2c1.4,0,1.5,2,2.2,5.2c0.7,3.2,5.1,4.5,5.1,4.5c1.4,4.7-4.2,6.1-8,6.1
						C141.8,92.4,144.1,65.1,144.1,65.1z M221.3,41.5l15.7,4.8c0,0,2.9,5.4-2.9,3.8c-5.8-1.6-11.5-3.3-11.5-3.3
						S219.5,45.1,221.3,41.5z M206.7,42.1c-3.5-0.4-1-6.1-3.5-6.4c-1-0.1-1.2,6.4-2.4,5.4c-2.3-2-0.6-6.1-0.4-8
						c0.2-1.9,1.2-4.3-0.9-2.8c-2.1,1.4-3.1,4.4-3.8,7c-0.7,2.6,0.7,3.8,1.7,6.8c1,3-0.8,2-0.8,2c-9.5-5.7-2.7-17.8-2.7-17.8
						c4.1-7.1,10.3-5,10.3-5c1.2,0.4,1.5,1.1,1.5,2.6c0,1.5,0.4,2,2.2,2.4c1.8,0.4,2.6,2.6,2.6,6.1
						C210.5,38.1,208.2,42.3,206.7,42.1z M214.5,42.1c0,0-2.4-0.5-1.6-4.1c0.4-1.2,0.7-1.2,0.7-3.1c0-1.9,0.5-4,2-4.7
						c0,0,2.5,0,2.5,6.6C218,39.9,214.5,42.1,214.5,42.1z M214.5,101.1c0,0-6.2,11.8-14.7,11.8c-3.5,0-5.9-2.5-5.9-5.9
						c0-3.4,4.2-15.7,22.4-15.7c4.4,0,7.8,0.8,7.8,3.4S219.9,101.9,214.5,101.1z M247,87.9c0,0-0.9,6.9-9.5,6.9
						c-8.6,0-16-12.1-19-39.9c2.1,3.3,4.3,6.5,5.9,10.2c0-3.9,1.8-10.4-6.9-17.1c0,0,23.1,4.8,23.6,28.5c0,4.1-2.4,8.3-3.9,9.8
						c0,0-1.1,0.9-0.4,2.2c0.6,1.3,2.3,1,4.4-0.5C243.3,86.7,247,84.2,247,87.9z M249.1,59.4c0,0-5.9,1.5-12.1-4.9
						c0,0,2.4,0.3,3-3.2C240,51.3,243.4,58.2,249.1,59.4z"/>
					<path class="st1" d="M152.2,70.5c0,0-3.2,0.9-2.4,5.3c0.9,4.5,4.5,4.6,4.5,4.6C151.2,76.8,152.2,70.5,152.2,70.5z"/>
				</g>
				<path class="st0" d="M98.1,132.6c11.2,6.3,35.9,13.7,41.1,27c0,0,1.8,2.9-8,2.9c-7.4,0-9.4-1.8-14.6-7.9c-7.7-8.9-23-14.1-23-21
					C93.5,133.7,93.6,130.1,98.1,132.6z"/>
			</g>
		</g>
	</g>
	<g>
		<path class="st1" d="M25.5,198.1c-2.1-1.7-4.7-2.8-7.4-2.8c-2.1,0-4.8,1.2-4.8,3.6c0,2.5,3,3.5,5,4.1l2.8,0.9
			c6,1.8,10.6,4.8,10.6,11.7c0,4.3-1,8.7-4.4,11.6c-3.4,2.8-7.9,4-12.2,4c-5.4,0-10.7-1.8-15.1-4.9l4.8-9c2.8,2.5,6.1,4.4,9.9,4.4
			c2.6,0,5.4-1.3,5.4-4.3c0-3.1-4.4-4.2-6.8-4.9c-7-2-11.6-3.8-11.6-12.1c0-8.7,6.2-14.4,14.8-14.4c4.3,0,9.6,1.4,13.4,3.5
			L25.5,198.1z"/>
		<path class="st1" d="M66,217H44.2c0,4.2,2.2,6.5,6.5,6.5c2.2,0,3.8-0.7,5-2.6h10C64,228.1,57.4,231,50.8,231
			c-9.7,0-16.9-5.5-16.9-15.5c0-9.7,6.6-15.6,16.2-15.6c10.1,0,16,6.3,16,16.2V217z M56.4,211.2c-0.5-2.9-3.1-4.6-5.9-4.6
			c-3,0-5.5,1.7-6.2,4.6H56.4z"/>
		<path class="st1" d="M78.7,206h0.2c2-4.2,5.4-5.5,9.5-5.5h2v9.9c-1.6-0.8-2.9-1-4.5-1c-5.8,0-7.2,3.8-7.2,8.8V230H68.6v-29.3h10.1
			V206z"/>
		<path class="st1" d="M107.1,215.8l7-15h11.6L110.5,230h-6.6l-15.3-29.3h11.6L107.1,215.8z"/>
		<path class="st1" d="M137.9,189.6c0,3.2-2.6,5.8-5.8,5.8c-3.2,0-5.8-2.6-5.8-5.8c0-3.2,2.6-5.8,5.8-5.8
			C135.2,183.8,137.9,186.4,137.9,189.6z M137.5,230h-10.7v-29.3h10.7V230z"/>
		<path class="st1" d="M163.9,210.3c-1.6-1.1-3.4-2.1-5.4-2.1c-4,0-7.2,3.1-7.2,7.1c0,4.2,3.1,7.2,7.3,7.2c1.8,0,3.6-0.7,5.2-2v8.8
			c-2.6,1.1-4.9,1.7-7.4,1.7c-8.7,0-15.9-6.4-15.9-15.3c0-9.4,7.2-15.9,16.4-15.9c2.4,0,4.9,0.6,6.9,1.7V210.3z"/>
		<path class="st1" d="M198.7,217h-21.7c0,4.2,2.2,6.5,6.5,6.5c2.2,0,3.8-0.7,5-2.6h10c-1.7,7.2-8.2,10.1-14.9,10.1
			c-9.7,0-16.9-5.5-16.9-15.5c0-9.7,6.6-15.6,16.1-15.6c10.1,0,16,6.3,16,16.2V217z M189.1,211.2c-0.5-2.9-3.1-4.6-5.9-4.6
			c-3,0-5.5,1.7-6.2,4.6H189.1z"/>
		<path class="st1" d="M219.2,230h-10.7v-33.5H199v-9.4h29.6v9.4h-9.4V230z"/>
		<path class="st1" d="M242,189.6c0,3.2-2.6,5.8-5.8,5.8c-3.2,0-5.8-2.6-5.8-5.8c0-3.2,2.6-5.8,5.8-5.8
			C239.4,183.8,242,186.4,242,189.6z M241.3,230h-10.4v-29.3h10.4V230z"/>
		<path class="st1" d="M258.2,230h-10.4v-20.8h-3.3v-8.5h3.3V192h10.4v8.8h5.9v8.5h-5.9V230z"/>
		<path class="st1" d="M297.9,230h-10.4v-3.3h-0.1c-1.8,2.9-5.4,4.2-8.8,4.2c-8.7,0-14.8-7.2-14.8-15.6c0-8.4,6-15.6,14.6-15.6
			c3.4,0,6.8,1.3,9,3.8v-2.9h10.4V230z M274.5,215.4c0,3.7,2.4,6.6,6.7,6.6c4.2,0,6.7-2.8,6.7-6.6c0-3.6-2.5-6.6-6.7-6.6
			C276.9,208.8,274.5,211.9,274.5,215.4z"/>
		<path class="st1" d="M311.5,204.7h0.2c2.4-3.6,5.3-4.8,9.3-4.8c7.9,0,11,4.9,11,12.1V230h-10.4v-14.2c0-2.8,0.5-7.7-4.7-7.7
			c-4.2,0-5.4,3.1-5.4,6.8V230h-10.4v-29.3h10.4V204.7z"/>
		<g>
			<path class="st1" d="M334.1,200.8c0-2.5,2-4.5,4.5-4.5c2.5,0,4.5,2,4.5,4.5c0,2.5-2,4.5-4.5,4.5
				C336.1,205.3,334.1,203.3,334.1,200.8z M334.8,200.8c0,2.1,1.7,3.8,3.8,3.8c2.1,0,3.8-1.7,3.8-3.8c0-2.1-1.7-3.8-3.8-3.8
				C336.6,197,334.8,198.6,334.8,200.8z M340.7,203.4h-0.8l-1.3-2.3h-1v2.3h-0.7v-5.2h2.1c0.9,0,1.7,0.3,1.7,1.4
				c0,1-0.7,1.4-1.4,1.4L340.7,203.4z M337.5,199.1v1.3h0.9c0.7,0,1.6,0.1,1.6-0.6c0-0.6-0.5-0.7-1.2-0.7H337.5z"/>
		</g>
	</g>
</g>
</svg>
