<?xml version="1.0" encoding="utf-8"?>
<!-- Generator: Adobe Illustrator 22.1.0, SVG Export Plug-In . SVG Version: 6.00 Build 0)  -->
<svg version="1.1" id="Layer_1" xmlns="http://www.w3.org/2000/svg" xmlns:xlink="http://www.w3.org/1999/xlink" x="0px" y="0px"
	 viewBox="0 0 267.8 230" style="enable-background:new 0 0 267.8 230;" xml:space="preserve">
<style type="text/css">
	.st0{fill:#FFFFFF;}
</style>
<g id="Canvas" transform="translate(-4490 -860)">
	<g id="Vineti_vertical">
		<g id="Logo_VN_circle">
			<g id="Shape">
				<g transform="translate(4561.7 860)">
					<path id="path0_fill" class="st0" d="M4690.7,911.7c-7.5-35.2-42.1-57.7-77.3-50.2c-35.2,7.5-57.8,42.1-50.3,77.3
						c7.5,35.2,42.1,57.7,77.3,50.2C4675.7,981.5,4698.1,946.9,4690.7,911.7z M4614.4,866.4c20.5-4.3,40.9,2.4,54.8,16.1
						c-0.3,0.1-0.5,0.2-0.8,0.3c-1.2,0.7-2,1.7-2.3,2.9c-16.9,3.7-31.3,13.1-41.8,26.1c-15.1-7.8-32.2-10.6-49.5-7.2
						c-1.1-1-2.4-1.4-3.8-1.3C4578,885.1,4593.8,870.7,4614.4,866.4z M4568,937.7c-1.8-8.7-1.6-17.5,0.2-25.6
						c1.5,1.2,3.6,1.5,5.5,0.5c1.2-0.7,2-1.7,2.4-2.9c15.6-3.1,31.3-0.6,45,6.2c-12.4,17.2-18.4,39.6-15.6,62.9
						c-0.6,0.6-1,1.3-1.2,2.1C4586.4,973.6,4572.3,957.9,4568,937.7z M4639.3,984c-8.7,1.8-17.4,1.6-25.6-0.2c0.5-1.2,0.4-2.7-0.3-4
						c-0.8-1.3-2-2.2-3.4-2.4c-2.4-22,3.6-43.1,15.4-59.2c17.5,10.1,31.4,27.2,38,48.5c-1.1,1.5-1.2,3.5-0.3,5.3
						c0.1,0.2,0.3,0.5,0.5,0.7C4656.7,978,4648.5,982.1,4639.3,984z M4670.9,966c-0.9-0.8-1.9-1.2-3.1-1.3
						c-6.9-22.1-21.3-39.7-39.1-50.4c9.9-11.7,23.1-20.1,38.7-23.6c1.5,1.4,3.8,1.8,5.8,0.8c0.9-0.5,1.5-1.2,2-2
						c5,6.7,8.6,14.6,10.6,23.2C4689.9,932.6,4683.7,952.2,4670.9,966z"/>
				</g>
			</g>
			<g id="Oval">
				<g transform="translate(4610.14 880.611)">
					<path id="path1_fill" class="st0" d="M4619.4,899.2c5.1,0,9.3-4.2,9.3-9.3c0-5.1-4.2-9.3-9.3-9.3s-9.3,4.2-9.3,9.3
						C4610.1,895,4614.3,899.2,4619.4,899.2z"/>
				</g>
			</g>
		</g>
		<g id="ATAS">
			<g transform="translate(4490 1013.4)">
				<path id="path2_fill" class="st0" d="M4530,1088.7h-16.1l-23.8-70.9c0.8-0.3,1.9-0.5,3.4-0.7c1.5-0.2,3-0.3,4.5-0.3
					c2.5,0,4.6,0.6,6.3,1.9c1.6,1.3,2.9,3.2,3.7,5.9l14.5,48.2l14.8-48.5c0.8-2.6,2-4.5,3.6-5.7c1.6-1.2,3.6-1.8,6.1-1.8
					c2,0,4.5,0.4,7.2,1.1L4530,1088.7z"/>
			</g>
			<g transform="translate(4490 1013.4)">
				<path id="path3_fill" class="st0" d="M4576,1088.8c-0.5,0.3-2.2,0.4-5.1,0.4c-3.3,0-5.7-0.7-7.2-2.1c-1.4-1.4-2.1-3.6-2.1-6.7
					v-42.4c0.2-0.1,0.8-0.1,1.9-0.2c1.1-0.1,2-0.2,3-0.2c6.4,0,9.5,2.8,9.5,8.4V1088.8z M4576.1,1021.1c0,2.2-0.7,4-2.2,5.5
					c-1.5,1.4-3.3,2.1-5.5,2.1c-2.3,0-4.1-0.7-5.6-2.1c-1.4-1.5-2.1-3.3-2.1-5.5s0.7-4,2.1-5.5c1.5-1.5,3.4-2.2,5.6-2.2
					c2.2,0,4,0.7,5.5,2.2C4575.3,1017.1,4576.1,1018.9,4576.1,1021.1z"/>
			</g>
			<g transform="translate(4490 1013.4)">
				<path id="path4_fill" class="st0" d="M4604,1088.2h-14.5v-50.1l1.3-0.2c1.1-0.1,2.3-0.2,3.5-0.2c5.2,0,8.2,1.8,9,5.5
					c3.3-4.4,8.4-6.6,15.6-6.6c4.5,0,8.1,0.9,10.7,2.6c2.6,1.8,4.3,4.5,5.1,8.2c0.6,2.5,0.8,6.1,0.8,10.9v29.9h-14.4V1059
					c0-3.3-0.2-5.7-0.7-7c-0.4-1.3-1.2-2.3-2.3-2.9c-1.1-0.6-2.5-1-4.5-1c-2.7,0-4.9,0.6-6.8,1.7c-1.8,1.1-2.8,2.4-2.8,4V1088.2z"/>
			</g>
			<g transform="translate(4490 1013.4)">
				<path id="path5_fill" class="st0" d="M4675.1,1079.2c2.3,0,4.3-0.3,5.9-1c1.7-0.6,3.1-1.4,4.2-2.2c1.1-0.9,2.1-1.8,3-2.5
					c1.1,1.3,2,2.8,2.8,4.4c0.8,1.6,1.3,2.8,1.3,3.7c0,1.6-0.9,3-2.6,4.2c-1.7,1.3-4,2.3-6.8,3c-2.8,0.8-5.9,1.2-9.1,1.2
					c-8.6,0-15.3-2.4-19.9-7.1c-4.6-4.7-6.9-11.6-6.9-20.7c0-5.4,1-10,3.1-13.8c2.1-3.8,5-6.7,8.7-8.8c3.7-2,7.9-3.1,12.5-3.1
					c6.9,0,12.3,2,16,6c3.8,4,5.7,9.4,5.7,16.4c0,3.4-0.1,5.6-0.3,6.6h-31.2c0.3,4.4,1.6,7.7,3.9,10.1
					C4667.7,1078,4670.9,1079.2,4675.1,1079.2z M4679.9,1057.7c0-7.6-3-11.4-9-11.4c-3,0-5.3,1-7,3.1c-1.7,2-2.5,4.8-2.5,8.4H4679.9
					z"/>
			</g>
			<g transform="translate(4490 1013.4)">
				<path id="path6_fill" class="st0" d="M4704.2,1080.6c-0.8-2.3-1.2-5.4-1.2-9.1v-49.2l1.6-0.2c1.3-0.1,2.4-0.2,3.3-0.2
					c6.4,0,9.5,2.8,9.5,8.5v7.4h14.8v10.8h-14.8v22.7c0,4.9,2,7.4,6,7.4c1.4,0,2.9-0.4,4.3-1.1c1.5-0.7,2.8-1.6,3.8-2.6
					c1.3,1.8,2.1,3.3,2.5,4.3c0.5,1.1,0.7,2,0.7,2.9c0,1.3-0.7,2.6-2.2,3.8c-1.5,1.2-3.4,2.1-5.7,2.8c-2.3,0.7-4.7,1.1-7.4,1.1
					C4711.6,1089.8,4706.5,1086.7,4704.2,1080.6z"/>
			</g>
			<g transform="translate(4490 1013.4)">
				<path id="path7_fill" class="st0" d="M4757.7,1088.8c-0.5,0.3-2.2,0.4-5.1,0.4c-3.3,0-5.7-0.7-7.2-2.1c-1.4-1.4-2.1-3.6-2.1-6.7
					v-42.4c0.2-0.1,0.8-0.1,1.9-0.2c1.1-0.1,2-0.2,3-0.2c6.4,0,9.5,2.8,9.5,8.4V1088.8z M4757.8,1021.1c0,2.2-0.7,4-2.2,5.5
					c-1.5,1.4-3.3,2.1-5.5,2.1c-2.3,0-4.1-0.7-5.6-2.1c-1.4-1.5-2.1-3.3-2.1-5.5s0.7-4,2.1-5.5c1.5-1.5,3.4-2.2,5.6-2.2
					c2.2,0,4,0.7,5.5,2.2C4757.1,1017.1,4757.8,1018.9,4757.8,1021.1z"/>
			</g>
		</g>
	</g>
</g>
</svg>
