<?xml version="1.0" encoding="utf-8"?>
<!-- Generator: Adobe Illustrator 22.1.0, SVG Export Plug-In . SVG Version: 6.00 Build 0)  -->
<svg version="1.1" id="Layer_1" xmlns="http://www.w3.org/2000/svg" xmlns:xlink="http://www.w3.org/1999/xlink" x="0px" y="0px"
	 viewBox="0 0 257 39.1" style="enable-background:new 0 0 257 39.1;" xml:space="preserve">
<style type="text/css">
	.st0{fill:#FFFFFF;}
</style>
<g>
	<path class="st0" d="M110.4,36.3L99.2,4.9c-0.1-0.4-0.4-1-0.4-1.5c0-1.4,1.1-2.6,2.8-2.6c1.4,0,2.4,0.9,2.8,2.3l9.3,27L123.1,3
		c0.4-1.3,1.3-2.2,2.7-2.2h0.3c1.5,0,2.4,0.9,2.9,2.2l9.3,27.1l9.5-27.1c0.4-1.1,1.1-2.1,2.7-2.1c1.6,0,2.7,1.2,2.7,2.6
		c0,0.5-0.2,1.1-0.4,1.5l-11.3,31.4c-0.6,1.6-1.7,2.5-3,2.5h-0.2c-1.4,0-2.5-0.9-3-2.5L126,9.7l-9.3,26.6c-0.5,1.6-1.6,2.5-3,2.5
		h-0.1C112.1,38.8,111,37.9,110.4,36.3"/>
	<path class="st0" d="M192.4,3.5c0-1.5,1.2-2.8,2.7-2.8c1.6,0,2.8,1.2,2.8,2.8v6.4c2.7-6.2,8.8-9.1,12.8-9.1c1.7,0,2.7,1.2,2.7,2.8
		c0,1.5-1,2.6-2.4,2.8c-7.2,0.9-13.1,6.2-13.1,17v12.6c0,1.5-1.1,2.8-2.7,2.8c-1.6,0-2.8-1.2-2.8-2.8V3.5"/>
	<path class="st0" d="M231.2,39.1c-10,0-18.2-7.8-18.2-19.1v-0.1c0-10.6,7.4-19.1,17.5-19.1c10.8,0,16.9,8.9,16.9,18.6
		c0,1.5-1.2,2.6-2.5,2.6h-26.3c0.8,8,6.3,12.4,12.8,12.4c4.5,0,7.8-1.8,10.5-4.3c0.4-0.4,0.9-0.6,1.5-0.6c1.3,0,2.4,1.1,2.4,2.3
		c0,0.6-0.3,1.3-0.8,1.8C241.5,36.9,237.4,39.1,231.2,39.1 M242,17.8c-0.6-6.7-4.4-12.5-11.6-12.5c-6.3,0-11.1,5.3-11.8,12.5H242z"
		/>
	<path class="st0" d="M153.2,27.6v-0.1c0-7.8,6.4-12,15.8-12c4.7,0,8.1,0.6,11.4,1.6v-1.3c0-6.7-4.1-10.1-11-10.1
		c-3.7,0-5.9,0.5-8.6,1.7c-0.4,0.1-0.7,0.2-1,0.2c-1.3,0-2.4-1.1-2.4-2.4c0-1.1,0.5-1.8,1.5-2.3c3.6-1.6,6.4-2.1,11.1-2.1
		c5.2,0,9.2,1.4,11.9,4.1c2.5,2.5,3.8,6.1,3.8,10.8v20.4c0,1.6-1.1,2.7-2.7,2.7c-1.6,0-2.6-1.1-2.6-2.6v-3.5
		c-2.6,3.4-6.9,6.4-13.4,6.4C160.2,39.1,153.2,35.2,153.2,27.6 M180.5,24.7v-3.6c-2.7-0.8-6.4-1.6-10.9-1.6c-6.9,0-10.8,3-10.8,7.7
		v0.1c0,4.7,4.3,7.4,9.3,7.4C174.9,34.7,180.5,30.6,180.5,24.7"/>
	<path class="st0" d="M10.1,3.1c-1.2-2.7-4.2-3.9-7-2.6c-2.8,1.2-3.8,4.4-2.6,7L12.3,33c1.8,4,3.8,6.1,7.5,6.1
		c3.9,0,5.6-2.3,7.5-6.1c0,0,10.2-22.3,10.4-22.5c0.1-0.2,0.4-1,1.5-1c0.9,0,1.6,0.7,1.6,1.7V33c0,3.4,1.9,6.1,5.5,6.1
		c3.6,0,5.5-2.8,5.5-6.1V15.2c0-3.4,2.5-5.7,5.8-5.7c3.4,0,5.6,2.3,5.6,5.7V33c0,3.4,1.9,6.1,5.5,6.1c3.6,0,5.5-2.8,5.5-6.1V15.2
		c0-3.4,2.5-5.7,5.8-5.7c3.4,0,5.6,2.3,5.6,5.7V33c0,3.4,1.9,6.1,5.5,6.1c3.6,0,5.5-2.8,5.5-6.1V12.7c0-7.5-6-12.7-13.2-12.7
		C76,0,71.5,5,71.5,5c-2.4-3.1-5.7-5-11.3-5c-5.9,0-11.1,5-11.1,5c-2.4-3.1-6.5-5-9.9-5c-5.2,0-9.4,2.3-11.9,8.1l-7.5,17.7L10.1,3.1
		"/>
	<path class="st0" d="M247.9,5.3L247.9,5.3c0-2.5,2-4.6,4.6-4.6c2.6,0,4.6,2.1,4.6,4.6v0c0,2.5-2,4.6-4.6,4.6
		C249.9,9.9,247.9,7.8,247.9,5.3 M256.1,5.3L256.1,5.3c0-2.1-1.6-3.8-3.7-3.8c-2.1,0-3.7,1.7-3.7,3.8v0c0,2.1,1.6,3.7,3.7,3.7
		C254.5,9.1,256.1,7.3,256.1,5.3"/>
	<path class="st0" d="M250.7,3.5c0-0.3,0.2-0.5,0.5-0.5h1.5c0.6,0,1,0.2,1.3,0.5c0.3,0.2,0.4,0.6,0.4,1v0c0,0.7-0.4,1.1-0.9,1.3
		l0.7,0.8c0.1,0.1,0.2,0.2,0.2,0.4c0,0.3-0.2,0.4-0.5,0.4c-0.2,0-0.4-0.1-0.5-0.3L252.4,6h-0.8v1c0,0.3-0.2,0.5-0.5,0.5
		c-0.3,0-0.5-0.2-0.5-0.5V3.5z M252.7,5.1c0.5,0,0.7-0.2,0.7-0.6v0c0-0.4-0.3-0.6-0.8-0.6h-1v1.3H252.7z"/>
</g>
</svg>
