<svg id="Layer_1" data-name="Layer 1" xmlns="http://www.w3.org/2000/svg" viewBox="0 0 196.3 25.72"><defs><style>.cls-1{fill:#fefefe;fill-rule:evenodd;}</style></defs><title>ameribank</title><path class="cls-1" d="M31.06,40.33,24.65,28.11a2.18,2.18,0,0,0-3.88,0L14.36,40.33a2.42,2.42,0,0,0-.3.85c0,.53.55.9,1.35.9a1.39,1.39,0,0,0,1.36-.76l5.94-11.9,5.94,11.9a1.4,1.4,0,0,0,1.37.76c.79,0,1.35-.37,1.35-.9a2.28,2.28,0,0,0-.31-.85m4.51,5.41A1.63,1.63,0,0,1,34,47.36H11.47a1.63,1.63,0,0,1-1.62-1.62V23.26a1.63,1.63,0,0,1,1.62-1.62H34a1.63,1.63,0,0,1,1.62,1.62Z" transform="translate(-9.85 -21.64)"/><path class="cls-1" d="M159.58,28.11l-6.41,12.21a2.42,2.42,0,0,0-.3.85c0,.53.55.9,1.35.9a1.38,1.38,0,0,0,1.36-.75l5.94-11.9,5.94,11.9a1.38,1.38,0,0,0,1.36.75c.8,0,1.35-.37,1.35-.9a2.42,2.42,0,0,0-.3-.85L163.46,28.1a2.18,2.18,0,0,0-3.88,0" transform="translate(-9.85 -21.64)"/><path class="cls-1" d="M185.3,28V38.32L175.14,27.89a2.26,2.26,0,0,0-1.88-1c-.87,0-1.3.39-1.3,1.21V41c0,.68.55,1.11,1.41,1.11s1.41-.43,1.41-1.11V30.65l10.16,10.42a2.26,2.26,0,0,0,1.89,1c.87,0,1.29-.39,1.29-1.21V28c0-.67-.55-1.1-1.41-1.1s-1.41.43-1.41,1.1" transform="translate(-9.85 -21.64)"/><path class="cls-1" d="M202.68,27.51l-8.55,5.58V28c0-.67-.55-1.1-1.41-1.1s-1.41.43-1.41,1.1V41c0,.68.56,1.11,1.41,1.11s1.41-.43,1.41-1.11V35.11l9.32,6.54a2.1,2.1,0,0,0,1.32.41c.76,0,1.38-.42,1.38-.94,0-.34-.16-.58-.58-.86l-9-6.2,8.22-5.29a1,1,0,0,0,.58-.94c0-.54-.5-.92-1.23-.92a2.59,2.59,0,0,0-1.46.6" transform="translate(-9.85 -21.64)"/><path class="cls-1" d="M50,28.11,43.58,40.32a2.28,2.28,0,0,0-.31.85c0,.53.56.9,1.35.9A1.39,1.39,0,0,0,46,41.32l5.94-11.9,5.94,11.9a1.38,1.38,0,0,0,1.36.75c.8,0,1.35-.37,1.35-.9a2.42,2.42,0,0,0-.3-.85L53.87,28.1a2.18,2.18,0,0,0-3.88,0" transform="translate(-9.85 -21.64)"/><path class="cls-1" d="M126.29,28.11l-6.42,12.21a2.42,2.42,0,0,0-.3.85c0,.53.56.9,1.35.9a1.4,1.4,0,0,0,1.37-.75l5.94-11.9c.18.38,5.94,11.9,5.94,11.9a1.37,1.37,0,0,0,1.36.75c.79,0,1.35-.37,1.35-.9a2.42,2.42,0,0,0-.3-.85L130.16,28.1a2.17,2.17,0,0,0-3.87,0" transform="translate(-9.85 -21.64)"/><path class="cls-1" d="M77.51,27.94s-3.63,8.9-4.27,10.45C73.05,37.9,69,27.94,69,27.94c-.31-.73-.9-1-2-1a2,2,0,0,0-2.12,1.48L62.09,40.14a4.07,4.07,0,0,0-.15.86c0,.66.5,1.06,1.32,1.06.58,0,1.35-.09,1.5-.9h0l2.31-11.39c.26.64,4.75,11.46,4.75,11.46a1.65,1.65,0,0,0,2.85,0s4-9.59,4.75-11.46l2.31,11.39c.15.8.92.89,1.49.89.83,0,1.32-.4,1.32-1.06a3.93,3.93,0,0,0-.14-.86L81.61,28.39a2,2,0,0,0-2.13-1.48c-1.07,0-1.66.3-2,1" transform="translate(-9.85 -21.64)"/><path class="cls-1" d="M88.4,27c-.94,0-1.5.42-1.5,1.13V40.81c0,.71.56,1.13,1.5,1.13h7.27c.87,0,1.38-.37,1.38-1s-.51-1-1.38-1h-6v-4.5h5.41c.86,0,1.38-.37,1.38-1s-.52-1-1.38-1H89.72V29h6c.87,0,1.38-.37,1.38-1s-.51-1-1.38-1Z" transform="translate(-9.85 -21.64)"/><path class="cls-1" d="M114.88,28V41c0,.68.55,1.11,1.41,1.11s1.41-.43,1.41-1.11V28c0-.67-.55-1.1-1.41-1.1s-1.41.43-1.41,1.1" transform="translate(-9.85 -21.64)"/><path class="cls-1" d="M112.21,40.29,106,35.42h.69c3.69-.1,5.72-1.63,5.72-4.29S109.15,27,106,27h-4.69c-.94,0-1.5.42-1.5,1.13V41c0,.68.56,1.11,1.41,1.11s1.41-.43,1.41-1.11V35.68l7.59,5.94a1.88,1.88,0,0,0,1.24.44c.72,0,1.29-.37,1.29-.84a1.1,1.1,0,0,0-.54-.93m-9.58-6.5V28.88h3.25c2.15,0,3.71,1,3.71,2.36,0,1.78-1.09,2.55-3.65,2.55Z" transform="translate(-9.85 -21.64)"/><path class="cls-1" d="M147.83,33.85a3.38,3.38,0,0,0,2.42-3.19c0-1.76-2-3.63-5.66-3.63h-4.46c-.94,0-1.5.42-1.5,1.13V40.81c0,.71.56,1.13,1.5,1.13H145c4.7,0,6.84-2.29,6.84-4.42,0-1.8-1.69-3.3-4-3.67m-6.38-5h2.82c2,0,3.16.77,3.16,2.11s-1.3,2.22-3.25,2.22h-2.73Zm3.42,11.21h-3.42V35H145c2.41,0,4,1,4,2.54S147.31,40.09,144.87,40.09Z" transform="translate(-9.85 -21.64)"/></svg>