<?xml version="1.0" encoding="utf-8"?>
<!-- Generator: Adobe Illustrator 22.1.0, SVG Export Plug-In . SVG Version: 6.00 Build 0)  -->
<svg version="1.1" id="Layer_1" xmlns="http://www.w3.org/2000/svg" xmlns:xlink="http://www.w3.org/1999/xlink" x="0px" y="0px"
	 viewBox="0 0 343.9 33.2" style="enable-background:new 0 0 343.9 33.2;" xml:space="preserve">
<style type="text/css">
	.st0{fill:#FFFFFF;}
</style>
<g>
	<path class="st0" d="M18.8,15.7c1-0.4,1.8-0.8,2.5-1.3s1.3-1,1.7-1.6s0.8-1.2,1-1.9s0.3-1.4,0.3-2.1c0-1.3-0.2-2.5-0.7-3.6
		s-1.2-2-2.2-2.8s-2.3-1.3-3.8-1.8C16,0.2,14.1,0,11.9,0H0v32.3h12.9c1.9,0,3.7-0.2,5.2-0.7s2.8-1.2,3.8-2.1s1.8-1.9,2.3-3.1
		c0.5-1.2,0.8-2.5,0.8-3.8c0-1.8-0.5-3.3-1.5-4.5C22.5,17,20.9,16.2,18.8,15.7z M7.5,5.7h4.4c0.8,0,1.6,0.1,2.2,0.2
		c0.6,0.1,1.1,0.4,1.5,0.7s0.7,0.7,0.9,1.2s0.3,1.2,0.3,1.9c0,0.8-0.1,1.4-0.4,2c-0.2,0.5-0.6,0.9-1.1,1.2s-1,0.5-1.7,0.6
		s-1.4,0.2-2.2,0.2H7.5V5.7z M17.4,24.1c-0.1,0.5-0.4,1-0.7,1.4c-0.4,0.4-0.8,0.7-1.5,1c-0.6,0.1-1.4,0.3-2.4,0.3H7.5v-8.1h5.2
		c0.9,0,1.7,0.1,2.4,0.3c0.6,0.2,1.1,0.4,1.5,0.8c0.4,0.3,0.6,0.7,0.8,1.2s0.2,1,0.2,1.6C17.6,23,17.6,23.5,17.4,24.1z"/>
	<polygon class="st0" points="29.4,32.4 50.2,32.4 50.2,26.6 36.9,26.6 36.9,18.9 47.1,18.9 47.1,13.4 36.9,13.4 36.9,5.9 50.2,5.9 
		50.2,0.1 29.4,0.1 	"/>
	<polygon class="st0" points="54.4,6 63.5,6 63.5,32.4 71,32.4 71,6 80.1,6 80.1,0.1 54.4,0.1 	"/>
	<path class="st0" d="M107.5,26.8c-0.2,0-0.3,0-0.4,0.1c-0.1,0-0.2,0.1-0.3,0.2c-0.6,0.6-1.2,1.1-1.8,1.5c-0.6,0.4-1.3,0.8-2,1
		c-0.7,0.3-1.5,0.5-2.4,0.6s-1.8,0.2-2.9,0.2c-1.7,0-3.4-0.3-4.8-0.9c-1.5-0.6-2.8-1.5-3.9-2.7s-1.9-2.6-2.6-4.3
		c-0.6-1.7-0.9-3.7-0.9-5.8s0.3-4,0.9-5.7s1.5-3.1,2.6-4.3s2.5-2.1,4-2.7c1.5-0.6,3.3-1,5.1-1c1,0,1.9,0.1,2.7,0.2
		c0.8,0.2,1.5,0.3,2.1,0.6c0.6,0.2,1.1,0.5,1.5,0.7c0.4,0.3,0.8,0.5,1.1,0.7c0.3,0.2,0.6,0.4,0.8,0.6c0.3,0.2,0.5,0.3,0.7,0.3
		c0.5,0,0.7-0.2,0.9-0.4l0.9-1.3l-0.2-0.2c-0.7-0.6-1.4-1.2-2.2-1.7s-1.6-0.9-2.4-1.2s-1.8-0.6-2.7-0.8c-1-0.2-2-0.3-3.2-0.3
		c-2.3,0-4.5,0.4-6.4,1.2s-3.6,1.9-5,3.4C85.3,6.2,84.2,8,83.5,10c-0.8,2-1.1,4.2-1.1,6.7s0.4,4.7,1.1,6.7s1.8,3.8,3.1,5.2
		c1.3,1.4,2.9,2.6,4.8,3.3c1.8,0.8,3.9,1.2,6.1,1.2c1.3,0,2.5-0.1,3.7-0.3c1.1-0.2,2.1-0.5,3.1-0.9c0.9-0.4,1.8-0.9,2.6-1.5
		s1.5-1.2,2.2-1.9l0.2-0.3l-1.1-1.2C108,26.9,107.8,26.8,107.5,26.8z"/>
	<path class="st0" d="M138.4,4.8c-1.3-1.4-3-2.6-4.9-3.3c-1.9-0.8-4-1.2-6.2-1.2c-2.2,0-4.3,0.4-6.2,1.2s-3.5,1.9-4.9,3.3
		c-1.3,1.4-2.4,3.2-3.2,5.2c-0.7,2-1.1,4.3-1.1,6.7c0,2.5,0.4,4.7,1.1,6.7c0.8,2,1.8,3.8,3.2,5.2c1.3,1.4,3,2.5,4.9,3.3
		s4,1.2,6.2,1.2c2.3,0,4.4-0.4,6.2-1.2c1.9-0.8,3.5-1.9,4.9-3.3c1.3-1.4,2.4-3.2,3.1-5.2c0.7-2,1.1-4.3,1.1-6.7s-0.4-4.7-1.1-6.7
		C140.8,8,139.7,6.2,138.4,4.8z M138.6,22.5c-0.6,1.7-1.4,3.1-2.5,4.3s-2.4,2.1-3.8,2.7c-1.5,0.6-3.2,0.9-5,0.9
		c-1.8,0-3.5-0.3-5-0.9s-2.8-1.5-3.9-2.7c-1.1-1.2-1.9-2.6-2.5-4.3s-0.9-3.6-0.9-5.8c0-2.1,0.3-4.1,0.9-5.8c0.6-1.7,1.4-3.1,2.5-4.3
		s2.4-2.1,3.9-2.7c1.5-0.6,3.2-0.9,5-0.9c1.8,0,3.5,0.3,5,0.9c1.5,0.6,2.8,1.5,3.8,2.7c1.1,1.2,1.9,2.6,2.5,4.3s0.9,3.6,0.9,5.8
		S139.2,20.8,138.6,22.5z"/>
	<path class="st0" d="M171.2,27.4L151.6,1.2c-0.2-0.2-0.3-0.4-0.5-0.5s-0.4-0.1-0.6-0.1H149v32.2h2.7V6l19.7,26.2
		c0.3,0.4,0.7,0.6,1.1,0.6h1.5V0.6h-2.7C171.2,0.6,171.2,27.4,171.2,27.4z"/>
	<path class="st0" d="M197,17.5c-0.8-0.6-1.6-1.1-2.6-1.5c-0.9-0.4-1.9-0.8-2.9-1.1s-2-0.7-2.9-1s-1.7-0.7-2.4-1.2s-1.3-1-1.7-1.7
		c-0.4-0.6-0.6-1.4-0.6-2.4c0-0.8,0.1-1.5,0.4-2.2c0.3-0.7,0.7-1.3,1.2-1.8s1.2-0.9,2.1-1.3c0.8-0.3,1.8-0.5,2.9-0.5
		c1.1,0,2,0.1,2.8,0.4c0.8,0.3,1.4,0.6,1.9,0.9c0.5,0.3,0.9,0.6,1.2,0.9c0.4,0.3,0.7,0.5,1,0.5c0.4,0,0.7-0.2,0.9-0.6l0.7-1.3
		l-0.2-0.2c-1.1-1.1-2.3-1.9-3.7-2.5c-1.3-0.5-2.9-0.8-4.5-0.8c-1.5,0-2.8,0.2-4,0.7s-2.2,1.1-3,1.9c-0.8,0.8-1.4,1.7-1.8,2.7
		c-0.4,1-0.6,2.1-0.6,3.2c0,1.4,0.2,2.6,0.7,3.5s1.1,1.7,1.9,2.4c0.8,0.6,1.6,1.1,2.6,1.5c0.9,0.4,1.9,0.7,2.9,1.1
		c1,0.3,2,0.6,2.9,0.9c0.9,0.3,1.7,0.7,2.4,1.2s1.3,1,1.7,1.7s0.6,1.5,0.6,2.5s-0.2,1.9-0.5,2.7s-0.8,1.6-1.5,2.2
		c-0.6,0.6-1.4,1.1-2.4,1.5c-0.9,0.4-2,0.5-3.2,0.5c-0.9,0-1.7-0.1-2.3-0.3c-0.7-0.2-1.3-0.4-1.8-0.6c-0.5-0.2-1-0.5-1.4-0.8
		s-0.8-0.6-1-0.8l-0.8-0.7c-0.3-0.2-0.5-0.4-0.8-0.4c-0.2,0-0.6,0.1-0.9,0.5l-0.8,1.2l0.2,0.2c1.2,1.3,2.5,2.3,4,3.1
		s3.4,1.1,5.5,1.1c1.6,0,3.1-0.3,4.4-0.8c1.3-0.5,2.4-1.2,3.3-2.1c0.9-0.9,1.6-2,2-3.2c0.5-1.2,0.7-2.5,0.7-3.9
		c0-1.3-0.2-2.5-0.7-3.4C198.4,18.9,197.7,18.2,197,17.5z"/>
	<polygon class="st0" points="202.2,3.3 213.3,3.3 213.3,32.8 216.3,32.8 216.3,3.3 227.4,3.3 227.4,0.6 202.2,0.6 	"/>
	<path class="st0" d="M243.4,18.2c1.1-0.2,2.1-0.5,3-0.9c1.1-0.5,2.1-1.1,2.9-1.9c0.8-0.8,1.4-1.7,1.9-2.7c0.4-1,0.7-2.2,0.7-3.4
		c0-2.8-1-5-2.8-6.5c-1.8-1.4-4.7-2.2-8.4-2.2h-8.4v32.1h3V18.5h3.7c0.7,0,1,0.1,1.2,0.2c0.2,0.1,0.5,0.3,0.7,0.6l10,12.7
		c0.2,0.2,0.4,0.4,0.6,0.5s0.5,0.2,0.8,0.2h2.8l-11.3-14.2C243.7,18.5,243.6,18.3,243.4,18.2z M240.4,16.2h-5.1v-13h5.4
		c2.7,0,4.8,0.5,6.2,1.5c1.4,1,2,2.5,2,4.7c0,1-0.2,2-0.6,2.8s-0.9,1.5-1.6,2.1s-1.6,1-2.7,1.4C242.9,16,241.7,16.2,240.4,16.2z"/>
	<path class="st0" d="M279.9,20.4c0,1.4-0.2,2.7-0.6,4c-0.4,1.2-1,2.3-1.8,3.2s-1.8,1.6-2.9,2.1c-1.1,0.5-2.4,0.8-3.9,0.8
		c-1.4,0-2.8-0.3-3.9-0.8c-1.1-0.5-2.1-1.2-2.9-2.1c-0.8-0.9-1.4-2-1.8-3.2s-0.6-2.6-0.6-4V0.6h-3v19.8c0,1.8,0.3,3.4,0.8,5
		c0.6,1.5,1.4,2.9,2.4,4.1c1.1,1.2,2.4,2.1,3.9,2.7c1.5,0.7,3.2,1,5.1,1s3.6-0.3,5.1-1s2.8-1.6,3.9-2.7c1.1-1.1,1.9-2.5,2.4-4.1
		c0.6-1.5,0.8-3.2,0.8-5V0.6h-3V20.4z"/>
	<path class="st0" d="M314.2,26.8c-0.2,0-0.3,0-0.4,0.1c-0.1,0-0.2,0.1-0.3,0.2c-0.6,0.6-1.2,1.1-1.8,1.5c-0.6,0.4-1.3,0.8-2,1
		c-0.7,0.3-1.5,0.5-2.4,0.6s-1.8,0.2-2.9,0.2c-1.7,0-3.4-0.3-4.8-0.9c-1.5-0.6-2.8-1.5-3.9-2.7s-1.9-2.6-2.6-4.3
		c-0.6-1.7-0.9-3.7-0.9-5.8s0.3-4,0.9-5.7s1.5-3.1,2.6-4.3s2.5-2.1,4-2.7c1.5-0.6,3.3-1,5.1-1c1,0,1.9,0.1,2.7,0.2
		c0.8,0.2,1.5,0.3,2.1,0.6c0.6,0.2,1.1,0.5,1.5,0.7c0.4,0.3,0.8,0.5,1.1,0.7c0.3,0.2,0.6,0.4,0.8,0.6c0.3,0.2,0.5,0.3,0.7,0.3
		c0.5,0,0.7-0.2,0.9-0.4l0.9-1.3l-0.2-0.2c-0.7-0.6-1.4-1.2-2.2-1.7c-0.8-0.5-1.6-0.9-2.4-1.2s-1.8-0.6-2.7-0.8
		c-1-0.2-2-0.3-3.2-0.3c-2.3,0-4.5,0.4-6.4,1.2s-3.6,1.9-5,3.4c-1.4,1.4-2.5,3.2-3.2,5.2c-0.8,2-1.1,4.2-1.1,6.7s0.4,4.7,1.1,6.7
		s1.8,3.8,3.1,5.2c1.3,1.4,2.9,2.6,4.8,3.3c1.8,0.8,3.9,1.2,6.1,1.2c1.3,0,2.5-0.1,3.7-0.3c1.1-0.2,2.1-0.5,3.1-0.9
		c0.9-0.4,1.8-0.9,2.6-1.5c0.8-0.6,1.5-1.2,2.2-1.9l0.2-0.3l-1.1-1.2C314.7,26.9,314.5,26.8,314.2,26.8z"/>
	<polygon class="st0" points="318.8,0.6 318.8,3.3 329.9,3.3 329.9,32.8 332.9,32.8 332.9,3.3 343.9,3.3 343.9,0.6 	"/>
</g>
</svg>
