<svg id="Layer_1" data-name="Layer 1" xmlns="http://www.w3.org/2000/svg" viewBox="0 0 301.87 179.61"><defs><style>.cls-1{fill:#fff;fill-rule:evenodd;}</style></defs><title>gg</title><path class="cls-1" d="M666.35,136.9c-2.29-4.09-6.87-6.11-13.83-6.11a16,16,0,0,0-11.81,4.61c-3.1,3.12-4.63,7.45-4.63,13.07v4.37c-6.37-7.48-13.33-13-20.79-16.55S599,131,588.84,131a65.21,65.21,0,0,0-23.41,4.09,53.4,53.4,0,0,0-31.39,32,74.61,74.61,0,0,0-4.4,26.29c0,13,2.42,24.57,7.23,34.52a54.54,54.54,0,0,0,20.75,23.23q13.47,8.31,31.48,8.29,15,0,25.88-5.46a57.31,57.31,0,0,0,19.13-15.9c-.18,10.6-.41,18.29-.77,23.06a36.63,36.63,0,0,1-3.63,13.48c-2.07,4.16-5.66,7.44-10.79,9.79s-12.35,3.48-21.64,3.48a56.74,56.74,0,0,1-12.08-1.14,28,28,0,0,1-9-3.43,32.88,32.88,0,0,1-6.83-5.55c-2.07-2.18-4.09-4.33-6-6.47-4-4.17-8.53-6.28-13.78-6.28a16.51,16.51,0,0,0-10.83,3.73,12,12,0,0,0-4.45,9.67c0,5.22,2.61,10.27,7.86,15.21s12.8,9,22.51,12.1,20.79,4.69,33.19,4.69c13.47,0,24.79-1.21,33.86-3.68s16.44-6.19,22.06-11.25A43.59,43.59,0,0,0,666,276.25c2.56-7.72,3.82-17,3.82-27.71v-94C669.77,146.85,668.65,141,666.35,136.9ZM629.79,218a33.62,33.62,0,0,1-13,13,35.09,35.09,0,0,1-16.89,4.33q-15.16,0-24.7-10.08t-9.53-29.74c0-12.95,3.1-23,9.3-30S589.37,155,599.66,155q15.76,0,25.46,11t9.66,30.84Q634.78,209.27,629.79,218Z" transform="translate(-529.64 -130.79)"/><path class="cls-1" d="M828.09,136.9c-2.29-4.09-6.87-6.11-13.83-6.11a16,16,0,0,0-11.82,4.61c-3.1,3.12-4.62,7.45-4.62,13.07v4.37c-6.38-7.48-13.34-13-20.8-16.55S760.77,131,750.57,131a65.16,65.16,0,0,0-23.4,4.09,53.4,53.4,0,0,0-31.39,32,74.38,74.38,0,0,0-4.41,26.29c0,13,2.43,24.57,7.23,34.52a54.6,54.6,0,0,0,20.75,23.23q13.49,8.31,31.49,8.29,15,0,25.87-5.46a57.22,57.22,0,0,0,19.13-15.9c-.18,10.6-.4,18.29-.76,23.06a36.45,36.45,0,0,1-3.64,13.48c-2.07,4.16-5.66,7.44-10.78,9.79s-12.35,3.48-21.65,3.48a56.81,56.81,0,0,1-12.08-1.14,28.06,28.06,0,0,1-9-3.43,33.09,33.09,0,0,1-6.82-5.55c-2.07-2.18-4.09-4.33-6-6.47-3.95-4.17-8.54-6.28-13.79-6.28a16.48,16.48,0,0,0-10.82,3.73A12,12,0,0,0,696,278.4c0,5.22,2.6,10.27,7.86,15.21s12.8,9,22.5,12.1a108.68,108.68,0,0,0,33.19,4.69c13.48,0,24.8-1.21,33.87-3.68s16.43-6.19,22.05-11.25a43.5,43.5,0,0,0,12.21-19.22c2.57-7.72,3.83-17,3.83-27.71v-94Q831.51,143,828.09,136.9ZM791.53,218a33.64,33.64,0,0,1-13,13,35.06,35.06,0,0,1-16.89,4.33q-15.15,0-24.7-10.08t-9.52-29.74c0-12.95,3.1-23,9.29-30S751.11,155,761.39,155q15.76,0,25.47,11t9.66,30.84Q796.52,209.27,791.53,218Z" transform="translate(-529.64 -130.79)"/></svg>