<?xml version="1.0" encoding="UTF-8"?>
<svg width="320px" height="39px" viewBox="0 0 320 39" version="1.1" xmlns="http://www.w3.org/2000/svg" xmlns:xlink="http://www.w3.org/1999/xlink">
    <!-- Generator: Sketch 54.1 (76490) - https://sketchapp.com -->
    <title>name.am-logo</title>
    <desc>Created with Sketch.</desc>
    <defs>
        <polygon id="path-1" points="0.06 0.172 39.156 0.172 39.156 38.036 0.06 38.036"></polygon>
    </defs>
    <g id="name.am-logo" stroke="none" stroke-width="1" fill="none" fill-rule="evenodd">
        <g id="Group-3">
            <mask id="mask-2" fill="white">
                <use xlink:href="#path-1"></use>
            </mask>
            <g id="Clip-2"></g>
            <path d="M0,1.008 L13.215,1.008 L13.215,7.041 C15.19,4.577 17.189,2.817 19.211,1.758 C21.234,0.7 23.697,0.172 26.603,0.172 C30.532,0.172 33.605,1.34 35.826,3.677 C38.045,6.012 39.156,9.621 39.156,14.502 L39.156,38.036 L24.894,38.036 L24.894,17.676 C24.894,15.35 24.465,13.707 23.604,12.742 C22.745,11.778 21.536,11.295 19.978,11.295 C18.258,11.295 16.863,11.946 15.794,13.246 C14.725,14.549 14.19,16.886 14.19,20.256 L14.19,38.036 L0,38.036 L0,1.008" id="Fill-1" fill="#FFFFFF" mask="url(#mask-2)"></path>
        </g>
        <path d="M68.2135688,20.4497817 C66.2441724,21.1521666 64.193096,21.771918 62.061348,22.3110514 C59.1541438,23.0839772 57.3138221,23.8458179 56.5413911,24.5945583 C55.7437503,25.3684918 55.3454341,26.2452133 55.3454341,27.2297615 C55.3454341,28.3533759 55.7376999,29.2724219 56.52324,29.9879073 C57.3077717,30.702385 58.4613761,31.0591199 59.9860701,31.0591199 C61.5793349,31.0591199 63.0626847,30.6721532 64.4341025,29.9012429 C65.804512,29.1273094 66.7776136,28.1850857 67.352399,27.0715485 C67.9261761,25.9600269 68.2135688,24.5119248 68.2135688,22.7342963 L68.2135688,20.4497817 Z M55.8022372,12.930131 L42.1253694,11.489083 C42.6406594,9.10077259 43.3848553,7.21934834 44.3579569,5.85085657 C45.3300502,4.47934162 46.7307115,3.29123278 48.5599409,2.28451461 C49.8718634,1.55794424 51.6758829,0.996640914 53.9740162,0.597581458 C56.2701327,0.198522002 58.7558276,0 61.4280756,0 C65.7167816,0 69.1624689,0.24084649 71.7641293,0.720524017 C74.366798,1.20120927 76.5338399,2.20188109 78.2682801,3.7235472 C79.4874302,4.77964394 80.4494395,6.27208599 81.1522912,8.20389654 C81.8551428,10.1357071 82.2070728,11.9808532 82.2070728,13.7383272 L82.2070728,30.2166611 C82.2070728,31.9721196 82.3169879,33.3496809 82.5408517,34.3463218 C82.7637071,35.3399395 83.2497538,36.6116896 84,38.1565334 L70.5691806,38.1565334 C70.029689,37.1971784 69.677759,36.4645616 69.5143989,35.9617064 C69.3500305,35.4578435 69.185662,34.6677864 69.022302,33.5885119 C67.1466864,35.393349 65.2831715,36.6812227 63.4317574,37.4541485 C60.9006848,38.4850521 57.9581868,39 54.6062802,39 C50.1532058,39 46.7710473,37.9711119 44.4638385,35.9093047 C42.1546128,33.8474975 41,31.3060128 41,28.2848505 C41,25.4501176 41.8319263,23.1192476 43.4967872,21.2922405 C45.1606397,19.4652335 48.2301956,18.1068189 52.7074715,17.2180047 C58.076169,16.139738 61.5561418,15.3849513 63.1504151,14.9496137 C64.7436799,14.518307 66.431734,13.9489419 68.2135688,13.2465569 C68.2135688,11.489083 67.849538,10.2596574 67.1234933,9.55727242 C66.3964401,8.85387974 65.1198115,8.50319113 63.2905821,8.50319113 C60.947071,8.50319113 59.1894376,8.87806517 58.0176821,9.62781323 C57.1030674,10.2122943 56.3649219,11.3147464 55.8022372,12.930131 L55.8022372,12.930131 Z" id="Fill-4" fill="#FFFFFF"></path>
        <path d="M239.213569,20.4497817 C237.244172,21.1521666 235.193096,21.771918 233.059331,22.3110514 C230.153135,23.0839772 228.312814,23.8458179 227.539374,24.5945583 C226.742742,25.3684918 226.343417,26.2452133 226.343417,27.2297615 C226.343417,28.3533759 226.736692,29.2724219 227.52324,29.9879073 C228.306763,30.702385 229.462385,31.0591199 230.98607,31.0591199 C232.579335,31.0591199 234.061676,30.6721532 235.432086,29.9012429 C236.803504,29.1273094 237.776605,28.1850857 238.352399,27.0715485 C238.926176,25.9600269 239.213569,24.5119248 239.213569,22.7342963 L239.213569,20.4497817 Z M226.801229,12.930131 L213.125369,11.489083 C213.639651,9.10077259 214.383847,7.21934834 215.358965,5.85085657 C216.328033,4.47934162 217.730712,3.29123278 219.558933,2.28451461 C220.869847,1.55794424 222.674875,0.996640914 224.974016,0.597581458 C227.269124,0.198522002 229.753811,0 232.427067,0 C236.716782,0 240.161461,0.24084649 242.763121,0.720524017 C245.36579,1.20120927 247.534848,2.20188109 249.269288,3.7235472 C250.48743,4.77964394 251.447423,6.27208599 252.150274,8.20389654 C252.853126,10.1357071 253.206064,11.9808532 253.206064,13.7383272 L253.206064,30.2166611 C253.206064,31.9721196 253.317996,33.3496809 253.540852,34.3463218 C253.763707,35.3399395 254.247737,36.6116896 255,38.1565334 L241.568172,38.1565334 C241.029689,37.1971784 240.676751,36.4645616 240.514399,35.9617064 C240.349022,35.4578435 240.184654,34.6677864 240.022302,33.5885119 C238.145678,35.393349 236.28418,36.6812227 234.431757,37.4541485 C231.899676,38.4850521 228.958187,39 225.60628,39 C221.152197,39 217.771047,37.9711119 215.463838,35.9093047 C213.153604,33.8474975 212,31.3060128 212,28.2848505 C212,25.4501176 212.830918,23.1192476 214.49477,21.2922405 C216.159631,19.4652335 219.230196,18.1068189 223.707472,17.2180047 C229.075161,16.139738 232.554125,15.3849513 234.149407,14.9496137 C235.74368,14.518307 237.429717,13.9489419 239.213569,13.2465569 C239.213569,11.489083 238.84853,10.2596574 238.123493,9.55727242 C237.395432,8.85387974 236.118803,8.50319113 234.29159,8.50319113 C231.947071,8.50319113 230.188429,8.87806517 229.016674,9.62781323 C228.102059,10.2122943 227.364922,11.3147464 226.801229,12.930131 L226.801229,12.930131 Z" id="Fill-5" fill="#FFFFFF"></path>
        <path d="M86,0.839002747 L99.284848,0.839002747 L99.284848,6.26442003 C101.200016,4.00132052 103.130224,2.39155926 105.079484,1.43413269 C107.028744,0.477709698 109.380089,0 112.134522,0 C115.09852,0 117.444851,0.524878513 119.172513,1.57463554 C120.899172,2.62338897 122.311985,4.186985 123.408945,6.26442003 C125.642973,3.83773505 127.679468,2.18582295 129.518431,1.31269808 C131.357393,0.437566026 133.625513,0 136.3258,0 C140.307544,0 143.413926,1.18423833 145.647955,3.55171139 C147.881983,5.91918445 149,9.6224382 149,14.6614726 L149,38 L134.735509,38 L134.735509,16.8302345 C134.735509,15.152229 134.409629,13.9037608 133.759876,13.0868371 C132.808308,11.8042468 131.62311,11.1629516 130.206287,11.1629516 C128.533774,11.1629516 127.18714,11.7701247 126.16438,12.9824636 C125.143626,14.1948025 124.632246,16.1427741 124.632246,18.8243714 L124.632246,38 L110.367754,38 L110.367754,17.529738 C110.367754,15.8978977 110.2735,14.7889288 110.087999,14.205842 C109.783177,13.2745088 109.257759,12.5228185 108.508738,11.9497676 C107.760719,11.3787239 106.883352,11.0927002 105.878641,11.0927002 C104.24022,11.0927002 102.895591,11.7119163 101.843753,12.9473378 C100.789909,14.1837629 100.264491,16.2130256 100.264491,19.0341221 L100.264491,38 L86,38 L86,0.839002747" id="Fill-6" fill="#FFFFFF"></path>
        <path d="M257,0.839002747 L270.285851,0.839002747 L270.285851,6.26442003 C272.200016,4.00132052 274.130224,2.39155926 276.080487,1.43413269 C278.029747,0.477709698 280.380089,0 283.134522,0 C286.09852,0 288.444851,0.524878513 290.17151,1.57463554 C291.901178,2.62338897 293.310982,4.186985 294.409947,6.26442003 C296.643976,3.83773505 298.678466,2.18582295 300.518431,1.31269808 C302.358396,0.437566026 304.627519,0 307.326802,0 C311.307544,0 314.414929,1.18423833 316.648958,3.55171139 C318.881983,5.91918445 320,9.6224382 320,14.6614726 L320,38 L305.735509,38 L305.735509,16.8302345 C305.735509,15.152229 305.410632,13.9037608 304.760879,13.0868371 C303.807305,11.8042468 302.624113,11.1629516 301.208292,11.1629516 C299.533774,11.1629516 298.18714,11.7701247 297.166385,12.9824636 C296.144628,14.1948025 295.632246,16.1427741 295.632246,18.8243714 L295.632246,38 L281.368757,38 L281.368757,17.529738 C281.368757,15.8978977 281.275505,14.7889288 281.087999,14.205842 C280.78418,13.2745088 280.257759,12.5228185 279.507735,11.9497676 C278.760719,11.3787239 277.884355,11.0927002 276.878641,11.0927002 C275.24022,11.0927002 273.896594,11.7119163 272.84275,12.9473378 C271.790912,14.1837629 271.264491,16.2130256 271.264491,19.0341221 L271.264491,38 L257,38 L257,0.839002747" id="Fill-7" fill="#FFFFFF"></path>
        <path d="M179.526966,16.1971784 C179.246228,13.4350017 178.507287,11.4538126 177.307133,10.2596574 C176.104974,9.06449446 174.527829,8.466913 172.569683,8.466913 C170.308742,8.466913 168.502996,9.37084313 167.151444,11.172657 C166.289179,12.2982869 165.740737,13.9731273 165.509129,16.1971784 L179.526966,16.1971784 Z M194,23.0497145 L165.473034,23.0497145 C165.729708,25.3443063 166.347331,27.0534095 167.325903,28.1790393 C168.701518,29.7954316 170.496234,30.6036278 172.711055,30.6036278 C174.108728,30.6036278 175.436216,30.2509237 176.695525,29.5485388 C177.463544,29.1051394 178.29172,28.3191132 179.176044,27.1954988 L193.195887,28.4954652 C191.052254,32.2421901 188.464453,34.9308028 185.434491,36.5592879 C182.404528,38.1857575 178.058106,39 172.396227,39 C167.478303,39 163.609136,38.3026537 160.790729,36.9099765 C157.968312,35.5162916 155.632173,33.3023178 153.780306,30.2690628 C151.927437,27.2358079 151,23.6694659 151,19.5710447 C151,13.7383272 152.858885,9.01813907 156.576655,5.41148808 C160.295428,1.80483708 165.426913,0 171.975121,0 C177.290088,0 181.486115,0.808196171 184.560193,2.42358079 C187.636277,4.03997313 189.979434,6.38293584 191.588663,9.4514612 C193.195887,12.5209943 194,16.514612 194,21.4343299 L194,23.0497145 L194,23.0497145 Z" id="Fill-8" fill="#FFFFFF"></path>
        <path d="M203,38 C198.570459,38 195,34.429769 195,29.9994881 C195,25.570231 198.570459,22 203,22 C207.430564,22 211,25.570231 211,29.9994881 C211,34.429769 207.430564,38 203,38" id="Fill-9" fill="#FFFFFF"></path>
    </g>
</svg>