<?xml version="1.0" encoding="utf-8"?>
<!-- Generator: Adobe Illustrator 22.1.0, SVG Export Plug-In . SVG Version: 6.00 Build 0)  -->
<svg version="1.1" id="Layer_1" xmlns="http://www.w3.org/2000/svg" xmlns:xlink="http://www.w3.org/1999/xlink" x="0px" y="0px"
	 viewBox="0 0 300 85" style="enable-background:new 0 0 300 85;" xml:space="preserve">
<style type="text/css">
	.st0{fill:#FFFFFF;}
</style>
<path class="st0" d="M35.8,22.9v-0.6c0-1.6-0.4-2.5-2.8-2.5h-1.3v5.4H33C35.2,25.3,35.8,24.5,35.8,22.9"/>
<path class="st0" d="M38.2,46.4v0.2v7.9c0,0,0,0.1,0,0.1c0,0.1,0,0.2,0,0.3c0,2.3,1.9,4.2,4.2,4.2c2.3,0,4.2-1.9,4.2-4.2
	c0,0,0-0.1,0-0.1c0-0.1,0-0.2,0-0.3v-7.9v-0.2h3.1l-7.2-12.3l-7.2,12.3H38.2z"/>
<polygon class="st0" points="32.9,28.1 31.7,28.1 31.7,34.1 36.3,34.1 "/>
<path class="st0" d="M43.2,30.3c0.5,0,1.2-0.3,2.1-1c0.9-0.7,1.7-1.4,2.3-2.2l-2.7-6c-1.1,0.3-1.8,1.1-2.4,2.3
	c-0.5,1.3-0.8,2.7-0.8,4.4C41.8,29.4,42.3,30.3,43.2,30.3"/>
<path class="st0" d="M54.2,68.1c-1.2,0-2.2-1-2.2-2.2c0-1.2,1-2.2,2.2-2.2c1.2,0,2.2,1,2.2,2.2C56.3,67.1,55.3,68.1,54.2,68.1
	 M42.3,68.1c-7.5,0-13.7-6.1-13.7-13.7V34.1V17H33c4.1,0,6.1,1.5,6.1,5.1V23c0,2.5-0.9,3.9-3,4.6l2,3.4c0-0.3,0-0.5,0-0.8
	c0-1.1,0.2-2.2,0.7-3.4c0.4-1.2,1-2.3,1.7-3.4c0.7-1,1.4-1.9,2-2.6c0.7-0.7,1.3-1.1,1.7-1.2L42.9,17h5.2L56,34.1v20.3
	C56,62,49.9,68.1,42.3,68.1 M42.5,0C19,0,0,19,0,42.5C0,66,19,85,42.5,85C66,85,85,66,85,42.5C85,19,66,0,42.5,0"/>
<path class="st0" d="M50.7,34.1L48,28.5c-0.3,0.9-1.2,3.1-3.5,4.6c-0.7,0.5-1.5,0.8-2.1,1c0,0-0.1,0-0.1,0l4.1,0H50.7z"/>
<path class="st0" d="M93.2,33.4c2,0,2.6-0.7,2.6-2.1v-1.1c0-1.4-0.5-2.2-2.6-2.2h-1.1v5.4H93.2z M93.2,25.5c3.6,0,5.3,1.3,5.3,4.5
	v1.4c0,3.1-1.8,4.6-5.3,4.6h-1v4.6h-2.8V25.5H93.2z"/>
<path class="st0" d="M107,36.1V30c0-1.4-0.4-2.3-2.4-2.3c-2,0-2.3,0.9-2.3,2.3v6.1c0,1.4,0.4,2.3,2.3,2.3
	C106.5,38.4,107,37.5,107,36.1 M99.5,36.3v-6.4c0-3.2,1.4-4.5,5-4.5c3.6,0,5.2,1.3,5.2,4.5v6.4c0,3.1-1.6,4.5-5.2,4.5
	C101,40.8,99.5,39.4,99.5,36.3"/>
<path class="st0" d="M121.3,36c0,3.3-1.6,4.7-5.2,4.7c-3.6,0-5-1.4-5-4.5V30c0-3.2,1.4-4.5,5-4.5c3.6,0,5.2,1.3,5.2,4.7h-2.7
	c0-1.5-0.4-2.3-2.4-2.3c-2,0-2.3,0.8-2.3,2.3V36c0,1.4,0.4,2.3,2.3,2.3c2,0,2.4-0.8,2.4-2.3H121.3z"/>
<path class="st0" d="M132.5,36c0,3.3-1.6,4.7-5.2,4.7c-3.6,0-5-1.4-5-4.5V30c0-3.2,1.4-4.5,5-4.5c3.6,0,5.2,1.3,5.2,4.7h-2.7
	c0-1.5-0.4-2.3-2.4-2.3c-2,0-2.3,0.8-2.3,2.3V36c0,1.4,0.4,2.3,2.3,2.3c2,0,2.4-0.8,2.4-2.3H132.5z"/>
<polygon class="st0" points="133.7,25.5 136.4,25.5 136.4,29.1 136.1,35.5 140.6,25.5 143.3,25.5 143.3,40.6 140.6,40.6 140.6,36.8 
	140.8,31 136.4,40.6 133.7,40.6 "/>
<path class="st0" d="M146.6,21.5h2.2c0,0.8,0.5,1,1.2,1c0.7,0,1.2-0.2,1.2-1h2.2c0,2.2-1,3-3.4,3C147.6,24.6,146.6,23.7,146.6,21.5
	 M145,25.5h2.7v3.6l-0.3,6.4l4.5-10h2.7v15.1h-2.7v-3.9l0.2-5.7l-4.4,9.6H145V25.5z"/>
<path class="st0" d="M166.2,36c0,3.3-1.6,4.7-5.2,4.7s-5-1.4-5-4.5V30c0-3.2,1.4-4.5,5-4.5c3.6,0,5.2,1.3,5.2,4.7h-2.7
	c0-1.5-0.4-2.3-2.4-2.3c-2,0-2.3,0.8-2.3,2.3V36c0,1.4,0.4,2.3,2.3,2.3c2,0,2.4-0.8,2.4-2.3H166.2z"/>
<path class="st0" d="M175.1,40.6l-4-6.3h-1.1v6.3h-2.7V25.5h2.7v6.1h0.7c1.1,0,1.4-1,1.8-2.1c0.7-2.2,1.3-4.4,5.3-4l-0.2,2.5
	c-2.1-0.1-2.1,0.5-2.6,2.3c-0.4,1.2-0.8,2.2-1.5,2.9l4.9,7.5H175.1z"/>
<path class="st0" d="M186.2,36.1V30c0-1.4-0.4-2.3-2.4-2.3c-2,0-2.3,0.9-2.3,2.3v6.1c0,1.4,0.4,2.3,2.3,2.3
	C185.7,38.4,186.2,37.5,186.2,36.1 M178.7,36.3v-6.4c0-3.2,1.4-4.5,5-4.5c3.6,0,5.2,1.3,5.2,4.5v6.4c0,3.1-1.6,4.5-5.2,4.5
	C180.1,40.8,178.7,39.4,178.7,36.3"/>
<rect x="190.3" y="32.8" class="st0" width="8.1" height="2.3"/>
<path class="st0" d="M205.4,35.3l-1.3-5.6l-1.3,5.6H205.4z M209.6,40.6h-2.8l-0.8-2.7h-3.9l-0.8,2.7h-2.8l4.2-15.1h2.7L209.6,40.6z"
	/>
<path class="st0" d="M214,33.4c2,0,2.6-0.7,2.6-2.1v-1.1c0-1.4-0.5-2.2-2.6-2.2h-1.1v5.4H214z M214,25.5c3.6,0,5.4,1.3,5.4,4.5v1.4
	c0,3.1-1.8,4.6-5.4,4.6h-1v4.6h-2.8V25.5H214z"/>
<polygon class="st0" points="225.9,37.1 222.9,31 223.2,35.3 223.2,40.6 220.5,40.6 220.5,25.5 223.1,25.5 226.2,32.2 229.3,25.5 
	231.9,25.5 231.9,40.6 229.2,40.6 229.2,35.3 229.5,31 226.5,37.1 "/>
<path class="st0" d="M240.4,32.8V28h-1.2c-2.1,0-2.5,0.8-2.5,2.2v0.5c0,1.4,0.6,2.1,2.5,2.1H240.4z M233.2,40.6l3.3-5.7
	c-1.8-0.6-2.6-1.8-2.6-4.1V30c0-3.2,1.7-4.5,5.4-4.5h3.8v15.1h-2.7v-5.3h-1.1l-3,5.3H233.2z"/>
<polygon class="st0" points="254.9,40.6 252.2,40.6 252.2,34.4 247.5,34.4 247.5,40.6 244.8,40.6 244.8,25.5 247.5,25.5 247.5,31.9 
	252.2,31.9 252.2,25.5 254.9,25.5 "/>
<path class="st0" d="M266.6,36c0,3.3-1.6,4.7-5.2,4.7c-3.6,0-5-1.4-5-4.5V30c0-3.2,1.4-4.5,5-4.5c3.6,0,5.2,1.3,5.2,4.7h-2.7
	c0-1.5-0.4-2.3-2.4-2.3c-2,0-2.3,0.8-2.3,2.3V36c0,1.4,0.4,2.3,2.3,2.3c2,0,2.4-0.8,2.4-2.3H266.6z"/>
<path class="st0" d="M275.5,40.6l-4-6.3h-1.1v6.3h-2.7V25.5h2.7v6.1h0.7c1.1,0,1.4-1,1.8-2.1c0.7-2.2,1.3-4.4,5.3-4L278,28
	c-2.1-0.1-2.1,0.5-2.6,2.3c-0.4,1.2-0.8,2.2-1.5,2.9l4.9,7.5H275.5z"/>
<polygon class="st0" points="279.3,25.5 281.9,25.5 281.9,29.1 281.6,35.5 286.1,25.5 288.8,25.5 288.8,40.6 286.1,40.6 286.1,36.8 
	286.3,31 281.9,40.6 279.3,40.6 "/>
<path class="st0" d="M292.1,21.5h2.2c0,0.8,0.5,1,1.2,1c0.7,0,1.2-0.2,1.2-1h2.2c0,2.2-1,3-3.4,3C293.1,24.6,292.1,23.7,292.1,21.5
	 M290.5,25.5h2.7v3.6l-0.3,6.4l4.5-10h2.7v15.1h-2.7v-3.9l0.2-5.7l-4.4,9.6h-2.6V25.5z"/>
<path class="st0" d="M99.6,44.3L95.3,57c-0.8,2.6-2.7,2.9-5.3,2.1l0.5-2.3c0.7,0.2,1.8,0.5,2.1-0.6l0.4-1.3l-3.7-10.7h2.9l1.1,3.5
	l1.1,3.8c0.3-1.3,0.8-2.5,1.1-3.8l1.1-3.5H99.6z"/>
<polygon class="st0" points="110.1,59.4 107.4,59.4 107.4,53.2 102.7,53.2 102.7,59.4 100,59.4 100,44.3 102.7,44.3 102.7,50.7 
	107.4,50.7 107.4,44.3 110.1,44.3 "/>
<polygon class="st0" points="111.9,44.3 114.6,44.3 114.6,47.9 114.2,54.3 118.7,44.3 121.4,44.3 121.4,59.4 118.7,59.4 118.7,55.5 
	118.9,49.8 114.5,59.4 111.9,59.4 "/>
<path class="st0" d="M125.6,46.7v3.4h1.6c1.1,0,1.6-0.8,1.6-1.8c0-0.8-0.3-1.6-1.6-1.6H125.6z M125.6,56.9h1.4
	c1.7,0,2.4-0.4,2.4-2.2c0-1.5-0.5-2.2-2.5-2.2h-1.4V56.9z M122.9,44.3h4.3c2.6,0,4.5,1.1,4.5,3.9c0,1.3-0.6,2.5-1.9,3
	c1.6,0.3,2.5,1.5,2.5,3.5c0,3.6-1.9,4.7-5.4,4.7h-4.1V44.3z"/>
<polygon class="st0" points="142.2,44.3 142.2,46.7 136.2,46.7 136.2,50.5 141.3,50.5 141.3,53 136.2,53 136.2,57 142.4,57 
	142.4,59.4 133.5,59.4 133.5,44.3 "/>
<path class="st0" d="M147.4,52.2c2,0,2.6-0.7,2.6-2.1V49c0-1.4-0.5-2.2-2.6-2.2h-1.1v5.4H147.4z M147.4,44.3c3.6,0,5.3,1.3,5.3,4.5
	v1.4c0,3.1-1.8,4.6-5.3,4.6h-1v4.6h-2.8V44.3H147.4z"/>
<path class="st0" d="M163.9,54.7c0,3.3-1.6,4.7-5.2,4.7c-3.6,0-5-1.4-5-4.5v-6.1c0-3.2,1.4-4.5,5-4.5c3.6,0,5.2,1.3,5.2,4.7h-2.7
	c0-1.5-0.4-2.3-2.4-2.3c-2,0-2.3,0.8-2.3,2.3v5.9c0,1.4,0.4,2.3,2.3,2.3c2,0,2.4-0.8,2.4-2.3H163.9z"/>
<polygon class="st0" points="165.1,44.3 167.8,44.3 167.8,47.9 167.5,54.3 172,44.3 174.7,44.3 174.7,59.4 172,59.4 172,55.5 
	172.2,49.8 167.8,59.4 165.1,59.4 "/>
<polygon class="st0" points="184.1,46.7 181,46.7 181,59.4 178.3,59.4 178.3,46.7 175.2,46.7 175.2,44.3 184.1,44.3 "/>
<polygon class="st0" points="193.3,44.3 193.3,46.7 187.4,46.7 187.4,50.5 192.5,50.5 192.5,53 187.4,53 187.4,57 193.6,57 
	193.6,59.4 184.7,59.4 184.7,44.3 "/>
<polygon class="st0" points="202.5,46.7 199.3,46.7 199.3,59.4 196.7,59.4 196.7,46.7 193.5,46.7 193.5,44.3 202.5,44.3 "/>
</svg>
