<?xml version="1.0" encoding="utf-8"?>
<!-- Generator: Adobe Illustrator 22.1.0, SVG Export Plug-In . SVG Version: 6.00 Build 0)  -->
<svg version="1.1" id="Layer_1" xmlns="http://www.w3.org/2000/svg" xmlns:xlink="http://www.w3.org/1999/xlink" x="0px" y="0px"
	 viewBox="0 0 226.8 51.8" style="enable-background:new 0 0 226.8 51.8;" xml:space="preserve">
<style type="text/css">
	.st0{opacity:0.47;fill:#FFFFFF;enable-background:new    ;}
	.st1{fill:#FFFFFF;}
</style>
<path class="st0" d="M37.8,23.8l-9.1-6L3.7,2.5C5.6,4.6,7.1,7,8.1,9.7c0.7,1.7,1.1,3.5,1.4,5.3l18.7,11.7c0.7,0.5,0.9,1.4,0.4,2.1
	c0,0,0,0.1-0.1,0.1l0,0L28.4,29l-0.1,0.1h0l-0.1,0.1l-18.1,11c-0.5,0.3-1.2,0.2-1.5-0.3c-0.1-0.2-0.2-0.4-0.2-0.6V14.2
	c-0.3-1.5-0.7-3.1-1.2-4.5C5.8,6,3.6,2.8,0.6,0.4L0,0v47.2c0,2.6,2.1,4.6,4.6,4.6c0.9,0,1.8-0.3,2.5-0.8L37.8,32
	c2.3-1.5,2.9-4.5,1.4-6.8C38.8,24.7,38.3,24.2,37.8,23.8z"/>
<path class="st1" d="M37.8,23.8l-9.1-6c3,2.5,3.5,6.9,1,10c-0.4,0.4-0.8,0.8-1.2,1.2l0,0L28.4,29l-0.1,0.1h0l-0.1,0.1l-13,7.7l0,0
	l-5,3.4c-0.5,0.3-1.2,0.2-1.5-0.3c-0.1-0.2-0.2-0.4-0.2-0.6V14.2c-0.3-1.6-0.7-3.1-1.3-4.6C5.8,6,3.6,2.8,0.6,0.4L0,0v47.2
	c0,2.6,2.1,4.6,4.6,4.6c0.9,0,1.8-0.3,2.5-0.8L37.8,32c2.3-1.5,2.9-4.5,1.4-6.8C38.8,24.7,38.3,24.2,37.8,23.8z"/>
<path class="st1" d="M65.8,35.6h-4.4c-0.3,0-0.4-0.3-0.6-0.6L57,27.7h-0.3c-0.6,0-1.5-0.1-2-0.1V35c0,0.3-0.3,0.6-0.6,0.6h-3.7
	c-0.3,0-0.6-0.3-0.6-0.6V15.8c0-1,0.4-1.2,1.3-1.4C53,14.1,55,14,56.9,14c4.9,0,8.6,1.6,8.6,6.7v0.4c0.1,2.5-1.3,4.8-3.7,5.7
	l4.3,8.1c0.1,0.1,0.1,0.2,0.1,0.3C66.3,35.4,66.1,35.6,65.8,35.6z M60.7,20.7c0-1.8-1.3-2.5-3.8-2.5c-0.4,0-1.9,0.1-2.2,0.1v5.5
	c0.3,0,1.7,0.1,2,0.1c3,0,4-0.8,4-2.7V20.7z"/>
<path class="st1" d="M82.3,28.8h-9.2v0.1c0,1.6,0.7,3.1,3,3.1c1.8,0,4.4-0.1,5.5-0.3h0.1c0.3,0,0.5,0.1,0.5,0.5v2.2
	c0,0.5-0.1,0.7-0.6,0.8c-1.9,0.5-3.9,0.7-5.9,0.7c-3.5,0-7.2-1.8-7.2-7.4v-2c0-4.6,2.7-7.5,7.3-7.5s7.1,3.2,7.1,7.5v1.7
	C82.9,28.5,82.7,28.8,82.3,28.8z M78.4,25.8c0-2.1-1-3.2-2.6-3.2s-2.6,1.1-2.6,3.2v0.1h5.2V25.8z"/>
<path class="st1" d="M99.3,35.6h-3.5c-0.3,0-0.6-0.3-0.6-0.6V24.9c0-1.3-0.2-2.1-1.7-2.1h-1.4c-1.5,0-1.7,0.9-1.7,2.1V35
	c0,0.3-0.3,0.6-0.6,0.6h-3.5c-0.3,0-0.6-0.3-0.5-0.6V24.9c0-4,2.2-6,6.3-6h1.4c4.1,0,6.3,2,6.3,6V35C99.9,35.3,99.7,35.6,99.3,35.6z
	"/>
<path class="st1" d="M116,35.1c-2,0.5-4,0.7-6.1,0.8c-4.7,0-7.2-2.7-7.2-7.3v-2.2c0-4.5,2.3-7.3,7.2-7.3c0.8,0,1.6,0.1,2.3,0.2v-5
	c0-0.3,0.3-0.6,0.6-0.6h3.4c0.3,0,0.6,0.3,0.6,0.6v20.1C116.8,34.7,116.7,34.9,116,35.1z M112.2,22.9c-0.8-0.1-1.6-0.1-2.3-0.1
	c-2,0-2.6,1.5-2.6,3.5v2.2c0,2,0.6,3.5,2.6,3.5c0.8,0,1.6-0.1,2.3-0.2V22.9z"/>
<path class="st1" d="M133.6,28.8h-9.2v0.1c0,1.6,0.7,3.1,3,3.1c1.8,0,4.4-0.1,5.5-0.3h0c0.3,0,0.5,0.1,0.5,0.5v2.2
	c0,0.5-0.1,0.7-0.6,0.8c-1.9,0.5-3.9,0.7-5.9,0.7c-3.5,0-7.2-1.8-7.2-7.4v-2c0-4.6,2.7-7.5,7.3-7.5c4.6,0,7.1,3.2,7.1,7.5v1.7
	C134.2,28.5,134,28.8,133.6,28.8z M129.7,25.8c0-2.1-1-3.2-2.6-3.2s-2.6,1.1-2.6,3.2v0.1h5.2V25.8z"/>
<path class="st1" d="M144.4,22.8c-0.9,0-1.7,0-2.6,0.2v12c0,0.3-0.3,0.6-0.6,0.6h-3.5c-0.3,0-0.6-0.3-0.6-0.6V20.7
	c0-0.4,0.2-0.7,0.9-0.9c2.1-0.6,4.2-0.9,6.3-0.8c0.3,0,0.8,0.1,0.8,0.5v2.8C145.2,22.5,145,22.8,144.4,22.8z"/>
<path class="st1" d="M156.1,22.6h-3.9V35c0,0.3-0.3,0.6-0.6,0.6h-3.5c-0.3,0-0.6-0.3-0.6-0.6V18c0-4,2.7-4.9,5.6-4.9
	c1,0,2.1,0.1,3.1,0.3c0.3,0.1,0.4,0.2,0.4,0.3v2.4c0,0.3-0.1,0.5-0.4,0.5h-3c-0.9,0-1.1,0.5-1.1,1.4v1.1h3.9c0.3,0,0.6,0.3,0.6,0.6
	V22C156.7,22.3,156.4,22.6,156.1,22.6C156.1,22.6,156.1,22.6,156.1,22.6z"/>
<path class="st1" d="M165.8,35.8c-4.6,0-7.2-2.9-7.2-7.5v-2c0-4.6,2.6-7.5,7.2-7.5s7.2,2.9,7.2,7.5v2
	C173,32.9,170.5,35.8,165.8,35.8z M168.4,26.4c0-2.3-0.9-3.5-2.6-3.5s-2.6,1.2-2.6,3.5v2c0,2.3,0.9,3.5,2.6,3.5s2.6-1.2,2.6-3.5
	V26.4z"/>
<path class="st1" d="M183.2,22.8c-0.9,0-1.7,0-2.6,0.2v12c0,0.3-0.3,0.6-0.6,0.6h-3.5c-0.3,0-0.6-0.3-0.6-0.6V20.7
	c0-0.4,0.2-0.7,0.9-0.9c2.1-0.6,4.2-0.9,6.3-0.8c0.3,0,0.8,0.1,0.8,0.5v2.8C184,22.5,183.8,22.8,183.2,22.8z"/>
<path class="st1" d="M199.7,28.8h-9.1v0.1c0,1.6,0.7,3.1,3,3.1c1.8,0,4.4-0.1,5.5-0.3h0.1c0.3,0,0.5,0.1,0.5,0.5v2.2
	c0,0.5-0.1,0.7-0.6,0.8c-1.9,0.5-3.9,0.7-5.9,0.7c-3.5,0-7.2-1.8-7.2-7.4v-2c0-4.6,2.7-7.5,7.3-7.5s7.1,3.2,7.1,7.5v1.7
	C200.3,28.5,200,28.8,199.7,28.8z M195.8,25.8c0-2.1-1-3.2-2.6-3.2s-2.6,1.1-2.6,3.2v0.1h5.2V25.8z"/>
<path class="st1" d="M208.6,35.8c-1.8,0-3.5-0.2-5.2-0.6c-0.3-0.1-0.5-0.3-0.5-0.7v-2.3c0-0.3,0.2-0.5,0.5-0.5c0,0,0,0,0,0h0.1
	c1.6,0.2,4,0.4,4.9,0.4c1.4,0,1.7-0.4,1.7-1.1c0-0.4-0.3-0.8-1.1-1.2l-3.7-2.1c-1.6-0.8-2.6-2.5-2.6-4.2c0-2.9,1.9-4.4,5.9-4.4
	c1.7,0,3.4,0.2,5.1,0.7c0.3,0.1,0.5,0.3,0.5,0.7v2.3c0,0.3-0.2,0.5-0.5,0.5h-0.1c-1.6-0.2-3.2-0.3-4.8-0.4c-1.1,0-1.5,0.2-1.5,0.8
	c0,0.4,0.3,0.7,0.9,1l3.6,2c2.4,1.4,2.9,2.9,2.9,4.4C214.8,33.7,212.8,35.8,208.6,35.8z"/>
<path class="st1" d="M226.2,22.6h-3.9v8.5c0,1,0.5,1.2,1.7,1.2h2.1c0.4,0,0.6,0.2,0.6,0.5V35c0,0.3-0.2,0.5-0.6,0.6
	c-1.1,0.2-2.3,0.3-3.4,0.3c-3.2,0-5.1-1-5.1-4.7V16.7c0-0.3,0.3-0.5,0.6-0.6l3.5-0.6h0.1c0.3,0,0.5,0.3,0.5,0.6v3h3.9
	c0.3,0,0.6,0.3,0.6,0.6V22C226.8,22.3,226.6,22.6,226.2,22.6C226.2,22.6,226.2,22.6,226.2,22.6z"/>
</svg>
