<?xml version="1.0" encoding="utf-8"?>
<!-- Generator: Adobe Illustrator 22.1.0, SVG Export Plug-In . SVG Version: 6.00 Build 0)  -->
<svg version="1.1" id="Layer_1" xmlns="http://www.w3.org/2000/svg" xmlns:xlink="http://www.w3.org/1999/xlink" x="0px" y="0px"
	 viewBox="0 0 556.6 81.2" style="enable-background:new 0 0 556.6 81.2;" xml:space="preserve">
<style type="text/css">
	.st0{fill:#FFFFFF;}
</style>
<title>Artboard</title>
<desc>Created with Sketch.</desc>
<g id="Artboard">
	<g id="Group" transform="translate(4.000000, 6.000000)">
		<path class="st0" d="M255-6h-57.4c-6.5,0-11.9,5.4-11.9,11.9v57.4c0,6.5,5.4,11.9,11.9,11.9H255c6.5,0,11.9-5.4,11.9-11.9V5.9
			C266.9-0.6,261.6-6,255-6z M258.2,54.5c0,0.3-0.1,0.6-0.3,0.8c-0.2,0.2-0.5,0.4-0.9,0.6c-0.4,0.2-1,0.3-1.7,0.3
			c-0.7,0.1-1.6,0.1-2.8,0.1c-1.1,0-2.1,0-2.8-0.1c-0.7-0.1-1.3-0.2-1.7-0.3c-0.4-0.1-0.7-0.3-0.9-0.6c-0.2-0.2-0.2-0.5-0.2-0.8
			V30.7c0-1.4-0.1-2.6-0.4-3.7c-0.2-1.1-0.6-2.1-1.2-2.9c-0.5-0.8-1.2-1.4-2-1.8c-0.8-0.4-1.8-0.6-2.9-0.6c-1.4,0-2.7,0.5-4.1,1.6
			c-1.4,1.1-2.9,2.6-4.5,4.6v26.7c0,0.3-0.1,0.6-0.3,0.8c-0.2,0.2-0.5,0.4-0.9,0.6c-0.4,0.2-1,0.3-1.7,0.3c-0.7,0.1-1.6,0.1-2.7,0.1
			c-1.1,0-2,0-2.7-0.1c-0.7-0.1-1.3-0.2-1.7-0.3c-0.4-0.1-0.8-0.3-0.9-0.6c-0.2-0.2-0.3-0.5-0.3-0.8V30.7c0-1.4-0.1-2.6-0.4-3.7
			c-0.2-1.1-0.6-2.1-1.2-2.9c-0.5-0.8-1.2-1.4-2-1.8c-0.8-0.4-1.8-0.6-2.8-0.6c-1.4,0-2.8,0.5-4.1,1.6c-1.4,1.1-2.9,2.6-4.5,4.6
			v26.7c0,0.3-0.1,0.6-0.3,0.8c-0.2,0.2-0.5,0.4-0.9,0.6c-0.4,0.2-1,0.3-1.7,0.3c-0.7,0.1-1.6,0.1-2.8,0.1c-1.1,0-2,0-2.7-0.1
			c-0.7-0.1-1.3-0.2-1.7-0.3c-0.4-0.1-0.8-0.3-0.9-0.6c-0.2-0.2-0.3-0.5-0.3-0.8V14.3c0-0.3,0.1-0.6,0.2-0.8
			c0.2-0.2,0.4-0.4,0.8-0.6c0.4-0.2,0.9-0.3,1.5-0.3c0.6-0.1,1.4-0.1,2.3-0.1c1,0,1.8,0,2.4,0.1c0.6,0.1,1.1,0.2,1.5,0.3
			c0.4,0.2,0.6,0.3,0.7,0.6c0.2,0.2,0.2,0.5,0.2,0.8V19c2.2-2.4,4.4-4.2,6.6-5.4c2.2-1.2,4.5-1.8,6.9-1.8c1.6,0,3.1,0.2,4.5,0.5
			c1.3,0.3,2.5,0.8,3.5,1.5c1,0.6,1.9,1.4,2.7,2.3c0.8,0.9,1.4,1.9,1.9,3c1.2-1.3,2.4-2.4,3.5-3.3c1.2-0.9,2.3-1.7,3.4-2.3
			c1.1-0.6,2.2-1,3.4-1.3c1.1-0.3,2.3-0.4,3.4-0.4c2.7,0,4.9,0.4,6.7,1.4c1.8,0.9,3.3,2.1,4.4,3.7c1.1,1.5,1.9,3.3,2.4,5.4
			c0.5,2.1,0.7,4.3,0.7,6.6V54.5z"/>
		<g>
			<path class="st0" d="M331.1,22.3c-0.6-1.2-1.4-2.2-2.4-2.9c-1-0.7-2.3-1.1-3.7-1.1c-0.8,0-1.5,0.1-2.2,0.3
				c-0.7,0.2-1.5,0.6-2.3,1.1c-0.8,0.5-1.6,1.2-2.4,2c-0.8,0.8-1.7,1.8-2.6,3v13.2c1.6,2,3.1,3.6,4.5,4.7c1.4,1.1,2.9,1.6,4.5,1.6
				c1.5,0,2.7-0.4,3.8-1.1c1-0.8,1.9-1.7,2.5-3c0.7-1.2,1.2-2.6,1.5-4.1c0.3-1.5,0.5-3.1,0.5-4.6c0-1.7-0.1-3.4-0.4-4.9
				C332.2,24.9,331.7,23.5,331.1,22.3z"/>
			<path class="st0" d="M349.7-6h-57.4c-6.5,0-11.9,5.4-11.9,11.9v57.4c0,6.5,5.4,11.9,11.9,11.9h57.4c6.5,0,11.9-5.4,11.9-11.9V5.9
				C361.6-0.6,356.3-6,349.7-6z M343.4,40.3c-0.8,2.9-1.9,5.3-3.3,7.3c-1.5,2-3.3,3.6-5.5,4.6c-2.2,1.1-4.7,1.6-7.5,1.6
				c-1.2,0-2.2-0.1-3.2-0.3c-1-0.2-1.9-0.6-2.8-1c-0.9-0.5-1.8-1-2.7-1.7c-0.9-0.7-1.8-1.5-2.8-2.4v18.9c0,0.3-0.1,0.6-0.3,0.8
				c-0.2,0.2-0.5,0.4-0.9,0.6c-0.4,0.2-1,0.3-1.7,0.4c-0.7,0.1-1.6,0.1-2.8,0.1c-1.1,0-2,0-2.7-0.1c-0.7-0.1-1.3-0.2-1.7-0.4
				c-0.4-0.2-0.8-0.4-0.9-0.6c-0.2-0.2-0.3-0.5-0.3-0.8V11.1c0-0.3,0.1-0.6,0.2-0.8c0.2-0.2,0.4-0.4,0.8-0.6
				c0.4-0.2,0.9-0.3,1.5-0.3c0.6-0.1,1.4-0.1,2.3-0.1c0.9,0,1.7,0,2.3,0.1c0.6,0.1,1.1,0.2,1.5,0.3c0.4,0.2,0.6,0.3,0.8,0.6
				c0.1,0.2,0.2,0.5,0.2,0.8v4.7c1.2-1.2,2.3-2.3,3.4-3.2c1.1-0.9,2.3-1.7,3.4-2.3c1.2-0.6,2.4-1.1,3.6-1.4c1.2-0.3,2.6-0.4,4-0.4
				c2.9,0,5.4,0.6,7.5,1.7c2.1,1.2,3.7,2.7,5.1,4.7c1.3,2,2.3,4.3,2.9,7c0.6,2.7,0.9,5.5,0.9,8.6C344.6,34.2,344.2,37.4,343.4,40.3z
				"/>
		</g>
		<path class="st0" d="M445.5-6h-57.4c-6.5,0-11.9,5.4-11.9,11.9v57.4c0,6.5,5.4,11.9,11.9,11.9h57.4c6.5,0,11.9-5.4,11.9-11.9V5.9
			C457.4-0.6,452-6,445.5-6z M422.5,64.3c0,0.3-0.1,0.6-0.3,0.8c-0.2,0.2-0.5,0.4-0.9,0.5c-0.4,0.2-1,0.3-1.7,0.3
			c-0.7,0.1-1.6,0.1-2.8,0.1c-1.1,0-2,0-2.7-0.1c-0.7-0.1-1.3-0.2-1.7-0.3c-0.4-0.1-0.8-0.3-0.9-0.5c-0.2-0.2-0.3-0.5-0.3-0.8V5.1
			c0-0.3,0.1-0.6,0.3-0.8c0.2-0.2,0.5-0.4,0.9-0.6c0.4-0.2,1-0.3,1.7-0.4c0.7-0.1,1.6-0.1,2.7-0.1c1.1,0,2,0,2.8,0.1
			c0.7,0.1,1.3,0.2,1.7,0.4c0.4,0.2,0.7,0.4,0.9,0.6c0.2,0.2,0.3,0.5,0.3,0.8V64.3z"/>
		<path class="st0" d="M540.7-6h-57.4c-6.5,0-11.9,5.4-11.9,11.9v57.4c0,6.5,5.4,11.9,11.9,11.9h57.4c6.6,0,11.9-5.4,11.9-11.9V5.9
			C552.6-0.6,547.3-6,540.7-6z M532.5,13.4l-13.4,39.3L514.3,67c-0.3,0.8-1,1.3-2.2,1.6c-1.2,0.3-3,0.5-5.3,0.5
			c-1.2,0-2.2,0-2.9-0.2c-0.7-0.1-1.3-0.3-1.6-0.5c-0.4-0.2-0.6-0.5-0.6-0.9c0-0.4,0.1-0.8,0.3-1.3l5.3-13.5
			c-0.4-0.2-0.7-0.5-1.1-0.8c-0.3-0.4-0.5-0.8-0.7-1.2l-13.8-36.9c-0.4-1.1-0.6-1.9-0.6-2.4c0-0.6,0.2-1,0.6-1.3
			c0.4-0.3,1-0.5,1.8-0.6c0.9-0.1,2-0.2,3.4-0.2c1.3,0,2.3,0,3.1,0.1c0.8,0,1.3,0.2,1.7,0.3c0.4,0.2,0.7,0.5,0.9,0.8
			c0.2,0.4,0.4,0.9,0.6,1.6l9.5,26.9h0.1l8.6-27.4c0.2-0.8,0.4-1.3,0.7-1.6c0.3-0.2,0.8-0.4,1.4-0.6c0.7-0.1,1.8-0.2,3.5-0.2
			c1.3,0,2.4,0.1,3.2,0.2c0.8,0.1,1.5,0.3,1.9,0.7c0.4,0.3,0.6,0.8,0.6,1.3S532.8,12.7,532.5,13.4z"/>
		<path class="st0" d="M65.3-6H7.9C1.4-6-4-0.6-4,5.9v57.4c0,6.5,5.4,11.9,11.9,11.9h57.4c6.5,0,11.9-5.4,11.9-11.9V5.9
			C77.2-0.6,71.9-6,65.3-6z M52.3,49.4c-0.8,1.7-2.1,3.2-3.6,4.4c-1.6,1.2-3.4,2-5.5,2.6c-2.1,0.6-4.4,0.9-6.9,0.9
			c-1.5,0-2.9-0.1-4.3-0.3c-1.4-0.2-2.6-0.5-3.7-0.8c-1.1-0.4-2-0.7-2.7-1.1c-0.7-0.4-1.2-0.7-1.6-1c-0.3-0.3-0.6-0.8-0.8-1.5
			c-0.2-0.7-0.3-1.7-0.3-3c0-0.9,0-1.6,0.1-2.1c0.1-0.5,0.2-0.9,0.3-1.3c0.1-0.3,0.3-0.5,0.5-0.6c0.2-0.1,0.4-0.2,0.7-0.2
			c0.3,0,0.8,0.2,1.5,0.6c0.6,0.4,1.4,0.8,2.4,1.2c1,0.4,2.1,0.9,3.3,1.3c1.3,0.4,2.7,0.6,4.3,0.6c1,0,1.9-0.1,2.7-0.3
			c0.8-0.2,1.5-0.5,2.1-0.9c0.6-0.4,1-0.9,1.3-1.5c0.3-0.6,0.4-1.3,0.4-2.1c0-0.9-0.3-1.7-0.8-2.3c-0.6-0.6-1.3-1.2-2.2-1.7
			c-0.9-0.5-1.9-0.9-3.1-1.4c-1.2-0.4-2.3-0.9-3.6-1.4c-1.2-0.5-2.4-1.1-3.6-1.7c-1.2-0.7-2.2-1.5-3.1-2.4c-0.9-1-1.6-2.1-2.2-3.5
			c-0.6-1.3-0.8-3-0.8-4.9c0-1.9,0.4-3.7,1.1-5.3c0.8-1.6,1.8-3,3.2-4.1c1.4-1.1,3.1-2,5.1-2.6c2-0.6,4.3-1,6.8-1
			c1.3,0,2.5,0.1,3.7,0.3c1.2,0.2,2.3,0.4,3.2,0.7c1,0.3,1.8,0.6,2.4,0.9c0.7,0.3,1.1,0.6,1.4,0.8c0.3,0.2,0.5,0.5,0.6,0.7
			c0.1,0.2,0.2,0.5,0.3,0.8c0.1,0.3,0.1,0.7,0.2,1.2c0,0.5,0.1,1,0.1,1.7c0,0.8,0,1.5-0.1,2c0,0.5-0.1,0.9-0.2,1.2
			c-0.1,0.3-0.2,0.5-0.4,0.6C50.4,22.9,50.2,23,50,23c-0.3,0-0.7-0.2-1.3-0.5c-0.6-0.3-1.3-0.6-2.1-1c-0.8-0.4-1.8-0.7-3-1
			c-1.1-0.3-2.4-0.5-3.8-0.5c-1,0-1.9,0.1-2.7,0.3c-0.8,0.2-1.4,0.5-1.8,0.9c-0.5,0.4-0.8,0.8-1.1,1.4c-0.2,0.5-0.3,1.1-0.3,1.7
			c0,0.9,0.3,1.7,0.9,2.3c0.6,0.6,1.3,1.2,2.2,1.7c0.9,0.5,2,0.9,3.2,1.4c1.2,0.4,2.4,0.9,3.6,1.4c1.2,0.5,2.4,1.1,3.6,1.7
			c1.2,0.7,2.2,1.5,3.2,2.4c0.9,1,1.7,2.1,2.2,3.4c0.6,1.3,0.9,2.9,0.9,4.7C53.6,45.6,53.1,47.6,52.3,49.4z"/>
		<path class="st0" d="M159.2-6h-57.4C95.3-6,89.9-0.6,89.9,5.9v57.4c0,6.5,5.4,11.9,11.9,11.9h57.4c6.5,0,11.9-5.4,11.9-11.9V5.9
			C171.1-0.6,165.8-6,159.2-6z M136.2,55.1c0,0.3-0.1,0.6-0.3,0.8c-0.2,0.2-0.5,0.4-0.9,0.5c-0.4,0.2-1,0.3-1.7,0.3
			c-0.7,0.1-1.6,0.1-2.8,0.1c-1.1,0-2,0-2.7-0.1c-0.7-0.1-1.3-0.2-1.7-0.3c-0.4-0.1-0.8-0.3-0.9-0.5c-0.2-0.2-0.3-0.5-0.3-0.8V20.3
			c0-0.3,0.1-0.6,0.3-0.8c0.2-0.2,0.5-0.4,0.9-0.6c0.4-0.2,1-0.3,1.7-0.4c0.7-0.1,1.6-0.1,2.7-0.1c1.1,0,2,0,2.8,0.1
			c0.7,0.1,1.3,0.2,1.7,0.4c0.4,0.2,0.7,0.4,0.9,0.6c0.2,0.2,0.3,0.5,0.3,0.8V55.1z M135.7,11.4c-0.9,0.9-2.7,1.3-5.2,1.3
			c-2.5,0-4.3-0.4-5.1-1.3c-0.9-0.8-1.3-2.4-1.3-4.5c0-2.3,0.5-3.9,1.4-4.7c0.9-0.9,2.6-1.3,5.2-1.3c2.5,0,4.2,0.4,5.1,1.3
			c0.9,0.9,1.4,2.4,1.4,4.6C137.1,8.9,136.6,10.5,135.7,11.4z"/>
	</g>
</g>
</svg>
