<?xml version="1.0" encoding="utf-8"?>
<!-- Generator: Adobe Illustrator 22.1.0, SVG Export Plug-In . SVG Version: 6.00 Build 0)  -->
<svg version="1.1" id="Layer_1" xmlns="http://www.w3.org/2000/svg" xmlns:xlink="http://www.w3.org/1999/xlink" x="0px" y="0px"
	 viewBox="0 0 512 70.7" style="enable-background:new 0 0 512 70.7;" xml:space="preserve">
<style type="text/css">
	.st0{fill:#FFFFFF;}
</style>
<path class="st0" d="M102.4,65.8c-7.2,0-13.8-0.8-19.6-6.6l7.5-7.5c3.8,3.8,8.7,4.3,12.3,4.3c4,0,8.1-1.3,8.1-4.8
	c0-2.3-1.2-3.9-4.9-4.2l-7.2-0.7c-8.3-0.8-13.4-4.4-13.4-12.9c0-9.5,8.4-14.7,17.8-14.7c7.2,0,13.2,1.2,17.6,5.4l-7.1,7.2
	c-2.7-2.4-6.7-3.1-10.7-3.1c-4.6,0-6.5,2.1-6.5,4.4c0,1.7,0.7,3.6,4.8,4l7.2,0.7c9.1,0.9,13.7,5.7,13.7,13.5
	C122,61,113.3,65.8,102.4,65.8z"/>
<path class="st0" d="M142,65.3c-9.4,0-13.3-6.6-13.3-13.2V29.3h-4.9v-8.7h4.9V7h11.5v13.6h8.1v8.7h-8.1v22.1c0,2.6,1.2,4.2,4,4.2
	h4.2v9.7L142,65.3L142,65.3z"/>
<path class="st0" d="M153.4,11.4V2h11.8v9.4H153.4z M153.6,65.3v-46h11.5v46H153.6z"/>
<path class="st0" d="M191,65.8c-9.2,0-20.6-4.9-20.6-23.6c0-18.6,11.4-23.5,20.6-23.5c6.4,0,11.1,1.9,15.2,6.2l-7.8,7.8
	c-2.4-2.6-4.4-3.6-7.4-3.6c-2.7,0-4.9,1-6.5,3c-1.8,2.2-2.6,5.3-2.6,10.2c0,4.9,0.8,8,2.6,10.3c1.7,2,3.8,3,6.5,3c3,0,5-1.1,7.4-3.6
	l7.8,7.7C202.1,63.8,197.4,65.8,191,65.8z"/>
<path class="st0" d="M237.9,65.3l-11.3-19.2l-4.9,5.5v13.7h-11.5V2.4h11.5v35.7L237,19.3h13.9l-16.4,18.6l17.7,27.5L237.9,65.3
	L237.9,65.3z"/>
<path class="st0" d="M261.7,45.8c0,5.9,3.6,10.2,10.1,10.2c5,0,7.5-1.4,10.4-4.3l7,6.8c-4.7,4.7-9.2,7.2-17.5,7.2
	c-10.9,0-21.3-4.9-21.3-23.6c0-15,8.1-23.5,20.1-23.5c12.8,0,20.1,9.4,20.1,22v5.1L261.7,45.8L261.7,45.8z M278.2,33
	c-1.2-2.7-3.8-4.8-7.7-4.8s-6.5,2-7.7,4.8c-0.7,1.7-1,2.9-1.1,4.9h17.5C279.1,35.9,278.9,34.7,278.2,33z"/>
<path class="st0" d="M321,31.8c-1.8-1.8-3.3-2.7-6.1-2.7c-3.5,0-7.4,2.7-7.4,8.5v27.7H296v-46h11.2v4.4c2.2-2.7,6.6-4.9,11.6-4.9
	c4.5,0,7.7,1.1,10.9,4.3L321,31.8z"/>
<path class="st0" d="M47.4,70.4c-0.7,0.3-1.6,0.2-2.5,0.3c-0.8,0-1.9,0-2.4-0.4c-0.3-0.2-0.3-0.7-0.3-1s0.1-0.8,0.1-1.1
	c0.1-0.4,0.2-1,0-1.3s-0.9-0.2-1.3-0.4s-0.5-0.8-0.6-1.4c0-0.2-0.2-0.4-0.2-0.5c-0.1-0.9,0.2-2.2,0.4-3.1c0.2-1,0.5-1.9,0.7-2.9
	c0.3-1.4,0.3-3,0.2-4.5c0-0.8-0.2-1.4,0-2c0.1-0.6,0.4-1.1,0.5-1.7c0-0.2,0-0.4,0-0.6c0-0.2,0.1-0.3,0.1-0.5c0-0.4-0.1-0.9-0.1-1.4
	c-0.1-1.3,0-3.2,0.1-4.3c0-0.4,0.2-0.8-0.1-1c-1.4,0-2.6,0.2-3.9,0.4c-3.4,0.4-7.8,0.5-11.1-0.2c-0.3-0.1-0.6-0.1-0.9-0.1
	c-2.4-0.5-4.5-1.6-6.2-2.9c-0.3-0.2-0.6-0.4-0.9-0.7c-0.3-0.2-0.6-0.5-0.9-0.7c-1.3-0.6-3.1,0.1-3.7,1c-0.2,0.3-0.4,0.8-0.6,1.2
	c-0.2,0.4-0.4,0.8-0.5,1.2c-0.9,2-1.9,4-2.8,6C10,49,9.4,50.3,9,51.6c-0.8,2.8-0.1,6.5,0.6,9.2c0.1,0.2,0.2,0.5,0.3,0.8
	c0.2,0.6,0.6,1.5,1.1,1.9c0.3,0.2,0.7,0.4,1,0.6c0.4,0.3,0.6,0.9,0.9,1.5c0.1,0.2,0.3,0.5,0.4,0.8c0.3,0.6,0.5,1.1-0.2,1.5
	c-0.5,0.3-1.3,0.3-2,0.4c-0.3,0.1-0.2,0.5-0.4,0.7c-0.1,0.1-0.6,0.3-0.8,0.4c-0.9,0.3-2.5,0.3-3.2,0c-0.4-0.1-0.8-0.4-0.9-0.7
	c-0.2-0.6,0.3-1.3-0.1-1.7c-0.2-0.2-0.6-0.2-0.9-0.3c-0.5-0.2-0.9-0.7-1.2-1.2c-0.5-1.4-0.2-3.5-0.3-5.2c0-0.5-0.1-1-0.1-1.6
	c0-1-0.3-2-0.4-3c-0.1-0.5-0.2-0.9-0.3-1.3c-0.2-0.7-0.3-1.5-0.5-2.2c-0.2-0.8-0.2-1.6,0-2.2c0.1-0.2,0.3-0.4,0.4-0.6
	c0.2-0.4,0.2-0.8,0.2-1.2C2.5,48,2,48.2,1.9,48c-0.3-2.2-0.6-4.3-0.8-6.6C1,40.6,1,39.9,1,39.1c-0.1-1.5,0-3.1-0.2-4.6
	c-0.1-0.7-0.2-1.4-0.3-2.1c-0.3-2-0.8-4.5-0.4-6.6c0.3-1.3,0.7-2.4,1.5-3.4c0.5-0.7,1.1-1.3,1.7-2c0.6-0.6,1.3-1.2,2-1.7
	c0.5-0.3,1-0.7,1.5-1c1.1-0.5,2.6-1,4.2-1.1s3.4-0.1,4.9,0.2c1.5,0.3,3,0.5,4.5,0.8c1.4,0.3,2.8,0.7,4.2,1c0.2,0,0.3,0.2,0.5,0.2
	c0.4,0.1,0.9,0.1,1.4,0.3c1.3,0.3,2.9,0.5,4.5,0.5c1.7,0,3.2,0,4.6-0.4c0.2-0.1,0.4-0.2,0.6-0.2c0.2-0.1,0.5-0.1,0.7-0.1
	c0.1,0,0.3-0.2,0.4-0.3c0.8-0.4,1.5-0.8,2.2-1.3c0.6-0.4,1-0.7,1.8-1c0.3-0.1,0.7-0.3,1-0.4c0.7-0.2,1.5-0.4,2-0.8
	c0.9-0.5,1.5-1.3,2.2-2c0.7-0.6,1.5-1.3,2.3-1.9c1.6-1.3,3.2-2.4,4.7-3.6C54.3,7,55.1,6.4,56,5.9c1.7-1,3.5-2.1,6-2.3
	c1-0.1,2-0.1,3,0c0.3,0,0.6,0.2,0.9,0.1c0.3-0.1,0.5-0.5,0.6-0.8c0.4-0.7,0.6-1.1,1-1.9c0.2-0.5,0.1-1,0.6-1s0.4,1.3,0.4,1.8
	c0,0.6-0.1,1.4,0,1.8c0.1,0.3,0.5,0.7,0.9,0.7c0.3,0,0.5-0.2,0.7-0.4c0.3-0.2,0.5-0.2,0.7-0.4c0.4-0.3,0.9-0.8,1.3-1.2
	C72.4,2,73,1.1,73.5,1.2c1,0.1,0,1.6-0.2,2c-0.5,1.1-1,2-1.6,3c-0.2,0.4-0.8,1-0.8,1.5c0,0.3,0.3,0.5,0.4,0.9
	c0.1,0.2,0.1,0.3,0.2,0.5c0.3,0.8,0.6,1.9,0.9,2.8c0.2,0.8,0.4,1.6,0.7,2.3c0.3,0.7,0.7,1.4,1,2.2c0.1,0.2,0.1,0.4,0.2,0.6
	c0.6,1.6,1.2,3.4,2,5c0.3,0.6,0.7,1.4,0.7,2.3c0,1-0.5,1.5-1,2.3c-0.2,0.4-0.6,1-1,1.1c-0.3,0.1-0.6,0-0.9,0c-0.4,0.1-0.7,0.3-1,0.3
	c-0.9,0.1-1.8-0.6-2-1.3c-0.1-0.2,0-0.5-0.1-0.8c-0.2-1.1-0.8-1.6-1.5-2.4C69,23,68.6,22.7,68,22.4c-0.9-0.5-1.8-0.7-2.8-1.2
	c-0.3-0.2-0.8-0.4-1.1-0.3c-0.5,0.1-1,0.9-1.4,1.4c-2.4,3.2-4.6,6.5-6.9,9.6c-1.6,2.1-3.2,4.2-4.5,6.5c-0.3,0.6-0.5,1.3-0.8,2
	c-0.2,0.7-0.4,1.4-0.6,2.2c-0.9,2.6-1.2,5.8-2,8.5c-0.1,0.3-0.1,0.6-0.2,0.9c-0.4,1.4-0.8,3-1.2,4.5c-0.3,1.1-0.4,2.6-0.5,4
	c0,1.4-0.1,3.3,0.4,4.1c0.3,0.5,1.2,0.6,1.5,1.1c0.2,0.3,0.4,1,0.7,1.4c0.2,0.3,0.7,0.9,0.6,1.4c0,0.3-0.3,0.6-0.6,0.7
	c-0.3,0.1-0.7,0.1-1,0.2C47.6,69.8,47.7,70.2,47.4,70.4z"/>
<path class="st0" d="M381.3,18.7c-5.7,0-9.9,1.8-13.8,5.8c-2.9-4-7.1-5.8-12.2-5.8c-4.2,0-8.5,1.7-11.5,4.8v-4.2h-11.2v46h11.5V37.5
	c0-6.3,4.1-8.4,7.7-8.4s7.6,2.1,7.6,8.4v27.8h11.5V37.2c0-6,4.2-8.1,7.7-8.1c3.6,0,7.6,2.1,7.6,8.4v27.8h11.5V35.9
	c0-5-1.3-9.4-5-13.1C390,20.2,385.9,18.7,381.3,18.7z"/>
<path class="st0" d="M431.2,47.1c0,6.3-4.1,8.4-7.7,8.4s-7.6-2.1-7.6-8.4V19.2h-11.5v29.5c0,5,1,9.4,4.7,13.1
	c2.6,2.6,6.3,4.1,10.9,4.1c4.2,0,8.5-1.6,11.5-4.8v4.2h11.2v-46h-11.5V47.1z"/>
<path class="st0" d="M461.5,51.4v-49H450v49.7c0,6.5,4,13.2,13.4,13.2h6.5v-9.7h-4.4C462.6,55.6,461.5,54.2,461.5,51.4z"/>
<path class="st0" d="M512.1,40.7c0-12.6-7.2-22-20.1-22c-11.9,0-20.1,8.5-20.1,23.5c0,18.6,10.4,23.6,21.3,23.6
	c8.3,0,12.8-2.6,17.5-7.2l-7-6.8c-2.9,2.9-5.4,4.3-10.4,4.3c-6.5,0-10.1-4.3-10.1-10.2H512L512.1,40.7L512.1,40.7z M483.3,38
	c0.1-2,0.4-3.3,1.1-4.9c1.2-2.7,3.8-4.8,7.7-4.8s6.4,2,7.7,4.8c0.7,1.7,1,2.9,1.1,4.9H483.3z"/>
</svg>
