<?xml version="1.0" encoding="UTF-8"?>
<svg width="268px" height="230px" viewBox="0 0 268 230" version="1.1" xmlns="http://www.w3.org/2000/svg" xmlns:xlink="http://www.w3.org/1999/xlink">
    <!-- Generator: Sketch 52.2 (67145) - http://www.bohemiancoding.com/sketch -->
    <title>Vineti_vertical</title>
    <desc>Created with Sketch.</desc>
    <g id="Page-1" stroke="none" stroke-width="1" fill="none" fill-rule="evenodd">
        <g id="Vineti_vertical" fill="#FFFFFF">
            <path d="M200.741,51.6793 C193.257,16.488 158.621,-6.04591 123.4093,1.43343 C88.1976,8.91277 65.65057,43.5287 73.13426,78.7199 C80.61795,113.911 115.254,136.445 150.4657,128.966 C185.677,121.486 208.129,86.8705 200.741,51.6793 Z M124.3685,6.4196 C144.9007,2.1046 165.241,8.81683 179.153,22.529 C178.865,22.6248 178.673,22.7207 178.385,22.8166 C177.234,23.4878 176.371,24.5426 176.083,25.6933 C159.1965,29.433 144.8048,38.8301 134.2508,51.7751 C119.1875,44.0081 102.0134,41.1314 84.7434,44.5834 C83.688,43.6245 82.3447,43.1451 80.90557,43.241 C88.0055,25.118 103.8364,10.7346 124.3685,6.4196 Z M78.02681,77.666 C76.20386,68.9401 76.39575,60.2142 78.2187,52.0636 C79.75381,53.3102 81.8646,53.5978 83.6875,52.543 C84.8389,51.8718 85.7024,50.817 86.0862,49.6664 C101.7252,46.5979 117.3642,49.091 131.0842,55.8992 C118.7074,73.0633 112.6629,95.5013 115.4453,118.802 C114.8696,119.378 114.4858,120.145 114.2939,120.912 C96.4482,113.624 82.3443,97.8985 78.02681,77.666 Z M149.3132,123.979 C140.5823,125.801 131.9472,125.609 123.696,123.788 C124.1757,122.541 124.0798,121.103 123.4082,119.76 C122.6406,118.418 121.3933,117.555 120.0501,117.363 C117.6515,95.4044 123.696,74.3088 135.4972,58.1995 C152.9591,68.2678 166.8711,85.4319 173.491,106.719 C172.436,108.254 172.244,110.267 173.203,111.993 C173.299,112.185 173.491,112.473 173.683,112.664 C166.6792,118.034 158.5239,122.062 149.3132,123.979 Z M180.879,106.048 C180.016,105.281 178.96,104.801 177.809,104.706 C170.9008,82.6511 156.5091,65.0075 138.6634,54.2679 C148.5457,42.5695 161.7861,34.1312 177.329,30.6792 C178.864,32.1176 181.167,32.5011 183.086,31.4463 C183.949,30.9669 184.621,30.2957 185.101,29.4327 C190.09,36.1449 193.736,44.0078 195.655,52.6378 C199.876,72.5827 193.736,92.24 180.879,106.048 Z" id="path0_fill" fill-rule="nonzero"></path>
            <path d="M129.44664,39.2135 C134.5866,39.2135 138.7533,35.0492 138.7533,29.91223 C138.7533,24.7753 134.5866,20.611 129.44664,20.611 C124.30672,20.611 120.14,24.7753 120.14,29.91223 C120.14,35.0492 124.30672,39.2135 129.44664,39.2135 Z" id="path1_fill"></path>
            <path d="M39.9576,228.73 L23.8473,228.73 L0,157.84987 C0.777247,157.56734 1.90779,157.32013 3.39162,157.10823 C4.87546,156.89633 6.35929,156.79038 7.84313,156.79038 C10.3868,156.79038 12.4713,157.42608 14.0964,158.69747 C15.7216,159.96886 16.9581,161.94658 17.806,164.6306 L32.3264,212.8376 L47.1647,164.3128 C48.0127,161.69937 49.2139,159.79228 50.7683,158.59152 C52.3228,157.39076 54.3719,156.79038 56.9157,156.79038 C58.9648,156.79038 61.3672,157.14355 64.1229,157.84987 L39.9576,228.73 Z" id="path2_fill"></path>
            <path d="M85.9763,228.836 C85.4817,229.1185 83.7859,229.2598 80.8889,229.2598 C77.5679,229.2598 75.1655,228.5534 73.6817,227.1408 C72.2685,225.7281 71.5619,223.5032 71.5619,220.466 L71.5619,178.0862 C71.7739,178.0156 72.4098,177.9449 73.4697,177.8743 C74.5296,177.733 75.5188,177.6624 76.4374,177.6624 C82.7967,177.6624 85.9763,180.4524 85.9763,186.0324 L85.9763,228.836 Z M86.0823,161.1343 C86.0823,163.32393 85.3404,165.1604 83.8565,166.6437 C82.3727,168.0563 80.5356,168.7627 78.3452,168.7627 C76.0841,168.7627 74.2116,168.0563 72.7278,166.6437 C71.3146,165.1604 70.608,163.32393 70.608,161.1343 C70.608,158.94468 71.3146,157.10823 72.7278,155.62494 C74.2116,154.141644 76.0841,153.4 78.3452,153.4 C80.5356,153.4 82.3727,154.141644 83.8565,155.62494 C85.3404,157.10823 86.0823,158.94468 86.0823,161.1343 Z" id="path3_fill" fill-rule="nonzero"></path>
            <path d="M114.028,228.2003 L99.508,228.2003 L99.508,178.0862 L100.78,177.8743 C101.91,177.733 103.076,177.6624 104.277,177.6624 C109.506,177.6624 112.509,179.4989 113.286,183.1718 C116.537,178.7925 121.73,176.6029 128.867,176.6029 C133.389,176.6029 136.957,177.4858 139.572,179.2517 C142.186,181.0175 143.882,183.7368 144.659,187.4098 C145.224,189.8819 145.507,193.5195 145.507,198.3225 L145.507,228.2003 L131.093,228.2003 L131.093,198.9582 C131.093,195.6385 130.845,193.3076 130.351,191.9656 C129.927,190.6236 129.149,189.67 128.019,189.1049 C126.959,188.4692 125.475,188.1514 123.567,188.1514 C120.882,188.1514 118.621,188.7165 116.784,189.8466 C114.947,190.9061 114.028,192.2481 114.028,193.8727 L114.028,228.2003 Z" id="path4_fill"></path>
            <path d="M185.096,219.1946 C187.428,219.1946 189.406,218.8767 191.031,218.241 C192.727,217.6053 194.14,216.8637 195.271,216.0161 C196.401,215.0979 197.391,214.2503 198.239,213.4733 C199.298,214.8153 200.217,216.2986 200.994,217.9232 C201.842,219.4771 202.266,220.7132 202.266,221.6314 C202.266,223.1853 201.383,224.598 199.616,225.8694 C197.921,227.1408 195.659,228.1296 192.833,228.836 C190.007,229.6129 186.968,230.0014 183.718,230.0014 C175.098,230.0014 168.456,227.6352 163.792,222.9028 C159.2,218.1704 156.903,211.2837 156.903,202.2427 C156.903,196.8746 157.928,192.2834 159.977,188.4692 C162.097,184.6551 164.994,181.7238 168.668,179.6754 C172.413,177.6271 176.582,176.6029 181.174,176.6029 C188.099,176.6029 193.434,178.616 197.179,182.642 C200.994,186.5975 202.902,192.0715 202.902,199.0642 C202.902,202.4546 202.796,204.6442 202.584,205.633 L171.424,205.633 C171.706,210.0123 173.013,213.3674 175.345,215.6982 C177.677,218.0291 180.927,219.1946 185.096,219.1946 Z M189.865,197.6868 C189.865,190.0585 186.862,186.2443 180.856,186.2443 C177.889,186.2443 175.557,187.2685 173.861,189.3168 C172.165,191.3652 171.318,194.1552 171.318,197.6868 L189.865,197.6868 Z" id="path5_fill" fill-rule="nonzero"></path>
            <path d="M214.208,220.5719 C213.431,218.241 213.042,215.2038 213.042,211.4603 L213.042,162.29975 L214.632,162.08785 C215.904,161.94658 216.999,161.87595 217.918,161.87595 C224.277,161.87595 227.456,164.7013 227.456,170.3519 L227.456,177.7684 L242.295,177.7684 L242.295,188.5752 L227.456,188.5752 L227.456,211.2484 C227.456,216.1927 229.47,218.6648 233.498,218.6648 C234.911,218.6648 236.36,218.3117 237.843,217.6053 C239.327,216.899 240.599,216.0161 241.659,214.9566 C242.931,216.7931 243.779,218.241 244.203,219.3005 C244.697,220.36 244.945,221.3136 244.945,222.1612 C244.945,223.5032 244.203,224.7746 242.719,225.9753 C241.235,227.1761 239.327,228.0943 236.995,228.73 C234.734,229.4363 232.261,229.7895 229.576,229.7895 C221.592,229.7895 216.469,226.717 214.208,220.5719 Z" id="path6_fill"></path>
            <path d="M267.73,228.836 C267.235,229.1185 265.539,229.2598 262.642,229.2598 C259.321,229.2598 256.919,228.5534 255.435,227.1408 C254.022,225.7281 253.315,223.5032 253.315,220.466 L253.315,178.0862 C253.527,178.0156 254.163,177.9449 255.223,177.8743 C256.283,177.733 257.272,177.6624 258.191,177.6624 C264.55,177.6624 267.73,180.4524 267.73,186.0324 L267.73,228.836 Z M267.836,161.1343 C267.836,163.32393 267.094,165.1604 265.61,166.6437 C264.126,168.0563 262.289,168.7627 260.098,168.7627 C257.837,168.7627 255.965,168.0563 254.481,166.6437 C253.068,165.1604 252.361,163.32393 252.361,161.1343 C252.361,158.94468 253.068,157.10823 254.481,155.62494 C255.965,154.141644 257.837,153.4 260.098,153.4 C262.289,153.4 264.126,154.141644 265.61,155.62494 C267.094,157.10823 267.836,158.94468 267.836,161.1343 Z" id="path7_fill" fill-rule="nonzero"></path>
        </g>
    </g>
</svg>