<?xml version="1.0" encoding="utf-8"?>
<!-- Generator: Adobe Illustrator 22.1.0, SVG Export Plug-In . SVG Version: 6.00 Build 0)  -->
<svg version="1.1" id="Layer_1" xmlns="http://www.w3.org/2000/svg" xmlns:xlink="http://www.w3.org/1999/xlink" x="0px" y="0px"
	 viewBox="0 0 622.4 110.2" style="enable-background:new 0 0 622.4 110.2;" xml:space="preserve">
<style type="text/css">
	.st0{fill:#FFFFFF;}
</style>
<g id="Layer_2_1_">
	<g id="Artwork">
		<path class="st0" d="M64.6,108.8l-10-39.2l-10,39.2H23.7L0,32.3h20.5l13.6,51.6l11.7-51.6h17.5L75,83.8l13.7-51.6h20.5l-23.6,76.6
			H64.6z"/>
		<path class="st0" d="M145.4,30.8c21-0.1,31.6,12.6,31.6,31.2v17.2c0,14.7-7.9,31-31.6,31s-32-16.1-32-31V62
			C113.4,43,124,30.8,145.4,30.8L145.4,30.8z M132.9,62v17.2c0,8.2,3.4,15.1,12.4,15.1s12-6.9,12-15.1V62c0-9.8-4-15.4-12-15.4
			C136.6,46.6,132.9,51.5,132.9,62z"/>
		<path class="st0" d="M225.1,31c2.6,0,5.2,0.2,7.7,0.8l-0.2,15.8c-5-1.1-9-1.5-12-0.8c-7.3,0.8-11.1,5.8-11.1,15.4v46.6h-19.6V31.1
			h14.9l0.8,8.5C210.7,33,216.8,31,225.1,31z"/>
		<path class="st0" d="M284.4,31.2h23.1L280,63.8l32.7,45h-21.8l-22.1-31.6l-6.9,7v24.6h-19.6V1.8H262v55.5L284.4,31.2z"/>
		<path class="st0" d="M349.9,0c3.1-0.1,6.2,0.2,9.3,0.8v15.6c-2.7-0.5-5.4-0.6-8.1-0.2c-5.9,0.8-9,5-9,13.1v3h16v14.8h-16v61.8
			h-19.6V26.5C322.4,6.7,336.6,0.2,349.9,0z"/>
		<path class="st0" d="M404.8,31c2.6,0,5.2,0.2,7.7,0.8l-0.2,15.8c-5-1.1-9-1.5-12-0.8c-7.3,0.8-11.1,5.8-11.1,15.4v46.6h-19.6V31.1
			h15l0.8,8.5C390.5,33,396.6,31,404.8,31z"/>
		<path class="st0" d="M451.9,30.8c21-0.1,31.6,12.6,31.6,31.2v17.2c0,14.7-7.9,31-31.6,31s-32-16.1-32-31V62
			C419.9,43,430.6,30.8,451.9,30.8L451.9,30.8z M439.5,62v17.2c0,8.2,3.4,15.1,12.4,15.1s12-6.9,12-15.1V62c0-9.8-4-15.4-12-15.4
			C443.1,46.6,439.5,51.5,439.5,62z"/>
		<path class="st0" d="M530.9,31.1c14.5-0.1,28.8,7.8,28.8,27.2v50.5h-19.6V59.7c0-9.3-3.3-13.6-12.2-13.6c-4.1,0-8.2,0.7-12.1,2.2
			v60.5h-19.6V32.2h15l0.5,4C517.6,32.9,524.2,31.1,530.9,31.1L530.9,31.1z"/>
		<path class="st0" d="M609.4,32.2V48h-16v30.4c0,8.2,2,13.7,8.8,15.6c3.2,0.8,6.6,0.9,9.8,0.4v15.5c-3.7,0.6-7.5,0.7-11.2,0.3
			c-13.8-1.4-27-8.9-27-28.3V13.7h19.6v18.6H609.4z"/>
		<path class="st0" d="M616.5,24.2c-3.2,0-5.9-2.6-5.9-5.9c0-3.2,2.6-5.9,5.9-5.9c3.2,0,5.9,2.6,5.9,5.9
			C622.4,21.5,619.7,24.2,616.5,24.2z M616.5,13.2c-2.8,0-5.1,2.3-5.1,5.1s2.3,5.1,5.1,5.1c2.8,0,5.1-2.3,5.1-5.1c0,0,0,0,0,0
			C621.5,15.4,619.3,13.2,616.5,13.2L616.5,13.2z M618.1,21.6l-1.7-2.6h-1.2v2.7h-0.9v-6.8h2.8c1.1,0,2.1,0.9,2.1,2c0,0,0,0.1,0,0.1
			c0,1-0.7,1.9-1.7,2l1.8,2.7L618.1,21.6z M617,15.6h-1.8v2.5h1.9c0.7,0,1.2-0.6,1.2-1.2S617.7,15.6,617,15.6L617,15.6z"/>
	</g>
</g>
</svg>
